<?xml version="1.0" standalone="no"?>
<!DOCTYPE svg PUBLIC "-//W3C//DTD SVG 1.1//EN" "http://www.w3.org/Graphics/SVG/1.1/DTD/svg11.dtd" >
<svg xmlns="http://www.w3.org/2000/svg" xmlns:xlink="http://www.w3.org/1999/xlink" version="1.1">
<metadata>
Created by FontForge 20190801 at Wed Jan 25 19:55:57 2017
 By root
Copyright (c) 2016 by FontfabricLLC. All rights reserved.
</metadata>
<defs>
<font id="UniNeueBook" horiz-adv-x="536" >
  <font-face 
    font-family="Uni Neue Book"
    font-weight="400"
    font-stretch="normal"
    units-per-em="1000"
    panose-1="0 0 0 0 0 0 0 0 0 0"
    ascent="750"
    descent="-250"
    x-height="515"
    cap-height="715"
    bbox="-212 -235 1040 957"
    underline-thickness="50"
    underline-position="-225"
    unicode-range="U+0020-25CA"
  />
<missing-glyph horiz-adv-x="232" 
 />
    <glyph glyph-name=".notdef" horiz-adv-x="232" 
 />
    <glyph glyph-name=".null" horiz-adv-x="0" 
 />
    <glyph glyph-name="nonmarkingreturn" horiz-adv-x="333" 
 />
    <glyph glyph-name="space" unicode=" " horiz-adv-x="232" 
 />
    <glyph glyph-name="exclam" unicode="!" horiz-adv-x="228" 
d="M131 160h-33q-9 0 -9 8l-3 373v166q0 8 9 8h39q8 0 8 -8v-166l-3 -373q0 -8 -8 -8zM154 35q0 -17 -11.5 -28.5t-28.5 -11.5t-28 11.5t-11 28.5t11 28.5t28 11.5t28.5 -11.5t11.5 -28.5z" />
    <glyph glyph-name="quotedbl" unicode="&#x22;" horiz-adv-x="290" 
d="M126 706l-22 -186q0 -8 -9 -8h-26q-8 0 -8 9l11 186q0 8 9 8h38q7 0 7 -9zM238 706l-22 -186q0 -8 -10 -8h-25q-8 0 -8 9l11 186q0 8 9 8h37q8 0 8 -9z" />
    <glyph glyph-name="numbersign" unicode="#" horiz-adv-x="708" 
d="M158 0h-31q-9 0 -7 10l59 207h-138q-10 0 -8 10l8 26q3 8 9 8h141l54 195h-138q-10 0 -7 10l7 26q3 7 9 7h141l60 209q2 7 8 7h32q9 0 7 -10l-59 -206h178l59 209q4 7 9 7h31q10 0 7 -10l-58 -206h136q10 0 7 -10l-8 -26q-2 -7 -9 -7h-138l-54 -195h136q10 0 7 -10
l-8 -27q-4 -7 -9 -7h-138l-60 -210q-3 -7 -9 -7h-31q-10 0 -7 10l59 207h-178l-60 -210q-2 -7 -9 -7zM293 456l-54 -195h178l54 195h-178z" />
    <glyph glyph-name="dollar" unicode="$" horiz-adv-x="577" 
d="M292 388q31 -7 49.5 -12t47 -15t46 -19.5t38 -25t32 -33.5t19.5 -43.5t8 -55.5q0 -88 -59.5 -138t-158.5 -56v-79q0 -9 -8 -9h-30q-8 0 -8 9v79q-111 6 -214 97q-6 5 -1 12l20 27q5 7 12 2q103 -87 207 -88q82 0 134.5 37.5t52.5 106.5q0 26 -7 47t-25 36.5t-31.5 25.5
t-45 19.5t-45 13t-49.5 12.5q-50 12 -84.5 24.5t-69.5 35t-52.5 57.5t-17.5 82q0 86 60 134t156 54v73q0 9 8 9h30q8 0 8 -9v-73q100 -7 197 -82q7 -5 2 -11l-20 -28q-5 -6 -12 -2q-92 72 -196 73q-80 0 -130 -37t-50 -102t46 -95.5t141 -52.5z" />
    <glyph glyph-name="percent" unicode="%" horiz-adv-x="753" 
d="M300 467q0 -53 -36 -85t-88 -32t-87.5 32t-35.5 85v133q0 55 35 87t88 32q54 0 89 -32t35 -87v-133zM138 0h-32q-4 0 -6 3t0 7l489 693q3 5 10 5h32q12 0 6 -10l-489 -693q-2 -5 -10 -5zM94 469q0 -36 23.5 -58t58.5 -22q36 0 59.5 22t23.5 58v128q0 38 -23 61t-60 23
q-36 0 -59 -23t-23 -61v-128zM701 108q0 -53 -35.5 -85t-87.5 -32t-87.5 32t-35.5 85v133q0 55 35 87t88 32q54 0 88.5 -32t34.5 -87v-133zM496 110q0 -36 23 -58t59 -22t59.5 22t23.5 58v128q0 38 -23.5 61t-59.5 23t-59 -23t-23 -61v-128z" />
    <glyph glyph-name="ampersand" unicode="&#x26;" horiz-adv-x="593" 
d="M438 88q-82 -99 -190 -99q-89 0 -146 51.5t-57 138.5q0 123 145 209q-87 109 -87 186q0 67 46 109.5t122 42.5q74 0 118 -41.5t44 -107.5q0 -59 -41 -106.5t-127 -96.5q42 -52 170 -202q23 41 47 105q3 8 10 4l30 -12q8 -4 6 -12q-25 -72 -59 -127l102 -120q8 -10 -5 -10
h-46q-6 0 -10 5zM98 179q0 -64 42.5 -102t110.5 -38q91 0 155 89q-113 131 -184 220q-124 -70 -124 -169zM154 573q0 -62 80 -160q77 43 112.5 81.5t35.5 82.5q0 46 -29.5 73.5t-82.5 27.5q-55 0 -85.5 -29t-30.5 -76z" />
    <glyph glyph-name="quotesingle" unicode="'" horiz-adv-x="178" 
d="M126 706l-22 -186q0 -8 -9 -8h-26q-8 0 -8 9l11 186q0 8 9 8h37q8 0 8 -9z" />
    <glyph glyph-name="parenleft" unicode="(" horiz-adv-x="266" 
d="M237 -117h-37q-8 0 -11 6q-136 226 -136 467t136 466q3 6 11 6h37q12 0 6 -10q-138 -219 -138 -462t138 -462q5 -11 -6 -11z" />
    <glyph glyph-name="parenright" unicode=")" horiz-adv-x="266" 
d="M66 -117h-37q-11 0 -6 11q138 219 138 462t-138 462q-6 10 6 10h37q8 0 11 -6q136 -225 136 -466t-136 -467q-3 -6 -11 -6z" />
    <glyph glyph-name="asterisk" unicode="*" horiz-adv-x="458" 
d="M135 374l-26 18q-7 5 -2 12l83 115l-134 43q-9 4 -6 11l9 30q4 9 11 6l135 -44v142q0 8 9 8h31q8 0 8 -8v-142l135 43q8 3 11 -5l10 -29q2 -8 -6 -11l-135 -43l83 -115q5 -5 -1 -12l-25 -19q-6 -6 -12 2l-84 114l-83 -114q-4 -5 -11 -2z" />
    <glyph glyph-name="plus" unicode="+" horiz-adv-x="561" 
d="M306 359h182q8 0 8 -9v-33q0 -9 -8 -9h-182v-183q0 -9 -8 -9h-35q-8 0 -8 9v183h-182q-8 0 -8 9v33q0 9 8 9h182v182q0 9 8 9h35q8 0 8 -9v-182z" />
    <glyph glyph-name="comma" unicode="," horiz-adv-x="190" 
d="M129 75l-58 -180q-1 -6 -9 -6h-30q-10 0 -7 9l48 180q2 7 9 7h40q10 0 7 -10z" />
    <glyph glyph-name="hyphen" unicode="-" horiz-adv-x="408" 
d="M328 280h-248q-9 0 -9 8v33q0 8 9 8h248q9 0 9 -8v-33q0 -8 -9 -8z" />
    <glyph glyph-name="period" unicode="." horiz-adv-x="189" 
d="M133 36q0 -17 -11 -28t-28 -11t-27.5 11t-10.5 28t10.5 28t27.5 11t28 -11t11 -28z" />
    <glyph glyph-name="slash" unicode="/" horiz-adv-x="403" 
d="M377 705l-297 -698q-1 -7 -9 -7h-38q-10 0 -6 10l298 698q3 7 10 7h37q9 0 5 -10z" />
    <glyph glyph-name="zero" unicode="0" horiz-adv-x="609" 
d="M538 219q0 -109 -65.5 -169.5t-167.5 -60.5q-103 0 -168.5 60.5t-65.5 169.5v276q0 110 65.5 170.5t168.5 60.5q102 0 167.5 -60.5t65.5 -170.5v-276zM124 218q0 -86 50 -131.5t131 -45.5q80 0 129.5 45.5t49.5 131.5v275q0 89 -49 135t-130 46q-82 0 -131.5 -46
t-49.5 -135v-275z" />
    <glyph glyph-name="one" unicode="1" horiz-adv-x="337" 
d="M235 0h-37q-8 0 -8 8v642l-139 -89q-7 -5 -11 2l-18 28q-4 7 3 12l167 108q5 4 13 4h30q8 0 8 -8v-699q0 -8 -8 -8z" />
    <glyph glyph-name="two" unicode="2" horiz-adv-x="547" 
d="M492 0h-442q-9 0 -9 8v25q0 6 4 10l176 185q57 61 85.5 93t61 75t45.5 77t13 68q0 55 -37 94.5t-111 39.5q-105 0 -189 -95q-5 -7 -12 0l-20 27q-4 5 0 12q94 107 221 107q93 0 147.5 -52t54.5 -132q0 -74 -48 -144.5t-164 -196.5q-77 -82 -144 -151h368q8 0 8 -9v-33
q0 -8 -8 -8z" />
    <glyph glyph-name="three" unicode="3" horiz-adv-x="561" 
d="M507 215q0 -102 -64.5 -163.5t-170.5 -61.5q-75 0 -128.5 26.5t-101.5 77.5q-6 6 0 12l22 23q7 6 12 -2q44 -43 88 -65t108 -22q83 0 132 47t49 128q0 80 -49 125t-140 45q-34 0 -59 -4q-7 -2 -9 5l-8 16q-3 5 2 12l155 169q74 77 79 82h-344q-9 0 -9 9v33q0 8 9 8h408
q8 0 8 -8v-23q0 -5 -4 -11l-229 -248h13q106 1 168.5 -56t62.5 -154z" />
    <glyph glyph-name="four" unicode="4" horiz-adv-x="543" 
d="M422 0h-37q-8 0 -8 8v176h-340q-8 0 -8 8v25q0 7 3 11l273 481q5 6 10 6h43q11 0 6 -10l-269 -472h282v166q0 8 8 8h37q8 0 8 -8v-166h73q9 0 9 -8v-33q0 -8 -9 -8h-73v-176q0 -8 -8 -8z" />
    <glyph glyph-name="five" unicode="5" horiz-adv-x="570" 
d="M520 235q0 -111 -63.5 -177.5t-170.5 -66.5q-132 0 -223 102q-4 7 1 12l24 25q6 6 12 -1q79 -87 187 -87q84 0 131.5 51.5t47.5 140.5q0 91 -46 135t-128 44q-98 0 -167 -67q-6 -6 -11 -3l-33 12q-7 2 -7 9l13 343q0 8 8 8h382q9 0 9 -8v-34q0 -8 -9 -8h-339l-9 -261
q72 60 167 60q102 0 163 -58.5t61 -170.5z" />
    <glyph glyph-name="six" unicode="6" horiz-adv-x="581" 
d="M125 354q25 46 74 71t106 25q104 0 164 -59t60 -168q0 -106 -63 -170t-165 -64q-103 0 -166.5 62.5t-63.5 166.5v282q0 105 66 165.5t162 60.5q114 0 199 -75q6 -6 1 -12l-19 -26q-6 -6 -13 -2q-71 64 -168 64q-75 0 -124.5 -46.5t-49.5 -126.5v-148zM125 218
q0 -83 47.5 -130.5t128.5 -47.5t127.5 48.5t46.5 133.5q0 87 -44.5 132.5t-127.5 45.5q-72 0 -125 -43t-53 -125v-14z" />
    <glyph glyph-name="seven" unicode="7" horiz-adv-x="510" 
d="M153 0h-43q-11 0 -6 10l316 653h-386q-8 0 -8 9v35q0 8 8 8h446q8 0 8 -8v-21q0 -7 -2 -10l-323 -670q-3 -6 -10 -6z" />
    <glyph glyph-name="eight" unicode="8" horiz-adv-x="602" 
d="M543 201q0 -96 -65.5 -154t-176.5 -58t-176.5 58t-65.5 154q0 61 36 109.5t102 66.5q-59 19 -88.5 62.5t-29.5 101.5q0 80 60.5 132.5t161.5 52.5t162 -52.5t61 -132.5q0 -58 -29.5 -101.5t-88.5 -62.5q65 -18 101 -66.5t36 -109.5zM113 202q0 -71 49.5 -116.5
t138.5 -45.5t139 45.5t50 116.5q0 65 -51.5 106.5t-137.5 41.5t-137 -41.5t-51 -106.5zM132 540q0 -63 43.5 -102.5t125.5 -39.5t125.5 39.5t43.5 102.5t-45.5 99t-123.5 36q-77 0 -123 -36t-46 -99z" />
    <glyph glyph-name="nine" unicode="9" horiz-adv-x="582" 
d="M53 492q0 106 63 170t165 64q103 0 166.5 -62t63.5 -166v-283q0 -105 -66 -165.5t-162 -60.5q-117 0 -203 98q-4 6 0 12l20 26q5 8 12 1q74 -86 171 -86q74 0 124 47t50 126v146q-25 -46 -74 -70t-106 -24q-105 0 -164.5 58.5t-59.5 168.5zM107 493q0 -87 44.5 -132.5
t128.5 -45.5q71 0 124 43t53 123v17q0 83 -48 130t-129 47q-80 0 -126.5 -48.5t-46.5 -133.5z" />
    <glyph glyph-name="colon" unicode=":" horiz-adv-x="217" 
d="M147 472q0 -17 -10.5 -28t-27.5 -11t-28 11t-11 28q0 18 11 28.5t28 10.5t27.5 -10.5t10.5 -28.5zM147 36q0 -18 -10.5 -28.5t-27.5 -10.5t-28 10.5t-11 28.5q0 17 11 28t28 11t27.5 -11t10.5 -28z" />
    <glyph glyph-name="semicolon" unicode=";" horiz-adv-x="240" 
d="M87 -111h-29q-10 0 -8 9l48 184q3 7 9 7h41q10 0 7 -10l-58 -183q-3 -7 -10 -7zM166 472q0 -17 -11 -28t-28 -11t-28 11t-11 28t11 28t28 11t28 -11t11 -28z" />
    <glyph glyph-name="less" unicode="&#x3c;" horiz-adv-x="561" 
d="M483 150v-40q0 -5 -3 -7t-7 1l-415 200q-6 3 -6 10v31q0 5 6 10l415 200q4 2 7 0.5t3 -6.5v-40q0 -9 -6 -10l-361 -170l361 -169q6 -3 6 -10z" />
    <glyph glyph-name="equal" unicode="=" horiz-adv-x="561" 
d="M488 397h-415q-8 0 -8 9v33q0 9 8 9h415q8 0 8 -9v-33q0 -9 -8 -9zM488 217h-415q-8 0 -8 9v33q0 9 8 9h415q8 0 8 -9v-33q0 -9 -8 -9z" />
    <glyph glyph-name="greater" unicode="&#x3e;" horiz-adv-x="561" 
d="M503 304l-415 -200q-4 -3 -7 -1t-3 7v40q0 7 6 10l361 169l-361 170q-6 1 -6 10v40q0 5 3 6.5t7 -0.5l415 -200q6 -5 6 -10v-31q0 -7 -6 -10z" />
    <glyph glyph-name="question" unicode="?" horiz-adv-x="459" 
d="M227 160h-36q-8 0 -8 8v64q0 42 19 75t45.5 55t53.5 44t46 53.5t19 72.5q0 62 -36.5 104t-110.5 42q-89 0 -159 -72q-6 -8 -11 1l-20 26q-3 7 2 12q75 81 189 81q90 0 144 -53t54 -141q0 -41 -13.5 -73.5t-33.5 -52.5t-44 -40.5t-44 -38t-33.5 -44.5t-13.5 -60v-55
q0 -8 -9 -8zM248 36q0 -17 -11 -28t-28 -11t-27.5 11t-10.5 28t10.5 28t27.5 11t28 -11t11 -28z" />
    <glyph glyph-name="at" unicode="@" horiz-adv-x="936" 
d="M654 -60q-41 -23 -106 -37t-125 -14q-174 0 -267 100t-93 272v109q0 175 95.5 265.5t301.5 90.5q256 0 402 -173q3 -5 3 -11v-295q0 -82 -34.5 -124.5t-98.5 -42.5q-41 0 -73.5 20t-47.5 56q-19 -37 -57 -57.5t-88 -20.5q-77 0 -129.5 52t-52.5 132v82q0 80 48.5 128.5
t130.5 48.5q100 0 172 -32q6 -3 6 -9v-252q0 -49 26.5 -77t67.5 -28q84 1 84 119v294q-140 147 -358 147q-181 0 -266 -78t-85 -235v-109q0 -156 82 -242t234 -86q126 0 214 48q9 3 11 -5l7 -26q2 -7 -4 -10zM332 263q0 -65 38.5 -103t95.5 -38q50 0 86 26t41 66v243
q-47 20 -129 20q-61 0 -96.5 -36t-35.5 -97v-81z" />
    <glyph glyph-name="A" unicode="A" horiz-adv-x="602" 
d="M59 0h-42q-9 0 -6 10l256 698q3 7 9 7h50q6 0 9 -7l257 -698q2 -10 -7 -10h-41q-6 0 -10 7l-73 202h-320l-73 -202q-4 -7 -9 -7zM300 651l-142 -391h286l-141 391h-3z" />
    <glyph glyph-name="B" unicode="B" horiz-adv-x="627" 
d="M544 536q0 -56 -27 -96t-75 -57q63 -17 97.5 -64.5t34.5 -116.5q0 -96 -64.5 -149t-182.5 -53h-225q-8 0 -8 8v699q0 8 8 8h226q110 0 163 -49t53 -130zM149 50h179q93 0 141.5 39t48.5 113q0 72 -44 113t-133 41h-192v-306zM489 536q0 58 -39 93.5t-122 35.5h-179v-259
h192q69 0 108.5 34t39.5 96z" />
    <glyph glyph-name="C" unicode="C" horiz-adv-x="579" 
d="M546 69q-93 -80 -225 -80q-115 0 -183 65t-68 177v253q0 112 68 177t180 65q119 0 212 -73q7 -4 2 -11l-20 -29q-5 -7 -12 -1q-82 62 -183 62q-92 0 -142 -52t-50 -138v-253q0 -86 50.5 -138t143.5 -52q112 0 197 71q7 6 12 -2l20 -29q5 -7 -2 -12z" />
    <glyph glyph-name="D" unicode="D" horiz-adv-x="663" 
d="M342 0h-240q-8 0 -8 8v699q0 8 8 8h240q117 0 184.5 -67t67.5 -185v-214q0 -118 -67.5 -183.5t-184.5 -65.5zM149 664v-612h193q93 0 144 51t51 146v214q0 96 -51 148.5t-144 52.5h-193z" />
    <glyph glyph-name="E" unicode="E" horiz-adv-x="570" 
d="M149 339v-288h364q8 0 8 -8v-35q0 -8 -8 -8h-411q-8 0 -8 8v699q0 8 8 8h396q9 0 9 -8v-35q0 -8 -9 -8h-349v-274h328q8 0 8 -9v-34q0 -8 -8 -8h-328z" />
    <glyph glyph-name="F" unicode="F" horiz-adv-x="551" 
d="M518 707v-35q0 -8 -9 -8h-360v-288h328q8 0 8 -9v-34q0 -8 -8 -8h-328v-317q0 -8 -8 -8h-39q-8 0 -8 8v699q0 8 8 8h407q9 0 9 -8z" />
    <glyph glyph-name="G" unicode="G" horiz-adv-x="639" 
d="M571 88q-98 -98 -245 -98q-116 0 -186.5 65t-70.5 177v252q0 112 69 177t183 65q133 0 233 -76q8 -5 2 -12l-21 -28q-5 -7 -11 -2q-90 66 -203 66q-94 0 -145.5 -51t-51.5 -140v-251q0 -88 53.5 -139t148.5 -51q115 0 194 70v215h-190q-9 0 -9 8v35q0 8 9 8h236q9 0 9 -8
v-272q0 -7 -4 -10z" />
    <glyph glyph-name="H" unicode="H" horiz-adv-x="677" 
d="M528 389v318q0 8 8 8h38q9 0 9 -8v-699q0 -8 -9 -8h-38q-8 0 -8 8v330h-379v-330q0 -8 -8 -8h-39q-8 0 -8 8v699q0 8 8 8h39q8 0 8 -8v-318h379z" />
    <glyph glyph-name="I" unicode="I" horiz-adv-x="243" 
d="M149 707v-699q0 -8 -8 -8h-39q-8 0 -8 8v699q0 8 8 8h39q8 0 8 -8z" />
    <glyph glyph-name="J" unicode="J" horiz-adv-x="497" 
d="M408 214q0 -110 -52 -167t-146 -57q-103 0 -191 79q-6 4 -2 12l18 28q5 8 12 2q80 -69 163 -69q143 0 143 172v493q0 8 8 8h39q8 0 8 -8v-493z" />
    <glyph glyph-name="K" unicode="K" horiz-adv-x="608" 
d="M141 0h-39q-8 0 -8 8v699q0 8 8 8h39q8 0 8 -8v-367l361 370q7 5 11 5h51q5 0 7 -3t-2 -7l-305 -312l324 -383q8 -10 -5 -10h-51q-8 0 -10 5l-295 349l-86 -85v-261q0 -8 -8 -8z" />
    <glyph glyph-name="L" unicode="L" horiz-adv-x="501" 
d="M481 0h-379q-8 0 -8 8v699q0 8 8 8h39q8 0 8 -8v-656h332q8 0 8 -8v-35q0 -8 -8 -8z" />
    <glyph glyph-name="M" unicode="M" horiz-adv-x="846" 
d="M141 0h-39q-8 0 -8 8v699q0 8 8 8h49q7 0 10 -6l186 -330q33 -59 75 -141h1q9 17 35.5 66.5t39.5 72.5l187 332q3 6 10 6h48q9 0 9 -8v-699q0 -8 -9 -8h-38q-9 0 -9 8v399q0 7 3 223l-1 1q-39 -76 -92 -170l-157 -283q-3 -5 -10 -5h-32q-7 0 -10 5l-158 283l-92 170
l-1 -1q3 -216 3 -224v-398q0 -8 -8 -8z" />
    <glyph glyph-name="N" unicode="N" horiz-adv-x="701" 
d="M140 0h-38q-8 0 -8 8v699q0 8 8 8h44q7 0 10 -6l329 -510q49 -79 69 -114l2 3q-4 166 -4 266v353q0 8 9 8h38q8 0 8 -8v-699q0 -8 -8 -8h-44q-7 0 -10 5l-332 510q-27 42 -66 110l-1 -1q3 -222 3 -249v-367q0 -8 -9 -8z" />
    <glyph glyph-name="O" unicode="O" horiz-adv-x="669" 
d="M600 235q0 -110 -72.5 -178t-192.5 -68q-121 0 -193.5 68t-72.5 178v239q0 114 72 183t194 69q121 0 193 -69t72 -183v-239zM124 235q0 -87 57 -140.5t154 -53.5t153.5 53.5t56.5 140.5v239q0 92 -56.5 146t-153.5 54q-98 0 -154.5 -54t-56.5 -146v-239z" />
    <glyph glyph-name="P" unicode="P" horiz-adv-x="617" 
d="M103 715h230q117 0 181 -59.5t64 -165.5q0 -107 -64 -166t-181 -59h-184v-257q0 -8 -8 -8h-38q-9 0 -9 8v699q0 8 9 8zM149 316h178q196 0 196 174q0 85 -49.5 129.5t-146.5 44.5h-178v-348z" />
    <glyph glyph-name="Q" unicode="Q" horiz-adv-x="670" 
d="M602 -13l-21 -21q-7 -7 -12 0l-69 72q-70 -49 -165 -49q-121 0 -193.5 69t-72.5 179v237q0 114 72 183t194 69q121 0 193 -69t72 -183v-237q0 -102 -64 -168l66 -70q6 -6 0 -12zM124 237q0 -87 57 -141.5t154 -54.5q70 0 127 37l-106 111q-5 7 0 12l21 21q7 7 12 0
l108 -113q48 53 48 128v237q0 91 -56.5 145.5t-153.5 54.5q-98 0 -154.5 -54.5t-56.5 -145.5v-237z" />
    <glyph glyph-name="R" unicode="R" horiz-adv-x="623" 
d="M575 0h-48q-8 0 -11 5l-217 288h-150v-285q0 -8 -8 -8h-39q-8 0 -8 8v699q0 8 8 8h222q114 0 179 -56t65 -155q0 -89 -54.5 -143.5t-151.5 -63.5l219 -287q6 -10 -6 -10zM325 664h-176v-320h176q90 0 138.5 40.5t48.5 118.5t-48.5 119.5t-138.5 41.5z" />
    <glyph glyph-name="S" unicode="S" horiz-adv-x="599" 
d="M554 185q0 -95 -69.5 -145.5t-182.5 -50.5q-73 0 -130.5 22.5t-117.5 72.5q-6 6 -1 12l21 29q5 6 12 2q104 -85 217 -86q87 0 141 37t54 107q0 63 -47 96t-158 58q-114 26 -176 74t-62 133q0 88 69.5 134t174.5 46q126 0 233 -80q6 -4 2 -12l-20 -28q-5 -8 -12 -3
q-92 69 -209 71q-79 0 -130.5 -33.5t-51.5 -96.5q0 -60 47.5 -94t147.5 -57q129 -31 188.5 -76t59.5 -132z" />
    <glyph glyph-name="T" unicode="T" horiz-adv-x="545" 
d="M20 715h504q9 0 9 -8v-35q0 -8 -9 -8h-225v-656q0 -8 -9 -8h-38q-9 0 -9 8v656h-223q-8 0 -8 8v35q0 8 8 8z" />
    <glyph glyph-name="U" unicode="U" horiz-adv-x="681" 
d="M593 242q0 -113 -68 -183t-185 -70q-116 0 -184 70t-68 183v465q0 8 9 8h39q8 0 8 -8v-462q0 -94 51.5 -149t144.5 -55t145 55t52 149v462q0 8 8 8h39q9 0 9 -8v-465z" />
    <glyph glyph-name="V" unicode="V" horiz-adv-x="614" 
d="M334 0h-53q-7 0 -10 7l-262 698q-2 10 7 10h41q8 0 10 -7l239 -646h3l239 646q2 7 9 7h42q9 0 6 -10l-261 -698q-4 -7 -10 -7z" />
    <glyph glyph-name="W" unicode="W" horiz-adv-x="941" 
d="M270 0h-46q-7 0 -9 7l-200 698q-3 10 7 10h42q7 0 8 -7l121 -432q26 -95 54 -208h1q61 208 63 214l130 413q2 8 9 8h41q7 0 9 -8l130 -413q20 -67 63 -214h1q28 113 54 208l121 432q1 7 9 7h41q10 0 7 -10l-200 -698q-2 -7 -8 -7h-47q-5 0 -9 7l-131 416q-43 140 -60 205
h-1q-24 -94 -59 -205l-132 -416q-3 -7 -9 -7z" />
    <glyph glyph-name="X" unicode="X" horiz-adv-x="579" 
d="M323 360l234 -350q6 -10 -5 -10h-48q-7 0 -10 6l-204 311l-205 -311q-3 -6 -10 -6h-47q-12 0 -6 10l235 350l-224 345q-6 10 6 10h47q6 0 9 -6l195 -305l194 305q3 6 10 6h46q12 0 6 -10z" />
    <glyph glyph-name="Y" unicode="Y" horiz-adv-x="550" 
d="M294 0h-38q-9 0 -9 8v270l-238 427q-5 10 6 10h44q7 0 10 -6l206 -379l206 379q3 6 10 6h44q11 0 6 -10l-238 -427v-270q0 -8 -9 -8z" />
    <glyph glyph-name="Z" unicode="Z" horiz-adv-x="569" 
d="M525 0h-482q-9 0 -9 8v23q0 7 4 11l414 622h-394q-8 0 -8 8v35q0 8 8 8h459q8 0 8 -8v-24q0 -5 -3 -10l-413 -622h416q8 0 8 -8v-35q0 -8 -8 -8z" />
    <glyph glyph-name="bracketleft" unicode="[" horiz-adv-x="262" 
d="M139 779v-847h84q8 0 8 -8v-33q0 -8 -8 -8h-128q-8 0 -8 8v929q0 8 8 8h128q8 0 8 -8v-33q0 -8 -8 -8h-84z" />
    <glyph glyph-name="backslash" unicode="\" horiz-adv-x="403" 
d="M323 7l-297 698q-4 10 5 10h37q7 0 10 -7l298 -698q4 -10 -6 -10h-38q-8 0 -9 7z" />
    <glyph glyph-name="bracketright" unicode="]" horiz-adv-x="262" 
d="M123 -68v847h-84q-8 0 -8 8v33q0 8 8 8h128q8 0 8 -8v-929q0 -8 -8 -8h-128q-8 0 -8 8v33q0 8 8 8h84z" />
    <glyph glyph-name="asciicircum" unicode="^" horiz-adv-x="561" 
d="M104 573h-48q-5 0 -7 3.5t2 7.5l202 233q5 5 10 5h35q7 0 10 -5l202 -233q4 -4 2 -7.5t-7 -3.5h-47q-7 0 -10 5l-167 196l-167 -196q-3 -5 -10 -5z" />
    <glyph glyph-name="underscore" unicode="_" horiz-adv-x="576" 
d="M539 -19v-33q0 -8 -8 -8h-486q-8 0 -8 8v33q0 8 8 8h486q8 0 8 -8z" />
    <glyph glyph-name="grave" unicode="`" horiz-adv-x="164" 
d="M118 598h-28q-7 0 -10 6l-93 133q-7 10 5 10h41q7 0 10 -5l82 -133q3 -5 0.5 -8t-7.5 -3z" />
    <glyph glyph-name="a" unicode="a" horiz-adv-x="506" 
d="M65 474q74 52 183 52q92 0 141.5 -49t49.5 -140v-304q0 -7 -7 -10q-88 -34 -186 -34q-91 0 -150.5 42t-59.5 120q0 76 56 117t154 41q53 0 140 -16v43q0 141 -140 141q-87 0 -153 -41q-6 -5 -11 2l-17 26q-5 7 0 10zM90 151q0 -53 43 -83.5t113 -30.5t140 24v186
q-69 15 -140 15q-156 0 -156 -111z" />
    <glyph glyph-name="b" unicode="b" horiz-adv-x="537" 
d="M126 486q67 40 144 40q99 0 156 -55t57 -159v-108q0 -108 -57.5 -161.5t-158.5 -53.5q-97 0 -187 36q-7 1 -7 9v673q0 8 9 8h36q8 0 8 -8v-221zM266 37q163 0 163 167v108q0 166 -163 166q-76 0 -140 -43v-374q69 -24 140 -24z" />
    <glyph glyph-name="c" unicode="c" horiz-adv-x="466" 
d="M436 50q-79 -61 -176 -61q-94 0 -149.5 53.5t-55.5 135.5v159q0 82 55.5 135.5t149.5 53.5q86 0 161 -52q7 -6 3 -12l-17 -26q-6 -6 -12 -2q-62 43 -135 43q-71 0 -111.5 -39.5t-40.5 -100.5v-159q0 -62 40.5 -101.5t111.5 -39.5q78 0 148 51q7 6 12 -1l17 -25
q5 -8 -1 -12z" />
    <glyph glyph-name="d" unicode="d" horiz-adv-x="537" 
d="M411 486v221q0 8 8 8h36q9 0 9 -8v-673q0 -8 -7 -9q-90 -36 -186 -36q-102 0 -159.5 53.5t-57.5 161.5v108q0 104 57 159t156 55q77 0 144 -40zM108 204q0 -167 164 -167q75 0 139 23v375q-65 43 -140 43q-163 0 -163 -166v-108z" />
    <glyph glyph-name="e" unicode="e" horiz-adv-x="513" 
d="M464 332v-94q0 -8 -9 -8h-345v-56q0 -63 43 -100t108 -37q89 0 163 64q8 5 12 -2l18 -23q6 -6 -1 -12q-86 -75 -193 -75q-84 0 -144 50t-60 135v158q0 93 58 143.5t147 50.5t146 -50.5t57 -143.5zM412 332q0 69 -41.5 107t-109.5 38q-70 0 -110.5 -37.5t-40.5 -107.5v-57
h302v57z" />
    <glyph glyph-name="f" unicode="f" horiz-adv-x="311" 
d="M294 675q-27 3 -54 3q-55 0 -84 -32.5t-29 -90.5v-42h160q8 0 8 -9v-31q0 -8 -8 -8h-160v-457q0 -8 -8 -8h-36q-9 0 -9 8v546q0 81 43.5 126.5t116.5 45.5q35 0 60 -4q8 -1 8 -9v-30q0 -8 -8 -8z" />
    <glyph glyph-name="g" unicode="g" 
d="M463 -3q0 -92 -50 -144.5t-152 -52.5q-107 0 -190 75q-6 4 -1 12l18 26q5 7 11 1q76 -66 162 -66q151 0 149 153v50q-69 -33 -143 -33q-98 0 -155.5 51.5t-57.5 149.5v105q0 103 58.5 152.5t158.5 49.5q99 0 185 -37q7 -3 7 -10v-482zM108 219q0 -153 162 -153
q78 0 140 35v354q-63 22 -140 22q-162 0 -162 -153v-105z" />
    <glyph glyph-name="h" unicode="h" horiz-adv-x="553" 
d="M127 493q71 33 144 33q100 0 156.5 -52.5t56.5 -157.5v-308q0 -8 -8 -8h-36q-9 0 -9 8v307q0 84 -41 123t-122 39q-75 0 -141 -33v-436q0 -8 -8 -8h-36q-9 0 -9 8v699q0 8 9 8h36q8 0 8 -8v-214z" />
    <glyph glyph-name="i" unicode="i" horiz-adv-x="201" 
d="M119 0h-37q-8 0 -8 8v498q0 9 8 9h37q8 0 8 -9v-498q0 -8 -8 -8zM136 656q0 -15 -10 -25t-25 -10q-16 0 -26 10t-10 25q0 16 10 26t26 10q15 0 25 -10t10 -26z" />
    <glyph glyph-name="j" unicode="j" horiz-adv-x="209" 
d="M135 -27q0 -87 -35.5 -130.5t-100.5 -43.5q-29 0 -50 4q-8 1 -8 10v31q0 4 2 6.5t6 1.5q21 -4 45 -4q88 0 88 125v533q0 9 9 9h36q8 0 8 -9v-533zM145 656q0 -15 -10 -25t-26 -10q-15 0 -25.5 10t-10.5 25q0 16 10.5 26t25.5 10q16 0 26 -10t10 -26z" />
    <glyph glyph-name="k" unicode="k" horiz-adv-x="484" 
d="M469 0h-46q-7 0 -11 5l-217 252l-68 -60v-189q0 -8 -8 -8h-36q-9 0 -9 8v699q0 8 9 8h36q8 0 8 -8v-445l272 249q3 4 10 4h46q5 0 6.5 -3t-2.5 -7l-228 -212l242 -283q8 -10 -4 -10z" />
    <glyph glyph-name="l" unicode="l" horiz-adv-x="278" 
d="M264 -7q-34 -4 -57 -4q-65 0 -101 43.5t-36 130.5v544q0 8 8 8h36q9 0 9 -8v-547q0 -122 88 -122q16 0 52 4q8 0 8 -8v-31q0 -9 -7 -10z" />
    <glyph glyph-name="m" unicode="m" horiz-adv-x="809" 
d="M383 476q74 50 157 50q92 0 146 -51t54 -145v-322q0 -8 -9 -8h-36q-8 0 -8 8v324q0 70 -38.5 108t-109.5 38t-128 -40q24 -46 24 -107v-323q0 -8 -9 -8h-36q-8 0 -8 8v324q0 146 -137 146q-60 0 -120 -25v-445q0 -8 -8 -8h-36q-9 0 -9 8v469q0 8 7 11q84 38 165 38
q87 0 139 -50z" />
    <glyph glyph-name="n" unicode="n" horiz-adv-x="551" 
d="M117 0h-36q-9 0 -9 8v469q0 7 7 10q89 39 186 39q103 0 160 -52t57 -156v-310q0 -8 -8 -8h-36q-9 0 -9 8v308q0 161 -164 161q-73 0 -140 -24v-445q0 -8 -8 -8z" />
    <glyph glyph-name="o" unicode="o" 
d="M481 181q0 -85 -56.5 -138.5t-156.5 -53.5q-99 0 -156 53.5t-57 138.5v152q0 85 57 139t156 54t156 -54t57 -139v-152zM109 181q0 -65 41.5 -104.5t117.5 -39.5q78 0 119 39.5t41 104.5v152q0 65 -41 104.5t-119 39.5q-76 0 -117.5 -39.5t-41.5 -104.5v-152z" />
    <glyph glyph-name="p" unicode="p" 
d="M78 490q92 36 188 36q101 0 158.5 -53.5t57.5 -161.5v-108q0 -104 -57 -159t-157 -55q-78 0 -143 40v-211q0 -8 -8 -8h-36q-9 0 -9 8v662q0 7 6 10zM265 37q163 0 163 166v108q0 167 -163 167q-76 0 -140 -24v-373q64 -44 140 -44z" />
    <glyph glyph-name="q" unicode="q" horiz-adv-x="537" 
d="M54 311q0 108 57.5 161.5t159.5 53.5q96 0 186 -36q7 -1 7 -10v-662q0 -8 -9 -8h-36q-8 0 -8 8v211q-65 -40 -143 -40q-100 0 -157 55t-57 159v108zM108 203q0 -166 163 -166q75 0 140 43v375q-64 23 -139 23q-164 0 -164 -167v-108z" />
    <glyph glyph-name="r" unicode="r" horiz-adv-x="375" 
d="M117 0h-36q-9 0 -9 8v472q0 7 7 10q77 36 169 36q41 0 102 -9q8 -1 8 -9v-31q0 -9 -9 -7q-48 8 -95 8q-71 0 -129 -24v-446q0 -8 -8 -8z" />
    <glyph glyph-name="s" unicode="s" horiz-adv-x="467" 
d="M430 139q0 -69 -52.5 -109.5t-142.5 -40.5q-108 0 -193 65q-7 4 -3 11l17 28q5 8 12 2q78 -58 168 -58q63 0 101.5 26t38.5 74q0 20 -9 36t-20 25.5t-34 18t-36.5 11.5l-40.5 9q-36 7 -63.5 15.5t-59 25.5t-49 45t-17.5 66q0 65 53 101t132 36q89 0 175 -48q7 -4 3 -12
l-16 -27q-4 -8 -12 -3q-71 41 -152 41q-59 0 -95 -23.5t-36 -64.5q0 -25 11.5 -43t35 -29.5t44.5 -18t56 -13.5q34 -7 53 -12t48 -16.5t44 -25.5t27 -37.5t12 -54.5z" />
    <glyph glyph-name="t" unicode="t" horiz-adv-x="310" 
d="M123 161q0 -58 28.5 -90t82.5 -32q17 0 55 2q4 1 6 -1t2 -7v-32q0 -8 -8 -9q-27 -3 -57 -3q-75 0 -118.5 44t-43.5 126v476q0 8 8 8h32q7 0 9 -8l3 -122h153q8 0 8 -9v-31q0 -8 -8 -8h-152v-304z" />
    <glyph glyph-name="u" unicode="u" horiz-adv-x="544" 
d="M427 515h36q8 0 8 -9v-468q0 -7 -6 -10q-88 -39 -183 -39q-100 0 -156.5 52t-56.5 156v309q0 9 8 9h36q9 0 9 -9v-308q0 -161 160 -161q68 0 136 25v444q0 9 9 9z" />
    <glyph glyph-name="v" unicode="v" horiz-adv-x="485" 
d="M264 0h-46q-7 0 -9 7l-191 498q-4 10 7 10h39q7 0 9 -7l116 -312q6 -15 16 -43t19 -51.5t17 -43.5h1q18 51 51 138l116 312q2 7 10 7h39q9 0 7 -10l-191 -498q-4 -7 -10 -7z" />
    <glyph glyph-name="w" unicode="w" horiz-adv-x="746" 
d="M184 0q-6 0 -9 7l-155 498q-2 10 7 10h38q8 0 9 -7l99 -322q6 -18 11.5 -38.5t11.5 -45.5t10 -39h1q4 12 15 53.5t17 60.5l105 321q2 7 9 7h41q7 0 9 -7l105 -321q6 -19 17 -60.5t15 -53.5h1q0 2 14 53t19 70l99 322q1 7 9 7h38q9 0 6 -10l-154 -498q-4 -7 -9 -7h-45
q-6 0 -9 7l-112 348q-5 14 -12.5 44t-10.5 39h-1q-3 -9 -10.5 -39t-12.5 -44l-113 -348q-2 -7 -8 -7h-45z" />
    <glyph glyph-name="x" unicode="x" horiz-adv-x="475" 
d="M270 262l185 -252q3 -4 1.5 -7t-6.5 -3h-45q-7 0 -10 5l-157 219l-158 -219q-3 -5 -10 -5h-45q-5 0 -6.5 3t1.5 7l185 252l-174 243q-6 10 5 10h44q7 0 10 -6l148 -209l147 209q3 6 10 6h44q5 0 6.5 -3t-1.5 -7z" />
    <glyph glyph-name="y" unicode="y" horiz-adv-x="545" 
d="M418 100v406q0 9 9 9h36q8 0 8 -9v-509q0 -92 -50 -144.5t-150 -52.5q-105 0 -189 74q-6 6 -1 12l19 26q5 7 11 1q78 -64 160 -65q150 1 148 152v49q-67 -31 -141 -31q-92 0 -150.5 50t-58.5 145v293q0 9 8 9h36q9 0 9 -9v-291q0 -74 43.5 -111t118.5 -37q74 0 134 33z
" />
    <glyph glyph-name="z" unicode="z" horiz-adv-x="456" 
d="M416 0h-377q-8 0 -8 8v19q0 7 3 11l310 429h-290q-8 0 -8 8v31q0 9 8 9h355q8 0 8 -9v-17q0 -5 -3 -10l-311 -431h313q9 0 9 -9v-31q0 -8 -9 -8z" />
    <glyph glyph-name="braceleft" unicode="{" horiz-adv-x="267" 
d="M226 -117h-15q-55 1 -80 28.5t-25 89.5v223q0 50 -13.5 74.5t-45.5 31.5q-8 1 -8 9v34q0 8 8 9q32 7 45.5 31.5t13.5 74.5v223q0 61 25 89t79 29h16q8 0 8 -8v-33q0 -8 -8 -8h-13q-30 -1 -43.5 -18t-13.5 -54v-227q0 -52 -18.5 -84.5t-51.5 -40.5q33 -8 51.5 -40.5
t18.5 -84.5v-227q0 -39 13.5 -55t44.5 -17h12q8 0 8 -8v-33q0 -8 -8 -8z" />
    <glyph glyph-name="bar" unicode="|" horiz-adv-x="224" 
d="M129 -139h-34q-8 0 -8 8v984q0 8 8 8h34q8 0 8 -8v-984q0 -8 -8 -8z" />
    <glyph glyph-name="braceright" unicode="}" horiz-adv-x="267" 
d="M56 -117h-15q-8 0 -8 8v33q0 8 8 8h12q31 1 44.5 17t13.5 55v227q0 52 18.5 84.5t51.5 40.5q-33 8 -51.5 40.5t-18.5 84.5v227q0 37 -13.5 54t-43.5 18h-13q-8 0 -8 8v33q0 8 8 8h16q54 -1 79 -29t25 -89v-223q0 -50 13.5 -74.5t45.5 -31.5q8 -1 8 -9v-34q0 -8 -8 -9
q-32 -7 -45.5 -31.5t-13.5 -74.5v-223q0 -62 -25 -89.5t-80 -28.5z" />
    <glyph glyph-name="asciitilde" unicode="~" horiz-adv-x="561" 
d="M485 342q-43 -46 -107 -46q-31 0 -101 24q-61 21 -89 21q-43 0 -74 -28q-7 -6 -13 -1l-22 20q-7 5 -1 11q43 45 105 45q35 0 103 -24q65 -21 87 -21q45 0 76 29q7 4 12 0l23 -19q7 -7 1 -11z" />
    <glyph glyph-name="exclamdown" unicode="&#xa1;" horiz-adv-x="216" 
d="M91 361h33q9 0 9 -8l3 -373v-166q0 -8 -9 -8h-39q-8 0 -8 8v166l3 373q0 8 8 8zM68 486q0 17 11.5 28.5t28.5 11.5t28 -11.5t11 -28.5t-11 -28.5t-28 -11.5t-28.5 11.5t-11.5 28.5z" />
    <glyph glyph-name="cent" unicode="&#xa2;" horiz-adv-x="499" 
d="M429 87l17 -25q5 -8 -2 -12q-74 -57 -160 -60v-67q0 -8 -8 -8h-23q-9 0 -9 8v68q-83 7 -131.5 58.5t-48.5 128.5v159q0 76 48.5 128t131.5 59v72q0 8 9 8h23q8 0 8 -8v-71q76 -3 146 -51q8 -6 3 -12l-17 -26q-5 -6 -12 -2q-62 43 -135 43q-71 0 -111.5 -39.5
t-40.5 -100.5v-159q0 -62 40.5 -101.5t111.5 -39.5q78 0 148 52q8 5 12 -2z" />
    <glyph glyph-name="sterling" unicode="&#xa3;" horiz-adv-x="544" 
d="M487 0h-429q-8 0 -8 8v30q0 8 8 8q66 6 66 107v204h-66q-8 0 -8 9v29q0 8 8 8h66v140q0 80 50.5 131.5t136.5 51.5q102 0 173 -60q6 -4 1 -12l-17 -23q-5 -8 -11 -2q-70 50 -146 50q-66 0 -102.5 -38t-36.5 -97v-141h216q9 0 9 -8v-29q0 -9 -9 -9h-216v-205
q0 -81 -41 -106h356q8 0 8 -8v-30q0 -8 -8 -8z" />
    <glyph glyph-name="currency" unicode="&#xa4;" horiz-adv-x="636" 
d="M474 156q-65 -52 -156 -52q-92 0 -155 52l-50 -50q-6 -6 -13 0l-20 21q-6 6 0 12l50 50q-52 63 -52 156q0 90 52 155l-50 50q-6 6 0 12l20 20q7 7 13 0l50 -49q63 52 155 52q91 0 156 -52l49 49q7 6 13 0l20 -20q8 -6 0 -12l-49 -50q51 -65 51 -155q0 -91 -51 -156
l49 -50q8 -6 0 -12l-20 -21q-6 -6 -13 0zM125 345q0 -87 54 -141t139 -54t140 54.5t54 140.5q-1 85 -56 139.5t-138 54.5q-85 0 -139 -54.5t-54 -139.5z" />
    <glyph glyph-name="yen" unicode="&#xa5;" horiz-adv-x="564" 
d="M489 715h42q11 0 6 -10l-211 -394h114q8 0 8 -9v-25q0 -9 -8 -9h-132v-77h132q8 0 8 -8v-26q0 -8 -8 -8h-132v-141q0 -8 -8 -8h-37q-8 0 -8 8v141h-131q-8 0 -8 8v26q0 8 8 8h131v77h-131q-8 0 -8 9v25q0 9 8 9h114l-211 394q-5 10 6 10h42q7 0 10 -6l197 -379l196 379
q3 6 11 6z" />
    <glyph glyph-name="brokenbar" unicode="&#xa6;" horiz-adv-x="228" 
d="M131 435h-34q-8 0 -8 8v410q0 8 8 8h34q8 0 8 -8v-410q0 -8 -8 -8zM131 -139h-34q-8 0 -8 8v410q0 8 8 8h34q8 0 8 -8v-410q0 -8 -8 -8z" />
    <glyph glyph-name="section" unicode="&#xa7;" horiz-adv-x="506" 
d="M435 -18q0 -75 -52 -120.5t-133 -45.5q-109 0 -186 85q-5 7 0 12l20 25q6 6 12 -1q71 -71 154 -71q61 0 97.5 31.5t36.5 83.5q0 29 -11.5 51t-38 38.5t-45.5 25t-59 23.5q-34 12 -52 19.5t-46 23t-42.5 31.5t-25.5 41.5t-11 56.5q0 116 132 143q-101 55 -101 144
q0 70 51 109t125 39q77 0 154 -49q8 -5 3 -11l-17 -25q-4 -7 -12 -2q-69 39 -128 39q-58 0 -91 -27t-33 -73q0 -26 11 -47t35.5 -38t44 -27t56.5 -25q36 -16 52.5 -23.5t45 -25.5t42 -34t25 -42t11.5 -57q0 -52 -28.5 -90t-78.5 -51q83 -43 83 -136zM105 293
q0 -55 44.5 -83.5t155.5 -64.5q47 6 75 35.5t28 76.5q0 18 -4.5 33t-16 28t-22.5 22.5t-35 22t-41 20l-51 22.5q-59 -3 -96 -32.5t-37 -79.5z" />
    <glyph glyph-name="dieresis" unicode="&#xa8;" horiz-adv-x="252" 
d="M75 656q0 -16 -9.5 -25t-25.5 -9q-15 0 -24.5 9t-9.5 25t9.5 25.5t24.5 9.5q16 0 25.5 -9.5t9.5 -25.5zM255 656q0 -16 -9.5 -25t-24.5 -9t-25 9.5t-10 24.5q0 16 10 25.5t25 9.5t24.5 -9.5t9.5 -25.5z" />
    <glyph glyph-name="copyright" unicode="&#xa9;" horiz-adv-x="842" 
d="M784 354q0 -169 -103.5 -267t-258.5 -98q-156 0 -260 98t-104 267q0 171 104 271.5t260 100.5q155 0 258.5 -100.5t103.5 -271.5zM89 354q0 -158 94.5 -246.5t238.5 -88.5q142 0 236.5 88.5t94.5 246.5q0 163 -94 252.5t-237 89.5t-238 -90t-95 -252zM550 206
q-51 -53 -131 -53q-62 1 -102 38t-40 94v138q0 57 40 94t100 38q75 0 125 -52q5 -6 1 -12l-15 -18q-6 -6 -12 -1q-40 43 -98 42q-43 0 -71 -26t-28 -65v-138q0 -38 28 -64.5t72 -26.5q63 0 107 42q6 5 12 -2l12 -18q4 -8 0 -10z" />
    <glyph glyph-name="ordfeminine" unicode="&#xaa;" horiz-adv-x="506" 
d="M65 474q74 52 183 52q92 0 141.5 -49t49.5 -140v-304q0 -7 -7 -10q-88 -34 -186 -34q-91 0 -150.5 42t-59.5 120q0 76 56 117t154 41q53 0 140 -16v43q0 141 -140 141q-87 0 -153 -41q-6 -5 -11 2l-17 26q-5 7 0 10zM90 151q0 -53 43 -83.5t113 -30.5t140 24v186
q-69 15 -140 15q-156 0 -156 -111z" />
    <glyph glyph-name="guillemotleft" unicode="&#xab;" horiz-adv-x="491" 
d="M232 71h-40q-8 0 -10 5l-141 209q-3 6 0 12l141 209q2 5 10 5h40q5 0 6.5 -3t-1.5 -7l-142 -210l142 -210q3 -4 1.5 -7t-6.5 -3zM438 71h-40q-8 0 -10 5l-141 209q-3 6 0 12l141 209q2 5 10 5h40q5 0 6.5 -3t-1.5 -7l-142 -210l142 -210q3 -4 1.5 -7t-6.5 -3z" />
    <glyph glyph-name="logicalnot" unicode="&#xac;" horiz-adv-x="561" 
d="M485 202h-33q-9 0 -9 8v148h-373q-8 0 -8 8v34q0 8 8 8h415q8 0 8 -8v-190q0 -8 -8 -8z" />
    <glyph glyph-name="registered" unicode="&#xae;" horiz-adv-x="526" 
d="M471 518q0 -96 -59.5 -152t-148.5 -56t-148.5 56t-59.5 152q0 95 59.5 151.5t148.5 56.5t148.5 -56.5t59.5 -151.5zM81 518q0 -86 51.5 -134.5t131.5 -48.5q78 0 129.5 48.5t51.5 134.5q0 87 -51.5 135t-129.5 48q-80 0 -131.5 -48t-51.5 -135zM212 421h-8q-8 0 -8 8v185
q0 8 8 8h69q33 0 52 -16t19 -46q0 -54 -58 -59l56 -70q7 -10 -5 -10h-11q-8 0 -10 5l-59 74h-37v-71q0 -8 -8 -8zM220 598v-75h52q47 0 47 37q0 38 -47 38h-52z" />
    <glyph glyph-name="macron" unicode="&#xaf;" horiz-adv-x="265" 
d="M0 630v26q0 9 8 9h242q8 0 8 -9v-26q0 -9 -8 -9h-242q-8 0 -8 9z" />
    <glyph glyph-name="degree" unicode="&#xb0;" horiz-adv-x="342" 
d="M294 604q0 -55 -34.5 -88.5t-87.5 -33.5q-54 0 -88.5 33t-34.5 89q0 57 34.5 89.5t88.5 32.5q53 0 87.5 -33t34.5 -89zM88 603q0 -41 23.5 -63t60.5 -22t60 22t23 63t-23 63.5t-60 22.5t-60.5 -22.5t-23.5 -63.5z" />
    <glyph glyph-name="plusminus" unicode="&#xb1;" horiz-adv-x="561" 
d="M298 179h-35q-8 0 -8 8v177h-182q-8 0 -8 9v33q0 9 8 9h182v175q0 9 8 9h35q8 0 8 -9v-175h182q8 0 8 -9v-33q0 -9 -8 -9h-182v-177q0 -8 -8 -8zM488 59h-415q-8 0 -8 9v33q0 9 8 9h415q8 0 8 -9v-33q0 -9 -8 -9z" />
    <glyph glyph-name="two.sups" unicode="&#xb2;" horiz-adv-x="313" 
d="M272 410h-234q-9 0 -9 8v17q0 7 4 11l94 95q40 42 58 63t33 49t15 52q0 28 -20.5 44.5t-56.5 16.5q-51 0 -94 -45q-6 -6 -12 0l-11 15q-4 7 0 12q51 55 118 55q54 0 84 -28t30 -69q0 -44 -28 -86t-92 -106l-65 -67h186q8 0 8 -8v-21q0 -8 -8 -8z" />
    <glyph glyph-name="three.sups" unicode="&#xb3;" horiz-adv-x="316" 
d="M281 530q0 -53 -35.5 -89t-88.5 -36q-76 0 -128 59q-5 7 -1 12l13 14q5 6 11 0q43 -48 104 -48q39 0 63.5 26t24.5 66q0 35 -23.5 58t-65.5 23q-21 0 -36 -3q-9 0 -10 5l-4 9q-3 7 2 12l84 94q1 1 12 13t16 18h-167q-8 0 -8 8v19q0 8 8 8h214q8 0 8 -8v-11q0 -5 -5 -10
l-115 -128q7 1 19 1q49 0 78.5 -31.5t29.5 -80.5z" />
    <glyph glyph-name="acute" unicode="&#xb4;" horiz-adv-x="186" 
d="M39 598h-28q-5 0 -7.5 3t0.5 8l82 133q3 5 10 5h41q12 0 5 -10l-93 -133q-3 -6 -10 -6z" />
    <glyph glyph-name="paragraph" unicode="&#xb6;" horiz-adv-x="619" 
d="M269 -139h-33q-8 0 -8 8v449q-92 0 -145 57.5t-53 140.5q0 85 55.5 142t152.5 57h278q9 0 9 -8v-838q0 -8 -9 -8h-33q-9 0 -9 8v796h-196v-796q0 -8 -9 -8z" />
    <glyph glyph-name="periodcentered" unicode="&#xb7;" horiz-adv-x="216" 
d="M146 309q0 -17 -11 -28t-28 -11t-27.5 11t-10.5 28t10.5 28t27.5 11t28 -11t11 -28z" />
    <glyph glyph-name="cedilla" unicode="&#xb8;" horiz-adv-x="172" 
d="M176 -125q0 -37 -28.5 -58t-76.5 -21q-32 0 -59 9q-7 3 -7 10v17q0 9 10 7q24 -8 51 -8q66 0 66 47q0 43 -74 44q-8 0 -10 5q-3 5 0 9l23 61q3 6 10 6h18q11 0 7 -9l-19 -49q42 -2 65.5 -19.5t23.5 -50.5z" />
    <glyph glyph-name="one.sups" unicode="&#xb9;" horiz-adv-x="202" 
d="M137 410h-22q-8 0 -8 8v336l-65 -45q-7 -7 -12 2l-10 14q-4 7 3 11l83 59q4 3 10 3h21q8 0 8 -8v-372q0 -8 -8 -8z" />
    <glyph glyph-name="guillemotright" unicode="&#xbb;" horiz-adv-x="491" 
d="M93 71h-40q-5 0 -6.5 3t1.5 7l142 210l-142 210q-3 4 -1.5 7t6.5 3h40q7 0 10 -5l141 -209q3 -6 0 -12l-141 -209q-3 -5 -10 -5zM299 71h-40q-5 0 -6.5 3t1.5 7l142 210l-142 210q-3 4 -1.5 7t6.5 3h40q7 0 10 -5l141 -209q3 -6 0 -12l-141 -209q-3 -5 -10 -5z" />
    <glyph glyph-name="onequarter" unicode="&#xbc;" horiz-adv-x="799" 
d="M154 326h-22q-8 0 -8 9v336l-65 -46q-6 -6 -12 2l-10 14q-3 7 3 12l83 58q3 3 10 3h21q8 0 8 -8v-371q0 -9 -8 -9zM662 705l-556 -700q-3 -5 -10 -5h-25q-5 0 -6.5 3t1.5 7l556 700q3 5 10 5h25q5 0 6.5 -3t-1.5 -7zM719 0h-21q-8 0 -8 8v85h-182q-8 0 -8 8v13q0 4 3 10
l145 258q3 6 9 6h22q13 0 6 -10l-138 -248h143v84q0 9 8 9h21q9 0 9 -9v-84h32q8 0 8 -8v-21q0 -8 -8 -8h-32v-85q0 -8 -9 -8z" />
    <glyph glyph-name="onehalf" unicode="&#xbd;" horiz-adv-x="839" 
d="M152 326h-22q-8 0 -8 9v336l-65 -46q-6 -6 -12 2l-10 14q-3 7 3 12l83 58q3 3 10 3h21q8 0 8 -8v-371q0 -9 -8 -9zM669 705l-556 -700q-3 -5 -10 -5h-25q-5 0 -6.5 3t1.5 7l556 700q3 5 10 5h25q5 0 6.5 -3t-1.5 -7zM790 0h-234q-9 0 -9 8v17q0 7 4 11l94 95q40 42 58 63
t33 49t15 52q0 28 -20.5 44.5t-56.5 16.5q-51 0 -94 -45q-6 -6 -12 0l-11 15q-4 7 0 12q51 55 118 55q54 0 84 -28t30 -69q0 -44 -28 -86t-92 -106l-65 -67h186q8 0 8 -8v-21q0 -8 -8 -8z" />
    <glyph glyph-name="threequarters" unicode="&#xbe;" horiz-adv-x="859" 
d="M295 447q0 -53 -35.5 -89t-88.5 -36q-76 0 -128 59q-5 7 -1 12l13 14q5 5 11 0q44 -48 104 -48q39 0 63.5 26t24.5 66q0 35 -23.5 58t-65.5 23q-21 0 -36 -3q-9 0 -10 5l-4 9q-3 7 2 12l84 94q1 1 12 13t16 18h-167q-8 0 -8 8v19q0 8 8 8h214q8 0 8 -8v-11q0 -5 -5 -10
l-115 -128q7 1 19 1q49 0 78.5 -31.5t29.5 -80.5zM735 705l-556 -700q-3 -5 -10 -5h-25q-5 0 -6.5 3t1.5 7l556 700q3 5 10 5h25q5 0 6.5 -3t-1.5 -7zM777 0h-21q-8 0 -8 8v85h-182q-8 0 -8 8v13q0 4 3 10l145 258q3 6 9 6h22q13 0 6 -10l-138 -248h143v84q0 9 8 9h21
q9 0 9 -9v-84h32q8 0 8 -8v-21q0 -8 -8 -8h-32v-85q0 -8 -9 -8z" />
    <glyph glyph-name="questiondown" unicode="&#xbf;" horiz-adv-x="454" 
d="M229 364h36q8 0 8 -8v-64q0 -42 -19 -75t-45.5 -55t-53.5 -44t-46 -53.5t-19 -72.5q0 -62 36.5 -104t110.5 -42q89 0 159 72q6 8 11 -1l20 -26q3 -7 -2 -12q-75 -81 -189 -81q-90 0 -144 53t-54 141q0 41 13.5 73.5t33.5 52.5t44 40.5t44 38t33.5 44.5t13.5 60v55
q0 8 9 8zM208 488q0 17 11 28t28 11t27.5 -11t10.5 -28t-10.5 -28t-27.5 -11t-28 11t-11 28z" />
    <glyph glyph-name="Agrave" unicode="&#xc0;" horiz-adv-x="602" 
d="M59 0h-42q-9 0 -6 10l256 698q3 7 9 7h50q6 0 9 -7l257 -698q2 -10 -7 -10h-41q-6 0 -10 7l-73 202h-320l-73 -202q-4 -7 -9 -7zM300 651l-142 -391h286l-141 391h-3zM292 792l-118 134q-8 10 5 10h45q6 0 10 -5l106 -133q7 -11 -5 -11h-32q-6 0 -11 5z" />
    <glyph glyph-name="Aacute" unicode="&#xc1;" horiz-adv-x="602" 
d="M59 0h-42q-9 0 -6 10l256 698q3 7 9 7h50q6 0 9 -7l257 -698q2 -10 -7 -10h-41q-6 0 -10 7l-73 202h-320l-73 -202q-4 -7 -9 -7zM300 651l-142 -391h286l-141 391h-3zM426 926l-118 -134q-5 -5 -11 -5h-32q-12 0 -5 11l106 133q4 5 10 5h45q13 0 5 -10z" />
    <glyph glyph-name="Acircumflex" unicode="&#xc2;" horiz-adv-x="602" 
d="M59 0h-42q-9 0 -6 10l256 698q3 7 9 7h50q6 0 9 -7l257 -698q2 -10 -7 -10h-41q-6 0 -10 7l-73 202h-320l-73 -202q-4 -7 -9 -7zM300 651l-142 -391h286l-141 391h-3zM188 787h-37q-13 0 -4 11l127 133q4 5 10 5h34q7 0 11 -5l127 -133q4 -4 2 -7.5t-7 -3.5h-37
q-4 0 -11 5l-102 103l-102 -103q-5 -5 -11 -5z" />
    <glyph glyph-name="Atilde" unicode="&#xc3;" horiz-adv-x="602" 
d="M59 0h-42q-9 0 -6 10l256 698q3 7 9 7h50q6 0 9 -7l257 -698q2 -10 -7 -10h-41q-6 0 -10 7l-73 202h-320l-73 -202q-4 -7 -9 -7zM300 651l-142 -391h286l-141 391h-3zM445 858q-7 -24 -28 -43t-47 -19q-28 0 -69 24q-42 23 -63 23q-27 0 -45 -35q-4 -8 -11 -4l-21 11
q-7 4 -4 12q8 24 28.5 41.5t46.5 17.5q22 0 72 -24q46 -23 61 -23q26 0 43 36q4 7 11 4l21 -12q7 -3 5 -9z" />
    <glyph glyph-name="Adieresis" unicode="&#xc4;" horiz-adv-x="602" 
d="M59 0h-42q-9 0 -6 10l256 698q3 7 9 7h50q6 0 9 -7l257 -698q2 -10 -7 -10h-41q-6 0 -10 7l-73 202h-320l-73 -202q-4 -7 -9 -7zM300 651l-142 -391h286l-141 391h-3zM236 863q0 -16 -10 -25.5t-26 -9.5t-25.5 9.5t-9.5 25.5t9.5 26t25.5 10t26 -10t10 -26zM437 863
q0 -16 -10 -25.5t-26 -9.5t-26 9.5t-10 25.5t10 26t26 10t26 -10t10 -26z" />
    <glyph glyph-name="Aring" unicode="&#xc5;" horiz-adv-x="602" 
d="M59 0h-42q-9 0 -6 10l256 698q3 7 9 7h50q6 0 9 -7l257 -698q2 -10 -7 -10h-41q-6 0 -10 7l-73 202h-320l-73 -202q-4 -7 -9 -7zM300 651l-142 -391h286l-141 391h-3zM402 859q0 -45 -28 -71t-73 -26q-46 0 -74.5 26.5t-28.5 70.5t28.5 71t74.5 27q45 0 73 -26.5
t28 -71.5zM234 859q0 -29 18 -46t49 -17t48 17t17 46t-17 46t-48 17t-49 -17t-18 -46z" />
    <glyph glyph-name="AE" unicode="&#xc6;" horiz-adv-x="846" 
d="M464 337v-286h320q9 0 9 -8v-35q0 -8 -9 -8h-366q-9 0 -9 8v199h-240l-105 -201q-3 -6 -10 -6h-42q-11 0 -6 10l369 699q3 6 10 6h391q8 0 8 -8v-35q0 -8 -8 -8h-312v-276h293q9 0 9 -8v-35q0 -8 -9 -8h-293zM410 666l-216 -408h215v382z" />
    <glyph glyph-name="Ccedilla" unicode="&#xc7;" horiz-adv-x="579" 
d="M546 69q-87 -74 -209 -79l-18 -46q42 -2 66.5 -19.5t24.5 -49.5q0 -37 -29 -58.5t-78 -21.5q-31 0 -60 9q-7 3 -7 10v17q0 10 10 7q24 -8 52 -8q67 0 67 47q1 22 -17 32.5t-59 11.5q-7 0 -10 5t0 9l21 55q-106 6 -168 70.5t-62 170.5v253q0 112 68 177t180 65
q119 0 212 -73q7 -4 2 -11l-20 -29q-5 -7 -12 -1q-82 62 -183 62q-92 0 -142 -52t-50 -138v-253q0 -86 50.5 -138t143.5 -52q112 0 197 71q7 6 12 -2l20 -29q5 -7 -2 -12z" />
    <glyph glyph-name="Egrave" unicode="&#xc8;" horiz-adv-x="570" 
d="M149 339v-288h364q8 0 8 -8v-35q0 -8 -8 -8h-411q-8 0 -8 8v699q0 8 8 8h396q9 0 9 -8v-35q0 -8 -9 -8h-349v-274h328q8 0 8 -9v-34q0 -8 -8 -8h-328zM300 792l-118 134q-8 10 5 10h45q6 0 10 -5l106 -133q7 -11 -5 -11h-32q-6 0 -11 5z" />
    <glyph glyph-name="Eacute" unicode="&#xc9;" horiz-adv-x="570" 
d="M149 339v-288h364q8 0 8 -8v-35q0 -8 -8 -8h-411q-8 0 -8 8v699q0 8 8 8h396q9 0 9 -8v-35q0 -8 -9 -8h-349v-274h328q8 0 8 -9v-34q0 -8 -8 -8h-328zM427 926l-118 -134q-5 -5 -11 -5h-32q-12 0 -5 11l106 133q4 5 10 5h45q13 0 5 -10z" />
    <glyph glyph-name="Ecircumflex" unicode="&#xca;" horiz-adv-x="570" 
d="M149 339v-288h364q8 0 8 -8v-35q0 -8 -8 -8h-411q-8 0 -8 8v699q0 8 8 8h396q9 0 9 -8v-35q0 -8 -9 -8h-349v-274h328q8 0 8 -9v-34q0 -8 -8 -8h-328zM189 787h-37q-13 0 -4 11l127 133q4 5 10 5h34q7 0 11 -5l127 -133q4 -4 2 -7.5t-7 -3.5h-37q-4 0 -11 5l-102 103
l-102 -103q-5 -5 -11 -5z" />
    <glyph glyph-name="Edieresis" unicode="&#xcb;" horiz-adv-x="570" 
d="M149 339v-288h364q8 0 8 -8v-35q0 -8 -8 -8h-411q-8 0 -8 8v699q0 8 8 8h396q9 0 9 -8v-35q0 -8 -9 -8h-349v-274h328q8 0 8 -9v-34q0 -8 -8 -8h-328zM243 863q0 -16 -10 -25.5t-26 -9.5t-25.5 9.5t-9.5 25.5t9.5 26t25.5 10t26 -10t10 -26zM444 863q0 -16 -10 -25.5
t-26 -9.5t-26 9.5t-10 25.5t10 26t26 10t26 -10t10 -26z" />
    <glyph glyph-name="Igrave" unicode="&#xcc;" horiz-adv-x="243" 
d="M149 707v-699q0 -8 -8 -8h-39q-8 0 -8 8v699q0 8 8 8h39q8 0 8 -8zM113 792l-118 134q-8 10 5 10h45q6 0 10 -5l106 -133q7 -11 -5 -11h-32q-6 0 -11 5z" />
    <glyph glyph-name="Iacute" unicode="&#xcd;" horiz-adv-x="243" 
d="M148 707v-699q0 -8 -8 -8h-39q-8 0 -8 8v699q0 8 8 8h39q8 0 8 -8zM246 926l-118 -134q-5 -5 -11 -5h-32q-12 0 -5 11l106 133q4 5 10 5h45q13 0 5 -10z" />
    <glyph glyph-name="Icircumflex" unicode="&#xce;" horiz-adv-x="243" 
d="M31 787h-34q-12 0 -5 11l101 133q3 5 10 5h33q7 0 10 -5l108 -133q6 -11 -5 -11h-35q-7 0 -10 6l-85 103l-78 -103q-3 -6 -10 -6zM149 707v-699q0 -8 -8 -8h-39q-8 0 -8 8v699q0 8 8 8h39q8 0 8 -8z" />
    <glyph glyph-name="Idieresis" unicode="&#xcf;" horiz-adv-x="243" 
d="M141 0h-38q-9 0 -9 8v699q0 8 9 8h38q8 0 8 -8v-699q0 -8 -8 -8zM73 863q0 -16 -10 -25.5t-25 -9.5q-16 0 -26 9.5t-10 25.5t10 26t26 10q15 0 25 -10t10 -26zM242 863q0 -16 -10 -25.5t-26 -9.5t-25.5 9.5t-9.5 25.5t9.5 26t25.5 10t26 -10t10 -26z" />
    <glyph glyph-name="Eth" unicode="&#xd0;" horiz-adv-x="680" 
d="M119 715h240q117 0 184.5 -67t67.5 -185v-214q0 -118 -67.5 -183.5t-184.5 -65.5h-240q-8 0 -8 8v345h-90q-9 0 -9 8v24q0 9 9 9h90v313q0 8 8 8zM359 52q92 0 143.5 51t51.5 146v214q0 96 -51.5 148.5t-143.5 52.5h-193v-270h186q8 0 8 -9v-24q0 -8 -8 -8h-186v-301h193
z" />
    <glyph glyph-name="Ntilde" unicode="&#xd1;" horiz-adv-x="701" 
d="M140 0h-38q-8 0 -8 8v699q0 8 8 8h44q7 0 10 -6l329 -510q49 -79 69 -114l2 3q-4 166 -4 266v353q0 8 9 8h38q8 0 8 -8v-699q0 -8 -8 -8h-44q-7 0 -10 5l-332 510q-27 42 -66 110l-1 -1q3 -222 3 -249v-367q0 -8 -9 -8zM495 858q-7 -24 -28 -43t-47 -19q-28 0 -69 24
q-42 23 -63 23q-27 0 -45 -35q-4 -8 -11 -4l-21 11q-7 4 -4 12q8 24 28.5 41.5t46.5 17.5q22 0 72 -24q46 -23 61 -23q26 0 43 36q4 7 11 4l21 -12q7 -3 5 -9z" />
    <glyph glyph-name="Ograve" unicode="&#xd2;" horiz-adv-x="669" 
d="M600 235q0 -110 -72.5 -178t-192.5 -68q-121 0 -193.5 68t-72.5 178v239q0 114 72 183t194 69q121 0 193 -69t72 -183v-239zM124 235q0 -87 57 -140.5t154 -53.5t153.5 53.5t56.5 140.5v239q0 92 -56.5 146t-153.5 54q-98 0 -154.5 -54t-56.5 -146v-239zM335 792
l-118 134q-8 10 5 10h45q6 0 10 -5l106 -133q7 -11 -5 -11h-32q-6 0 -11 5z" />
    <glyph glyph-name="Oacute" unicode="&#xd3;" horiz-adv-x="669" 
d="M600 235q0 -110 -72.5 -178t-192.5 -68q-121 0 -193.5 68t-72.5 178v239q0 114 72 183t194 69q121 0 193 -69t72 -183v-239zM124 235q0 -87 57 -140.5t154 -53.5t153.5 53.5t56.5 140.5v239q0 92 -56.5 146t-153.5 54q-98 0 -154.5 -54t-56.5 -146v-239zM453 926
l-118 -134q-5 -5 -11 -5h-32q-12 0 -5 11l106 133q4 5 10 5h45q13 0 5 -10z" />
    <glyph glyph-name="Ocircumflex" unicode="&#xd4;" horiz-adv-x="669" 
d="M600 235q0 -110 -72.5 -178t-192.5 -68q-121 0 -193.5 68t-72.5 178v239q0 114 72 183t194 69q121 0 193 -69t72 -183v-239zM124 235q0 -87 57 -140.5t154 -53.5t153.5 53.5t56.5 140.5v239q0 92 -56.5 146t-153.5 54q-98 0 -154.5 -54t-56.5 -146v-239zM222 787h-37
q-13 0 -4 11l127 133q4 5 10 5h34q7 0 11 -5l127 -133q4 -4 2 -7.5t-7 -3.5h-37q-4 0 -11 5l-102 103l-102 -103q-5 -5 -11 -5z" />
    <glyph glyph-name="Otilde" unicode="&#xd5;" horiz-adv-x="669" 
d="M600 235q0 -110 -72.5 -178t-192.5 -68q-121 0 -193.5 68t-72.5 178v239q0 114 72 183t194 69q121 0 193 -69t72 -183v-239zM124 235q0 -87 57 -140.5t154 -53.5t153.5 53.5t56.5 140.5v239q0 92 -56.5 146t-153.5 54q-98 0 -154.5 -54t-56.5 -146v-239zM479 858
q-7 -24 -28 -43t-47 -19q-28 0 -69 24q-42 23 -63 23q-27 0 -45 -35q-4 -8 -11 -4l-21 11q-7 4 -4 12q8 24 28.5 41.5t46.5 17.5q22 0 72 -24q46 -23 61 -23q26 0 43 36q4 7 11 4l21 -12q7 -3 5 -9z" />
    <glyph glyph-name="Odieresis" unicode="&#xd6;" horiz-adv-x="669" 
d="M600 235q0 -110 -72.5 -178t-192.5 -68q-121 0 -193.5 68t-72.5 178v239q0 114 72 183t194 69q121 0 193 -69t72 -183v-239zM124 235q0 -87 57 -140.5t154 -53.5t153.5 53.5t56.5 140.5v239q0 92 -56.5 146t-153.5 54q-98 0 -154.5 -54t-56.5 -146v-239zM270 863
q0 -16 -10 -25.5t-26 -9.5t-25.5 9.5t-9.5 25.5t9.5 26t25.5 10t26 -10t10 -26zM471 863q0 -16 -10 -25.5t-26 -9.5t-26 9.5t-10 25.5t10 26t26 10t26 -10t10 -26z" />
    <glyph glyph-name="multiply" unicode="&#xd7;" horiz-adv-x="561" 
d="M281 296l-169 -170q-6 -5 -13 0l-23 24q-6 6 0 12l170 170l-170 169q-6 6 0 12l23 23q7 6 13 0l169 -169l169 169q6 6 13 0l23 -23q6 -6 0 -12l-169 -169l169 -170q6 -6 0 -12l-23 -24q-6 -5 -13 0z" />
    <glyph glyph-name="Oslash" unicode="&#xd8;" horiz-adv-x="680" 
d="M146 -53h-31q-13 0 -7 11l47 90q-86 69 -86 188v238q0 114 73.5 183t197.5 69q86 0 150 -36l37 71q1 6 9 6h32q11 0 6 -10l-48 -91q85 -68 85 -192v-238q0 -110 -74 -178t-197 -68q-82 0 -147 35l-37 -71q-3 -7 -10 -7zM126 236q0 -84 57 -136l282 542q-53 31 -125 31
q-99 0 -156.5 -54t-57.5 -145v-238zM218 73q52 -30 122 -30q98 0 156 53.5t58 139.5v238q0 86 -55 138z" />
    <glyph glyph-name="Ugrave" unicode="&#xd9;" horiz-adv-x="681" 
d="M593 242q0 -113 -68 -183t-185 -70q-116 0 -184 70t-68 183v465q0 8 9 8h39q8 0 8 -8v-462q0 -94 51.5 -149t144.5 -55t145 55t52 149v462q0 8 8 8h39q9 0 9 -8v-465zM332 792l-118 134q-8 10 5 10h45q6 0 10 -5l106 -133q7 -11 -5 -11h-32q-6 0 -11 5z" />
    <glyph glyph-name="Uacute" unicode="&#xda;" horiz-adv-x="681" 
d="M593 242q0 -113 -68 -183t-185 -70q-116 0 -184 70t-68 183v465q0 8 9 8h39q8 0 8 -8v-462q0 -94 51.5 -149t144.5 -55t145 55t52 149v462q0 8 8 8h39q9 0 9 -8v-465zM460 926l-118 -134q-5 -5 -11 -5h-32q-12 0 -5 11l106 133q4 5 10 5h45q13 0 5 -10z" />
    <glyph glyph-name="Ucircumflex" unicode="&#xdb;" horiz-adv-x="681" 
d="M593 242q0 -113 -68 -183t-185 -70q-116 0 -184 70t-68 183v465q0 8 9 8h39q8 0 8 -8v-462q0 -94 51.5 -149t144.5 -55t145 55t52 149v462q0 8 8 8h39q9 0 9 -8v-465zM228 787h-37q-13 0 -4 11l127 133q4 5 10 5h34q7 0 11 -5l127 -133q4 -4 2 -7.5t-7 -3.5h-37
q-4 0 -11 5l-102 103l-102 -103q-5 -5 -11 -5z" />
    <glyph glyph-name="Udieresis" unicode="&#xdc;" horiz-adv-x="681" 
d="M593 242q0 -113 -68 -183t-185 -70q-116 0 -184 70t-68 183v465q0 8 9 8h39q8 0 8 -8v-462q0 -94 51.5 -149t144.5 -55t145 55t52 149v462q0 8 8 8h39q9 0 9 -8v-465zM276 863q0 -16 -10 -25.5t-26 -9.5t-25.5 9.5t-9.5 25.5t9.5 26t25.5 10t26 -10t10 -26zM477 863
q0 -16 -10 -25.5t-26 -9.5t-26 9.5t-10 25.5t10 26t26 10t26 -10t10 -26z" />
    <glyph glyph-name="Yacute" unicode="&#xdd;" horiz-adv-x="550" 
d="M294 0h-38q-9 0 -9 8v270l-238 427q-5 10 6 10h44q7 0 10 -6l206 -379l206 379q3 6 10 6h44q11 0 6 -10l-238 -427v-270q0 -8 -9 -8zM393 926l-118 -134q-5 -5 -11 -5h-32q-12 0 -5 11l106 133q4 5 10 5h45q13 0 5 -10z" />
    <glyph glyph-name="Thorn" unicode="&#xde;" horiz-adv-x="632" 
d="M142 0h-40q-8 0 -8 8v699q0 8 8 8h40q8 0 8 -8v-111h182q117 0 182 -59.5t65 -164.5q0 -106 -65 -165t-182 -59h-182v-140q0 -8 -8 -8zM150 543v-343h180q96 0 144 44t48 128q0 83 -49 127t-143 44h-180z" />
    <glyph glyph-name="germandbls" unicode="&#xdf;" horiz-adv-x="546" 
d="M471 534q0 -117 -96 -154q124 -38 124 -181q0 -97 -58.5 -151t-158.5 -54q-54 0 -104 20q-6 2 -6 9v34q0 11 9 6q51 -18 96 -18q80 0 124.5 40t44.5 116q0 68 -39 110t-121 42h-98q-8 0 -8 8v32q0 8 8 8h97q68 0 100 38.5t32 94.5q0 145 -147 145q-143 0 -143 -156v-515
q0 -8 -8 -8h-36q-9 0 -9 8v515q0 98 53 150.5t143 52.5q93 0 147 -49.5t54 -142.5z" />
    <glyph glyph-name="agrave" unicode="&#xe0;" horiz-adv-x="506" 
d="M65 474q74 52 183 52q92 0 141.5 -49t49.5 -140v-304q0 -7 -7 -10q-88 -34 -186 -34q-91 0 -150.5 42t-59.5 120q0 76 56 117t154 41q53 0 140 -16v43q0 141 -140 141q-87 0 -153 -41q-6 -5 -11 2l-17 26q-5 7 0 10zM90 151q0 -53 43 -83.5t113 -30.5t140 24v186
q-69 15 -140 15q-156 0 -156 -111zM281 598h-28q-7 0 -10 6l-93 133q-7 10 5 10h41q7 0 10 -5l82 -133q3 -5 0.5 -8t-7.5 -3z" />
    <glyph glyph-name="aacute" unicode="&#xe1;" horiz-adv-x="506" 
d="M65 474q74 52 183 52q92 0 141.5 -49t49.5 -140v-304q0 -7 -7 -10q-88 -34 -186 -34q-91 0 -150.5 42t-59.5 120q0 76 56 117t154 41q53 0 140 -16v43q0 141 -140 141q-87 0 -153 -41q-6 -5 -11 2l-17 26q-5 7 0 10zM90 151q0 -53 43 -83.5t113 -30.5t140 24v186
q-69 15 -140 15q-156 0 -156 -111zM232 598h-28q-5 0 -7.5 3t0.5 8l82 133q3 5 10 5h41q12 0 5 -10l-93 -133q-3 -6 -10 -6z" />
    <glyph glyph-name="acircumflex" unicode="&#xe2;" horiz-adv-x="506" 
d="M65 474q74 52 183 52q92 0 141.5 -49t49.5 -140v-304q0 -7 -7 -10q-88 -34 -186 -34q-91 0 -150.5 42t-59.5 120q0 76 56 117t154 41q53 0 140 -16v43q0 141 -140 141q-87 0 -153 -41q-6 -5 -11 2l-17 26q-5 7 0 10zM90 151q0 -53 43 -83.5t113 -30.5t140 24v186
q-69 15 -140 15q-156 0 -156 -111zM150 598h-33q-11 0 -5 11l114 133q5 5 10 5h28q7 0 10 -5l113 -133q8 -11 -4 -11h-34q-7 0 -10 5l-89 106l-89 -106q-5 -5 -11 -5z" />
    <glyph glyph-name="atilde" unicode="&#xe3;" horiz-adv-x="506" 
d="M65 474q74 52 183 52q92 0 141.5 -49t49.5 -140v-304q0 -7 -7 -10q-88 -34 -186 -34q-91 0 -150.5 42t-59.5 120q0 76 56 117t154 41q53 0 140 -16v43q0 141 -140 141q-87 0 -153 -41q-6 -5 -11 2l-17 26q-5 7 0 10zM90 151q0 -53 43 -83.5t113 -30.5t140 24v186
q-69 15 -140 15q-156 0 -156 -111zM394 677q-8 -24 -28 -43t-47 -19q-25 0 -69 24q-42 23 -63 23q-29 0 -45 -35q-3 -6 -11 -4l-21 12q-7 4 -4 11q9 24 29 41.5t47 17.5t71 -24q46 -23 62 -23q26 0 43 36q3 9 11 4l21 -11q7 -5 4 -10z" />
    <glyph glyph-name="adieresis" unicode="&#xe4;" horiz-adv-x="506" 
d="M65 474q74 52 183 52q92 0 141.5 -49t49.5 -140v-304q0 -7 -7 -10q-88 -34 -186 -34q-91 0 -150.5 42t-59.5 120q0 76 56 117t154 41q53 0 140 -16v43q0 141 -140 141q-87 0 -153 -41q-6 -5 -11 2l-17 26q-5 7 0 10zM90 151q0 -53 43 -83.5t113 -30.5t140 24v186
q-69 15 -140 15q-156 0 -156 -111zM195 656q0 -16 -9.5 -25t-25.5 -9q-15 0 -24.5 9t-9.5 25t9.5 25.5t24.5 9.5q16 0 25.5 -9.5t9.5 -25.5zM375 656q0 -16 -9.5 -25t-24.5 -9t-25 9.5t-10 24.5q0 16 10 25.5t25 9.5t24.5 -9.5t9.5 -25.5z" />
    <glyph glyph-name="aring" unicode="&#xe5;" horiz-adv-x="506" 
d="M65 474q74 52 183 52q92 0 141.5 -49t49.5 -140v-304q0 -7 -7 -10q-88 -34 -186 -34q-91 0 -150.5 42t-59.5 120q0 76 56 117t154 41q53 0 140 -16v43q0 141 -140 141q-87 0 -153 -41q-6 -5 -11 2l-17 26q-5 7 0 10zM90 151q0 -53 43 -83.5t113 -30.5t140 24v186
q-69 15 -140 15q-156 0 -156 -111zM350 671q0 -44 -28 -70t-72 -26q-45 0 -73.5 26.5t-28.5 70.5t28.5 70t73.5 26q44 0 72 -26.5t28 -70.5zM184 671q0 -27 18.5 -44.5t47.5 -17.5t47 17.5t18 44.5q0 28 -18 45.5t-47 17.5t-47.5 -17.5t-18.5 -45.5z" />
    <glyph glyph-name="ae" unicode="&#xe6;" horiz-adv-x="828" 
d="M572 -10q-90 0 -147 60q-78 -61 -184 -61q-87 0 -146 43t-59 119q0 74 55 114t149 40q59 0 138 -15v53q0 134 -137 134q-84 0 -154 -41q-6 -5 -11 2l-15 25q-4 8 2 12q76 50 180 50q118 0 165 -95q23 45 68.5 70t104.5 25q86 0 142 -50t56 -138v-87q0 -8 -9 -8h-339v-73
q0 -63 38.5 -96.5t103.5 -33.5q97 0 165 64q8 6 12 -1l20 -24q5 -7 -1 -11q-81 -77 -197 -77zM89 152q0 -53 42.5 -84t108.5 -31q85 0 155 51q-17 37 -17 78v79q-77 15 -134 15q-76 0 -115.5 -28t-39.5 -80zM431 333v-47h296v48q0 68 -40.5 105.5t-107.5 37.5t-107.5 -37.5
t-40.5 -106.5z" />
    <glyph glyph-name="ccedilla" unicode="&#xe7;" horiz-adv-x="466" 
d="M436 50q-75 -57 -162 -61l-17 -44q42 -2 65.5 -19.5t23.5 -50.5q0 -37 -28.5 -58t-76.5 -21q-32 0 -59 9q-7 3 -7 10v17q0 9 10 7q24 -8 51 -8q66 0 66 47q0 43 -74 44q-8 0 -10 5q-3 5 0 9l20 54q-85 7 -134 59t-49 129v159q0 82 55.5 135.5t149.5 53.5q86 0 161 -52
q7 -6 3 -12l-17 -26q-6 -6 -12 -2q-62 43 -135 43q-71 0 -111.5 -39.5t-40.5 -100.5v-159q0 -62 40.5 -101.5t111.5 -39.5q78 0 148 51q7 6 12 -1l17 -25q5 -8 -1 -12z" />
    <glyph glyph-name="egrave" unicode="&#xe8;" horiz-adv-x="513" 
d="M464 332v-94q0 -8 -9 -8h-345v-56q0 -63 43 -100t108 -37q89 0 163 64q8 5 12 -2l18 -23q6 -6 -1 -12q-86 -75 -193 -75q-84 0 -144 50t-60 135v158q0 93 58 143.5t147 50.5t146 -50.5t57 -143.5zM412 332q0 69 -41.5 107t-109.5 38q-70 0 -110.5 -37.5t-40.5 -107.5v-57
h302v57zM291 598h-28q-7 0 -10 6l-93 133q-7 10 5 10h41q7 0 10 -5l82 -133q3 -5 0.5 -8t-7.5 -3z" />
    <glyph glyph-name="eacute" unicode="&#xe9;" horiz-adv-x="513" 
d="M464 332v-94q0 -8 -9 -8h-345v-56q0 -63 43 -100t108 -37q89 0 163 64q8 5 12 -2l18 -23q6 -6 -1 -12q-86 -75 -193 -75q-84 0 -144 50t-60 135v158q0 93 58 143.5t147 50.5t146 -50.5t57 -143.5zM412 332q0 69 -41.5 107t-109.5 38q-70 0 -110.5 -37.5t-40.5 -107.5v-57
h302v57zM242 598h-28q-5 0 -7.5 3t0.5 8l82 133q3 5 10 5h41q12 0 5 -10l-93 -133q-3 -6 -10 -6z" />
    <glyph glyph-name="ecircumflex" unicode="&#xea;" horiz-adv-x="513" 
d="M464 332v-94q0 -8 -9 -8h-345v-56q0 -63 43 -100t108 -37q89 0 163 64q8 5 12 -2l18 -23q6 -6 -1 -12q-86 -75 -193 -75q-84 0 -144 50t-60 135v158q0 93 58 143.5t147 50.5t146 -50.5t57 -143.5zM412 332q0 69 -41.5 107t-109.5 38q-70 0 -110.5 -37.5t-40.5 -107.5v-57
h302v57zM160 598h-33q-11 0 -5 11l114 133q5 5 10 5h28q7 0 10 -5l113 -133q8 -11 -4 -11h-34q-7 0 -10 5l-89 106l-89 -106q-5 -5 -11 -5z" />
    <glyph glyph-name="edieresis" unicode="&#xeb;" horiz-adv-x="513" 
d="M464 332v-94q0 -8 -9 -8h-345v-56q0 -63 43 -100t108 -37q89 0 163 64q8 5 12 -2l18 -23q6 -6 -1 -12q-86 -75 -193 -75q-84 0 -144 50t-60 135v158q0 93 58 143.5t147 50.5t146 -50.5t57 -143.5zM412 332q0 69 -41.5 107t-109.5 38q-70 0 -110.5 -37.5t-40.5 -107.5v-57
h302v57zM205 656q0 -16 -9.5 -25t-25.5 -9q-15 0 -24.5 9t-9.5 25t9.5 25.5t24.5 9.5q16 0 25.5 -9.5t9.5 -25.5zM385 656q0 -16 -9.5 -25t-24.5 -9t-25 9.5t-10 24.5q0 16 10 25.5t25 9.5t24.5 -9.5t9.5 -25.5z" />
    <glyph glyph-name="igrave" unicode="&#xec;" horiz-adv-x="201" 
d="M119 0h-36q-9 0 -9 8v498q0 9 9 9h36q8 0 8 -9v-498q0 -8 -8 -8zM132 598h-28q-7 0 -10 6l-93 133q-7 10 5 10h41q7 0 10 -5l82 -133q3 -5 0.5 -8t-7.5 -3z" />
    <glyph glyph-name="iacute" unicode="&#xed;" horiz-adv-x="201" 
d="M119 0h-36q-9 0 -9 8v498q0 9 9 9h36q8 0 8 -9v-498q0 -8 -8 -8zM100 598h-28q-5 0 -7.5 3t0.5 8l82 133q3 5 10 5h41q12 0 5 -10l-93 -133q-3 -6 -10 -6z" />
    <glyph glyph-name="icircumflex" unicode="&#xee;" horiz-adv-x="201" 
d="M118 0h-36q-8 0 -8 8v498q0 9 8 9h36q9 0 9 -9v-498q0 -8 -9 -8zM15 598h-32q-12 0 -5 11l97 133q3 5 10 5h30q6 0 11 -5l98 -133q6 -11 -6 -11h-32q-7 0 -10 6l-76 108l-75 -108q-4 -6 -10 -6z" />
    <glyph glyph-name="idieresis" unicode="&#xef;" horiz-adv-x="201" 
d="M118 0h-36q-8 0 -8 8v498q0 9 8 9h36q9 0 9 -9v-498q0 -8 -9 -8zM68 656q0 -14 -9.5 -24t-24.5 -10t-24.5 10t-9.5 24q0 15 9.5 25t24.5 10t24.5 -10t9.5 -25zM200 656q0 -14 -10 -24t-25 -10t-24 9.5t-9 24.5t9 25t24 10t25 -10t10 -25z" />
    <glyph glyph-name="eth" unicode="&#xf0;" horiz-adv-x="542" 
d="M445 697l-73 -55q103 -95 104 -284v-177q0 -85 -56 -138.5t-155 -53.5q-98 0 -154.5 53.5t-56.5 138.5v125q0 84 56 138t151 54q112 0 163 -74q-11 121 -91 188l-105 -80q-7 -4 -12 1l-11 15q-5 6 1 12l97 74q-56 35 -140 51q-8 2 -7 9l1 29q1 8 10 8q109 -18 177 -66
l80 61q7 5 11 -2l11 -15q5 -7 -1 -12zM108 181q0 -65 40.5 -104.5t116.5 -39.5t117 39.5t41 104.5v125q1 66 -40 105.5t-118 39.5q-76 0 -116.5 -40t-40.5 -105v-125z" />
    <glyph glyph-name="ntilde" unicode="&#xf1;" horiz-adv-x="551" 
d="M117 0h-36q-9 0 -9 8v469q0 7 7 10q89 39 186 39q103 0 160 -52t57 -156v-310q0 -8 -8 -8h-36q-9 0 -9 8v308q0 161 -164 161q-73 0 -140 -24v-445q0 -8 -8 -8zM410 677q-8 -24 -28 -43t-47 -19q-25 0 -69 24q-42 23 -63 23q-29 0 -45 -35q-3 -6 -11 -4l-21 12
q-7 4 -4 11q9 24 29 41.5t47 17.5t71 -24q46 -23 62 -23q26 0 43 36q3 9 11 4l21 -11q7 -5 4 -10z" />
    <glyph glyph-name="ograve" unicode="&#xf2;" 
d="M481 181q0 -85 -56.5 -138.5t-156.5 -53.5q-99 0 -156 53.5t-57 138.5v152q0 85 57 139t156 54t156 -54t57 -139v-152zM109 181q0 -65 41.5 -104.5t117.5 -39.5q78 0 119 39.5t41 104.5v152q0 65 -41 104.5t-119 39.5q-76 0 -117.5 -39.5t-41.5 -104.5v-152zM299 598h-28
q-7 0 -10 6l-93 133q-7 10 5 10h41q7 0 10 -5l82 -133q3 -5 0.5 -8t-7.5 -3z" />
    <glyph glyph-name="oacute" unicode="&#xf3;" 
d="M481 181q0 -85 -56.5 -138.5t-156.5 -53.5q-99 0 -156 53.5t-57 138.5v152q0 85 57 139t156 54t156 -54t57 -139v-152zM109 181q0 -65 41.5 -104.5t117.5 -39.5q78 0 119 39.5t41 104.5v152q0 65 -41 104.5t-119 39.5q-76 0 -117.5 -39.5t-41.5 -104.5v-152zM250 598h-28
q-5 0 -7.5 3t0.5 8l82 133q3 5 10 5h41q12 0 5 -10l-93 -133q-3 -6 -10 -6z" />
    <glyph glyph-name="ocircumflex" unicode="&#xf4;" 
d="M481 181q0 -85 -56.5 -138.5t-156.5 -53.5q-99 0 -156 53.5t-57 138.5v152q0 85 57 139t156 54t156 -54t57 -139v-152zM109 181q0 -65 41.5 -104.5t117.5 -39.5q78 0 119 39.5t41 104.5v152q0 65 -41 104.5t-119 39.5q-76 0 -117.5 -39.5t-41.5 -104.5v-152zM168 598h-33
q-11 0 -5 11l114 133q5 5 10 5h28q7 0 10 -5l113 -133q8 -11 -4 -11h-34q-7 0 -10 5l-89 106l-89 -106q-5 -5 -11 -5z" />
    <glyph glyph-name="otilde" unicode="&#xf5;" 
d="M481 181q0 -85 -56.5 -138.5t-156.5 -53.5q-99 0 -156 53.5t-57 138.5v152q0 85 57 139t156 54t156 -54t57 -139v-152zM109 181q0 -65 41.5 -104.5t117.5 -39.5q78 0 119 39.5t41 104.5v152q0 65 -41 104.5t-119 39.5q-76 0 -117.5 -39.5t-41.5 -104.5v-152zM412 677
q-8 -24 -28 -43t-47 -19q-25 0 -69 24q-42 23 -63 23q-29 0 -45 -35q-3 -6 -11 -4l-21 12q-7 4 -4 11q9 24 29 41.5t47 17.5t71 -24q46 -23 62 -23q26 0 43 36q3 9 11 4l21 -11q7 -5 4 -10z" />
    <glyph glyph-name="odieresis" unicode="&#xf6;" 
d="M481 181q0 -85 -56.5 -138.5t-156.5 -53.5q-99 0 -156 53.5t-57 138.5v152q0 85 57 139t156 54t156 -54t57 -139v-152zM109 181q0 -65 41.5 -104.5t117.5 -39.5q78 0 119 39.5t41 104.5v152q0 65 -41 104.5t-119 39.5q-76 0 -117.5 -39.5t-41.5 -104.5v-152zM213 656
q0 -16 -9.5 -25t-25.5 -9q-15 0 -24.5 9t-9.5 25t9.5 25.5t24.5 9.5q16 0 25.5 -9.5t9.5 -25.5zM393 656q0 -16 -9.5 -25t-24.5 -9t-25 9.5t-10 24.5q0 16 10 25.5t25 9.5t24.5 -9.5t9.5 -25.5z" />
    <glyph glyph-name="divide" unicode="&#xf7;" horiz-adv-x="561" 
d="M488 309h-415q-8 0 -8 8v34q0 8 8 8h415q8 0 8 -8v-34q0 -8 -8 -8zM320 161q0 -17 -11 -28t-28 -11t-28 11t-11 28t11 28t28 11t28 -11t11 -28zM320 499q0 -17 -11 -28t-28 -11t-28 11t-11 28t11 28t28 11t28 -11t11 -28z" />
    <glyph glyph-name="oslash" unicode="&#xf8;" 
d="M96 -55h-31q-11 0 -6 11l53 87q-57 52 -57 138v152q0 85 57 139t156 54q68 0 116 -28l46 76q4 6 10 6h32q10 0 5 -11l-57 -94q61 -53 61 -142v-152q0 -85 -56.5 -138.5t-156.5 -53.5q-72 0 -120 31l-42 -69q-3 -6 -10 -6zM109 181q0 -55 30 -89l221 363q-38 22 -92 22
q-77 0 -118 -39.5t-41 -104.5v-152zM268 37q78 0 119 39.5t41 104.5v152q0 57 -35 94l-221 -364q39 -26 96 -26z" />
    <glyph glyph-name="ugrave" unicode="&#xf9;" horiz-adv-x="544" 
d="M427 515h36q8 0 8 -9v-468q0 -7 -6 -10q-88 -39 -183 -39q-100 0 -156.5 52t-56.5 156v309q0 9 8 9h36q9 0 9 -9v-308q0 -161 160 -161q68 0 136 25v444q0 9 9 9zM302 598h-28q-7 0 -10 6l-93 133q-7 10 5 10h41q7 0 10 -5l82 -133q3 -5 0.5 -8t-7.5 -3z" />
    <glyph glyph-name="uacute" unicode="&#xfa;" horiz-adv-x="544" 
d="M427 515h36q8 0 8 -9v-468q0 -7 -6 -10q-88 -39 -183 -39q-100 0 -156.5 52t-56.5 156v309q0 9 8 9h36q9 0 9 -9v-308q0 -161 160 -161q68 0 136 25v444q0 9 9 9zM253 598h-28q-5 0 -7.5 3t0.5 8l82 133q3 5 10 5h41q12 0 5 -10l-93 -133q-3 -6 -10 -6z" />
    <glyph glyph-name="ucircumflex" unicode="&#xfb;" horiz-adv-x="544" 
d="M427 515h36q8 0 8 -9v-468q0 -7 -6 -10q-88 -39 -183 -39q-100 0 -156.5 52t-56.5 156v309q0 9 8 9h36q9 0 9 -9v-308q0 -161 160 -161q68 0 136 25v444q0 9 9 9zM171 598h-33q-11 0 -5 11l114 133q5 5 10 5h28q7 0 10 -5l113 -133q8 -11 -4 -11h-34q-7 0 -10 5l-89 106
l-89 -106q-5 -5 -11 -5z" />
    <glyph glyph-name="udieresis" unicode="&#xfc;" horiz-adv-x="544" 
d="M427 515h36q8 0 8 -9v-468q0 -7 -6 -10q-88 -39 -183 -39q-100 0 -156.5 52t-56.5 156v309q0 9 8 9h36q9 0 9 -9v-308q0 -161 160 -161q68 0 136 25v444q0 9 9 9zM216 656q0 -16 -9.5 -25t-25.5 -9q-15 0 -24.5 9t-9.5 25t9.5 25.5t24.5 9.5q16 0 25.5 -9.5t9.5 -25.5z
M396 656q0 -16 -9.5 -25t-24.5 -9t-25 9.5t-10 24.5q0 16 10 25.5t25 9.5t24.5 -9.5t9.5 -25.5z" />
    <glyph glyph-name="yacute" unicode="&#xfd;" horiz-adv-x="545" 
d="M418 100v406q0 9 9 9h36q8 0 8 -9v-509q0 -92 -50 -144.5t-150 -52.5q-105 0 -189 74q-6 6 -1 12l19 26q5 7 11 1q78 -64 160 -65q150 1 148 152v49q-67 -31 -141 -31q-92 0 -150.5 50t-58.5 145v293q0 9 8 9h36q9 0 9 -9v-291q0 -74 43.5 -111t118.5 -37q74 0 134 33z
M255 598h-28q-5 0 -7.5 3t0.5 8l82 133q3 5 10 5h41q12 0 5 -10l-93 -133q-3 -6 -10 -6z" />
    <glyph glyph-name="thorn" unicode="&#xfe;" horiz-adv-x="538" 
d="M127 497q68 29 144 29q96 0 154 -49.5t58 -146.5v-146q0 -93 -59 -144t-154 -51q-74 0 -143 31v-202q0 -8 -8 -8h-36q-9 0 -9 8v886q0 8 9 8h36q8 0 8 -8v-207zM267 37q75 0 119 37.5t44 112.5v140q0 76 -43.5 114t-120.5 37q-76 -2 -139 -29v-381q67 -31 140 -31z" />
    <glyph glyph-name="ydieresis" unicode="&#xff;" horiz-adv-x="545" 
d="M418 100v406q0 9 9 9h36q8 0 8 -9v-509q0 -92 -50 -144.5t-150 -52.5q-105 0 -189 74q-6 6 -1 12l19 26q5 7 11 1q78 -64 160 -65q150 1 148 152v49q-67 -31 -141 -31q-92 0 -150.5 50t-58.5 145v293q0 9 8 9h36q9 0 9 -9v-291q0 -74 43.5 -111t118.5 -37q74 0 134 33z
M218 656q0 -16 -9.5 -25t-25.5 -9q-15 0 -24.5 9t-9.5 25t9.5 25.5t24.5 9.5q16 0 25.5 -9.5t9.5 -25.5zM398 656q0 -16 -9.5 -25t-24.5 -9t-25 9.5t-10 24.5q0 16 10 25.5t25 9.5t24.5 -9.5t9.5 -25.5z" />
    <glyph glyph-name="Amacron" unicode="&#x100;" horiz-adv-x="602" 
d="M59 0h-42q-9 0 -6 10l256 698q3 7 9 7h50q6 0 9 -7l257 -698q2 -10 -7 -10h-41q-6 0 -10 7l-73 202h-320l-73 -202q-4 -7 -9 -7zM300 651l-142 -391h286l-141 391h-3zM431 812h-261q-9 0 -9 9v28q0 9 9 9h261q8 0 8 -9v-28q0 -9 -8 -9z" />
    <glyph glyph-name="amacron" unicode="&#x101;" horiz-adv-x="506" 
d="M65 474q74 52 183 52q92 0 141.5 -49t49.5 -140v-304q0 -7 -7 -10q-88 -34 -186 -34q-91 0 -150.5 42t-59.5 120q0 76 56 117t154 41q53 0 140 -16v43q0 141 -140 141q-87 0 -153 -41q-6 -5 -11 2l-17 26q-5 7 0 10zM90 151q0 -53 43 -83.5t113 -30.5t140 24v186
q-69 15 -140 15q-156 0 -156 -111zM121 630v26q0 9 8 9h242q8 0 8 -9v-26q0 -9 -8 -9h-242q-8 0 -8 9z" />
    <glyph glyph-name="Abreve" unicode="&#x102;" horiz-adv-x="602" 
d="M59 0h-42q-9 0 -6 10l256 698q3 7 9 7h50q6 0 9 -7l257 -698q2 -10 -7 -10h-41q-6 0 -10 7l-73 202h-320l-73 -202q-4 -7 -9 -7zM300 651l-142 -391h286l-141 391h-3zM457 910q-8 -63 -49 -101.5t-107 -38.5q-67 0 -107.5 38.5t-48.5 101.5q-1 7 7 9l27 7q9 1 10 -7
q7 -49 35.5 -76.5t76.5 -27.5t76.5 27.5t34.5 76.5q3 8 10 7l28 -7q8 -2 7 -9z" />
    <glyph glyph-name="abreve" unicode="&#x103;" horiz-adv-x="506" 
d="M65 474q74 52 183 52q92 0 141.5 -49t49.5 -140v-304q0 -7 -7 -10q-88 -34 -186 -34q-91 0 -150.5 42t-59.5 120q0 76 56 117t154 41q53 0 140 -16v43q0 141 -140 141q-87 0 -153 -41q-6 -5 -11 2l-17 26q-5 7 0 10zM90 151q0 -53 43 -83.5t113 -30.5t140 24v186
q-69 15 -140 15q-156 0 -156 -111zM400 724q-7 -61 -46 -98.5t-103 -37.5q-63 0 -102 37.5t-46 97.5q-1 8 7 10l26 3q7 1 10 -7q15 -99 105 -99q45 0 72 26.5t34 72.5q1 8 10 7l25 -3q10 0 8 -9z" />
    <glyph glyph-name="Aogonek" unicode="&#x104;" horiz-adv-x="602" 
d="M612 -182q-36 -17 -78 -17q-38 0 -60.5 20.5t-22.5 54.5q0 35 26 70t65 57h-2q-8 9 -13 22l-66 184h-320l-73 -202q-4 -7 -9 -7h-42q-9 0 -6 10l256 698q3 7 9 7h50q6 0 9 -7l257 -699q2 -10 -5 -10q-41 -23 -64.5 -53t-23.5 -55q0 -42 44 -42q33 0 55 11q10 3 11 -5
l7 -26q2 -8 -4 -11zM300 651q-77 -214 -142 -392h286l-141 392h-3z" />
    <glyph glyph-name="aogonek" unicode="&#x105;" horiz-adv-x="506" 
d="M439 340v-306q0 -7 -6 -10q-48 -21 -83 -60.5t-35 -72.5q0 -43 47 -43q31 0 52 12q9 3 11 -6l7 -24q3 -8 -5 -11q-33 -18 -75 -18q-82 0 -82 78q0 30 21.5 64t57.5 60q-53 -14 -103 -14q-91 0 -150 42t-59 121q0 75 56 116t153 41q59 0 140 -17v47q0 138 -140 138
q-88 0 -154 -41q-7 -4 -12 2l-17 26q-5 7 2 12q78 50 184 50q92 0 141 -49t49 -137zM90 152q0 -54 43 -84.5t113 -30.5q75 0 140 23v188q-63 14 -140 14t-116.5 -28.5t-39.5 -81.5z" />
    <glyph glyph-name="Cacute" unicode="&#x106;" horiz-adv-x="579" 
d="M546 69q-93 -80 -225 -80q-115 0 -183 65t-68 177v253q0 112 68 177t180 65q119 0 212 -73q7 -4 2 -11l-20 -29q-5 -7 -12 -1q-82 62 -183 62q-92 0 -142 -52t-50 -138v-253q0 -86 50.5 -138t143.5 -52q112 0 197 71q7 6 12 -2l20 -29q5 -7 -2 -12zM444 926l-118 -134
q-5 -5 -11 -5h-32q-12 0 -5 11l106 133q4 5 10 5h45q13 0 5 -10z" />
    <glyph glyph-name="cacute" unicode="&#x107;" horiz-adv-x="466" 
d="M436 50q-79 -61 -176 -61q-94 0 -149.5 53.5t-55.5 135.5v159q0 82 55.5 135.5t149.5 53.5q86 0 161 -52q7 -6 3 -12l-17 -26q-6 -6 -12 -2q-62 43 -135 43q-71 0 -111.5 -39.5t-40.5 -100.5v-159q0 -62 40.5 -101.5t111.5 -39.5q78 0 148 51q7 6 12 -1l17 -25
q5 -8 -1 -12zM236 598h-28q-5 0 -7.5 3t0.5 8l82 133q3 5 10 5h41q12 0 5 -10l-93 -133q-3 -6 -10 -6z" />
    <glyph glyph-name="Cdotaccent" unicode="&#x10a;" horiz-adv-x="579" 
d="M546 69q-93 -80 -225 -80q-115 0 -183 65t-68 177v253q0 112 68 177t180 65q119 0 212 -73q7 -4 2 -11l-20 -29q-5 -7 -12 -1q-82 62 -183 62q-92 0 -142 -52t-50 -138v-253q0 -86 50.5 -138t143.5 -52q112 0 197 71q7 6 12 -2l20 -29q5 -7 -2 -12zM358 861
q0 -17 -11 -28.5t-28 -11.5t-28.5 11.5t-11.5 28.5t11.5 28t28.5 11t28 -11t11 -28z" />
    <glyph glyph-name="cdotaccent" unicode="&#x10b;" horiz-adv-x="466" 
d="M436 50q-79 -61 -176 -61q-94 0 -149.5 53.5t-55.5 135.5v159q0 82 55.5 135.5t149.5 53.5q86 0 161 -52q7 -6 3 -12l-17 -26q-6 -6 -12 -2q-62 43 -135 43q-71 0 -111.5 -39.5t-40.5 -100.5v-159q0 -62 40.5 -101.5t111.5 -39.5q78 0 148 51q7 6 12 -1l17 -25
q5 -8 -1 -12zM291 656q0 -16 -10.5 -26t-26.5 -10t-26.5 10t-10.5 26t10.5 26.5t26.5 10.5t26.5 -10.5t10.5 -26.5z" />
    <glyph glyph-name="Ccaron" unicode="&#x10c;" horiz-adv-x="579" 
d="M546 69q-93 -80 -225 -80q-115 0 -183 65t-68 177v253q0 112 68 177t180 65q119 0 212 -73q7 -4 2 -11l-20 -29q-5 -7 -12 -1q-82 62 -183 62q-92 0 -142 -52t-50 -138v-253q0 -86 50.5 -138t143.5 -52q112 0 197 71q7 6 12 -2l20 -29q5 -7 -2 -12zM168 936h37q6 0 11 -5
l102 -103l102 103q7 5 11 5h37q5 0 7 -3t-2 -8l-127 -133q-4 -5 -11 -5h-34q-6 0 -10 5l-127 133q-9 11 4 11z" />
    <glyph glyph-name="ccaron" unicode="&#x10d;" horiz-adv-x="466" 
d="M436 50q-79 -61 -176 -61q-94 0 -149.5 53.5t-55.5 135.5v159q0 82 55.5 135.5t149.5 53.5q86 0 161 -52q7 -6 3 -12l-17 -26q-6 -6 -12 -2q-62 43 -135 43q-71 0 -111.5 -39.5t-40.5 -100.5v-159q0 -62 40.5 -101.5t111.5 -39.5q78 0 148 51q7 6 12 -1l17 -25
q5 -8 -1 -12zM124 748h33q6 0 11 -5l89 -106l89 106q3 5 10 5h34q12 0 4 -11l-113 -133q-3 -5 -10 -5h-28q-5 0 -10 5l-114 133q-6 11 5 11z" />
    <glyph glyph-name="Dcaron" unicode="&#x10e;" horiz-adv-x="663" 
d="M342 0h-240q-8 0 -8 8v699q0 8 8 8h240q117 0 184.5 -67t67.5 -185v-214q0 -118 -67.5 -183.5t-184.5 -65.5zM149 664v-612h193q93 0 144 51t51 146v214q0 96 -51 148.5t-144 52.5h-193zM174 936h37q6 0 11 -5l102 -103l102 103q7 5 11 5h37q5 0 7 -3t-2 -8l-127 -133
q-4 -5 -11 -5h-34q-6 0 -10 5l-127 133q-9 11 4 11z" />
    <glyph glyph-name="dcaron" unicode="&#x10f;" horiz-adv-x="557" 
d="M267 526q77 0 144 -40v221q0 8 8 8h36q9 0 9 -8v-673q0 -8 -7 -9q-90 -36 -186 -36q-102 0 -159.5 53.5t-57.5 161.5v108q0 104 57 159t156 55zM516 564l36 144q3 7 10 7h32q9 0 7 -10l-46 -144q-2 -7 -9 -7h-22q-10 0 -8 10zM108 204q0 -167 164 -167q77 0 139 24v374
q-65 43 -140 43q-163 0 -163 -166v-108z" />
    <glyph glyph-name="Dcroat" unicode="&#x110;" horiz-adv-x="680" 
d="M119 715h240q117 0 184.5 -67t67.5 -185v-214q0 -118 -67.5 -183.5t-184.5 -65.5h-240q-8 0 -8 8v345h-90q-9 0 -9 8v24q0 9 9 9h90v313q0 8 8 8zM359 52q92 0 143.5 51t51.5 146v214q0 96 -51.5 148.5t-143.5 52.5h-193v-270h186q8 0 8 -9v-24q0 -8 -8 -8h-186v-301h193
z" />
    <glyph glyph-name="dcroat" unicode="&#x111;" horiz-adv-x="537" 
d="M464 635h73q8 0 8 -8v-22q0 -9 -8 -9h-73v-562q0 -8 -7 -9q-90 -36 -186 -36q-102 0 -159.5 53.5t-57.5 161.5v102q0 104 57 159t156 55q77 0 144 -40v116h-162q-8 0 -8 9v22q0 8 8 8h162v72q0 8 8 8h36q9 0 9 -8v-72zM108 204q0 -167 164 -167q77 0 139 24v368
q-65 43 -140 43q-163 0 -163 -166v-102z" />
    <glyph glyph-name="Emacron" unicode="&#x112;" horiz-adv-x="570" 
d="M149 339v-288h364q8 0 8 -8v-35q0 -8 -8 -8h-411q-8 0 -8 8v699q0 8 8 8h396q9 0 9 -8v-35q0 -8 -9 -8h-349v-274h328q8 0 8 -9v-34q0 -8 -8 -8h-328zM432 812h-261q-9 0 -9 9v28q0 9 9 9h261q8 0 8 -9v-28q0 -9 -8 -9z" />
    <glyph glyph-name="emacron" unicode="&#x113;" horiz-adv-x="513" 
d="M464 332v-94q0 -8 -9 -8h-345v-56q0 -63 43 -100t108 -37q89 0 163 64q8 5 12 -2l18 -23q6 -6 -1 -12q-86 -75 -193 -75q-84 0 -144 50t-60 135v158q0 93 58 143.5t147 50.5t146 -50.5t57 -143.5zM412 332q0 69 -41.5 107t-109.5 38q-70 0 -110.5 -37.5t-40.5 -107.5v-57
h302v57zM131 630v26q0 9 8 9h242q8 0 8 -9v-26q0 -9 -8 -9h-242q-8 0 -8 9z" />
    <glyph glyph-name="Edotaccent" unicode="&#x116;" horiz-adv-x="570" 
d="M149 339v-288h364q8 0 8 -8v-35q0 -8 -8 -8h-411q-8 0 -8 8v699q0 8 8 8h396q9 0 9 -8v-35q0 -8 -9 -8h-349v-274h328q8 0 8 -9v-34q0 -8 -8 -8h-328zM341 861q0 -17 -11 -28.5t-28 -11.5t-28.5 11.5t-11.5 28.5t11.5 28t28.5 11q16 0 27.5 -11t11.5 -28z" />
    <glyph glyph-name="edotaccent" unicode="&#x117;" horiz-adv-x="513" 
d="M464 332v-94q0 -8 -9 -8h-345v-56q0 -63 43 -100t108 -37q89 0 163 64q8 5 12 -2l18 -23q6 -6 -1 -12q-86 -75 -193 -75q-84 0 -144 50t-60 135v158q0 93 58 143.5t147 50.5t146 -50.5t57 -143.5zM412 332q0 69 -41.5 107t-109.5 38q-70 0 -110.5 -37.5t-40.5 -107.5v-57
h302v57zM297 656q0 -16 -10.5 -26t-26.5 -10t-26.5 10t-10.5 26t10.5 26.5t26.5 10.5t26.5 -10.5t10.5 -26.5z" />
    <glyph glyph-name="Eogonek" unicode="&#x118;" horiz-adv-x="570" 
d="M476 -152q24 0 52 12q9 3 10 -5l7 -26q2 -7 -5 -11q-34 -17 -75 -17q-39 0 -61.5 20t-22.5 55t25 69t65 55h-369q-8 0 -8 8v699q0 8 8 8h396q8 0 8 -8v-35q0 -8 -8 -8h-349v-275h327q9 0 9 -8v-34q0 -9 -9 -9h-327v-287h364q8 0 8 -8v-36q0 -7 -6 -10q-87 -51 -87 -109
q0 -40 48 -40z" />
    <glyph glyph-name="eogonek" unicode="&#x119;" horiz-adv-x="511" 
d="M402 -180q-37 -20 -78 -20q-38 0 -59.5 20t-21.5 57q0 62 71 122q-26 -9 -52 -9q-86 0 -146 49.5t-60 134.5v160q0 91 57.5 141.5t146.5 50.5t145.5 -50.5t56.5 -141.5v-95q0 -9 -8 -9h-344v-56q0 -63 43 -99.5t108 -36.5q89 0 162 63q7 7 11 -1l19 -23q5 -6 -1 -12
q-13 -11 -63 -44q-48 -31 -74 -67t-26 -63q0 -44 44 -44q28 0 51 13q9 5 11 -4l10 -25q3 -6 -3 -11zM110 333v-58h301v59q0 69 -42 106.5t-110 37.5q-69 0 -109 -37.5t-40 -107.5z" />
    <glyph glyph-name="Ecaron" unicode="&#x11a;" horiz-adv-x="570" 
d="M149 339v-288h364q8 0 8 -8v-35q0 -8 -8 -8h-411q-8 0 -8 8v699q0 8 8 8h396q9 0 9 -8v-35q0 -8 -9 -8h-349v-274h328q8 0 8 -9v-34q0 -8 -8 -8h-328zM151 936h37q6 0 11 -5l102 -103l102 103q7 5 11 5h37q5 0 7 -3t-2 -8l-127 -133q-4 -5 -11 -5h-34q-6 0 -10 5
l-127 133q-9 11 4 11z" />
    <glyph glyph-name="ecaron" unicode="&#x11b;" horiz-adv-x="513" 
d="M464 332v-94q0 -8 -9 -8h-345v-56q0 -63 43 -100t108 -37q89 0 163 64q8 5 12 -2l18 -23q6 -6 -1 -12q-86 -75 -193 -75q-84 0 -144 50t-60 135v158q0 93 58 143.5t147 50.5t146 -50.5t57 -143.5zM412 332q0 69 -41.5 107t-109.5 38q-70 0 -110.5 -37.5t-40.5 -107.5v-57
h302v57zM130 748h33q6 0 11 -5l89 -106l89 106q3 5 10 5h34q12 0 4 -11l-113 -133q-3 -5 -10 -5h-28q-5 0 -10 5l-114 133q-6 11 5 11z" />
    <glyph glyph-name="Gbreve" unicode="&#x11e;" horiz-adv-x="639" 
d="M571 88q-98 -98 -245 -98q-116 0 -186.5 65t-70.5 177v252q0 112 69 177t183 65q133 0 233 -76q8 -5 2 -12l-21 -28q-5 -7 -11 -2q-90 66 -203 66q-94 0 -145.5 -51t-51.5 -140v-251q0 -88 53.5 -139t148.5 -51q115 0 194 70v215h-190q-9 0 -9 8v35q0 8 9 8h236q9 0 9 -8
v-272q0 -7 -4 -10zM477 910q-8 -63 -49 -101.5t-107 -38.5q-67 0 -107.5 38.5t-48.5 101.5q-1 7 7 9l27 7q9 1 10 -7q7 -49 35.5 -76.5t76.5 -27.5t76.5 27.5t34.5 76.5q3 8 10 7l28 -7q8 -2 7 -9z" />
    <glyph glyph-name="gbreve" unicode="&#x11f;" 
d="M463 -3q0 -92 -50 -144.5t-152 -52.5q-107 0 -190 75q-6 4 -1 12l18 26q5 7 11 1q76 -66 162 -66q151 0 149 153v50q-69 -33 -143 -33q-98 0 -155.5 51.5t-57.5 149.5v105q0 103 58.5 152.5t158.5 49.5q99 0 185 -37q7 -3 7 -10v-482zM108 219q0 -153 162 -153
q78 0 140 35v354q-63 22 -140 22q-162 0 -162 -153v-105zM418 724q-7 -61 -46 -98.5t-103 -37.5q-63 0 -102 37.5t-46 97.5q-1 8 7 10l26 3q7 1 10 -7q15 -99 105 -99q45 0 72 26.5t34 72.5q1 8 10 7l25 -3q10 0 8 -9z" />
    <glyph glyph-name="Gdotaccent" unicode="&#x120;" horiz-adv-x="639" 
d="M571 88q-98 -98 -245 -98q-116 0 -186.5 65t-70.5 177v252q0 112 69 177t183 65q133 0 233 -76q8 -5 2 -12l-21 -28q-5 -7 -11 -2q-90 66 -203 66q-94 0 -145.5 -51t-51.5 -140v-251q0 -88 53.5 -139t148.5 -51q115 0 194 70v215h-190q-9 0 -9 8v35q0 8 9 8h236q9 0 9 -8
v-272q0 -7 -4 -10zM360 861q0 -17 -11 -28.5t-28 -11.5t-28.5 11.5t-11.5 28.5t11.5 28t28.5 11t28 -11t11 -28z" />
    <glyph glyph-name="gdotaccent" unicode="&#x121;" 
d="M463 -3q0 -92 -50 -144.5t-152 -52.5q-107 0 -190 75q-6 4 -1 12l18 26q5 7 11 1q76 -66 162 -66q151 0 149 153v50q-69 -33 -143 -33q-98 0 -155.5 51.5t-57.5 149.5v105q0 103 58.5 152.5t158.5 49.5q99 0 185 -37q7 -3 7 -10v-482zM108 219q0 -153 162 -153
q78 0 140 35v354q-63 22 -140 22q-162 0 -162 -153v-105zM305 656q0 -16 -10.5 -26t-26.5 -10t-26.5 10t-10.5 26t10.5 26.5t26.5 10.5t26.5 -10.5t10.5 -26.5z" />
    <glyph glyph-name="uni0122" unicode="&#x122;" horiz-adv-x="639" 
d="M571 88q-98 -98 -245 -98q-116 0 -186.5 65t-70.5 177v252q0 112 69 177t183 65q133 0 233 -76q8 -5 2 -12l-21 -28q-5 -7 -11 -2q-90 66 -203 66q-94 0 -145.5 -51t-51.5 -140v-251q0 -88 53.5 -139t148.5 -51q115 0 194 70v215h-190q-9 0 -9 8v35q0 8 9 8h236q9 0 9 -8
v-272q0 -7 -4 -10zM294 -235h-25q-9 0 -8 9l39 144q3 7 9 7h36q9 0 7 -9l-49 -144q-3 -7 -9 -7z" />
    <glyph glyph-name="uni0123" unicode="&#x123;" 
d="M463 -3q0 -92 -50 -144.5t-152 -52.5q-107 0 -190 75q-6 4 -1 12l18 26q5 7 11 1q76 -66 162 -66q151 0 149 153v50q-69 -33 -143 -33q-98 0 -155.5 51.5t-57.5 149.5v105q0 103 58.5 152.5t158.5 49.5q99 0 185 -37q7 -3 7 -10v-482zM108 219q0 -153 162 -153
q78 0 140 35v354q-63 22 -140 22q-162 0 -162 -153v-105zM275 598h-35q-10 0 -7 10l51 144q3 7 10 7h23q10 0 7 -10l-41 -143q-2 -8 -8 -8z" />
    <glyph glyph-name="Hbar" unicode="&#x126;" horiz-adv-x="683" 
d="M586 600h65q9 0 9 -8v-24q0 -9 -9 -9h-65v-551q0 -8 -8 -8h-39q-8 0 -8 8v331h-379v-331q0 -8 -8 -8h-38q-9 0 -9 8v551h-64q-9 0 -9 9v24q0 8 9 8h64v107q0 8 9 8h38q8 0 8 -8v-107h379v107q0 8 8 8h39q8 0 8 -8v-107zM152 389h379v170h-379v-170z" />
    <glyph glyph-name="hbar" unicode="&#x127;" horiz-adv-x="553" 
d="M127 487q71 32 143 32q100 0 157 -52t57 -157v-302q0 -8 -8 -8h-37q-8 0 -8 8v300q0 163 -163 163q-73 0 -141 -34v-429q0 -8 -8 -8h-37q-8 0 -8 8v588h-73q-8 0 -8 9v22q0 8 8 8h73v72q0 8 8 8h37q8 0 8 -8v-72h162q8 0 8 -8v-22q0 -9 -8 -9h-162v-109z" />
    <glyph glyph-name="Imacron" unicode="&#x12a;" horiz-adv-x="244" 
d="M-2 847v28q0 9 8 9h232q8 0 8 -9v-28q0 -8 -8 -8h-232q-8 0 -8 8zM150 707v-699q0 -8 -9 -8h-38q-9 0 -9 8v699q0 8 9 8h38q9 0 9 -8z" />
    <glyph glyph-name="imacron" unicode="&#x12b;" horiz-adv-x="201" 
d="M194 619h-187q-8 0 -8 8v27q0 8 8 8h187q8 0 8 -8v-27q0 -8 -8 -8zM119 0h-36q-9 0 -9 8v498q0 9 9 9h36q8 0 8 -9v-498q0 -8 -8 -8z" />
    <glyph glyph-name="Iogonek" unicode="&#x12e;" horiz-adv-x="243" 
d="M133 -151q26 0 49 10q8 2 11 -6l6 -26q3 -8 -4 -10q-31 -16 -72 -16q-39 0 -62 21t-23 59q0 68 60 120q-4 6 -4 12v694q0 8 8 8h39q8 0 8 -8v-699q0 -8 -6 -10q-57 -49 -57 -105q0 -44 47 -44z" />
    <glyph glyph-name="iogonek" unicode="&#x12f;" horiz-adv-x="201" 
d="M184 -177q-38 -22 -82 -22q-42 0 -65.5 21.5t-23.5 63.5q0 63 68 116l-1 1q-6 1 -6 9v494q0 9 9 9h36q8 0 8 -9v-498q0 -9 -7 -10q-61 -50 -61 -101q0 -49 52 -49q31 0 59 16q9 3 10 -5l8 -25q2 -8 -4 -11zM137 656q0 -16 -10 -26t-26 -10t-26 10t-10 26t10 26.5t26 10.5
t26 -10.5t10 -26.5z" />
    <glyph glyph-name="Idotaccent" unicode="&#x130;" horiz-adv-x="243" 
d="M149 707v-699q0 -8 -8 -8h-39q-8 0 -8 8v699q0 8 8 8h39q8 0 8 -8zM161 861q0 -17 -11 -28.5t-28 -11.5t-28.5 11.5t-11.5 28.5t11.5 28t28.5 11q16 0 27.5 -11t11.5 -28z" />
    <glyph glyph-name="dotlessi" unicode="&#x131;" horiz-adv-x="201" 
d="M119 0h-36q-9 0 -9 8v498q0 9 9 9h36q8 0 8 -9v-498q0 -8 -8 -8z" />
    <glyph glyph-name="IJ" unicode="&#x132;" horiz-adv-x="751" 
d="M149 707v-699q0 -8 -8 -8h-39q-8 0 -8 8v699q0 8 8 8h39q8 0 8 -8zM662 214q0 -110 -52 -167t-146 -57q-103 0 -191 79q-6 4 -2 12l18 28q5 8 12 2q80 -69 163 -69q143 0 143 172v493q0 8 8 8h39q8 0 8 -8v-493z" />
    <glyph glyph-name="ij" unicode="&#x133;" horiz-adv-x="473" 
d="M119 0h-37q-8 0 -8 8v498q0 9 8 9h37q8 0 8 -9v-498q0 -8 -8 -8zM136 656q0 -15 -10 -25t-25 -10q-16 0 -26 10t-10 25q0 16 10 26t26 10q15 0 25 -10t10 -26zM399 -27q0 -87 -35.5 -130.5t-100.5 -43.5q-29 0 -50 4q-8 1 -8 10v31q0 4 2 6.5t6 1.5q21 -4 45 -4
q88 0 88 125v533q0 9 9 9h36q8 0 8 -9v-533zM409 656q0 -15 -10 -25t-26 -10q-15 0 -25.5 10t-10.5 25q0 16 10.5 26t25.5 10q16 0 26 -10t10 -26z" />
    <glyph glyph-name="uni0136" unicode="&#x136;" horiz-adv-x="608" 
d="M141 0h-39q-8 0 -8 8v699q0 8 8 8h39q8 0 8 -8v-367l361 370q7 5 11 5h51q5 0 7 -3t-2 -7l-305 -312l324 -383q8 -10 -5 -10h-51q-8 0 -10 5l-295 349l-86 -85v-261q0 -8 -8 -8zM282 -235h-25q-9 0 -8 9l39 144q3 7 9 7h36q9 0 7 -9l-49 -144q-3 -7 -9 -7z" />
    <glyph glyph-name="uni0137" unicode="&#x137;" horiz-adv-x="484" 
d="M469 0h-46q-7 0 -11 5l-217 252l-68 -60v-189q0 -8 -8 -8h-36q-9 0 -9 8v699q0 8 9 8h36q8 0 8 -8v-445l272 249q3 4 10 4h46q5 0 6.5 -3t-2.5 -7l-228 -212l242 -283q8 -10 -4 -10zM237 -235h-22q-10 0 -8 10l37 144q2 7 9 7h32q10 0 7 -10l-45 -144q-3 -7 -10 -7z" />
    <glyph glyph-name="Lacute" unicode="&#x139;" horiz-adv-x="501" 
d="M480 0h-379q-8 0 -8 8v699q0 8 8 8h39q8 0 8 -8v-656h332q8 0 8 -8v-35q0 -8 -8 -8zM254 926l-118 -134q-5 -5 -11 -5h-32q-12 0 -5 11l106 133q4 5 10 5h45q13 0 5 -10z" />
    <glyph glyph-name="lacute" unicode="&#x13a;" horiz-adv-x="278" 
d="M263 -7q-34 -4 -57 -4q-65 0 -101 43.5t-36 130.5v544q0 8 8 8h36q9 0 9 -8v-547q0 -122 88 -122q16 0 52 4q8 0 8 -8v-31q0 -9 -7 -10zM230 926l-118 -134q-5 -5 -11 -5h-32q-12 0 -5 11l106 133q4 5 10 5h45q13 0 5 -10z" />
    <glyph glyph-name="uni013B" unicode="&#x13b;" horiz-adv-x="501" 
d="M481 0h-379q-8 0 -8 8v699q0 8 8 8h39q8 0 8 -8v-656h332q8 0 8 -8v-35q0 -8 -8 -8zM233 -235h-25q-10 0 -8 9l39 144q3 7 9 7h36q8 0 7 -9l-49 -144q-4 -7 -9 -7z" />
    <glyph glyph-name="uni013C" unicode="&#x13c;" horiz-adv-x="278" 
d="M264 -7q-34 -4 -57 -4q-65 0 -101 43.5t-36 130.5v544q0 8 8 8h36q9 0 9 -8v-547q0 -122 88 -122q16 0 52 4q8 0 8 -8v-31q0 -9 -7 -10zM161 -235h-22q-10 0 -8 10l37 144q2 7 9 7h32q10 0 7 -10l-45 -144q-3 -7 -10 -7z" />
    <glyph glyph-name="Lcaron" unicode="&#x13d;" horiz-adv-x="501" 
d="M332 541h-27q-10 0 -8 10l42 157q2 7 9 7h36q9 0 7 -10l-50 -157q-3 -7 -9 -7zM481 0h-379q-8 0 -8 8v699q0 8 8 8h39q8 0 8 -8v-656h332q8 0 8 -8v-35q0 -8 -8 -8z" />
    <glyph glyph-name="lcaron" unicode="&#x13e;" horiz-adv-x="290" 
d="M262 -7q-32 -4 -55 -4q-65 0 -101 43.5t-36 130.5v544q0 8 9 8h36q8 0 8 -8v-547q0 -122 89 -122q15 0 49 4q9 0 9 -8v-31q0 -8 -8 -10zM239 564h-23q-11 0 -7 9l39 135q1 7 9 7h33q9 0 6 -10l-48 -135q-2 -6 -9 -6z" />
    <glyph glyph-name="Ldot" unicode="&#x13f;" horiz-adv-x="501" 
d="M481 0h-379q-8 0 -8 8v699q0 8 8 8h39q8 0 8 -8v-656h332q8 0 8 -8v-35q0 -8 -8 -8zM355 354q0 -17 -11 -28t-28 -11t-27.5 11t-10.5 28t10.5 28t27.5 11t28 -11t11 -28z" />
    <glyph glyph-name="ldot" unicode="&#x140;" horiz-adv-x="296" 
d="M262 -7q-32 -4 -55 -4q-65 0 -101 43.5t-36 130.5v544q0 8 8 8h37q8 0 8 -8v-547q0 -122 89 -122q13 0 49 4q9 0 9 -8v-31q0 -8 -8 -10zM280 345q0 -16 -10 -26t-26 -10t-26.5 10t-10.5 26q0 17 10.5 27t26.5 10t26 -10t10 -27z" />
    <glyph glyph-name="Lslash" unicode="&#x141;" horiz-adv-x="512" 
d="M160 329v-278h331q8 0 8 -8v-35q0 -8 -8 -8h-378q-8 0 -8 8v285l-79 -52q-11 -7 -11 5v35q0 5 6 10l84 55v361q0 8 8 8h38q9 0 9 -8v-325l152 101q11 7 11 -5v-35q0 -6 -6 -10z" />
    <glyph glyph-name="lslash" unicode="&#x142;" horiz-adv-x="351" 
d="M303 -7q-32 -4 -55 -4q-65 0 -101 43.5t-36 130.5v123l-75 -54q-10 -8 -10 6v33q0 5 5 10l80 58v368q0 8 9 8h36q8 0 8 -8v-331l132 96q4 3 7 1t3 -7v-33q0 -7 -5 -10l-137 -99v-164q0 -122 89 -122q15 0 49 4q9 0 9 -8v-31q0 -8 -8 -10z" />
    <glyph glyph-name="Nacute" unicode="&#x143;" horiz-adv-x="701" 
d="M140 0h-38q-8 0 -8 8v699q0 8 8 8h44q7 0 10 -6l329 -510q49 -79 69 -114l2 3q-4 166 -4 266v353q0 8 9 8h38q8 0 8 -8v-699q0 -8 -8 -8h-44q-7 0 -10 5l-332 510q-27 42 -66 110l-1 -1q3 -222 3 -249v-367q0 -8 -9 -8zM476 926l-118 -134q-5 -5 -11 -5h-32q-12 0 -5 11
l106 133q4 5 10 5h45q13 0 5 -10z" />
    <glyph glyph-name="nacute" unicode="&#x144;" horiz-adv-x="551" 
d="M117 0h-36q-9 0 -9 8v469q0 7 7 10q89 39 186 39q103 0 160 -52t57 -156v-310q0 -8 -8 -8h-36q-9 0 -9 8v308q0 161 -164 161q-73 0 -140 -24v-445q0 -8 -8 -8zM250 598h-28q-5 0 -7.5 3t0.5 8l82 133q3 5 10 5h41q12 0 5 -10l-93 -133q-3 -6 -10 -6z" />
    <glyph glyph-name="uni0145" unicode="&#x145;" horiz-adv-x="701" 
d="M140 0h-38q-8 0 -8 8v699q0 8 8 8h44q7 0 10 -6l329 -510q49 -79 69 -114l2 3q-4 166 -4 266v353q0 8 9 8h38q8 0 8 -8v-699q0 -8 -8 -8h-44q-7 0 -10 5l-332 510q-27 42 -66 110l-1 -1q3 -222 3 -249v-367q0 -8 -9 -8zM327 -235h-25q-10 0 -8 9l39 144q3 7 9 7h36
q8 0 7 -9l-49 -144q-4 -7 -9 -7z" />
    <glyph glyph-name="uni0146" unicode="&#x146;" horiz-adv-x="551" 
d="M117 0h-36q-9 0 -9 8v469q0 7 7 10q89 39 186 39q103 0 160 -52t57 -156v-310q0 -8 -8 -8h-36q-9 0 -9 8v308q0 161 -164 161q-73 0 -140 -24v-445q0 -8 -8 -8zM252 -235h-22q-10 0 -8 10l37 144q2 7 9 7h32q10 0 7 -10l-45 -144q-4 -7 -10 -7z" />
    <glyph glyph-name="Ncaron" unicode="&#x147;" horiz-adv-x="701" 
d="M140 0h-38q-8 0 -8 8v699q0 8 8 8h44q7 0 10 -6l329 -510q49 -79 69 -114l2 3q-4 166 -4 266v353q0 8 9 8h38q8 0 8 -8v-699q0 -8 -8 -8h-44q-7 0 -10 5l-332 510q-27 42 -66 110l-1 -1q3 -222 3 -249v-367q0 -8 -9 -8zM200 936h37q6 0 11 -5l102 -103l102 103q7 5 11 5
h37q5 0 7 -3t-2 -8l-127 -133q-4 -5 -11 -5h-34q-6 0 -10 5l-127 133q-9 11 4 11z" />
    <glyph glyph-name="ncaron" unicode="&#x148;" horiz-adv-x="551" 
d="M117 0h-36q-9 0 -9 8v469q0 7 7 10q89 39 186 39q103 0 160 -52t57 -156v-310q0 -8 -8 -8h-36q-9 0 -9 8v308q0 161 -164 161q-73 0 -140 -24v-445q0 -8 -8 -8zM141 748h33q6 0 11 -5l89 -106l89 106q3 5 10 5h34q12 0 4 -11l-113 -133q-3 -5 -10 -5h-28q-5 0 -10 5
l-114 133q-6 11 5 11z" />
    <glyph glyph-name="Eng" unicode="&#x14a;" horiz-adv-x="701" 
d="M552 290v417q0 8 9 8h38q8 0 8 -8v-714q0 -105 -31.5 -149t-103.5 -44q-23 0 -44 3q-8 2 -8 9v33q0 8 9 8q21 -3 37 -3q49 0 68 33t20 112l-325 495q-56 89 -82 135l-1 -3q3 -168 3 -175v-439q0 -8 -9 -8h-38q-8 0 -8 8v699q0 8 8 8h44q7 0 10 -6l303 -473
q61 -95 95 -152l2 3q-4 130 -4 203z" />
    <glyph glyph-name="eng" unicode="&#x14b;" horiz-adv-x="551" 
d="M482 -24q0 -176 -134 -176q-28 0 -49 4q-8 1 -8 10v30q0 9 8 9q21 -4 44 -4q86 0 86 127v340q0 161 -164 161q-73 0 -140 -24v-445q0 -8 -8 -8h-36q-9 0 -9 8v469q0 5 6 10q89 39 187 39q103 0 160 -52t57 -156v-342z" />
    <glyph glyph-name="Omacron" unicode="&#x14c;" horiz-adv-x="669" 
d="M600 235q0 -110 -72.5 -178t-192.5 -68q-121 0 -193.5 68t-72.5 178v239q0 114 72 183t194 69q121 0 193 -69t72 -183v-239zM124 235q0 -87 57 -140.5t154 -53.5t153.5 53.5t56.5 140.5v239q0 92 -56.5 146t-153.5 54q-98 0 -154.5 -54t-56.5 -146v-239zM465 812h-261
q-9 0 -9 9v28q0 9 9 9h261q8 0 8 -9v-28q0 -9 -8 -9z" />
    <glyph glyph-name="omacron" unicode="&#x14d;" 
d="M481 181q0 -85 -56.5 -138.5t-156.5 -53.5q-99 0 -156 53.5t-57 138.5v152q0 85 57 139t156 54t156 -54t57 -139v-152zM109 181q0 -65 41.5 -104.5t117.5 -39.5q78 0 119 39.5t41 104.5v152q0 65 -41 104.5t-119 39.5q-76 0 -117.5 -39.5t-41.5 -104.5v-152zM139 630v26
q0 9 8 9h242q8 0 8 -9v-26q0 -9 -8 -9h-242q-8 0 -8 9z" />
    <glyph glyph-name="Ohungarumlaut" unicode="&#x150;" horiz-adv-x="669" 
d="M600 235q0 -110 -72.5 -178t-192.5 -68q-121 0 -193.5 68t-72.5 178v239q0 114 72 183t194 69q121 0 193 -69t72 -183v-239zM124 235q0 -87 57 -140.5t154 -53.5t153.5 53.5t56.5 140.5v239q0 92 -56.5 146t-153.5 54q-98 0 -154.5 -54t-56.5 -146v-239zM240 787h-32
q-12 0 -5 11l105 133q3 5 10 5h44q12 0 5 -10l-117 -134q-3 -5 -10 -5zM409 787h-31q-12 0 -5 11l107 133q3 5 11 5h44q12 0 5 -10l-120 -134q-4 -5 -11 -5z" />
    <glyph glyph-name="ohungarumlaut" unicode="&#x151;" 
d="M481 181q0 -85 -56.5 -138.5t-156.5 -53.5q-99 0 -156 53.5t-57 138.5v152q0 85 57 139t156 54t156 -54t57 -139v-152zM109 181q0 -65 41.5 -104.5t117.5 -39.5q78 0 119 39.5t41 104.5v152q0 65 -41 104.5t-119 39.5q-76 0 -117.5 -39.5t-41.5 -104.5v-152zM197 598h-23
q-12 0 -6 11l74 133q3 5 10 5h34q12 0 5 -10l-83 -133q-4 -6 -11 -6zM327 598h-23q-12 0 -7 11l79 133q3 5 10 5h34q12 0 5 -10l-88 -133q-3 -6 -10 -6z" />
    <glyph glyph-name="OE" unicode="&#x152;" horiz-adv-x="991" 
d="M532 0q-9 0 -9 8v81q-30 -46 -82 -73t-113 -27q-113 0 -186 67.5t-73 183.5v231q0 119 72.5 187t186.5 68q61 0 113.5 -27.5t81.5 -74.5v83q0 8 9 8h387q9 0 9 -8v-36q0 -8 -9 -8h-340v-274h319q8 0 8 -8v-36q0 -8 -8 -8h-319v-285h355q8 0 8 -8v-36q0 -8 -8 -8h-402z
M125 240q0 -92 56.5 -146t146.5 -54q85 0 139.5 53t54.5 141v243q0 93 -53.5 145.5t-140.5 52.5q-91 0 -147 -53.5t-56 -150.5v-231z" />
    <glyph glyph-name="oe" unicode="&#x153;" horiz-adv-x="884" 
d="M632 -11q-57 0 -105.5 25.5t-73.5 71.5q-23 -45 -70.5 -71t-114.5 -26q-99 0 -156 53.5t-57 138.5v152q0 85 57 139t156 54q65 0 113 -26.5t73 -71.5q24 48 71 73t107 25q89 0 146 -50.5t57 -143.5v-94q0 -8 -8 -8h-346v-56q0 -63 43.5 -99.5t108.5 -36.5q89 0 162 65
q7 6 12 -2l19 -24q6 -6 -1 -12q-87 -76 -193 -76zM109 181q0 -65 41.5 -104.5t117.5 -39.5q77 0 118.5 39t41.5 105v152q0 65 -41 104.5t-119 39.5q-76 0 -117.5 -39.5t-41.5 -104.5v-152zM481 332v-57h302v57q0 70 -41 107.5t-110 37.5t-110 -37.5t-41 -107.5z" />
    <glyph glyph-name="Racute" unicode="&#x154;" horiz-adv-x="623" 
d="M575 0h-48q-8 0 -11 5l-217 288h-150v-285q0 -8 -8 -8h-39q-8 0 -8 8v699q0 8 8 8h222q114 0 179 -56t65 -155q0 -89 -54.5 -143.5t-151.5 -63.5l219 -287q6 -10 -6 -10zM325 664h-176v-320h176q90 0 138.5 40.5t48.5 118.5t-48.5 119.5t-138.5 41.5zM425 926l-118 -134
q-5 -5 -11 -5h-32q-12 0 -5 11l106 133q4 5 10 5h45q13 0 5 -10z" />
    <glyph glyph-name="racute" unicode="&#x155;" horiz-adv-x="375" 
d="M117 0h-36q-9 0 -9 8v472q0 7 7 10q77 36 169 36q41 0 102 -9q8 -1 8 -9v-31q0 -9 -9 -7q-48 8 -95 8q-71 0 -129 -24v-446q0 -8 -8 -8zM200 598h-28q-5 0 -7.5 3t0.5 8l82 133q3 5 10 5h41q12 0 5 -10l-93 -133q-3 -6 -10 -6z" />
    <glyph glyph-name="uni0156" unicode="&#x156;" horiz-adv-x="623" 
d="M575 0h-48q-8 0 -11 5l-217 288h-150v-285q0 -8 -8 -8h-39q-8 0 -8 8v699q0 8 8 8h222q114 0 179 -56t65 -155q0 -89 -54.5 -143.5t-151.5 -63.5l219 -287q6 -10 -6 -10zM325 664h-176v-320h176q90 0 138.5 40.5t48.5 118.5t-48.5 119.5t-138.5 41.5zM289 -235h-25
q-10 0 -8 9l39 144q3 7 9 7h36q8 0 7 -9l-49 -144q-4 -7 -9 -7z" />
    <glyph glyph-name="uni0157" unicode="&#x157;" horiz-adv-x="375" 
d="M117 0h-36q-9 0 -9 8v472q0 7 7 10q77 36 169 36q41 0 102 -9q8 -1 8 -9v-31q0 -9 -9 -7q-48 8 -95 8q-71 0 -129 -24v-446q0 -8 -8 -8zM80 -235h-22q-10 0 -8 10l37 144q2 7 9 7h32q10 0 7 -10l-45 -144q-4 -7 -10 -7z" />
    <glyph glyph-name="Rcaron" unicode="&#x158;" horiz-adv-x="623" 
d="M575 0h-48q-8 0 -11 5l-217 288h-150v-285q0 -8 -8 -8h-39q-8 0 -8 8v699q0 8 8 8h222q114 0 179 -56t65 -155q0 -89 -54.5 -143.5t-151.5 -63.5l219 -287q6 -10 -6 -10zM325 664h-176v-320h176q90 0 138.5 40.5t48.5 118.5t-48.5 119.5t-138.5 41.5zM149 936h37
q6 0 11 -5l102 -103l102 103q7 5 11 5h37q5 0 7 -3t-2 -8l-127 -133q-4 -5 -11 -5h-34q-6 0 -10 5l-127 133q-9 11 4 11z" />
    <glyph glyph-name="rcaron" unicode="&#x159;" horiz-adv-x="375" 
d="M117 0h-36q-9 0 -9 8v472q0 7 7 10q77 36 169 36q41 0 102 -9q8 -1 8 -9v-31q0 -9 -9 -7q-48 8 -95 8q-71 0 -129 -24v-446q0 -8 -8 -8zM89 748h33q6 0 11 -5l89 -106l89 106q3 5 10 5h34q12 0 4 -11l-113 -133q-3 -5 -10 -5h-28q-5 0 -10 5l-114 133q-6 11 5 11z" />
    <glyph glyph-name="Sacute" unicode="&#x15a;" horiz-adv-x="599" 
d="M554 185q0 -95 -69.5 -145.5t-182.5 -50.5q-73 0 -130.5 22.5t-117.5 72.5q-6 6 -1 12l21 29q5 6 12 2q104 -85 217 -86q87 0 141 37t54 107q0 63 -47 96t-158 58q-114 26 -176 74t-62 133q0 88 69.5 134t174.5 46q126 0 233 -80q6 -4 2 -12l-20 -28q-5 -8 -12 -3
q-92 69 -209 71q-79 0 -130.5 -33.5t-51.5 -96.5q0 -60 47.5 -94t147.5 -57q129 -31 188.5 -76t59.5 -132zM423 926l-118 -134q-5 -5 -11 -5h-32q-12 0 -5 11l106 133q4 5 10 5h45q13 0 5 -10z" />
    <glyph glyph-name="sacute" unicode="&#x15b;" horiz-adv-x="467" 
d="M430 139q0 -69 -52.5 -109.5t-142.5 -40.5q-108 0 -193 65q-7 4 -3 11l17 28q5 8 12 2q78 -58 168 -58q63 0 101.5 26t38.5 74q0 20 -9 36t-20 25.5t-34 18t-36.5 11.5l-40.5 9q-36 7 -63.5 15.5t-59 25.5t-49 45t-17.5 66q0 65 53 101t132 36q89 0 175 -48q7 -4 3 -12
l-16 -27q-4 -8 -12 -3q-71 41 -152 41q-59 0 -95 -23.5t-36 -64.5q0 -25 11.5 -43t35 -29.5t44.5 -18t56 -13.5q34 -7 53 -12t48 -16.5t44 -25.5t27 -37.5t12 -54.5zM222 598h-28q-5 0 -7.5 3t0.5 8l82 133q3 5 10 5h41q12 0 5 -10l-93 -133q-3 -6 -10 -6z" />
    <glyph glyph-name="Scedilla" unicode="&#x15e;" horiz-adv-x="599" 
d="M554 185q0 -88 -60 -137.5t-160 -56.5l-19 -47q42 -2 66.5 -19.5t24.5 -49.5q0 -37 -29 -58.5t-78 -21.5q-31 0 -60 9q-7 3 -7 10v17q0 10 10 7q24 -8 52 -8q67 0 67 47q1 22 -17 32.5t-59 11.5q-7 0 -10 5t0 9l21 55q-71 1 -127.5 23.5t-114.5 70.5q-6 6 -1 12l21 29
q5 6 12 2q103 -84 217 -85q87 0 141 36.5t54 106.5q0 63 -47 96t-158 58q-114 26 -176 74t-62 133q0 88 69.5 134t174.5 46q126 0 233 -80q6 -4 2 -12l-20 -28q-5 -8 -12 -3q-92 69 -209 71q-79 0 -130.5 -33.5t-51.5 -96.5q0 -60 47.5 -94t147.5 -57q129 -31 188.5 -76
t59.5 -132z" />
    <glyph glyph-name="scedilla" unicode="&#x15f;" horiz-adv-x="467" 
d="M430 139q0 -63 -47 -103t-126 -46l-17 -45q42 -2 65.5 -19.5t23.5 -50.5q0 -37 -28.5 -58t-76.5 -21q-32 0 -59 9q-7 3 -7 10v17q0 9 10 7q24 -8 51 -8q66 0 66 47q0 43 -74 44q-7 0 -10 5t0 9l20 53q-99 3 -179 65q-7 4 -3 11l17 28q5 8 12 2q78 -58 168 -58
q63 0 101.5 26t38.5 74q0 20 -9 36t-20 25.5t-34 18t-36.5 11.5l-40.5 9q-36 7 -63.5 15.5t-59 25.5t-49 45t-17.5 66q0 65 53 101t132 36q89 0 175 -48q7 -4 3 -12l-16 -27q-4 -8 -12 -3q-71 41 -152 41q-59 0 -95 -23.5t-36 -64.5q0 -25 11.5 -43t35 -29.5t44.5 -18
t56 -13.5q34 -7 53 -12t48 -16.5t44 -25.5t27 -37.5t12 -54.5z" />
    <glyph glyph-name="Scaron" unicode="&#x160;" horiz-adv-x="599" 
d="M554 185q0 -95 -69.5 -145.5t-182.5 -50.5q-73 0 -130.5 22.5t-117.5 72.5q-6 6 -1 12l21 29q5 6 12 2q104 -85 217 -86q87 0 141 37t54 107q0 63 -47 96t-158 58q-114 26 -176 74t-62 133q0 88 69.5 134t174.5 46q126 0 233 -80q6 -4 2 -12l-20 -28q-5 -8 -12 -3
q-92 69 -209 71q-79 0 -130.5 -33.5t-51.5 -96.5q0 -60 47.5 -94t147.5 -57q129 -31 188.5 -76t59.5 -132zM147 936h37q6 0 11 -5l102 -103l102 103q7 5 11 5h37q5 0 7 -3t-2 -8l-127 -133q-4 -5 -11 -5h-34q-6 0 -10 5l-127 133q-9 11 4 11z" />
    <glyph glyph-name="scaron" unicode="&#x161;" horiz-adv-x="467" 
d="M430 139q0 -69 -52.5 -109.5t-142.5 -40.5q-108 0 -193 65q-7 4 -3 11l17 28q5 8 12 2q78 -58 168 -58q63 0 101.5 26t38.5 74q0 20 -9 36t-20 25.5t-34 18t-36.5 11.5l-40.5 9q-36 7 -63.5 15.5t-59 25.5t-49 45t-17.5 66q0 65 53 101t132 36q89 0 175 -48q7 -4 3 -12
l-16 -27q-4 -8 -12 -3q-71 41 -152 41q-59 0 -95 -23.5t-36 -64.5q0 -25 11.5 -43t35 -29.5t44.5 -18t56 -13.5q34 -7 53 -12t48 -16.5t44 -25.5t27 -37.5t12 -54.5zM103 748h33q6 0 11 -5l89 -106l89 106q3 5 10 5h34q12 0 4 -11l-113 -133q-3 -5 -10 -5h-28q-5 0 -10 5
l-114 133q-6 11 5 11z" />
    <glyph glyph-name="uni0162" unicode="&#x162;" horiz-adv-x="545" 
d="M247 -235h-25q-10 0 -8 9l39 144q3 7 9 7h36q8 0 7 -9l-49 -144q-4 -7 -9 -7zM20 715h504q9 0 9 -8v-35q0 -8 -9 -8h-225v-656q0 -8 -9 -8h-38q-9 0 -9 8v656h-223q-8 0 -8 8v35q0 8 8 8z" />
    <glyph glyph-name="uni0163" unicode="&#x163;" horiz-adv-x="310" 
d="M159 -235h-22q-10 0 -8 10l37 144q2 7 9 7h32q10 0 7 -10l-45 -144q-3 -7 -10 -7zM123 161q0 -58 28.5 -90t82.5 -32q17 0 55 2q4 1 6 -1t2 -7v-32q0 -8 -8 -9q-27 -3 -57 -3q-75 0 -118.5 44t-43.5 126v476q0 8 8 8h32q7 0 9 -8l3 -122h153q8 0 8 -9v-31q0 -8 -8 -8
h-152v-304z" />
    <glyph glyph-name="Tcaron" unicode="&#x164;" horiz-adv-x="545" 
d="M20 715h504q9 0 9 -8v-35q0 -8 -9 -8h-225v-656q0 -8 -9 -8h-38q-9 0 -9 8v656h-223q-8 0 -8 8v35q0 8 8 8zM120 936h37q6 0 11 -5l102 -103l102 103q7 5 11 5h37q5 0 7 -3t-2 -8l-127 -133q-4 -5 -11 -5h-34q-6 0 -10 5l-127 133q-9 11 4 11z" />
    <glyph glyph-name="tcaron" unicode="&#x165;" horiz-adv-x="310" 
d="M289 -6q-27 -3 -57 -3q-75 0 -118.5 43t-43.5 125v476q0 8 8 8h32q7 0 9 -8l3 -122h153q8 0 8 -9v-31q0 -8 -8 -8h-152v-304q0 -58 28.5 -89t82.5 -31q17 0 55 2q4 1 6 -1t2 -7v-32q0 -7 -8 -9zM229 588h-20q-9 0 -7 9l40 134q1 7 9 7h32q10 0 7 -10l-52 -134
q-3 -6 -9 -6z" />
    <glyph glyph-name="Tbar" unicode="&#x166;" horiz-adv-x="558" 
d="M297 0h-38q-9 0 -9 8v314h-135q-9 0 -9 9v24q0 8 9 8h135v301h-222q-8 0 -8 8v35q0 8 8 8h502q9 0 9 -8v-35q0 -8 -9 -8h-224v-301h135q9 0 9 -8v-24q0 -9 -9 -9h-135v-314q0 -8 -9 -8z" />
    <glyph glyph-name="tbar" unicode="&#x167;" horiz-adv-x="313" 
d="M293 -8q-29 -3 -58 -3q-74 0 -118 44t-44 126v101h-47q-9 0 -9 8v22q0 9 9 9h47v336q0 8 8 8h33q8 0 8 -8l4 -122h152q9 0 9 -9v-31q0 -8 -9 -8h-152v-166h108q9 0 9 -9v-22q0 -8 -9 -8h-108v-99q0 -58 28.5 -90t82.5 -32q17 0 55 2q9 1 9 -8v-32q0 -7 -8 -9z" />
    <glyph glyph-name="Umacron" unicode="&#x16a;" horiz-adv-x="681" 
d="M593 242q0 -113 -68 -183t-185 -70q-116 0 -184 70t-68 183v465q0 8 9 8h39q8 0 8 -8v-462q0 -94 51.5 -149t144.5 -55t145 55t52 149v462q0 8 8 8h39q9 0 9 -8v-465zM471 812h-261q-9 0 -9 9v28q0 9 9 9h261q8 0 8 -9v-28q0 -9 -8 -9z" />
    <glyph glyph-name="umacron" unicode="&#x16b;" horiz-adv-x="544" 
d="M427 515h36q8 0 8 -9v-468q0 -7 -6 -10q-88 -39 -183 -39q-100 0 -156.5 52t-56.5 156v309q0 9 8 9h36q9 0 9 -9v-308q0 -161 160 -161q68 0 136 25v444q0 9 9 9zM142 630v26q0 9 8 9h242q8 0 8 -9v-26q0 -9 -8 -9h-242q-8 0 -8 9z" />
    <glyph glyph-name="Uring" unicode="&#x16e;" horiz-adv-x="681" 
d="M593 242q0 -113 -68 -183t-185 -70q-116 0 -184 70t-68 183v465q0 8 9 8h39q8 0 8 -8v-462q0 -94 51.5 -149t144.5 -55t145 55t52 149v462q0 8 8 8h39q9 0 9 -8v-465zM442 859q0 -45 -28 -71t-73 -26q-46 0 -74.5 26.5t-28.5 70.5t28.5 71t74.5 27q45 0 73 -26.5
t28 -71.5zM274 859q0 -29 18 -46t49 -17t48 17t17 46t-17 46t-48 17t-49 -17t-18 -46z" />
    <glyph glyph-name="uring" unicode="&#x16f;" horiz-adv-x="544" 
d="M427 515h36q8 0 8 -9v-468q0 -7 -6 -10q-88 -39 -183 -39q-100 0 -156.5 52t-56.5 156v309q0 9 8 9h36q9 0 9 -9v-308q0 -161 160 -161q68 0 136 25v444q0 9 9 9zM371 671q0 -44 -28 -70t-72 -26q-45 0 -73.5 26.5t-28.5 70.5t28.5 70t73.5 26q44 0 72 -26.5t28 -70.5z
M205 671q0 -27 18.5 -44.5t47.5 -17.5t47 17.5t18 44.5q0 28 -18 45.5t-47 17.5t-47.5 -17.5t-18.5 -45.5z" />
    <glyph glyph-name="Uhungarumlaut" unicode="&#x170;" horiz-adv-x="681" 
d="M593 242q0 -113 -68 -183t-185 -70q-116 0 -184 70t-68 183v465q0 8 9 8h39q8 0 8 -8v-462q0 -94 51.5 -149t144.5 -55t145 55t52 149v462q0 8 8 8h39q9 0 9 -8v-465zM246 787h-32q-12 0 -5 11l105 133q3 5 10 5h44q12 0 5 -10l-117 -134q-3 -5 -10 -5zM415 787h-31
q-12 0 -5 11l107 133q3 5 11 5h44q12 0 5 -10l-120 -134q-4 -5 -11 -5z" />
    <glyph glyph-name="uhungarumlaut" unicode="&#x171;" horiz-adv-x="544" 
d="M427 515h36q8 0 8 -9v-468q0 -7 -6 -10q-88 -39 -183 -39q-100 0 -156.5 52t-56.5 156v309q0 9 8 9h36q9 0 9 -9v-308q0 -161 160 -161q68 0 136 25v444q0 9 9 9zM200 598h-23q-11 0 -6 11l74 133q3 5 10 5h34q12 0 5 -10l-83 -133q-5 -6 -11 -6zM330 598h-23
q-13 0 -7 11l79 133q3 5 10 5h34q12 0 5 -10l-88 -133q-3 -6 -10 -6z" />
    <glyph glyph-name="Uogonek" unicode="&#x172;" horiz-adv-x="682" 
d="M489 -180q-40 -19 -87 -19q-36 0 -58.5 20t-22.5 53q0 65 76 126v1q-28 -10 -56 -10q-109 0 -181 65.5t-72 173.5v477q0 8 9 8h39q8 0 8 -8v-477q0 -84 55.5 -135.5t141.5 -51.5t141.5 51.5t55.5 135.5v477q0 8 8 8h40q8 0 8 -8v-477q0 -76 -30.5 -123t-83.5 -81
q-50 -31 -79 -67t-29 -68q0 -43 45 -43q33 0 57 12q8 5 11 -5l7 -25q2 -7 -3 -10z" />
    <glyph glyph-name="uogonek" unicode="&#x173;" horiz-adv-x="545" 
d="M447 -178q-39 -21 -80 -21q-43 0 -67.5 21t-24.5 58q0 69 93 122q-39 -12 -79 -12q-104 0 -162 50t-58 148v318q0 9 9 9h36q8 0 8 -9v-319q0 -149 164 -149q71 0 133 23v445q0 9 8 9h36q9 0 9 -9v-471q0 -8 -7 -9q-62 -27 -102.5 -62t-40.5 -71q0 -45 52 -45q31 0 58 16
q8 4 10 -5l9 -26q3 -7 -4 -11z" />
    <glyph glyph-name="Wcircumflex" unicode="&#x174;" horiz-adv-x="941" 
d="M270 0h-46q-7 0 -9 7l-200 698q-3 10 7 10h42q7 0 8 -7l121 -432q26 -95 54 -208h1q61 208 63 214l130 413q2 8 9 8h41q7 0 9 -8l130 -413q20 -67 63 -214h1q28 113 54 208l121 432q1 7 9 7h41q10 0 7 -10l-200 -698q-2 -7 -8 -7h-47q-5 0 -9 7l-131 416q-43 140 -60 205
h-1q-24 -94 -59 -205l-132 -416q-3 -7 -9 -7zM358 787h-37q-13 0 -4 11l127 133q4 5 10 5h34q7 0 11 -5l127 -133q4 -4 2 -7.5t-7 -3.5h-37q-4 0 -11 5l-102 103l-102 -103q-5 -5 -11 -5z" />
    <glyph glyph-name="wcircumflex" unicode="&#x175;" horiz-adv-x="746" 
d="M184 0q-6 0 -9 7l-155 498q-2 10 7 10h38q8 0 9 -7l99 -322q6 -18 11.5 -38.5t11.5 -45.5t10 -39h1q4 12 15 53.5t17 60.5l105 321q2 7 9 7h41q7 0 9 -7l105 -321q6 -19 17 -60.5t15 -53.5h1q0 2 14 53t19 70l99 322q1 7 9 7h38q9 0 6 -10l-154 -498q-4 -7 -9 -7h-45
q-6 0 -9 7l-112 348q-5 14 -12.5 44t-10.5 39h-1q-3 -9 -10.5 -39t-12.5 -44l-113 -348q-2 -7 -8 -7h-45zM273 598h-33q-11 0 -5 11l114 133q5 5 10 5h28q7 0 10 -5l113 -133q8 -11 -4 -11h-34q-7 0 -10 5l-89 106l-89 -106q-5 -5 -11 -5z" />
    <glyph glyph-name="Ycircumflex" unicode="&#x176;" horiz-adv-x="550" 
d="M294 0h-38q-9 0 -9 8v270l-238 427q-5 10 6 10h44q7 0 10 -6l206 -379l206 379q3 6 10 6h44q11 0 6 -10l-238 -427v-270q0 -8 -9 -8zM162 787h-37q-13 0 -4 11l127 133q4 5 10 5h34q7 0 11 -5l127 -133q4 -4 2 -7.5t-7 -3.5h-37q-4 0 -11 5l-102 103l-102 -103
q-5 -5 -11 -5z" />
    <glyph glyph-name="ycircumflex" unicode="&#x177;" horiz-adv-x="545" 
d="M418 100v406q0 9 9 9h36q8 0 8 -9v-509q0 -92 -50 -144.5t-150 -52.5q-105 0 -189 74q-6 6 -1 12l19 26q5 7 11 1q78 -64 160 -65q150 1 148 152v49q-67 -31 -141 -31q-92 0 -150.5 50t-58.5 145v293q0 9 8 9h36q9 0 9 -9v-291q0 -74 43.5 -111t118.5 -37q74 0 134 33z
M173 598h-33q-11 0 -5 11l114 133q5 5 10 5h28q7 0 10 -5l113 -133q8 -11 -4 -11h-34q-7 0 -10 5l-89 106l-89 -106q-5 -5 -11 -5z" />
    <glyph glyph-name="Ydieresis" unicode="&#x178;" horiz-adv-x="550" 
d="M294 0h-38q-9 0 -9 8v270l-238 427q-5 10 6 10h44q7 0 10 -6l206 -379l206 379q3 6 10 6h44q11 0 6 -10l-238 -427v-270q0 -8 -9 -8zM210 863q0 -16 -10 -25.5t-26 -9.5t-25.5 9.5t-9.5 25.5t9.5 26t25.5 10t26 -10t10 -26zM411 863q0 -16 -10 -25.5t-26 -9.5t-26 9.5
t-10 25.5t10 26t26 10t26 -10t10 -26z" />
    <glyph glyph-name="Zacute" unicode="&#x179;" horiz-adv-x="569" 
d="M525 0h-482q-9 0 -9 8v23q0 7 4 11l414 622h-394q-8 0 -8 8v35q0 8 8 8h459q8 0 8 -8v-24q0 -5 -3 -10l-413 -622h416q8 0 8 -8v-35q0 -8 -8 -8zM401 926l-118 -134q-5 -5 -11 -5h-32q-12 0 -5 11l106 133q4 5 10 5h45q13 0 5 -10z" />
    <glyph glyph-name="zacute" unicode="&#x17a;" horiz-adv-x="456" 
d="M416 0h-377q-8 0 -8 8v19q0 7 3 11l310 429h-290q-8 0 -8 8v31q0 9 8 9h355q8 0 8 -9v-17q0 -5 -3 -10l-311 -431h313q9 0 9 -9v-31q0 -8 -9 -8zM211 598h-28q-5 0 -7.5 3t0.5 8l82 133q3 5 10 5h41q12 0 5 -10l-93 -133q-3 -6 -10 -6z" />
    <glyph glyph-name="Zdotaccent" unicode="&#x17b;" horiz-adv-x="569" 
d="M525 0h-482q-9 0 -9 8v23q0 7 4 11l414 622h-394q-8 0 -8 8v35q0 8 8 8h459q8 0 8 -8v-24q0 -5 -3 -10l-413 -622h416q8 0 8 -8v-35q0 -8 -8 -8zM322 861q0 -17 -11 -28.5t-28 -11.5t-28.5 11.5t-11.5 28.5t11.5 28t28.5 11t28 -11t11 -28z" />
    <glyph glyph-name="zdotaccent" unicode="&#x17c;" horiz-adv-x="456" 
d="M416 0h-377q-8 0 -8 8v19q0 7 3 11l310 429h-290q-8 0 -8 8v31q0 9 8 9h355q8 0 8 -9v-17q0 -5 -3 -10l-311 -431h313q9 0 9 -9v-31q0 -8 -9 -8zM266 656q0 -16 -10.5 -26t-26.5 -10t-26.5 10t-10.5 26t10.5 26.5t26.5 10.5t26.5 -10.5t10.5 -26.5z" />
    <glyph glyph-name="Zcaron" unicode="&#x17d;" horiz-adv-x="569" 
d="M525 0h-482q-9 0 -9 8v23q0 7 4 11l414 622h-394q-8 0 -8 8v35q0 8 8 8h459q8 0 8 -8v-24q0 -5 -3 -10l-413 -622h416q8 0 8 -8v-35q0 -8 -8 -8zM132 936h37q6 0 11 -5l102 -103l102 103q7 5 11 5h37q5 0 7 -3t-2 -8l-127 -133q-4 -5 -11 -5h-34q-6 0 -10 5l-127 133
q-9 11 4 11z" />
    <glyph glyph-name="zcaron" unicode="&#x17e;" horiz-adv-x="456" 
d="M416 0h-377q-8 0 -8 8v19q0 7 3 11l310 429h-290q-8 0 -8 8v31q0 9 8 9h355q8 0 8 -9v-17q0 -5 -3 -10l-311 -431h313q9 0 9 -9v-31q0 -8 -9 -8zM99 748h33q6 0 11 -5l89 -106l89 106q3 5 10 5h34q12 0 4 -11l-113 -133q-3 -5 -10 -5h-28q-5 0 -10 5l-114 133q-6 11 5 11
z" />
    <glyph glyph-name="florin" unicode="&#x192;" horiz-adv-x="438" 
d="M165 7q-27 -135 -120 -135q-33 0 -62 12q-8 2 -6 11l8 26q2 8 11 6q19 -8 44 -8q31 0 47.5 23.5t25.5 77.5l59 314h-90q-8 0 -8 8v32q0 9 8 9h99l38 203q13 67 41.5 103.5t87.5 36.5q32 0 69 -11q8 -3 6 -11l-6 -26q-3 -8 -10 -6q-25 9 -52 9q-38 0 -56.5 -25.5
t-28.5 -82.5l-36 -190h105q8 0 8 -9v-32q0 -8 -8 -8h-113z" />
    <glyph glyph-name="uni0218" unicode="&#x218;" horiz-adv-x="599" 
d="M554 185q0 -95 -69.5 -145.5t-182.5 -50.5q-73 0 -130.5 22.5t-117.5 72.5q-6 6 -1 12l21 29q5 6 12 2q104 -85 217 -86q87 0 141 37t54 107q0 63 -47 96t-158 58q-114 26 -176 74t-62 133q0 88 69.5 134t174.5 46q126 0 233 -80q6 -4 2 -12l-20 -28q-5 -8 -12 -3
q-92 69 -209 71q-79 0 -130.5 -33.5t-51.5 -96.5q0 -60 47.5 -94t147.5 -57q129 -31 188.5 -76t59.5 -132zM274 -235h-25q-9 0 -8 9l39 144q3 7 9 7h36q9 0 7 -9l-49 -144q-3 -7 -9 -7z" />
    <glyph glyph-name="uni0219" unicode="&#x219;" horiz-adv-x="467" 
d="M430 139q0 -69 -52.5 -109.5t-142.5 -40.5q-108 0 -193 65q-7 4 -3 11l17 28q5 8 12 2q78 -58 168 -58q63 0 101.5 26t38.5 74q0 20 -9 36t-20 25.5t-34 18t-36.5 11.5l-40.5 9q-36 7 -63.5 15.5t-59 25.5t-49 45t-17.5 66q0 65 53 101t132 36q89 0 175 -48q7 -4 3 -12
l-16 -27q-4 -8 -12 -3q-71 41 -152 41q-59 0 -95 -23.5t-36 -64.5q0 -25 11.5 -43t35 -29.5t44.5 -18t56 -13.5q34 -7 53 -12t48 -16.5t44 -25.5t27 -37.5t12 -54.5zM218 -235h-22q-10 0 -8 10l37 144q2 7 9 7h32q10 0 7 -10l-45 -144q-4 -7 -10 -7z" />
    <glyph glyph-name="uni021A" unicode="&#x21a;" horiz-adv-x="545" 
d="M20 715h504q9 0 9 -8v-35q0 -8 -9 -8h-225v-656q0 -8 -9 -8h-38q-9 0 -9 8v656h-223q-8 0 -8 8v35q0 8 8 8zM247 -235h-25q-10 0 -8 9l39 144q3 7 9 7h36q8 0 7 -9l-49 -144q-4 -7 -9 -7z" />
    <glyph glyph-name="uni021B" unicode="&#x21b;" horiz-adv-x="310" 
d="M123 161q0 -58 28.5 -90t82.5 -32q17 0 55 2q4 1 6 -1t2 -7v-32q0 -8 -8 -9q-27 -3 -57 -3q-75 0 -118.5 44t-43.5 126v476q0 8 8 8h32q7 0 9 -8l3 -122h153q8 0 8 -9v-31q0 -8 -8 -8h-152v-304zM158 -235h-22q-10 0 -8 10l37 144q2 7 9 7h32q10 0 7 -10l-45 -144
q-4 -7 -10 -7z" />
    <glyph glyph-name="uni0237" unicode="&#x237;" horiz-adv-x="209" 
d="M135 -27q0 -87 -35.5 -130.5t-100.5 -43.5q-18 0 -50 4q-8 1 -8 10v31q0 4 2 6.5t6 1.5q32 -4 44 -4q44 0 66.5 28.5t22.5 93.5v536q0 9 9 9h36q8 0 8 -9v-533z" />
    <glyph glyph-name="circumflex" unicode="&#x2c6;" horiz-adv-x="316" 
d="M58 598h-33q-11 0 -5 11l114 133q5 5 10 5h28q7 0 10 -5l113 -133q8 -11 -4 -11h-34q-7 0 -10 5l-89 106l-89 -106q-5 -5 -11 -5z" />
    <glyph glyph-name="caron" unicode="&#x2c7;" horiz-adv-x="292" 
d="M25 748h33q6 0 11 -5l89 -106l89 106q3 5 10 5h34q12 0 4 -11l-113 -133q-3 -5 -10 -5h-28q-5 0 -10 5l-114 133q-6 11 5 11z" />
    <glyph glyph-name="breve" unicode="&#x2d8;" horiz-adv-x="276" 
d="M298 724q-7 -61 -46 -98.5t-103 -37.5q-63 0 -102 37.5t-46 97.5q-1 8 7 10l26 3q7 1 10 -7q15 -99 105 -99q45 0 72 26.5t34 72.5q1 8 10 7l25 -3q10 0 8 -9z" />
    <glyph glyph-name="dotaccent" unicode="&#x2d9;" horiz-adv-x="86" 
d="M80 656q0 -16 -10.5 -26t-26.5 -10t-26.5 10t-10.5 26t10.5 26.5t26.5 10.5t26.5 -10.5t10.5 -26.5z" />
    <glyph glyph-name="ring" unicode="&#x2da;" horiz-adv-x="210" 
d="M203 671q0 -44 -28 -70t-72 -26q-45 0 -73.5 26.5t-28.5 70.5t28.5 70t73.5 26q44 0 72 -26.5t28 -70.5zM37 671q0 -27 18.5 -44.5t47.5 -17.5t47 17.5t18 44.5q0 28 -18 45.5t-47 17.5t-47.5 -17.5t-18.5 -45.5z" />
    <glyph glyph-name="ogonek" unicode="&#x2db;" horiz-adv-x="187" 
d="M166 -182q-34 -17 -79 -17q-38 0 -60 20t-22 56q0 32 23.5 64.5t63.5 55.5q3 3 10 3h25q4 0 5.5 -1.5t0 -3.5t-4.5 -4q-35 -23 -55 -51t-20 -51q0 -41 45 -41q30 0 55 12q8 3 10 -6l7 -25q3 -7 -4 -11z" />
    <glyph glyph-name="tilde" unicode="&#x2dc;" horiz-adv-x="300" 
d="M294 680q-8 -24 -28 -43t-47 -19q-25 0 -69 24q-42 23 -63 23q-29 0 -45 -35q-3 -6 -11 -4l-21 12q-7 4 -4 11q9 24 29 41.5t47 17.5t71 -24q46 -23 62 -23q26 0 43 36q3 9 11 4l21 -11q7 -5 4 -10z" />
    <glyph glyph-name="hungarumlaut" unicode="&#x2dd;" horiz-adv-x="293" 
d="M30 598h-23q-11 0 -6 11l74 133q3 5 10 5h34q12 0 5 -10l-83 -133q-5 -6 -11 -6zM160 598h-23q-13 0 -7 11l79 133q3 5 10 5h34q12 0 5 -10l-88 -133q-3 -6 -10 -6z" />
    <glyph glyph-name="gravecomb" unicode="&#x300;" horiz-adv-x="145" 
d="M139 598h-28q-7 0 -10 6l-93 133q-7 10 5 10h41q7 0 10 -5l82 -133q3 -5 0.5 -8t-7.5 -3z" />
    <glyph glyph-name="acutecomb" unicode="&#x301;" horiz-adv-x="147" 
d="M39 598h-28q-5 0 -7.5 3t0.5 8l82 133q3 5 10 5h41q12 0 5 -10l-93 -133q-3 -6 -10 -6z" />
    <glyph glyph-name="uni0302" unicode="&#x302;" horiz-adv-x="316" 
d="M58 598h-33q-11 0 -5 11l114 133q5 5 10 5h28q7 0 10 -5l113 -133q8 -11 -4 -11h-34q-7 0 -10 5l-89 106l-89 -106q-5 -5 -11 -5z" />
    <glyph glyph-name="tildecomb" unicode="&#x303;" horiz-adv-x="300" 
d="M294 680q-8 -24 -28 -43t-47 -19q-25 0 -69 24q-42 23 -63 23q-29 0 -45 -35q-3 -6 -11 -4l-21 12q-7 4 -4 11q9 24 29 41.5t47 17.5t71 -24q46 -23 62 -23q26 0 43 36q3 9 11 4l21 -11q7 -5 4 -10z" />
    <glyph glyph-name="uni0304" unicode="&#x304;" horiz-adv-x="258" 
d="M0 630v26q0 9 8 9h242q8 0 8 -9v-26q0 -9 -8 -9h-242q-8 0 -8 9z" />
    <glyph glyph-name="uni0306" unicode="&#x306;" horiz-adv-x="299" 
d="M298 724q-7 -61 -46 -98.5t-103 -37.5q-63 0 -102 37.5t-46 97.5q-1 8 7 10l26 3q7 1 10 -7q15 -99 105 -99q45 0 72 26.5t34 72.5q1 8 10 7l25 -3q10 0 8 -9z" />
    <glyph glyph-name="uni0307" unicode="&#x307;" horiz-adv-x="122" 
d="M98 656q0 -16 -10.5 -26t-26.5 -10t-26.5 10t-10.5 26t10.5 26.5t26.5 10.5t26.5 -10.5t10.5 -26.5z" />
    <glyph glyph-name="uni0308" unicode="&#x308;" horiz-adv-x="261" 
d="M75 656q0 -16 -9.5 -25t-25.5 -9q-15 0 -24.5 9t-9.5 25t9.5 25.5t24.5 9.5q16 0 25.5 -9.5t9.5 -25.5zM255 656q0 -16 -9.5 -25t-24.5 -9t-25 9.5t-10 24.5q0 16 10 25.5t25 9.5t24.5 -9.5t9.5 -25.5z" />
    <glyph glyph-name="uni030A" unicode="&#x30a;" horiz-adv-x="205" 
d="M203 671q0 -44 -28 -70t-72 -26q-45 0 -73.5 26.5t-28.5 70.5t28.5 70t73.5 26q44 0 72 -26.5t28 -70.5zM37 671q0 -27 18.5 -44.5t47.5 -17.5t47 17.5t18 44.5q0 28 -18 45.5t-47 17.5t-47.5 -17.5t-18.5 -45.5z" />
    <glyph glyph-name="uni030B" unicode="&#x30b;" horiz-adv-x="260" 
d="M30 598h-23q-11 0 -6 11l74 133q3 5 10 5h34q12 0 5 -10l-83 -133q-5 -6 -11 -6zM160 598h-23q-13 0 -7 11l79 133q3 5 10 5h34q12 0 5 -10l-88 -133q-3 -6 -10 -6z" />
    <glyph glyph-name="uni030C" unicode="&#x30c;" horiz-adv-x="303" 
d="M25 748h33q6 0 11 -5l89 -106l89 106q3 5 10 5h34q12 0 4 -11l-113 -133q-3 -5 -10 -5h-28q-5 0 -10 5l-114 133q-6 11 5 11z" />
    <glyph glyph-name="uni0312" unicode="&#x312;" horiz-adv-x="96" 
d="M46 598h-35q-10 0 -7 10l51 144q3 7 10 7h23q10 0 7 -10l-41 -143q-2 -8 -8 -8z" />
    <glyph glyph-name="uni0326" unicode="&#x326;" horiz-adv-x="90" 
d="M32 -235h-22q-10 0 -8 10l37 144q2 7 9 7h32q10 0 7 -10l-45 -144q-4 -7 -10 -7z" />
    <glyph glyph-name="uni0327" unicode="&#x327;" horiz-adv-x="178" 
d="M176 -125q0 -37 -28.5 -58t-76.5 -21q-32 0 -59 9q-7 3 -7 10v17q0 9 10 7q24 -8 51 -8q66 0 66 47q0 43 -74 44q-8 0 -10 5q-3 5 0 9l23 61q3 6 10 6h18q11 0 7 -9l-19 -49q42 -2 65.5 -19.5t23.5 -50.5z" />
    <glyph glyph-name="uni0328" unicode="&#x328;" horiz-adv-x="161" 
d="M161 -182q-34 -17 -79 -17q-38 0 -60 20t-22 56q0 32 23.5 64.5t63.5 55.5q3 3 10 3h25q4 0 5.5 -1.5t0 -3.5t-4.5 -4q-35 -23 -55 -51t-20 -51q0 -41 45 -41q29 0 55 12q8 3 10 -6l7 -25q3 -7 -4 -11z" />
    <glyph glyph-name="uni0335" unicode="&#x335;" horiz-adv-x="332" 
d="M323 595h-315q-8 0 -8 8v23q0 8 8 8h315q9 0 9 -8v-23q0 -8 -9 -8z" />
    <glyph glyph-name="uni0336" unicode="&#x336;" horiz-adv-x="523" 
d="M0 252v22q0 9 8 9h506q9 0 9 -9v-22q0 -9 -9 -9h-506q-8 0 -8 9z" />
    <glyph glyph-name="uni0337" unicode="&#x337;" horiz-adv-x="273" 
d="M5 315l257 230q4 4 7.5 2t3.5 -7v-34q0 -6 -5 -11l-258 -229q-4 -4 -7 -2.5t-3 6.5v35q0 7 5 10z" />
    <glyph glyph-name="uni0338" unicode="&#x338;" horiz-adv-x="525" 
d="M69 -39h-31q-12 0 -7 10l415 770q4 7 10 7h31q13 0 6 -11l-414 -770q-3 -6 -10 -6z" />
    <glyph glyph-name="tonos" unicode="&#x384;" horiz-adv-x="146" 
d="M39 598h-28q-5 0 -7.5 3t0.5 8l82 133q3 5 10 5h41q12 0 5 -10l-93 -133q-3 -6 -10 -6z" />
    <glyph glyph-name="dieresistonos" unicode="&#x385;" horiz-adv-x="280" 
d="M123 599h-22q-11 0 -8 10l64 132q1 6 10 6h34q10 0 5 -10l-73 -132q-3 -6 -10 -6zM65 656q0 -14 -9 -23t-23 -9t-23.5 9t-9.5 23q0 15 9.5 24t23.5 9t23 -9t9 -24zM280 656q0 -14 -9 -23t-23 -9q-15 0 -24 9t-9 23q0 15 9 24t24 9q14 0 23 -9t9 -24z" />
    <glyph glyph-name="Alphatonos" unicode="&#x386;" horiz-adv-x="628" 
d="M87 566h-28q-5 0 -7.5 3t0.5 8l82 133q3 5 10 5h41q12 0 5 -10l-93 -133q-3 -6 -10 -6zM85 0h-42q-9 0 -6 10l256 698q3 7 9 7h50q6 0 9 -7l257 -698q2 -10 -7 -10h-41q-6 0 -10 7l-73 202h-320l-73 -202q-4 -7 -9 -7zM326 651l-142 -391h286l-141 391h-3z" />
    <glyph glyph-name="Epsilontonos" unicode="&#x388;" horiz-adv-x="706" 
d="M50 566h-28q-5 0 -7.5 3t0.5 8l82 133q3 5 10 5h41q12 0 5 -10l-93 -133q-3 -6 -10 -6zM285 339v-288h364q8 0 8 -8v-35q0 -8 -8 -8h-411q-8 0 -8 8v699q0 8 8 8h396q9 0 9 -8v-35q0 -8 -9 -8h-349v-274h328q8 0 8 -9v-34q0 -8 -8 -8h-328z" />
    <glyph glyph-name="Etatonos" unicode="&#x389;" horiz-adv-x="831" 
d="M50 566h-28q-5 0 -7.5 3t0.5 8l82 133q3 5 10 5h41q12 0 5 -10l-93 -133q-3 -6 -10 -6zM682 389v318q0 8 8 8h38q9 0 9 -8v-699q0 -8 -9 -8h-38q-8 0 -8 8v330h-379v-330q0 -8 -8 -8h-39q-8 0 -8 8v699q0 8 8 8h39q8 0 8 -8v-318h379z" />
    <glyph glyph-name="Iotatonos" unicode="&#x38a;" horiz-adv-x="382" 
d="M50 566h-28q-5 0 -7.5 3t0.5 8l82 133q3 5 10 5h41q12 0 5 -10l-93 -133q-3 -6 -10 -6zM288 707v-699q0 -8 -8 -8h-39q-8 0 -8 8v699q0 8 8 8h39q8 0 8 -8z" />
    <glyph glyph-name="Omicrontonos" unicode="&#x38c;" horiz-adv-x="768" 
d="M53 566h-28q-5 0 -7.5 3t0.5 8l82 133q3 5 10 5h41q12 0 5 -10l-93 -133q-3 -6 -10 -6zM699 235q0 -110 -72.5 -178t-192.5 -68q-121 0 -193.5 68t-72.5 178v239q0 114 72 183t194 69q121 0 193 -69t72 -183v-239zM223 235q0 -87 57 -140.5t154 -53.5t153.5 53.5
t56.5 140.5v239q0 92 -56.5 146t-153.5 54q-98 0 -154.5 -54t-56.5 -146v-239z" />
    <glyph glyph-name="Upsilontonos" unicode="&#x38e;" horiz-adv-x="746" 
d="M59 566h-28q-5 0 -7.5 3t0.5 8l82 133q3 5 10 5h41q12 0 5 -10l-93 -133q-3 -6 -10 -6zM490 0h-38q-9 0 -9 8v270l-238 427q-5 10 6 10h44q7 0 10 -6l206 -379l206 379q3 6 10 6h44q11 0 6 -10l-238 -427v-270q0 -8 -9 -8z" />
    <glyph glyph-name="Omegatonos" unicode="&#x38f;" horiz-adv-x="779" 
d="M375 0h-196q-9 0 -9 8v33q0 9 9 9h114q-120 92 -120 229v181q0 125 70.5 195.5t195.5 70.5q126 0 196 -70.5t70 -195.5v-181q0 -137 -120 -229h115q9 0 9 -9v-33q0 -8 -9 -8h-196q-8 0 -8 8v26q0 7 6 10q70 38 108.5 98.5t38.5 136.5v181q0 103 -54.5 158.5t-155.5 55.5
q-100 0 -154.5 -55.5t-54.5 -158.5v-181q0 -76 38 -136.5t109 -98.5q6 -3 6 -10v-26q0 -8 -8 -8zM54 566h-28q-5 0 -7.5 3t0.5 8l82 133q3 5 10 5h41q12 0 5 -10l-93 -133q-3 -6 -10 -6z" />
    <glyph glyph-name="iotadieresistonos" unicode="&#x390;" horiz-adv-x="201" 
d="M119 0h-36q-9 0 -9 8v498q0 9 9 9h36q8 0 8 -9v-498q0 -8 -8 -8zM50 662q0 -14 -9 -22.5t-23 -8.5t-22.5 8.5t-8.5 22.5t8.5 23t22.5 9t23 -9t9 -23zM88 599h-21q-10 0 -7 10l61 126q1 6 10 6h32q9 0 6 -10l-72 -126q-1 -6 -9 -6zM234 662q0 -31 -31 -31q-14 0 -23 8.5
t-9 22.5t9 23t23 9t22.5 -9t8.5 -23z" />
    <glyph glyph-name="Alpha" unicode="&#x391;" horiz-adv-x="602" 
d="M59 0h-42q-9 0 -6 10l256 698q3 7 9 7h50q6 0 9 -7l257 -698q2 -10 -7 -10h-41q-6 0 -10 7l-73 202h-320l-73 -202q-4 -7 -9 -7zM300 651l-142 -391h286l-141 391h-3z" />
    <glyph glyph-name="Beta" unicode="&#x392;" horiz-adv-x="627" 
d="M544 536q0 -56 -27 -96t-75 -57q63 -17 97.5 -64.5t34.5 -116.5q0 -96 -64.5 -149t-182.5 -53h-225q-8 0 -8 8v699q0 8 8 8h226q110 0 163 -49t53 -130zM149 50h179q93 0 141.5 39t48.5 113q0 72 -44 113t-133 41h-192v-306zM489 536q0 58 -39 93.5t-122 35.5h-179v-259
h192q69 0 108.5 34t39.5 96z" />
    <glyph glyph-name="Gamma" unicode="&#x393;" horiz-adv-x="502" 
d="M141 0h-38q-9 0 -9 8v699q0 8 9 8h379q8 0 8 -8v-35q0 -8 -8 -8h-332v-656q0 -8 -9 -8z" />
    <glyph glyph-name="uni0394" unicode="&#x394;" horiz-adv-x="608" 
d="M591 0h-574q-9 0 -6 10l257 698q4 7 10 7h53q7 0 10 -7l257 -698q3 -10 -7 -10zM303 652l-219 -601h441l-219 601h-3z" />
    <glyph glyph-name="Epsilon" unicode="&#x395;" horiz-adv-x="570" 
d="M149 339v-288h364q8 0 8 -8v-35q0 -8 -8 -8h-411q-8 0 -8 8v699q0 8 8 8h396q9 0 9 -8v-35q0 -8 -9 -8h-349v-274h328q8 0 8 -9v-34q0 -8 -8 -8h-328z" />
    <glyph glyph-name="Zeta" unicode="&#x396;" horiz-adv-x="569" 
d="M525 0h-482q-9 0 -9 8v23q0 7 4 11l414 622h-394q-8 0 -8 8v35q0 8 8 8h459q8 0 8 -8v-24q0 -5 -3 -10l-413 -622h416q8 0 8 -8v-35q0 -8 -8 -8z" />
    <glyph glyph-name="Eta" unicode="&#x397;" horiz-adv-x="677" 
d="M528 389v318q0 8 8 8h38q9 0 9 -8v-699q0 -8 -9 -8h-38q-8 0 -8 8v330h-379v-330q0 -8 -8 -8h-39q-8 0 -8 8v699q0 8 8 8h39q8 0 8 -8v-318h379z" />
    <glyph glyph-name="Theta" unicode="&#x398;" horiz-adv-x="675" 
d="M606 235q0 -110 -73.5 -178t-194.5 -68q-122 0 -195.5 68t-73.5 178v239q0 114 73 183t196 69t195.5 -69t72.5 -183v-239zM124 235q0 -87 57.5 -140.5t156.5 -53.5q98 0 155.5 53.5t57.5 140.5v239q0 92 -57 146t-156 54t-156.5 -54t-57.5 -146v-239zM495 341h-315
q-8 0 -8 9v29q0 9 8 9h315q9 0 9 -9v-29q0 -9 -9 -9z" />
    <glyph glyph-name="Iota" unicode="&#x399;" horiz-adv-x="243" 
d="M149 707v-699q0 -8 -8 -8h-39q-8 0 -8 8v699q0 8 8 8h39q8 0 8 -8z" />
    <glyph glyph-name="Kappa" unicode="&#x39a;" horiz-adv-x="608" 
d="M141 0h-39q-8 0 -8 8v699q0 8 8 8h39q8 0 8 -8v-367l361 370q7 5 11 5h51q5 0 7 -3t-2 -7l-305 -312l324 -383q8 -10 -5 -10h-51q-8 0 -10 5l-295 349l-86 -85v-261q0 -8 -8 -8z" />
    <glyph glyph-name="Lambda" unicode="&#x39b;" horiz-adv-x="608" 
d="M59 0h-42q-9 0 -6 10l257 698q4 7 10 7h53q7 0 10 -7l257 -698q3 -10 -7 -10h-41q-8 0 -10 7l-234 646h-3l-234 -646q-3 -7 -10 -7z" />
    <glyph glyph-name="Mu" unicode="&#x39c;" horiz-adv-x="846" 
d="M141 0h-39q-8 0 -8 8v699q0 8 8 8h49q7 0 10 -6l186 -330q33 -59 75 -141h1q9 17 35.5 66.5t39.5 72.5l187 332q3 6 10 6h48q9 0 9 -8v-699q0 -8 -9 -8h-38q-9 0 -9 8v399q0 7 3 223l-1 1q-39 -76 -92 -170l-157 -283q-3 -5 -10 -5h-32q-7 0 -10 5l-158 283l-92 170
l-1 -1q3 -216 3 -224v-398q0 -8 -8 -8z" />
    <glyph glyph-name="Nu" unicode="&#x39d;" horiz-adv-x="701" 
d="M140 0h-38q-8 0 -8 8v699q0 8 8 8h44q7 0 10 -6l329 -510q49 -79 69 -114l2 3q-4 166 -4 266v353q0 8 9 8h38q8 0 8 -8v-699q0 -8 -8 -8h-44q-7 0 -10 5l-332 510q-27 42 -66 110l-1 -1q3 -222 3 -249v-367q0 -8 -9 -8z" />
    <glyph glyph-name="Xi" unicode="&#x39e;" horiz-adv-x="540" 
d="M473 664h-406q-9 0 -9 8v35q0 8 9 8h406q9 0 9 -8v-35q0 -8 -9 -8zM448 337h-355q-9 0 -9 8v34q0 9 9 9h355q8 0 8 -9v-34q0 -8 -8 -8zM482 0h-424q-9 0 -9 8v36q0 8 9 8h424q8 0 8 -8v-36q0 -8 -8 -8z" />
    <glyph glyph-name="Omicron" unicode="&#x39f;" horiz-adv-x="669" 
d="M600 235q0 -110 -72.5 -178t-192.5 -68q-121 0 -193.5 68t-72.5 178v239q0 114 72 183t194 69q121 0 193 -69t72 -183v-239zM124 235q0 -87 57 -140.5t154 -53.5t153.5 53.5t56.5 140.5v239q0 92 -56.5 146t-153.5 54q-98 0 -154.5 -54t-56.5 -146v-239z" />
    <glyph glyph-name="Pi" unicode="&#x3a0;" horiz-adv-x="679" 
d="M142 0h-39q-9 0 -9 8v699q0 8 9 8h473q9 0 9 -8v-699q0 -8 -9 -8h-38q-9 0 -9 8v656h-379v-656q0 -8 -8 -8z" />
    <glyph glyph-name="Rho" unicode="&#x3a1;" horiz-adv-x="617" 
d="M103 715h230q117 0 181 -59.5t64 -165.5q0 -107 -64 -166t-181 -59h-184v-257q0 -8 -8 -8h-38q-9 0 -9 8v699q0 8 9 8zM149 316h178q196 0 196 174q0 85 -49.5 129.5t-146.5 44.5h-178v-348z" />
    <glyph glyph-name="Sigma" unicode="&#x3a3;" horiz-adv-x="531" 
d="M48 715h432q9 0 9 -8v-34q0 -8 -9 -8h-361q6 -7 226 -291q4 -5 0 -12l-231 -311h366q9 0 9 -9v-34q0 -8 -9 -8h-432q-8 0 -8 8v23q0 7 3 11l241 326l-241 307q-3 6 -3 11v21q0 8 8 8z" />
    <glyph glyph-name="Tau" unicode="&#x3a4;" horiz-adv-x="545" 
d="M20 715h504q9 0 9 -8v-35q0 -8 -9 -8h-225v-656q0 -8 -9 -8h-38q-9 0 -9 8v656h-223q-8 0 -8 8v35q0 8 8 8z" />
    <glyph glyph-name="Upsilon" unicode="&#x3a5;" horiz-adv-x="550" 
d="M294 0h-38q-9 0 -9 8v270l-238 427q-5 10 6 10h44q7 0 10 -6l206 -379l206 379q3 6 10 6h44q11 0 6 -10l-238 -427v-270q0 -8 -9 -8z" />
    <glyph glyph-name="Phi" unicode="&#x3a6;" horiz-adv-x="849" 
d="M444 -64h-39q-8 0 -8 9v83h-71q-107 0 -183.5 68t-76.5 202v117q0 68 22.5 121.5t60 84.5t82.5 47t95 16h71v77q0 9 8 9h39q8 0 8 -9v-77h70q107 0 184 -68t77 -201v-117q0 -69 -22.5 -122.5t-60 -84.5t-83 -47t-95.5 -16h-70v-83q0 -9 -8 -9zM122 298q0 -109 60 -163.5
t147 -54.5h68v552h-68q-88 0 -147.5 -53.5t-59.5 -163.5v-117zM452 632v-552h68q86 0 146.5 54.5t60.5 163.5v117q0 110 -60 163.5t-147 53.5h-68z" />
    <glyph glyph-name="Chi" unicode="&#x3a7;" horiz-adv-x="579" 
d="M323 360l234 -350q6 -10 -5 -10h-48q-7 0 -10 6l-204 311l-205 -311q-3 -6 -10 -6h-47q-12 0 -6 10l235 350l-224 345q-6 10 6 10h47q6 0 9 -6l195 -305l194 305q3 6 10 6h46q12 0 6 -10z" />
    <glyph glyph-name="Psi" unicode="&#x3a8;" horiz-adv-x="800" 
d="M418 0h-39q-8 0 -8 8v152h-70q-102 0 -170 63.5t-68 171.5v312q0 8 8 8h40q8 0 8 -8v-312q0 -85 52 -134t135 -49h65v495q0 8 8 8h39q8 0 8 -8v-495h68q83 0 135 49t52 134v312q0 8 8 8h40q8 0 8 -8v-312q0 -108 -68 -171.5t-171 -63.5h-72v-152q0 -8 -8 -8z" />
    <glyph glyph-name="uni03A9" unicode="&#x3a9;" horiz-adv-x="680" 
d="M276 0h-196q-9 0 -9 8v33q0 9 9 9h114q-120 92 -120 229v181q0 125 70.5 195.5t195.5 70.5q126 0 196 -70.5t70 -195.5v-181q0 -137 -120 -229h115q9 0 9 -9v-33q0 -8 -9 -8h-196q-8 0 -8 8v26q0 7 6 10q70 38 108.5 98.5t38.5 136.5v181q0 103 -54.5 158.5t-155.5 55.5
q-100 0 -154.5 -55.5t-54.5 -158.5v-181q0 -76 38 -136.5t109 -98.5q6 -3 6 -10v-26q0 -8 -8 -8z" />
    <glyph glyph-name="Iotadieresis" unicode="&#x3aa;" horiz-adv-x="243" 
d="M141 0h-38q-9 0 -9 8v699q0 8 9 8h38q8 0 8 -8v-699q0 -8 -8 -8zM73 863q0 -16 -10 -25.5t-25 -9.5q-16 0 -26 9.5t-10 25.5t10 26t26 10q15 0 25 -10t10 -26zM242 863q0 -16 -10 -25.5t-26 -9.5t-25.5 9.5t-9.5 25.5t9.5 26t25.5 10t26 -10t10 -26z" />
    <glyph glyph-name="Upsilondieresis" unicode="&#x3ab;" horiz-adv-x="550" 
d="M210 863q0 -16 -10 -25.5t-26 -9.5t-25.5 9.5t-9.5 25.5t9.5 26t25.5 10t26 -10t10 -26zM411 863q0 -16 -10 -25.5t-26 -9.5t-26 9.5t-10 25.5t10 26t26 10t26 -10t10 -26zM294 0h-38q-9 0 -9 8v270l-238 427q-5 10 6 10h44q7 0 10 -6l206 -379l206 379q3 6 10 6h44
q11 0 6 -10l-238 -427v-270q0 -8 -9 -8z" />
    <glyph glyph-name="alphatonos" unicode="&#x3ac;" horiz-adv-x="534" 
d="M411 62q-67 -73 -162 -73q-87 0 -141 51t-54 148v132q0 97 59 151.5t153 54.5q84 0 189 -37q6 -3 6 -9v-472q0 -8 -8 -8h-31q-8 0 -8 8zM108 188q0 -75 38.5 -113t109.5 -38q85 0 152 74v342q-77 25 -144 25q-70 0 -113 -42t-43 -116v-132zM260 598h-28q-5 0 -7.5 3
t0.5 8l82 133q3 5 10 5h41q12 0 5 -10l-93 -133q-3 -6 -10 -6z" />
    <glyph glyph-name="epsilontonos" unicode="&#x3ad;" horiz-adv-x="481" 
d="M250 37q88 0 166 73q5 7 11 -1l21 -23q4 -6 -1 -11q-84 -86 -200 -86q-87 0 -144 45t-57 114q0 45 26.5 78t74.5 46q-82 34 -82 112q0 64 51.5 103t134.5 39q108 0 184 -68q6 -5 1 -12l-19 -23q-5 -7 -12 -1q-63 57 -154 57q-60 0 -96.5 -25t-36.5 -70q0 -41 31 -67.5
t83 -26.5h109q9 0 9 -9v-25q0 -9 -9 -9h-112q-60 0 -94.5 -27t-34.5 -72q0 -50 41.5 -80.5t108.5 -30.5zM239 598h-28q-5 0 -7.5 3t0.5 8l82 133q3 5 10 5h41q12 0 5 -10l-93 -133q-3 -6 -10 -6z" />
    <glyph glyph-name="etatonos" unicode="&#x3ae;" horiz-adv-x="551" 
d="M271 598h-28q-5 0 -7.5 3t0.5 8l82 133q3 5 10 5h41q12 0 5 -10l-93 -133q-3 -6 -10 -6zM117 0h-36q-9 0 -9 8v469q0 7 7 10q89 39 186 39q103 0 160 -52t57 -156v-310q0 -8 -8 -8h-36q-9 0 -9 8v308q0 161 -164 161q-73 0 -140 -24v-445q0 -8 -8 -8z" />
    <glyph glyph-name="iotatonos" unicode="&#x3af;" horiz-adv-x="201" 
d="M98 598h-28q-5 0 -7.5 3t0.5 8l82 133q3 5 10 5h41q12 0 5 -10l-93 -133q-3 -6 -10 -6zM119 0h-36q-9 0 -9 8v498q0 9 9 9h36q8 0 8 -9v-498q0 -8 -8 -8z" />
    <glyph glyph-name="upsilondieresistonos" unicode="&#x3b0;" horiz-adv-x="552" 
d="M482 181q0 -84 -56.5 -138t-148.5 -54q-93 1 -150 54.5t-57 137.5v325q0 9 8 9h36q9 0 9 -9v-325q0 -65 41 -104t113 -40q70 0 111 39.5t41 104.5v325q0 9 9 9h36q8 0 8 -9v-325zM260 599h-22q-11 0 -8 10l64 132q2 6 10 6h34q10 0 5 -10l-73 -132q-3 -6 -10 -6zM202 656
q0 -14 -9 -23t-23 -9t-23.5 9t-9.5 23q0 15 9.5 24t23.5 9t23 -9t9 -24zM417 656q0 -14 -9 -23t-23 -9q-15 0 -24 9t-9 23q0 15 9 24t24 9q14 0 23 -9t9 -24z" />
    <glyph glyph-name="alpha" unicode="&#x3b1;" horiz-adv-x="534" 
d="M411 62q-67 -73 -162 -73q-87 0 -141 51t-54 148v132q0 97 59 151.5t153 54.5q84 0 189 -37q6 -3 6 -9v-472q0 -8 -8 -8h-31q-8 0 -8 8zM108 188q0 -75 38.5 -113t109.5 -38q85 0 152 74v342q-77 25 -144 25q-70 0 -113 -42t-43 -116v-132z" />
    <glyph glyph-name="beta" unicode="&#x3b2;" 
d="M462 537q0 -60 -28.5 -103t-75.5 -59q62 -14 96 -61t34 -116q0 -100 -55.5 -154t-152.5 -55q-85 0 -153 47v-217q0 -9 -9 -9h-35q-9 0 -9 9v712q0 95 51.5 145t140.5 50q91 0 143 -49.5t53 -139.5zM127 86q67 -49 148 -49q159 0 160 161q1 72 -39 109.5t-119 37.5h-88
q-9 0 -9 9v30q0 9 9 9h90q60 0 95 38t35 104q0 71 -37.5 107t-105.5 36t-103.5 -39t-35.5 -109v-444z" />
    <glyph glyph-name="gamma" unicode="&#x3b3;" horiz-adv-x="485" 
d="M260 -190h-35q-9 0 -9 8v186l-198 501q-4 10 7 10h39q6 0 10 -7l110 -286l58 -163h1l57 162l110 287q4 7 10 7h39q11 0 7 -10l-197 -501v-186q0 -8 -9 -8z" />
    <glyph glyph-name="delta" unicode="&#x3b4;" horiz-adv-x="529" 
d="M124 591q0 -22 13.5 -40.5t41 -33t50.5 -24t61 -21.5q43 -15 73.5 -30t58 -38.5t41.5 -57t14 -76.5v-90q0 -87 -60.5 -139t-149.5 -52q-91 0 -153 51.5t-62 136.5v97q0 145 147 188q-59 24 -93 55t-34 76q0 60 53.5 96.5t145.5 36.5q93 0 169 -47q7 -4 3 -11l-15 -30
q-4 -6 -12 -3q-70 43 -148 43q-65 0 -104.5 -23t-39.5 -64zM267 37q68 0 112.5 38.5t44.5 105.5v87q0 72 -45 108.5t-122 56.5q-151 -24 -151 -161v-94q0 -64 45.5 -102.5t115.5 -38.5z" />
    <glyph glyph-name="epsilon" unicode="&#x3b5;" horiz-adv-x="481" 
d="M250 37q88 0 166 73q5 7 11 -1l21 -23q4 -6 -1 -11q-84 -86 -200 -86q-87 0 -144 45t-57 114q0 45 26.5 78t74.5 46q-82 34 -82 112q0 64 51.5 103t134.5 39q108 0 184 -68q6 -5 1 -12l-19 -23q-5 -7 -12 -1q-63 57 -154 57q-60 0 -96.5 -25t-36.5 -70q0 -41 31 -67.5
t83 -26.5h109q9 0 9 -9v-25q0 -9 -9 -9h-112q-60 0 -94.5 -27t-34.5 -72q0 -50 41.5 -80.5t108.5 -30.5z" />
    <glyph glyph-name="zeta" unicode="&#x3b6;" horiz-adv-x="453" 
d="M408 -47q0 -50 -70 -131q-6 -6 -12 -1l-23 20q-7 5 -1 12q54 61 54 94q0 9 -5.5 16.5t-21 13.5t-26 9.5t-35.5 10.5q-37 10 -59 17t-57 25t-54.5 39.5t-35 58t-15.5 83.5q0 114 80 230t231 216l-1 1h-277q-9 0 -9 8v32q0 8 9 8h357q8 0 8 -8v-21q0 -7 -6 -10
q-162 -103 -250.5 -221.5t-88.5 -226.5q0 -74 38 -113.5t103 -61.5q17 -6 47.5 -15t47.5 -15t36 -16t27.5 -23t8.5 -31z" />
    <glyph glyph-name="eta" unicode="&#x3b7;" horiz-adv-x="551" 
d="M117 0h-36q-9 0 -9 8v469q0 7 7 10q89 39 186 39q103 0 160 -52t57 -156v-310q0 -8 -8 -8h-36q-9 0 -9 8v308q0 161 -164 161q-73 0 -140 -24v-445q0 -8 -8 -8z" />
    <glyph glyph-name="theta" unicode="&#x3b8;" horiz-adv-x="570" 
d="M501 197q0 -96 -57.5 -152t-157.5 -56q-100 1 -158.5 57t-58.5 151v320q0 95 58.5 151.5t158.5 57.5q100 0 157.5 -57t57.5 -152v-320zM123 518v-127h325v127q0 74 -42.5 117.5t-119.5 42.5t-120 -44t-43 -116zM123 195q0 -73 42 -115t121 -43t120.5 42t41.5 116v148
h-325v-148z" />
    <glyph glyph-name="iota" unicode="&#x3b9;" horiz-adv-x="201" 
d="M119 0h-36q-9 0 -9 8v498q0 9 9 9h36q8 0 8 -9v-498q0 -8 -8 -8z" />
    <glyph glyph-name="kappa" unicode="&#x3ba;" horiz-adv-x="488" 
d="M472 0h-45q-7 0 -10 5l-216 244l-75 -70v-171q0 -8 -8 -8h-35q-9 0 -9 8v498q0 9 9 9h35q8 0 8 -9v-262l277 267q3 4 11 4h45q5 0 6.5 -3t-2.5 -7l-226 -219l240 -276q7 -10 -5 -10z" />
    <glyph glyph-name="lambda" unicode="&#x3bb;" horiz-adv-x="552" 
d="M114 0h-36q-8 0 -8 8v295q0 102 56.5 150.5t155.5 48.5q74 0 144 -35v74q0 63 -38.5 100t-109.5 37q-91 0 -157 -51q-8 -5 -12 2l-18 25q-6 6 1 11q32 27 83 44t104 17q90 0 144.5 -49.5t54.5 -137.5v-531q0 -8 -9 -8h-36q-8 0 -8 8v410q-72 37 -142 37q-160 0 -160 -152
v-295q0 -8 -9 -8z" />
    <glyph glyph-name="uni03BC" unicode="&#x3bc;" horiz-adv-x="563" 
d="M119 -190h-36q-9 0 -9 8v688q0 9 9 9h36q8 0 8 -9v-322q0 -63 41 -105t114 -42t113.5 42t40.5 105v322q0 9 9 9h36q8 0 8 -9v-498q0 -8 -8 -8h-29q-9 0 -9 8l-3 73q-15 -41 -58 -66.5t-100 -25.5q-56 0 -97.5 24.5t-58.5 63.5q1 -12 1 -49v-210q0 -8 -8 -8z" />
    <glyph glyph-name="nu" unicode="&#x3bd;" horiz-adv-x="485" 
d="M264 0h-46q-7 0 -9 7l-191 498q-4 10 7 10h39q7 0 9 -7l116 -312q6 -15 16 -43t19 -51.5t17 -43.5h1q18 51 51 138l116 312q2 7 10 7h39q9 0 7 -10l-191 -498q-4 -7 -10 -7z" />
    <glyph glyph-name="xi" unicode="&#x3be;" horiz-adv-x="454" 
d="M414 -49q0 -51 -69 -128q-5 -7 -12 -2l-24 20q-6 4 -1 12q54 56 54 91q0 19 -23 30.5t-73 25.5q-33 10 -50 15.5t-48.5 18.5t-49 27.5t-37 36t-28.5 50.5t-9 64q0 63 37.5 107.5t102.5 60.5q-56 17 -89.5 61t-33.5 104q0 76 56.5 128.5t149.5 52.5q103 0 179 -65
q6 -6 1 -12l-16 -24q-5 -8 -12 -2q-69 55 -153 55q-67 0 -109.5 -38.5t-42.5 -95.5q0 -59 42.5 -99.5t106.5 -40.5h83q8 0 8 -8v-32q0 -9 -8 -9h-90q-66 0 -112 -40.5t-46 -101.5t36.5 -95.5t99.5 -57.5q17 -6 50.5 -16.5t51 -17t38.5 -17.5t30.5 -25.5t9.5 -32.5z" />
    <glyph glyph-name="omicron" unicode="&#x3bf;" 
d="M481 181q0 -85 -56.5 -138.5t-156.5 -53.5q-99 0 -156 53.5t-57 138.5v152q0 85 57 139t156 54t156 -54t57 -139v-152zM109 181q0 -65 41.5 -104.5t117.5 -39.5q78 0 119 39.5t41 104.5v152q0 65 -41 104.5t-119 39.5q-76 0 -117.5 -39.5t-41.5 -104.5v-152z" />
    <glyph glyph-name="pi" unicode="&#x3c0;" horiz-adv-x="540" 
d="M82 515h376q8 0 8 -9v-498q0 -8 -8 -8h-36q-9 0 -9 8v459h-286v-459q0 -8 -9 -8h-36q-8 0 -8 8v498q0 9 8 9z" />
    <glyph glyph-name="rho" unicode="&#x3c1;" horiz-adv-x="539" 
d="M113 -190h-35q-8 0 -8 8v504q0 96 54.5 150t147.5 54q97 0 154.5 -54t57.5 -149v-137q0 -95 -57 -146t-155 -51q-77 0 -150 49v-220q0 -8 -9 -8zM122 89q70 -52 148 -52q76 0 119 38t43 113v134q0 75 -41.5 115.5t-117.5 40.5q-74 0 -112.5 -40.5t-38.5 -116.5v-232z" />
    <glyph glyph-name="sigma1" unicode="&#x3c2;" horiz-adv-x="449" 
d="M106 204q0 -31 12 -56t26.5 -40t44 -29.5t47 -21t52.5 -17.5q31 -10 48 -16t37.5 -17t29.5 -24.5t9 -31.5q0 -51 -69 -129q-7 -6 -12 -1l-23 19q-7 5 -1 12q54 64 54 92q0 18 -21.5 29t-70.5 25q-32 9 -48.5 15t-47 18.5t-47.5 26.5t-36 34.5t-27.5 48.5t-8.5 62v146
q0 79 55 128t137 49q103 0 179 -52q7 -5 2 -12l-18 -26q-5 -7 -12 -2q-64 43 -150 43q-61 0 -101 -36t-40 -93v-144z" />
    <glyph glyph-name="sigma" unicode="&#x3c3;" horiz-adv-x="550" 
d="M480 182q0 -86 -56.5 -139.5t-155.5 -53.5q-99 1 -156 54t-57 139v138q0 87 57 141t156 54h242q9 0 9 -9v-31q0 -8 -9 -8h-115q41 -18 63 -57t22 -90v-138zM108 182q0 -65 41.5 -104.5t118.5 -39.5q77 -1 118.5 39t41.5 105v138q0 69 -42.5 107.5t-117.5 39.5
q-77 0 -118.5 -40.5t-41.5 -106.5v-138z" />
    <glyph glyph-name="tau" unicode="&#x3c4;" horiz-adv-x="442" 
d="M239 0h-36q-8 0 -8 8v459h-170q-9 0 -9 8v31q0 9 9 9h392q9 0 9 -9v-31q0 -8 -9 -8h-169v-459q0 -8 -9 -8z" />
    <glyph glyph-name="upsilon" unicode="&#x3c5;" horiz-adv-x="552" 
d="M482 181q0 -84 -56.5 -138t-148.5 -54q-93 1 -150 54.5t-57 137.5v325q0 9 8 9h36q9 0 9 -9v-325q0 -65 41 -104t113 -40q70 0 111 39.5t41 104.5v325q0 9 9 9h36q8 0 8 -9v-325z" />
    <glyph glyph-name="phi" unicode="&#x3c6;" horiz-adv-x="720" 
d="M378 -190h-36q-8 0 -8 8v182h-87q-86 0 -139.5 52t-53.5 145v121q0 91 54.5 144t142.5 53h83v192q0 8 8 8h36q9 0 9 -8v-192h86q88 0 140.5 -53t52.5 -144v-121q0 -93 -53 -145t-136 -52h-90v-182q0 -8 -9 -8zM107 198q0 -72 38.5 -111t108.5 -39h80v419h-82
q-68 0 -106.5 -39.5t-38.5 -110.5v-119zM387 48h80q70 0 108.5 39t38.5 111v119q0 71 -38.5 110.5t-106.5 39.5h-82v-419z" />
    <glyph glyph-name="chi" unicode="&#x3c7;" horiz-adv-x="475" 
d="M270 262l185 -252q3 -4 1.5 -7t-6.5 -3h-45q-7 0 -10 5l-157 219l-158 -219q-3 -5 -10 -5h-45q-5 0 -6.5 3t1.5 7l185 252l-174 243q-6 10 5 10h44q7 0 10 -6l148 -209l147 209q3 6 10 6h44q5 0 6.5 -3t-1.5 -7z" />
    <glyph glyph-name="psi" unicode="&#x3c8;" horiz-adv-x="751" 
d="M394 -191h-36q-8 0 -8 8v183h-68q-93 0 -153 53t-60 148v305q0 9 9 9h36q8 0 8 -9v-304q0 -74 44 -114t123 -40h61v458q0 9 8 9h36q8 0 8 -9v-458h61q79 0 122.5 40t43.5 114v304q0 9 9 9h36q8 0 8 -9v-305q0 -95 -59.5 -148t-152.5 -53h-68v-183q0 -8 -8 -8z" />
    <glyph glyph-name="omega" unicode="&#x3c9;" horiz-adv-x="747" 
d="M513 490l7 31q2 9 10 6q75 -11 118 -60t43 -123v-177q0 -76 -49 -127t-120 -51q-109 0 -148 106q-17 -49 -54.5 -77.5t-93.5 -28.5q-71 0 -120.5 51t-49.5 127v177q0 74 43 123t118 60q8 3 10 -6l7 -31q1 -9 -6 -10q-56 -9 -87.5 -45.5t-31.5 -91.5v-175
q0 -55 33.5 -92.5t84.5 -37.5q58 0 89.5 37.5t31.5 94.5v160q0 8 8 8h36q9 0 9 -8v-160q0 -57 31 -94.5t88 -37.5q52 0 85 37.5t33 92.5v175q0 55 -31 91.5t-88 45.5q-7 1 -6 10z" />
    <glyph glyph-name="iotadieresis" unicode="&#x3ca;" horiz-adv-x="201" 
d="M118 0h-36q-8 0 -8 8v498q0 9 8 9h36q9 0 9 -9v-498q0 -8 -9 -8zM68 656q0 -14 -9.5 -24t-24.5 -10t-24.5 10t-9.5 24q0 15 9.5 25t24.5 10t24.5 -10t9.5 -25zM200 656q0 -14 -10 -24t-25 -10t-24 9.5t-9 24.5t9 25t24 10t25 -10t10 -25z" />
    <glyph glyph-name="upsilondieresis" unicode="&#x3cb;" horiz-adv-x="552" 
d="M482 181q0 -84 -56.5 -138t-148.5 -54q-93 1 -150 54.5t-57 137.5v325q0 9 8 9h36q9 0 9 -9v-325q0 -65 41 -104t113 -40q70 0 111 39.5t41 104.5v325q0 9 9 9h36q8 0 8 -9v-325zM221 656q0 -16 -9.5 -25t-25.5 -9q-15 0 -24.5 9t-9.5 25t9.5 25.5t24.5 9.5
q16 0 25.5 -9.5t9.5 -25.5zM401 656q0 -16 -9.5 -25t-24.5 -9t-25 9.5t-10 24.5q0 16 10 25.5t25 9.5t24.5 -9.5t9.5 -25.5z" />
    <glyph glyph-name="omicrontonos" unicode="&#x3cc;" 
d="M239 598h-28q-5 0 -7.5 3t0.5 8l82 133q3 5 10 5h41q12 0 5 -10l-93 -133q-3 -6 -10 -6zM481 181q0 -85 -56.5 -138.5t-156.5 -53.5q-99 0 -156 53.5t-57 138.5v152q0 85 57 139t156 54t156 -54t57 -139v-152zM109 181q0 -65 41.5 -104.5t117.5 -39.5q78 0 119 39.5
t41 104.5v152q0 65 -41 104.5t-119 39.5q-76 0 -117.5 -39.5t-41.5 -104.5v-152z" />
    <glyph glyph-name="upsilontonos" unicode="&#x3cd;" horiz-adv-x="552" 
d="M482 181q0 -84 -56.5 -138t-148.5 -54q-93 1 -150 54.5t-57 137.5v325q0 9 8 9h36q9 0 9 -9v-325q0 -65 41 -104t113 -40q70 0 111 39.5t41 104.5v325q0 9 9 9h36q8 0 8 -9v-325zM273 598h-28q-5 0 -7.5 3t0.5 8l82 133q3 5 10 5h41q12 0 5 -10l-93 -133q-3 -6 -10 -6z
" />
    <glyph glyph-name="omegatonos" unicode="&#x3ce;" horiz-adv-x="747" 
d="M513 490l7 31q2 9 10 6q75 -11 118 -60t43 -123v-177q0 -76 -49 -127t-120 -51q-109 0 -148 106q-17 -49 -54.5 -77.5t-93.5 -28.5q-71 0 -120.5 51t-49.5 127v177q0 74 43 123t118 60q8 3 10 -6l7 -31q1 -9 -6 -10q-56 -9 -87.5 -45.5t-31.5 -91.5v-175
q0 -55 33.5 -92.5t84.5 -37.5q58 0 89.5 37.5t31.5 94.5v160q0 8 8 8h36q9 0 9 -8v-160q0 -57 31 -94.5t88 -37.5q52 0 85 37.5t33 92.5v175q0 55 -31 91.5t-88 45.5q-7 1 -6 10zM371 598h-28q-5 0 -7.5 3t0.5 8l82 133q3 5 10 5h41q12 0 5 -10l-93 -133q-3 -6 -10 -6z" />
    <glyph glyph-name="uni0401" unicode="&#x401;" horiz-adv-x="570" 
d="M149 339v-288h364q8 0 8 -8v-35q0 -8 -8 -8h-411q-8 0 -8 8v699q0 8 8 8h396q9 0 9 -8v-35q0 -8 -9 -8h-349v-274h328q8 0 8 -9v-34q0 -8 -8 -8h-328zM240 863q0 -16 -10 -26t-26 -10t-26 10t-10 26t10 26.5t26 10.5t26 -10.5t10 -26.5zM441 863q0 -16 -10 -26t-26 -10
t-26 10t-10 26q0 17 10 27t26 10t26 -10.5t10 -26.5z" />
    <glyph glyph-name="uni0402" unicode="&#x402;" horiz-adv-x="712" 
d="M299 489q71 32 143 32q100 0 157 -52t57 -157v-149q0 -87 -36 -130.5t-101 -43.5q-22 0 -50 4q-9 1 -9 10v32q0 10 9 8q24 -3 45 -3q43 0 65 28t22 92v149q0 162 -162 162q-71 0 -140 -33v-430q0 -8 -9 -8h-38q-8 0 -8 8v656h-224q-8 0 -8 8v35q0 8 8 8h504q8 0 8 -8v-35
q0 -8 -8 -8h-225v-175z" />
    <glyph glyph-name="uni0403" unicode="&#x403;" horiz-adv-x="502" 
d="M141 0h-38q-9 0 -9 8v699q0 8 9 8h379q8 0 8 -8v-35q0 -8 -8 -8h-332v-656q0 -8 -9 -8zM396 926l-118 -134q-5 -5 -11 -5h-32q-12 0 -5 11l106 133q4 5 10 5h45q13 0 5 -10z" />
    <glyph glyph-name="uni0404" unicode="&#x404;" horiz-adv-x="586" 
d="M546 69q-93 -80 -225 -80q-115 0 -183 65t-68 177v253q0 112 68 177t180 65q119 0 212 -73q7 -4 2 -11l-20 -29q-4 -7 -12 -2q-81 63 -183 63q-92 0 -142 -52t-50 -138v-101h310q9 0 9 -9v-35q0 -8 -9 -8h-310v-100q0 -86 50.5 -138t143.5 -52q112 0 197 71q7 6 12 -2
l20 -29q5 -7 -2 -12z" />
    <glyph glyph-name="uni0405" unicode="&#x405;" horiz-adv-x="607" 
d="M558 185q0 -95 -69.5 -145.5t-182.5 -50.5q-73 0 -130.5 22.5t-117.5 72.5q-6 6 -1 12l21 29q5 6 12 2q104 -85 217 -86q87 0 141 37t54 107q0 63 -47 96t-158 58q-114 26 -176 74t-62 133q0 88 69.5 134t174.5 46q126 0 233 -80q6 -4 2 -12l-20 -28q-5 -8 -12 -3
q-92 69 -209 71q-79 0 -130.5 -33.5t-51.5 -96.5q0 -60 47.5 -94t147.5 -57q129 -31 188.5 -76t59.5 -132z" />
    <glyph glyph-name="uni0406" unicode="&#x406;" horiz-adv-x="243" 
d="M149 707v-699q0 -8 -8 -8h-39q-8 0 -8 8v699q0 8 8 8h39q8 0 8 -8z" />
    <glyph glyph-name="uni0407" unicode="&#x407;" horiz-adv-x="243" 
d="M149 707v-699q0 -8 -8 -8h-39q-8 0 -8 8v699q0 8 8 8h39q8 0 8 -8zM74 863q0 -16 -10 -25.5t-26 -9.5t-25.5 9.5t-9.5 25.5t9.5 26t25.5 10t26 -10t10 -26zM242 863q0 -16 -10 -25.5t-26 -9.5t-26 9.5t-10 25.5t10 26t26 10t26 -10t10 -26z" />
    <glyph glyph-name="uni0408" unicode="&#x408;" horiz-adv-x="497" 
d="M408 214q0 -110 -52 -167t-146 -57q-103 0 -191 79q-6 4 -2 12l18 28q5 8 12 2q80 -69 163 -69q143 0 143 172v493q0 8 8 8h39q8 0 8 -8v-493z" />
    <glyph glyph-name="uni0409" unicode="&#x409;" horiz-adv-x="995" 
d="M183 178q-20 -99 -59 -140t-108 -41q-8 0 -8 8v35q0 8 8 8q48 1 74.5 34.5t40.5 116.5q27 146 36 507q1 9 9 9h363q9 0 9 -8v-263h163q119 0 182 -56.5t63 -164.5t-63.5 -165.5t-179.5 -57.5h-212q-9 0 -9 8v656h-271q-9 -351 -38 -486zM548 392v-340h165q187 0 187 171
q0 169 -189 169h-163z" />
    <glyph glyph-name="uni040A" unicode="&#x40a;" horiz-adv-x="990" 
d="M141 0h-39q-8 0 -8 8v699q0 8 8 8h39q8 0 8 -8v-289h351v289q0 8 9 8h38q9 0 9 -8v-289h146q251 0 251 -207q0 -101 -66 -156t-180 -55h-198q-9 0 -9 8v359h-351v-359q0 -8 -8 -8zM556 366v-314h151q90 0 139.5 40.5t49.5 118.5q0 155 -194 155h-146z" />
    <glyph glyph-name="uni040B" unicode="&#x40b;" horiz-adv-x="711" 
d="M294 489q71 32 142 32q101 0 158 -52t57 -157v-304q0 -8 -8 -8h-38q-7 0 -9 8v301q0 162 -163 162q-71 0 -139 -33v-430q0 -8 -9 -8h-38q-9 0 -9 8v656h-218q-8 0 -8 8v35q0 8 8 8h491q8 0 8 -8v-35q0 -8 -8 -8h-217v-175z" />
    <glyph glyph-name="uni040C" unicode="&#x40c;" horiz-adv-x="608" 
d="M426 926l-118 -134q-5 -5 -11 -5h-32q-12 0 -5 11l106 133q4 5 10 5h45q13 0 5 -10zM141 0h-39q-8 0 -8 8v699q0 8 8 8h39q8 0 8 -8v-367l361 370q7 5 11 5h51q5 0 7 -3t-2 -7l-305 -312l324 -383q8 -10 -5 -10h-51q-8 0 -10 5l-295 349l-86 -85v-261q0 -8 -8 -8z" />
    <glyph glyph-name="uni040E" unicode="&#x40e;" horiz-adv-x="528" 
d="M199 0h-43q-10 0 -6 10l100 217l-240 478q-5 10 6 10h43q7 0 10 -7l209 -422l185 422q1 7 9 7h43q5 0 6.5 -3t-0.5 -7l-312 -698q-3 -7 -10 -7zM421 910q-8 -63 -49 -101.5t-107 -38.5q-67 0 -107.5 38.5t-48.5 101.5q-1 7 7 9l27 7q9 1 10 -7q7 -49 35.5 -76.5
t76.5 -27.5t76.5 27.5t34.5 76.5q3 8 10 7l28 -7q8 -2 7 -9z" />
    <glyph glyph-name="uni040F" unicode="&#x40f;" horiz-adv-x="681" 
d="M540 715h38q9 0 9 -8v-699q0 -8 -9 -8h-211v-124q0 -9 -8 -9h-36q-8 0 -8 9v124h-212q-9 0 -9 8v699q0 8 9 8h38q9 0 9 -8v-656h381v656q0 8 9 8z" />
    <glyph glyph-name="uni0410" unicode="&#x410;" horiz-adv-x="602" 
d="M59 0h-42q-9 0 -6 10l256 698q3 7 9 7h50q6 0 9 -7l257 -698q2 -10 -7 -10h-41q-6 0 -10 7l-73 202h-320l-73 -202q-4 -7 -9 -7zM300 651l-142 -391h286l-141 391h-3z" />
    <glyph glyph-name="uni0411" unicode="&#x411;" horiz-adv-x="626" 
d="M150 429h189q123 0 181.5 -52t58.5 -162q0 -104 -62.5 -159.5t-172.5 -55.5h-241q-9 0 -9 8v699q0 8 9 8h421q8 0 8 -8v-35q0 -8 -8 -8h-374v-235zM150 51h193q87 0 133.5 41t46.5 123q0 84 -44 123.5t-139 39.5h-190v-327z" />
    <glyph glyph-name="uni0412" unicode="&#x412;" horiz-adv-x="627" 
d="M544 536q0 -56 -27 -96t-75 -57q63 -17 97.5 -64.5t34.5 -116.5q0 -96 -64.5 -149t-182.5 -53h-225q-8 0 -8 8v699q0 8 8 8h226q110 0 163 -49t53 -130zM149 50h179q93 0 141.5 39t48.5 113q0 72 -44 113t-133 41h-192v-306zM489 536q0 58 -39 93.5t-122 35.5h-179v-259
h192q69 0 108.5 34t39.5 96z" />
    <glyph glyph-name="uni0413" unicode="&#x413;" horiz-adv-x="502" 
d="M141 0h-38q-9 0 -9 8v699q0 8 9 8h379q8 0 8 -8v-35q0 -8 -8 -8h-332v-656q0 -8 -9 -8z" />
    <glyph glyph-name="uni0414" unicode="&#x414;" horiz-adv-x="664" 
d="M57 -137h-38q-9 0 -9 8v172q0 8 9 8h33q58 25 82.5 156.5t37.5 498.5q0 9 8 9h364q8 0 8 -8v-656h65q9 0 9 -8v-172q0 -8 -9 -8h-38q-8 0 -8 8v129h-506v-129q0 -8 -8 -8zM225 664q-8 -302 -28 -436t-66 -177h366v613h-272z" />
    <glyph glyph-name="uni0415" unicode="&#x415;" horiz-adv-x="570" 
d="M149 339v-288h364q8 0 8 -8v-35q0 -8 -8 -8h-411q-8 0 -8 8v699q0 8 8 8h396q9 0 9 -8v-35q0 -8 -9 -8h-349v-274h328q8 0 8 -9v-34q0 -8 -8 -8h-328z" />
    <glyph glyph-name="uni0416" unicode="&#x416;" horiz-adv-x="904" 
d="M882 0h-50q-7 0 -10 5l-264 349l-79 -86v-260q0 -8 -9 -8h-38q-8 0 -8 8v260l-79 86l-265 -349q-3 -5 -10 -5h-50q-5 0 -6.5 3t1.5 7l294 385l-275 310q-8 10 4 10h50q8 0 11 -5l325 -372v369q0 8 8 8h38q9 0 9 -8v-369l325 372q2 5 10 5h50q12 0 4 -10l-275 -310
l295 -385q6 -10 -6 -10z" />
    <glyph glyph-name="uni0417" unicode="&#x417;" horiz-adv-x="581" 
d="M504 532q-1 -53 -30 -95t-85 -60q65 -19 99 -66.5t34 -109.5q0 -98 -67.5 -155t-177.5 -57q-146 0 -241 88q-5 7 0 12l20 29q5 7 12 1q85 -78 209 -78q86 0 137.5 44t51.5 116q0 63 -46.5 105t-138.5 42h-106q-9 0 -9 8v34q0 8 9 8h113q77 0 118.5 39t41.5 94
q0 61 -47 102t-126 41q-115 0 -194 -72q-7 -6 -12 1l-20 28q-5 6 1 12q88 83 226 83q100 0 164 -56t64 -138z" />
    <glyph glyph-name="uni0418" unicode="&#x418;" horiz-adv-x="701" 
d="M599 0h-38q-9 0 -9 8v367q0 27 3 249l-1 1q-39 -68 -66 -110l-332 -510q-3 -5 -10 -5h-44q-8 0 -8 8v699q0 8 8 8h38q9 0 9 -8v-353q0 -100 -4 -266l2 -3q20 34 69 114l329 510q3 6 10 6h44q8 0 8 -8v-699q0 -8 -8 -8z" />
    <glyph glyph-name="uni0419" unicode="&#x419;" horiz-adv-x="701" 
d="M509 910q-8 -63 -49 -101.5t-107 -38.5q-67 0 -107.5 38.5t-48.5 101.5q-1 7 7 9l27 7q9 1 10 -7q7 -49 35.5 -76.5t76.5 -27.5t76.5 27.5t34.5 76.5q3 8 10 7l28 -7q8 -2 7 -9zM561 0h38q8 0 8 8v699q0 8 -8 8h-44q-7 0 -10 -6l-329 -510q-49 -80 -69 -114l-2 3
q4 166 4 266v353q0 8 -9 8h-38q-8 0 -8 -8v-699q0 -8 8 -8h44q7 0 10 5l332 510q27 42 66 110l1 -1q-3 -222 -3 -249v-367q0 -8 9 -8z" />
    <glyph glyph-name="uni041A" unicode="&#x41a;" horiz-adv-x="608" 
d="M141 0h-39q-8 0 -8 8v699q0 8 8 8h39q8 0 8 -8v-367l361 370q7 5 11 5h51q5 0 7 -3t-2 -7l-305 -312l324 -383q8 -10 -5 -10h-51q-8 0 -10 5l-295 349l-86 -85v-261q0 -8 -8 -8z" />
    <glyph glyph-name="uni041B" unicode="&#x41b;" horiz-adv-x="647" 
d="M186 213q-18 -117 -57 -165.5t-112 -50.5q-8 0 -8 8v35q0 8 8 8q50 2 76 40.5t40 135.5q20 141 29 483q0 8 8 8h374q9 0 9 -8v-699q0 -8 -9 -8h-38q-9 0 -9 8v656h-283q-6 -293 -28 -451z" />
    <glyph glyph-name="uni041C" unicode="&#x41c;" horiz-adv-x="846" 
d="M141 0h-39q-8 0 -8 8v699q0 8 8 8h49q7 0 10 -6l186 -330q33 -59 75 -141h1q9 17 35.5 66.5t39.5 72.5l187 332q3 6 10 6h48q9 0 9 -8v-699q0 -8 -9 -8h-38q-9 0 -9 8v399q0 7 3 223l-1 1q-39 -76 -92 -170l-157 -283q-3 -5 -10 -5h-32q-7 0 -10 5l-158 283l-92 170
l-1 -1q3 -216 3 -224v-398q0 -8 -8 -8z" />
    <glyph glyph-name="uni041D" unicode="&#x41d;" horiz-adv-x="677" 
d="M528 389v318q0 8 8 8h38q9 0 9 -8v-699q0 -8 -9 -8h-38q-8 0 -8 8v330h-379v-330q0 -8 -8 -8h-39q-8 0 -8 8v699q0 8 8 8h39q8 0 8 -8v-318h379z" />
    <glyph glyph-name="uni041E" unicode="&#x41e;" horiz-adv-x="669" 
d="M600 235q0 -110 -72.5 -178t-192.5 -68q-121 0 -193.5 68t-72.5 178v239q0 114 72 183t194 69q121 0 193 -69t72 -183v-239zM124 235q0 -87 57 -140.5t154 -53.5t153.5 53.5t56.5 140.5v239q0 92 -56.5 146t-153.5 54q-98 0 -154.5 -54t-56.5 -146v-239z" />
    <glyph glyph-name="uni041F" unicode="&#x41f;" horiz-adv-x="679" 
d="M142 0h-39q-9 0 -9 8v699q0 8 9 8h473q9 0 9 -8v-699q0 -8 -9 -8h-38q-9 0 -9 8v656h-379v-656q0 -8 -8 -8z" />
    <glyph glyph-name="uni0420" unicode="&#x420;" horiz-adv-x="617" 
d="M103 715h230q117 0 181 -59.5t64 -165.5q0 -107 -64 -166t-181 -59h-184v-257q0 -8 -8 -8h-38q-9 0 -9 8v699q0 8 9 8zM149 316h178q196 0 196 174q0 85 -49.5 129.5t-146.5 44.5h-178v-348z" />
    <glyph glyph-name="uni0421" unicode="&#x421;" horiz-adv-x="581" 
d="M546 69q-93 -80 -225 -80q-115 0 -183 65t-68 177v253q0 112 68 177t180 65q119 0 212 -73q7 -4 2 -11l-20 -29q-5 -7 -12 -1q-82 62 -183 62q-92 0 -142 -52t-50 -138v-253q0 -86 50.5 -138t143.5 -52q112 0 197 71q7 6 12 -2l20 -29q5 -7 -2 -12z" />
    <glyph glyph-name="uni0422" unicode="&#x422;" horiz-adv-x="545" 
d="M20 715h504q9 0 9 -8v-35q0 -8 -9 -8h-225v-656q0 -8 -9 -8h-38q-9 0 -9 8v656h-223q-8 0 -8 8v35q0 8 8 8z" />
    <glyph glyph-name="uni0423" unicode="&#x423;" horiz-adv-x="528" 
d="M199 0h-43q-10 0 -6 10l100 217l-240 478q-5 10 6 10h43q7 0 10 -7l209 -422l185 422q1 7 9 7h43q5 0 6.5 -3t-0.5 -7l-312 -698q-3 -7 -10 -7z" />
    <glyph glyph-name="uni0424" unicode="&#x424;" horiz-adv-x="849" 
d="M444 -64h-39q-8 0 -8 9v83h-71q-107 0 -183.5 68t-76.5 202v117q0 68 22.5 121.5t60 84.5t82.5 47t95 16h71v77q0 9 8 9h39q8 0 8 -9v-77h70q107 0 184 -68t77 -201v-117q0 -69 -22.5 -122.5t-60 -84.5t-83 -47t-95.5 -16h-70v-83q0 -9 -8 -9zM122 298q0 -109 60 -163.5
t147 -54.5h68v552h-68q-88 0 -147.5 -53.5t-59.5 -163.5v-117zM452 632v-552h68q86 0 146.5 54.5t60.5 163.5v117q0 110 -60 163.5t-147 53.5h-68z" />
    <glyph glyph-name="uni0425" unicode="&#x425;" horiz-adv-x="579" 
d="M323 360l234 -350q6 -10 -5 -10h-48q-7 0 -10 6l-204 311l-205 -311q-3 -6 -10 -6h-47q-12 0 -6 10l235 350l-224 345q-6 10 6 10h47q6 0 9 -6l195 -305l194 305q3 6 10 6h46q12 0 6 -10z" />
    <glyph glyph-name="uni0426" unicode="&#x426;" horiz-adv-x="687" 
d="M640 -131h-36q-9 0 -9 8v123h-493q-8 0 -8 8v699q0 8 8 8h39q8 0 8 -8v-656h371v656q0 8 8 8h38q9 0 9 -8v-656h65q9 0 9 -8v-166q0 -8 -9 -8z" />
    <glyph glyph-name="uni0427" unicode="&#x427;" horiz-adv-x="619" 
d="M517 0h-39q-9 0 -9 8v285q-88 -40 -165 -40q-115 0 -181.5 59.5t-66.5 167.5v227q0 8 9 8h39q8 0 8 -8v-225q0 -85 52.5 -131t143.5 -46q76 0 161 41v361q0 8 9 8h39q8 0 8 -8v-699q0 -8 -8 -8z" />
    <glyph glyph-name="uni0428" unicode="&#x428;" horiz-adv-x="953" 
d="M851 0h-749q-8 0 -8 8v699q0 8 8 8h39q8 0 8 -8v-656h300v656q0 8 8 8h39q8 0 8 -8v-656h300v656q0 8 8 8h39q8 0 8 -8v-699q0 -8 -8 -8z" />
    <glyph glyph-name="uni0429" unicode="&#x429;" horiz-adv-x="971" 
d="M925 -131h-37q-8 0 -8 8v123h-777q-9 0 -9 8v699q0 8 9 8h39q8 0 8 -8v-656h299v656q0 8 9 8h38q9 0 9 -8v-656h299v656q0 8 8 8h39q8 0 8 -8v-656h66q8 0 8 -8v-166q0 -8 -8 -8z" />
    <glyph glyph-name="uni042A" unicode="&#x42a;" horiz-adv-x="680" 
d="M398 0h-223q-8 0 -8 8v655h-144q-8 0 -8 9v35q0 8 8 8h191q8 0 8 -8v-261h174q119 0 182 -56t63 -163q0 -109 -63.5 -168t-179.5 -59zM222 395v-343h176q187 0 187 175q0 168 -189 168h-174z" />
    <glyph glyph-name="uni042B" unicode="&#x42b;" horiz-adv-x="860" 
d="M326 0h-223q-9 0 -9 8v699q0 8 9 8h39q8 0 8 -8v-260h174q118 0 181.5 -58t63.5 -163q0 -108 -62.5 -167t-180.5 -59zM757 0h-39q-8 0 -8 8v699q0 8 8 8h39q9 0 9 -8v-699q0 -8 -9 -8zM150 395v-343h176q187 0 187 174q0 169 -187 169h-176z" />
    <glyph glyph-name="uni042C" unicode="&#x42c;" horiz-adv-x="608" 
d="M326 0h-223q-9 0 -9 8v699q0 8 9 8h39q8 0 8 -8v-260h174q118 0 181.5 -58t63.5 -163q0 -109 -62.5 -167.5t-180.5 -58.5zM150 395v-343h176q187 0 187 174q0 169 -187 169h-176z" />
    <glyph glyph-name="uni042D" unicode="&#x42d;" horiz-adv-x="586" 
d="M40 69q-7 5 -2 12l20 29q5 8 12 2q85 -71 197 -71q93 0 143.5 52t50.5 138v100h-310q-9 0 -9 8v35q0 9 9 9h310v101q0 86 -50 138t-142 52q-102 0 -183 -63q-8 -5 -12 2l-20 29q-5 7 2 11q93 73 212 73q112 0 180 -65t68 -177v-253q0 -112 -68 -177t-183 -65
q-132 0 -225 80z" />
    <glyph glyph-name="uni042E" unicode="&#x42e;" horiz-adv-x="895" 
d="M825 228q0 -109 -73 -174t-184 -65t-184.5 65t-73.5 174v112h-161v-332q0 -8 -8 -8h-38q-9 0 -9 8v699q0 8 9 8h38q8 0 8 -8v-315h161v90q0 113 72.5 178.5t185.5 65.5q112 0 184.5 -65.5t72.5 -178.5v-254zM366 228q0 -84 56.5 -135.5t145.5 -51.5q88 0 144.5 51.5
t56.5 135.5v254q0 90 -55.5 141t-145.5 51t-146 -51t-56 -141v-254z" />
    <glyph glyph-name="uni042F" unicode="&#x42f;" horiz-adv-x="633" 
d="M57 497q0 102 64.5 160t178.5 58h230q8 0 8 -8v-699q0 -8 -8 -8h-38q-9 0 -9 8v271h-163l-213 -274q-3 -5 -10 -5h-50q-5 0 -6.5 3t1.5 7l216 273q-95 10 -148 65t-53 149zM301 330h182v333h-182q-91 0 -139.5 -43.5t-48.5 -123.5q0 -81 48 -123.5t140 -42.5z" />
    <glyph glyph-name="uni0430" unicode="&#x430;" horiz-adv-x="506" 
d="M65 474q74 52 183 52q92 0 141.5 -49t49.5 -140v-304q0 -7 -7 -10q-88 -34 -186 -34q-91 0 -150.5 42t-59.5 120q0 76 56 117t154 41q53 0 140 -16v43q0 141 -140 141q-87 0 -153 -41q-6 -5 -11 2l-17 26q-5 7 0 10zM90 151q0 -53 43 -83.5t113 -30.5t140 24v186
q-69 15 -140 15q-156 0 -156 -111z" />
    <glyph glyph-name="uni0431" unicode="&#x431;" horiz-adv-x="532" 
d="M122 443q66 46 155 46q94 0 148 -54t54 -153v-91q0 -94 -57.5 -148t-147.5 -54t-147.5 54t-57.5 148v313q0 82 53 133.5t133 66.5q3 1 30 5.5t45 8t43.5 11t42.5 16.5q8 4 11 -4l15 -27q3 -8 -3 -11q-21 -12 -51.5 -20.5t-70 -16.5t-44.5 -9q-151 -34 -151 -155v-59z
M273 37q68 0 110.5 41t42.5 113v90q0 77 -39 119t-112 42q-90 0 -153 -48v-203q0 -72 42 -113t109 -41z" />
    <glyph glyph-name="uni0432" unicode="&#x432;" horiz-adv-x="521" 
d="M284 0h-201q-9 0 -9 8v498q0 9 9 9h201q82 0 126.5 -37t44.5 -93q0 -43 -25 -73t-66 -41q110 -28 110 -130q0 -63 -50 -102t-140 -39zM127 470v-182h155q54 0 87 24.5t33 68.5q0 40 -30 64.5t-90 24.5h-155zM127 245v-200h155q69 0 104 27t35 74q0 48 -37 73.5t-102 25.5
h-155z" />
    <glyph glyph-name="uni0433" unicode="&#x433;" horiz-adv-x="399" 
d="M119 0h-36q-9 0 -9 8v498q0 9 9 9h292q8 0 8 -9v-31q0 -8 -8 -8h-248v-459q0 -8 -8 -8z" />
    <glyph glyph-name="uni0434" unicode="&#x434;" horiz-adv-x="557" 
d="M60 -137h-34q-9 0 -9 8v168q0 9 9 9h22q38 20 58.5 115t32.5 343q0 9 8 9h310q9 0 9 -9v-458h53q8 0 8 -9v-168q0 -8 -8 -8h-34q-9 0 -9 8v129h-408v-129q0 -8 -8 -8zM188 467q-15 -369 -79 -419h304v419h-225z" />
    <glyph glyph-name="uni0435" unicode="&#x435;" horiz-adv-x="513" 
d="M464 332v-94q0 -8 -9 -8h-345v-56q0 -63 43 -100t108 -37q89 0 163 64q8 5 12 -2l18 -23q6 -6 -1 -12q-86 -75 -193 -75q-84 0 -144 50t-60 135v158q0 93 58 143.5t147 50.5t146 -50.5t57 -143.5zM412 332q0 69 -41.5 107t-109.5 38q-70 0 -110.5 -37.5t-40.5 -107.5v-57
h302v57z" />
    <glyph glyph-name="uni0436" unicode="&#x436;" horiz-adv-x="721" 
d="M699 0h-44q-7 0 -10 5l-188 248l-70 -76v-169q0 -8 -9 -8h-35q-8 0 -8 8v169l-70 76l-188 -248q-4 -5 -11 -5h-43q-12 0 -6 10l213 279l-195 216q-4 4 -2.5 7t6.5 3h45q7 0 10 -5l151 -167l90 -101v264q0 9 8 9h35q9 0 9 -9v-264l90 101l150 167q5 5 11 5h44q5 0 7 -3
t-2 -7l-195 -216l212 -279q3 -4 1.5 -7t-6.5 -3z" />
    <glyph glyph-name="uni0437" unicode="&#x437;" horiz-adv-x="476" 
d="M411 386q0 -82 -82 -114q48 -13 74.5 -46t26.5 -79q0 -68 -57 -113t-145 -45q-112 0 -197 72q-6 6 -1 12l20 23q4 7 12 2q78 -61 165 -61q66 0 108 31t42 80q0 45 -34.5 72t-94.5 27h-113q-8 0 -8 9v25q0 9 8 9h110q52 0 82.5 26.5t30.5 68.5q0 44 -36.5 69t-94.5 25
q-89 0 -155 -52q-7 -5 -12 2l-18 23q-6 8 1 12q75 62 184 62q80 0 132 -39.5t52 -100.5z" />
    <glyph glyph-name="uni0438" unicode="&#x438;" horiz-adv-x="561" 
d="M127 0h-44q-9 0 -9 8v498q0 9 9 9h36q8 0 8 -9v-324q0 -73 -1 -106h1q31 53 73 117l225 317q5 5 11 5h43q8 0 8 -9v-498q0 -8 -8 -8h-36q-9 0 -9 8v310q0 17 0.5 58t0.5 59q-60 -95 -72 -113l-226 -317q-3 -5 -10 -5z" />
    <glyph glyph-name="uni0439" unicode="&#x439;" horiz-adv-x="561" 
d="M127 0h-44q-9 0 -9 8v498q0 9 9 9h36q8 0 8 -9v-324q0 -73 -1 -106h1q31 53 73 117l225 317q5 5 11 5h43q8 0 8 -9v-498q0 -8 -8 -8h-36q-9 0 -9 8v310q0 17 0.5 58t0.5 59q-60 -95 -72 -113l-226 -317q-3 -5 -10 -5zM428 727q-7 -61 -46 -98.5t-103 -37.5
q-63 0 -102 37.5t-46 97.5q-1 8 7 10l26 3q7 1 10 -7q15 -99 105 -99q45 0 72 26.5t34 72.5q1 8 10 7l25 -3q10 0 8 -9z" />
    <glyph glyph-name="uni043A" unicode="&#x43a;" horiz-adv-x="488" 
d="M472 0h-45q-7 0 -10 5l-216 244l-75 -70v-171q0 -8 -8 -8h-35q-9 0 -9 8v498q0 9 9 9h35q8 0 8 -9v-262l277 267q3 4 11 4h45q5 0 6.5 -3t-2.5 -7l-226 -219l240 -276q7 -10 -5 -10z" />
    <glyph glyph-name="uni043B" unicode="&#x43b;" horiz-adv-x="548" 
d="M165 181q-15 -104 -46.5 -143t-98.5 -41q-8 0 -8 8v31q0 9 8 9q40 2 61.5 32.5t32.5 118.5q14 99 24 310q2 9 9 9h319q8 0 8 -9v-498q0 -8 -8 -8h-36q-9 0 -9 8v459h-232q-9 -169 -24 -286z" />
    <glyph glyph-name="uni043C" unicode="&#x43c;" horiz-adv-x="656" 
d="M119 0h-36q-9 0 -9 8v498q0 9 9 9h41q7 0 10 -6l148 -262q7 -13 22.5 -42.5t23.5 -44.5h1q18 35 46 87l147 262q3 6 10 6h42q8 0 8 -9v-498q0 -8 -8 -8h-36q-8 0 -8 8v421l-60 -113l-119 -212q-3 -5 -10 -5h-26q-8 0 -9 5l-123 220q-20 35 -56 105h-1q1 -42 1 -421
q0 -8 -8 -8z" />
    <glyph glyph-name="uni043D" unicode="&#x43d;" horiz-adv-x="541" 
d="M119 0h-36q-9 0 -9 8v498q0 9 9 9h36q8 0 8 -9v-215h287v215q0 9 8 9h36q9 0 9 -9v-498q0 -8 -9 -8h-36q-8 0 -8 8v235h-287v-235q0 -8 -8 -8z" />
    <glyph glyph-name="uni043E" unicode="&#x43e;" 
d="M481 181q0 -85 -56.5 -138.5t-156.5 -53.5q-99 0 -156 53.5t-57 138.5v152q0 85 57 139t156 54t156 -54t57 -139v-152zM109 181q0 -65 41.5 -104.5t117.5 -39.5q78 0 119 39.5t41 104.5v152q0 65 -41 104.5t-119 39.5q-76 0 -117.5 -39.5t-41.5 -104.5v-152z" />
    <glyph glyph-name="uni043F" unicode="&#x43f;" horiz-adv-x="540" 
d="M82 515h376q8 0 8 -9v-498q0 -8 -8 -8h-36q-9 0 -9 8v459h-286v-459q0 -8 -9 -8h-36q-8 0 -8 8v498q0 9 8 9z" />
    <glyph glyph-name="uni0440" unicode="&#x440;" 
d="M78 490q92 36 188 36q101 0 158.5 -53.5t57.5 -161.5v-108q0 -104 -57 -159t-157 -55q-78 0 -143 40v-211q0 -8 -8 -8h-36q-9 0 -9 8v662q0 7 6 10zM265 37q163 0 163 166v108q0 167 -163 167q-76 0 -140 -24v-373q64 -44 140 -44z" />
    <glyph glyph-name="uni0441" unicode="&#x441;" horiz-adv-x="466" 
d="M436 50q-79 -61 -176 -61q-94 0 -149.5 53.5t-55.5 135.5v159q0 82 55.5 135.5t149.5 53.5q86 0 161 -52q7 -6 3 -12l-17 -26q-6 -6 -12 -2q-62 43 -135 43q-71 0 -111.5 -39.5t-40.5 -100.5v-159q0 -62 40.5 -101.5t111.5 -39.5q78 0 148 51q7 6 12 -1l17 -25
q5 -8 -1 -12z" />
    <glyph glyph-name="uni0442" unicode="&#x442;" horiz-adv-x="442" 
d="M239 0h-36q-8 0 -8 8v459h-170q-9 0 -9 8v31q0 9 9 9h392q9 0 9 -9v-31q0 -8 -9 -8h-169v-459q0 -8 -9 -8z" />
    <glyph glyph-name="uni0443" unicode="&#x443;" horiz-adv-x="545" 
d="M418 100v406q0 9 9 9h36q8 0 8 -9v-509q0 -92 -50 -144.5t-150 -52.5q-105 0 -189 74q-6 6 -1 12l19 26q5 7 11 1q78 -64 160 -65q150 1 148 152v49q-67 -31 -141 -31q-92 0 -150.5 50t-58.5 145v293q0 9 8 9h36q9 0 9 -9v-291q0 -74 43.5 -111t118.5 -37q74 0 134 33z
" />
    <glyph glyph-name="uni0444" unicode="&#x444;" horiz-adv-x="720" 
d="M378 -190h-36q-8 0 -8 8v182h-87q-86 0 -139.5 52t-53.5 145v121q0 91 54.5 144t142.5 53h83v192q0 8 8 8h36q9 0 9 -8v-192h86q88 0 140.5 -53t52.5 -144v-121q0 -93 -53 -145t-136 -52h-90v-182q0 -8 -9 -8zM107 198q0 -72 38.5 -111t108.5 -39h80v419h-82
q-68 0 -106.5 -39.5t-38.5 -110.5v-119zM387 48h80q70 0 108.5 39t38.5 111v119q0 71 -38.5 110.5t-106.5 39.5h-82v-419z" />
    <glyph glyph-name="uni0445" unicode="&#x445;" horiz-adv-x="475" 
d="M270 262l185 -252q3 -4 1.5 -7t-6.5 -3h-45q-7 0 -10 5l-157 219l-158 -219q-3 -5 -10 -5h-45q-5 0 -6.5 3t1.5 7l185 252l-174 243q-6 10 5 10h44q7 0 10 -6l148 -209l147 209q3 6 10 6h44q5 0 6.5 -3t-1.5 -7z" />
    <glyph glyph-name="uni0446" unicode="&#x446;" horiz-adv-x="557" 
d="M519 -131h-33q-9 0 -9 8v123h-395q-8 0 -8 8v498q0 9 8 9h36q9 0 9 -9v-458h286v458q0 9 9 9h36q8 0 8 -9v-458h53q8 0 8 -9v-162q0 -8 -8 -8z" />
    <glyph glyph-name="uni0447" unicode="&#x447;" horiz-adv-x="510" 
d="M428 0h-37q-8 0 -8 8v193q-71 -29 -143 -29q-91 0 -142 51t-51 152v131q0 9 8 9h36q9 0 9 -9v-130q0 -156 141 -156q71 0 142 30v256q0 9 8 9h37q8 0 8 -9v-498q0 -8 -8 -8z" />
    <glyph glyph-name="uni0448" unicode="&#x448;" horiz-adv-x="780" 
d="M697 0h-614q-9 0 -9 8v498q0 9 9 9h36q8 0 8 -9v-458h237v458q0 9 8 9h36q8 0 8 -9v-458h237v458q0 9 9 9h35q9 0 9 -9v-498q0 -8 -9 -8z" />
    <glyph glyph-name="uni0449" unicode="&#x449;" horiz-adv-x="797" 
d="M759 -131h-34q-8 0 -8 8v123h-634q-9 0 -9 8v498q0 9 9 9h36q8 0 8 -9v-458h237v458q0 9 8 9h36q8 0 8 -9v-458h237v458q0 9 9 9h35q9 0 9 -9v-458h53q8 0 8 -9v-162q0 -8 -8 -8z" />
    <glyph glyph-name="uni044A" unicode="&#x44a;" horiz-adv-x="570" 
d="M343 0h-191q-9 0 -9 8v459h-118q-8 0 -8 9v30q0 9 8 9h163q8 0 8 -9v-168h147q89 0 140.5 -46.5t51.5 -125.5q0 -83 -50 -124.5t-142 -41.5zM196 292v-246h141q145 0 145 121q0 60 -37 92.5t-108 32.5h-141z" />
    <glyph glyph-name="uni044B" unicode="&#x44b;" horiz-adv-x="665" 
d="M275 0h-192q-9 0 -9 8v498q0 9 9 9h36q8 0 8 -9v-168h148q89 0 140.5 -46.5t51.5 -125.5q0 -83 -50 -124.5t-142 -41.5zM127 292v-246h141q145 0 145 121q1 60 -36.5 92.5t-108.5 32.5h-141zM583 0h-36q-9 0 -9 8v498q0 9 9 9h36q8 0 8 -9v-498q0 -8 -8 -8z" />
    <glyph glyph-name="uni044C" unicode="&#x44c;" horiz-adv-x="502" 
d="M275 0h-192q-9 0 -9 8v498q0 9 9 9h36q8 0 8 -9v-168h148q89 0 140.5 -46.5t51.5 -125.5q0 -83 -50 -124.5t-142 -41.5zM127 292v-246h141q145 0 145 121q1 60 -36.5 92.5t-108.5 32.5h-141z" />
    <glyph glyph-name="uni044D" unicode="&#x44d;" horiz-adv-x="475" 
d="M215 37q69 0 110 39t41 97v71h-240q-8 0 -8 9v27q0 8 8 8h240v53q0 58 -41 97t-111 39q-78 0 -146 -43q-6 -4 -12 2l-16 26q-5 7 2 11q82 53 173 53q93 0 148.5 -52.5t55.5 -132.5v-167q0 -79 -56 -132t-148 -53q-101 0 -182 61q-7 4 -2 12l17 25q4 7 12 2
q73 -52 155 -52z" />
    <glyph glyph-name="uni044E" unicode="&#x44e;" horiz-adv-x="709" 
d="M248 338q0 81 54.5 134.5t148.5 53.5t148.5 -53.5t54.5 -134.5v-162q0 -81 -54.5 -134t-148.5 -53t-148.5 53t-54.5 134v68h-122v-236q0 -8 -8 -8h-35q-9 0 -9 8v498q0 9 9 9h35q8 0 8 -9v-214h122v46zM451 38q72 0 111 39t39 99v162q0 61 -39 100.5t-111 39.5
t-111 -39.5t-39 -100.5v-162q0 -60 39 -99t111 -39z" />
    <glyph glyph-name="uni044F" unicode="&#x44f;" horiz-adv-x="505" 
d="M89 0h-46q-12 0 -5 10l163 190q-74 6 -115.5 47.5t-41.5 108.5q0 78 51 118.5t141 40.5h187q8 0 8 -9v-498q0 -8 -8 -8h-36q-9 0 -9 8v188h-118l-161 -191q-5 -5 -10 -5zM97 356q0 -55 35.5 -84.5t103.5 -29.5h142v227h-142q-139 0 -139 -113z" />
    <glyph glyph-name="uni0451" unicode="&#x451;" horiz-adv-x="513" 
d="M205 656q0 -16 -9.5 -25t-25.5 -9q-15 0 -24.5 9t-9.5 25t9.5 25.5t24.5 9.5q16 0 25.5 -9.5t9.5 -25.5zM385 656q0 -16 -9.5 -25t-24.5 -9t-25 9.5t-10 24.5q0 16 10 25.5t25 9.5t24.5 -9.5t9.5 -25.5zM464 332v-94q0 -8 -9 -8h-345v-56q0 -63 43 -100t108 -37
q89 0 163 64q8 5 12 -2l18 -23q6 -6 -1 -12q-86 -75 -193 -75q-84 0 -144 50t-60 135v158q0 93 58 143.5t147 50.5t146 -50.5t57 -143.5zM412 332q0 69 -41.5 107t-109.5 38q-70 0 -110.5 -37.5t-40.5 -107.5v-57h302v57z" />
    <glyph glyph-name="uni0452" unicode="&#x452;" horiz-adv-x="553" 
d="M127 487q72 32 144 32q100 0 156.5 -52t56.5 -157v-334q0 -175 -134 -175q-22 0 -45 3q-8 2 -8 9v31q0 10 9 8q30 -2 40 -2q85 0 85 124v334q0 163 -163 163q-73 0 -141 -34v-429q0 -8 -8 -8h-36q-9 0 -9 8v588h-72q-9 0 -9 9v21q0 9 9 9h72v72q0 8 9 8h36q8 0 8 -8v-72
h162q8 0 8 -9v-21q0 -9 -8 -9h-162v-109z" />
    <glyph glyph-name="uni0453" unicode="&#x453;" horiz-adv-x="399" 
d="M119 0h-36q-9 0 -9 8v498q0 9 9 9h292q8 0 8 -9v-31q0 -8 -8 -8h-248v-459q0 -8 -8 -8zM218 598h-28q-5 0 -7.5 3t0.5 8l82 133q3 5 10 5h41q12 0 5 -10l-93 -133q-3 -6 -10 -6z" />
    <glyph glyph-name="uni0454" unicode="&#x454;" horiz-adv-x="475" 
d="M260 37q82 0 155 52q8 5 12 -2l17 -25q5 -8 -2 -12q-81 -61 -182 -61q-92 0 -148 53t-56 132v167q0 80 55.5 132.5t148.5 52.5q91 0 173 -53q7 -4 2 -11l-16 -26q-6 -6 -12 -2q-68 43 -146 43q-70 0 -111 -39t-41 -97v-53h240q8 0 8 -8v-27q0 -9 -8 -9h-240v-71
q0 -58 41 -97t110 -39z" />
    <glyph glyph-name="uni0455" unicode="&#x455;" horiz-adv-x="467" 
d="M430 139q0 -69 -52.5 -109.5t-142.5 -40.5q-108 0 -193 65q-7 4 -3 11l17 28q5 8 12 2q78 -58 168 -58q63 0 101.5 26t38.5 74q0 20 -9 36t-20 25.5t-34 18t-36.5 11.5l-40.5 9q-36 7 -63.5 15.5t-59 25.5t-49 45t-17.5 66q0 65 53 101t132 36q89 0 175 -48q7 -4 3 -12
l-16 -27q-4 -8 -12 -3q-71 41 -152 41q-59 0 -95 -23.5t-36 -64.5q0 -25 11.5 -43t35 -29.5t44.5 -18t56 -13.5q34 -7 53 -12t48 -16.5t44 -25.5t27 -37.5t12 -54.5z" />
    <glyph glyph-name="uni0456" unicode="&#x456;" horiz-adv-x="201" 
d="M119 0h-37q-8 0 -8 8v498q0 9 8 9h37q8 0 8 -9v-498q0 -8 -8 -8zM136 656q0 -15 -10 -25t-25 -10q-16 0 -26 10t-10 25q0 16 10 26t26 10q15 0 25 -10t10 -26z" />
    <glyph glyph-name="uni0457" unicode="&#x457;" horiz-adv-x="201" 
d="M118 0h-36q-8 0 -8 8v498q0 9 8 9h36q9 0 9 -9v-498q0 -8 -9 -8zM68 656q0 -14 -9.5 -24t-24.5 -10t-24.5 10t-9.5 24q0 15 9.5 25t24.5 10t24.5 -10t9.5 -25zM200 656q0 -14 -10 -24t-25 -10t-24 9.5t-9 24.5t9 25t24 10t25 -10t10 -25z" />
    <glyph glyph-name="uni0458" unicode="&#x458;" horiz-adv-x="209" 
d="M135 -27q0 -87 -35.5 -130.5t-100.5 -43.5q-29 0 -50 4q-8 1 -8 10v31q0 4 2 6.5t6 1.5q21 -4 45 -4q88 0 88 125v533q0 9 9 9h36q8 0 8 -9v-533zM145 656q0 -15 -10 -25t-26 -10q-15 0 -25.5 10t-10.5 25q0 16 10.5 26t25.5 10q16 0 26 -10t10 -26z" />
    <glyph glyph-name="uni0459" unicode="&#x459;" horiz-adv-x="842" 
d="M164 181q-16 -105 -47 -144t-97 -40q-8 0 -8 8v31q0 9 8 9q40 1 60 31.5t33 119.5q15 94 25 310q2 9 9 9h316q8 0 8 -9v-168h145q89 0 140 -46.5t51 -125.5q0 -83 -50 -124.5t-141 -41.5h-189q-9 0 -9 8v459h-229q-10 -179 -25 -286zM471 292v-246h138q145 0 145 121
q0 60 -37 92.5t-108 32.5h-138z" />
    <glyph glyph-name="uni045A" unicode="&#x45a;" horiz-adv-x="818" 
d="M119 0h-36q-9 0 -9 8v498q0 9 9 9h36q8 0 8 -9v-192h275v192q0 9 9 9h36q8 0 8 -9v-193h140q89 0 139.5 -42t50.5 -116q0 -76 -49.5 -115.5t-140.5 -39.5h-184q-9 0 -9 8v258h-275v-258q0 -8 -8 -8zM455 267v-221h133q144 0 144 111q0 110 -144 110h-133z" />
    <glyph glyph-name="uni045B" unicode="&#x45b;" horiz-adv-x="553" 
d="M127 487q71 32 143 32q100 0 157 -52t57 -157v-302q0 -8 -8 -8h-37q-8 0 -8 8v300q0 163 -163 163q-73 0 -141 -34v-429q0 -8 -8 -8h-37q-8 0 -8 8v588h-73q-8 0 -8 9v22q0 8 8 8h73v72q0 8 8 8h37q8 0 8 -8v-72h162q8 0 8 -8v-22q0 -9 -8 -9h-162v-109z" />
    <glyph glyph-name="uni045C" unicode="&#x45c;" horiz-adv-x="488" 
d="M472 0h-45q-7 0 -10 5l-216 244l-75 -70v-171q0 -8 -8 -8h-35q-9 0 -9 8v498q0 9 9 9h35q8 0 8 -9v-262l277 267q3 4 11 4h45q5 0 6.5 -3t-2.5 -7l-226 -219l240 -276q7 -10 -5 -10zM244 598h-28q-5 0 -7.5 3t0.5 8l82 133q3 5 10 5h41q12 0 5 -10l-93 -133q-3 -6 -10 -6
z" />
    <glyph glyph-name="uni045D" unicode="&#x45d;" horiz-adv-x="561" 
d="M127 0h-44q-9 0 -9 8v498q0 9 9 9h36q8 0 8 -9v-324q0 -73 -1 -106h1q31 53 73 117l225 317q5 5 11 5h43q8 0 8 -9v-498q0 -8 -8 -8h-36q-9 0 -9 8v310q0 17 0.5 58t0.5 59q-60 -95 -72 -113l-226 -317q-3 -5 -10 -5zM316 601h-28q-7 0 -10 6l-93 133q-7 10 5 10h41
q7 0 10 -5l82 -133q3 -4 0.5 -7.5t-7.5 -3.5z" />
    <glyph glyph-name="uni045E" unicode="&#x45e;" horiz-adv-x="545" 
d="M422 724q-7 -61 -46 -98.5t-103 -37.5q-63 0 -102 37.5t-46 97.5q-1 8 7 10l26 3q7 1 10 -7q15 -99 105 -99q45 0 72 26.5t34 72.5q1 8 10 7l25 -3q10 0 8 -9zM418 100v406q0 9 9 9h36q8 0 8 -9v-509q0 -92 -50 -144.5t-150 -52.5q-105 0 -189 74q-6 6 -1 12l19 26
q5 7 11 1q78 -64 160 -65q150 1 148 152v49q-67 -31 -141 -31q-92 0 -150.5 50t-58.5 145v293q0 9 8 9h36q9 0 9 -9v-291q0 -74 43.5 -111t118.5 -37q74 0 134 33z" />
    <glyph glyph-name="uni045F" unicode="&#x45f;" horiz-adv-x="541" 
d="M422 515h36q9 0 9 -9v-498q0 -8 -9 -8h-163v-123q0 -8 -9 -8h-32q-8 0 -8 8v123h-164q-8 0 -8 8v498q0 9 8 9h36q9 0 9 -9v-458h287v458q0 9 8 9z" />
    <glyph glyph-name="uni0490" unicode="&#x490;" horiz-adv-x="483" 
d="M141 0h-38q-9 0 -9 8v699q0 8 9 8h316v139q0 9 8 9h36q8 0 8 -9v-182q0 -8 -8 -8h-313v-656q0 -8 -9 -8z" />
    <glyph glyph-name="uni0491" unicode="&#x491;" horiz-adv-x="399" 
d="M334 515v109q0 9 9 9h32q8 0 8 -9v-149q0 -8 -8 -8h-248v-459q0 -8 -8 -8h-36q-9 0 -9 8v498q0 9 9 9h251z" />
    <glyph glyph-name="Wgrave" unicode="&#x1e80;" horiz-adv-x="941" 
d="M270 0h-46q-7 0 -9 7l-200 698q-3 10 7 10h42q7 0 8 -7l121 -432q26 -95 54 -208h1q61 208 63 214l130 413q2 8 9 8h41q7 0 9 -8l130 -413q20 -67 63 -214h1q28 113 54 208l121 432q1 7 9 7h41q10 0 7 -10l-200 -698q-2 -7 -8 -7h-47q-5 0 -9 7l-131 416q-43 140 -60 205
h-1q-24 -94 -59 -205l-132 -416q-3 -7 -9 -7zM462 792l-118 134q-8 10 5 10h45q6 0 10 -5l106 -133q7 -11 -5 -11h-32q-6 0 -11 5z" />
    <glyph glyph-name="wgrave" unicode="&#x1e81;" horiz-adv-x="746" 
d="M184 0q-6 0 -9 7l-155 498q-2 10 7 10h38q8 0 9 -7l99 -322q6 -18 11.5 -38.5t11.5 -45.5t10 -39h1q4 12 15 53.5t17 60.5l105 321q2 7 9 7h41q7 0 9 -7l105 -321q6 -19 17 -60.5t15 -53.5h1q0 2 14 53t19 70l99 322q1 7 9 7h38q9 0 6 -10l-154 -498q-4 -7 -9 -7h-45
q-6 0 -9 7l-112 348q-5 14 -12.5 44t-10.5 39h-1q-3 -9 -10.5 -39t-12.5 -44l-113 -348q-2 -7 -8 -7h-45zM404 598h-28q-7 0 -10 6l-93 133q-7 10 5 10h41q7 0 10 -5l82 -133q3 -5 0.5 -8t-7.5 -3z" />
    <glyph glyph-name="Wacute" unicode="&#x1e82;" horiz-adv-x="941" 
d="M270 0h-46q-7 0 -9 7l-200 698q-3 10 7 10h42q7 0 8 -7l121 -432q26 -95 54 -208h1q61 208 63 214l130 413q2 8 9 8h41q7 0 9 -8l130 -413q20 -67 63 -214h1q28 113 54 208l121 432q1 7 9 7h41q10 0 7 -10l-200 -698q-2 -7 -8 -7h-47q-5 0 -9 7l-131 416q-43 140 -60 205
h-1q-24 -94 -59 -205l-132 -416q-3 -7 -9 -7zM596 926l-118 -134q-5 -5 -11 -5h-32q-12 0 -5 11l106 133q4 5 10 5h45q13 0 5 -10z" />
    <glyph glyph-name="wacute" unicode="&#x1e83;" horiz-adv-x="746" 
d="M184 0q-6 0 -9 7l-155 498q-2 10 7 10h38q8 0 9 -7l99 -322q6 -18 11.5 -38.5t11.5 -45.5t10 -39h1q4 12 15 53.5t17 60.5l105 321q2 7 9 7h41q7 0 9 -7l105 -321q6 -19 17 -60.5t15 -53.5h1q0 2 14 53t19 70l99 322q1 7 9 7h38q9 0 6 -10l-154 -498q-4 -7 -9 -7h-45
q-6 0 -9 7l-112 348q-5 14 -12.5 44t-10.5 39h-1q-3 -9 -10.5 -39t-12.5 -44l-113 -348q-2 -7 -8 -7h-45zM355 598h-28q-5 0 -7.5 3t0.5 8l82 133q3 5 10 5h41q12 0 5 -10l-93 -133q-3 -6 -10 -6z" />
    <glyph glyph-name="Wdieresis" unicode="&#x1e84;" horiz-adv-x="941" 
d="M270 0h-46q-7 0 -9 7l-200 698q-3 10 7 10h41q8 0 9 -7l120 -432q14 -51 55 -208h1q61 208 63 214l130 413q2 8 9 8h41q7 0 9 -8l130 -413q20 -67 63 -214h1q41 157 55 208l120 432q3 7 9 7h41q10 0 7 -10l-200 -698q-2 -7 -8 -7h-47q-5 0 -9 7l-131 416q-43 140 -60 205
h-1q-24 -94 -59 -205l-132 -416q-3 -7 -9 -7zM394 863q0 -16 -10 -25.5t-26 -9.5t-25.5 9.5t-9.5 25.5t9.5 26t25.5 10t26 -10t10 -26zM619 863q0 -16 -10 -25.5t-26 -9.5t-26 9.5t-10 25.5t10 26t26 10t26 -10t10 -26z" />
    <glyph glyph-name="wdieresis" unicode="&#x1e85;" horiz-adv-x="746" 
d="M302 656q0 -16 -9.5 -25t-25.5 -9q-15 0 -25 9.5t-10 24.5q0 16 10 25.5t25 9.5q16 0 25.5 -9.5t9.5 -25.5zM515 656q0 -15 -10 -24.5t-25 -9.5t-25 9.5t-10 24.5q0 16 10 25.5t25 9.5t25 -9.5t10 -25.5zM184 0q-6 0 -9 7l-155 498q-2 10 7 10h38q8 0 9 -7l99 -322
q6 -18 11.5 -38.5t11.5 -45.5t10 -39h1q4 12 15 53.5t17 60.5l105 321q2 7 9 7h41q7 0 9 -7l105 -321q6 -19 17 -60.5t15 -53.5h1q0 2 14 53t19 70l99 322q1 7 9 7h38q9 0 6 -10l-154 -498q-4 -7 -9 -7h-45q-6 0 -9 7l-112 348q-5 14 -12.5 44t-10.5 39h-1q-3 -9 -10.5 -39
t-12.5 -44l-113 -348q-2 -7 -8 -7h-45z" />
    <glyph glyph-name="Ygrave" unicode="&#x1ef2;" horiz-adv-x="550" 
d="M294 0h-38q-9 0 -9 8v270l-238 427q-5 10 6 10h44q7 0 10 -6l206 -379l206 379q3 6 10 6h44q11 0 6 -10l-238 -427v-270q0 -8 -9 -8zM273 792l-118 134q-8 10 5 10h45q6 0 10 -5l106 -133q7 -11 -5 -11h-32q-6 0 -11 5z" />
    <glyph glyph-name="ygrave" unicode="&#x1ef3;" horiz-adv-x="545" 
d="M418 100v406q0 9 9 9h36q8 0 8 -9v-509q0 -92 -50 -144.5t-150 -52.5q-105 0 -189 74q-6 6 -1 12l19 26q5 7 11 1q78 -64 160 -65q150 1 148 152v49q-67 -31 -141 -31q-92 0 -150.5 50t-58.5 145v293q0 9 8 9h36q9 0 9 -9v-291q0 -74 43.5 -111t118.5 -37q74 0 134 33z
M306 598h-28q-7 0 -10 6l-93 133q-7 10 5 10h41q7 0 10 -5l82 -133q3 -5 0.5 -8t-7.5 -3z" />
    <glyph glyph-name="endash" unicode="&#x2013;" horiz-adv-x="589" 
d="M518 321v-33q0 -8 -9 -8h-429q-9 0 -9 8v33q0 8 9 8h429q9 0 9 -8z" />
    <glyph glyph-name="emdash" unicode="&#x2014;" horiz-adv-x="945" 
d="M874 321v-33q0 -8 -8 -8h-787q-8 0 -8 8v33q0 8 8 8h787q8 0 8 -8z" />
    <glyph glyph-name="quoteleft" unicode="&#x2018;" horiz-adv-x="197" 
d="M50 528l59 180q3 7 9 7h30q10 0 7 -10l-48 -180q-3 -7 -9 -7h-41q-10 0 -7 10z" />
    <glyph glyph-name="quoteright" unicode="&#x2019;" horiz-adv-x="195" 
d="M157 705l-59 -180q-2 -7 -9 -7h-29q-10 0 -8 10l48 180q4 7 9 7h41q10 0 7 -10z" />
    <glyph glyph-name="quotesinglbase" unicode="&#x201a;" horiz-adv-x="190" 
d="M129 75l-58 -180q-1 -6 -9 -6h-30q-10 0 -7 9l48 180q2 7 9 7h40q10 0 7 -10z" />
    <glyph glyph-name="quotedblleft" unicode="&#x201c;" horiz-adv-x="320" 
d="M98 518h-41q-9 0 -7 10l59 180q3 7 10 7h29q10 0 8 -10l-49 -180q-2 -7 -9 -7zM221 518h-41q-10 0 -7 10l59 180q2 7 9 7h30q10 0 7 -10l-48 -180q-4 -7 -9 -7z" />
    <glyph glyph-name="quotedblright" unicode="&#x201d;" horiz-adv-x="317" 
d="M89 518h-29q-11 0 -8 10l48 180q1 7 9 7h40q10 0 7 -10l-58 -180q-2 -7 -9 -7zM212 518h-30q-10 0 -8 10l48 180q3 7 9 7h41q10 0 7 -10l-58 -180q-3 -7 -9 -7z" />
    <glyph glyph-name="quotedblbase" unicode="&#x201e;" horiz-adv-x="313" 
d="M62 -111h-30q-10 0 -7 10l48 180q2 7 8 7h41q10 0 7 -10l-58 -180q-3 -7 -9 -7zM184 -111h-29q-11 0 -8 10l48 180q3 7 9 7h41q10 0 7 -10l-59 -180q-2 -7 -9 -7z" />
    <glyph glyph-name="dagger" unicode="&#x2020;" horiz-adv-x="557" 
d="M297 -139h-37q-8 0 -8 8v593h-191q-8 0 -8 9v32q0 9 8 9h191v225q0 8 8 8h37q8 0 8 -8v-225h191q8 0 8 -9v-32q0 -9 -8 -9h-191v-593q0 -8 -8 -8z" />
    <glyph glyph-name="daggerdbl" unicode="&#x2021;" horiz-adv-x="557" 
d="M297 -139h-37q-8 0 -8 8v233h-191q-8 0 -8 8v33q0 8 8 8h191v311h-191q-8 0 -8 9v32q0 9 8 9h191v225q0 8 8 8h37q8 0 8 -8v-225h191q8 0 8 -9v-32q0 -9 -8 -9h-191v-311h191q8 0 8 -8v-33q0 -8 -8 -8h-191v-233q0 -8 -8 -8z" />
    <glyph glyph-name="bullet" unicode="&#x2022;" horiz-adv-x="323" 
d="M162 249q-30 0 -49 19t-19 49q0 31 19 49.5t49 18.5t48.5 -18.5t18.5 -49.5q0 -30 -19 -49t-48 -19z" />
    <glyph glyph-name="ellipsis" unicode="&#x2026;" horiz-adv-x="556" 
d="M133 36q0 -17 -10.5 -28t-27.5 -11t-28 11t-11 28t11 28t28 11t27.5 -11t10.5 -28zM317 36q0 -17 -11 -28t-28 -11t-27.5 11t-10.5 28t10.5 28t27.5 11t28 -11t11 -28zM500 36q0 -17 -11 -28t-28 -11t-27.5 11t-10.5 28t10.5 28t27.5 11t28 -11t11 -28z" />
    <glyph glyph-name="perthousand" unicode="&#x2030;" horiz-adv-x="1067" 
d="M1021 108q0 -53 -35.5 -85t-88.5 -32q-52 0 -87.5 32t-35.5 85v133q0 55 35 87t88 32q54 0 89 -32t35 -87v-133zM815 110q0 -36 23.5 -58t58.5 -22q36 0 59.5 22t23.5 58v128q0 38 -23 61t-60 23q-36 0 -59 -23t-23 -61v-128zM300 467q0 -53 -36 -85t-88 -32t-87.5 32
t-35.5 85v133q0 55 35 87t88 32q54 0 89 -32t35 -87v-133zM138 0h-32q-4 0 -6 3t0 7l489 693q3 5 10 5h32q12 0 6 -10l-489 -693q-2 -5 -10 -5zM94 469q0 -36 23.5 -58t58.5 -22q36 0 59.5 22t23.5 58v128q0 38 -23 61t-60 23q-36 0 -59 -23t-23 -61v-128zM701 108
q0 -53 -35.5 -85t-87.5 -32t-87.5 32t-35.5 85v133q0 55 35 87t88 32q54 0 88.5 -32t34.5 -87v-133zM496 110q0 -36 23 -58t59 -22t59.5 22t23.5 58v128q0 38 -23.5 61t-59.5 23t-59 -23t-23 -61v-128z" />
    <glyph glyph-name="guilsinglleft" unicode="&#x2039;" horiz-adv-x="285" 
d="M232 71h-40q-8 0 -10 5l-141 209q-3 6 0 12l141 209q2 5 10 5h40q5 0 6.5 -3t-1.5 -7l-142 -210l142 -210q3 -4 1.5 -7t-6.5 -3z" />
    <glyph glyph-name="guilsinglright" unicode="&#x203a;" horiz-adv-x="285" 
d="M93 71h-40q-5 0 -6.5 3t1.5 7l142 210l-142 210q-3 4 -1.5 7t6.5 3h40q7 0 10 -5l141 -209q3 -6 0 -12l-141 -209q-3 -5 -10 -5z" />
    <glyph glyph-name="fraction" unicode="&#x2044;" horiz-adv-x="175" 
d="M386 705l-556 -700q-3 -5 -10 -5h-25q-5 0 -6.5 3t1.5 7l556 700q3 5 10 5h25q5 0 6.5 -3t-1.5 -7z" />
    <glyph glyph-name="zero.sups" unicode="&#x2070;" horiz-adv-x="347" 
d="M303 528q0 -55 -37.5 -89t-92.5 -34q-54 0 -91.5 34t-37.5 89v148q0 59 37 93t92 34t92.5 -34t37.5 -93v-148zM82 530q0 -41 25.5 -64.5t65.5 -23.5t66 23.5t26 64.5v145q0 43 -26 67t-66 24t-65.5 -24t-25.5 -67v-145z" />
    <glyph glyph-name="four.sups" unicode="&#x2074;" horiz-adv-x="315" 
d="M242 410h-21q-8 0 -8 8v85h-182q-8 0 -8 8v13q0 4 3 10l145 258q3 6 9 6h22q13 0 6 -10l-138 -248h143v84q0 9 8 9h21q9 0 9 -9v-84h32q8 0 8 -8v-21q0 -8 -8 -8h-32v-85q0 -8 -9 -8z" />
    <glyph glyph-name="five.sups" unicode="&#x2075;" horiz-adv-x="328" 
d="M294 538q0 -63 -34.5 -98t-93.5 -35q-78 0 -124 60q-4 7 3 12l11 14q7 5 12 -2q38 -47 97 -47q43 0 66.5 25.5t24.5 71.5q0 46 -24 69t-65 23q-52 0 -88 -41q-5 -5 -11 -3l-17 5q-7 3 -7 10l6 188q0 8 9 8h208q9 0 9 -8v-20q0 -9 -9 -9h-184l-4 -133q37 39 92 39
q54 0 88.5 -33t34.5 -96z" />
    <glyph glyph-name="six.sups" unicode="&#x2076;" horiz-adv-x="331" 
d="M297 536q0 -60 -34 -95.5t-89 -35.5q-58 0 -94 35.5t-36 96.5v147q0 55 35 87t91 32q60 0 110 -43q6 -4 1 -11l-11 -15q-6 -6 -12 -1q-43 34 -87 34q-42 0 -65.5 -22.5t-23.5 -61.5v-73q12 22 37 35t56 13q54 0 88 -32t34 -90zM82 537q0 -44 25 -69.5t65 -25.5t63.5 25.5
t23.5 68.5q0 42 -23 64.5t-64 22.5q-40 0 -65 -23.5t-25 -62.5z" />
    <glyph glyph-name="seven.sups" unicode="&#x2077;" horiz-adv-x="295" 
d="M94 410h-25q-10 0 -6 10l164 341h-197q-8 0 -8 8v21q0 8 8 8h235q9 0 9 -8v-14q0 -2 -2 -10l-169 -350q-1 -6 -9 -6z" />
    <glyph glyph-name="eight.sups" unicode="&#x2078;" horiz-adv-x="341" 
d="M303 520q0 -50 -37.5 -82.5t-95.5 -32.5t-95 32.5t-37 82.5q0 32 18.5 58t53.5 36q-63 22 -63 88q0 44 34 72.5t89 28.5t89.5 -28.5t34.5 -72.5q0 -66 -63 -88q35 -10 53.5 -36t18.5 -58zM85 701q0 -30 22 -50t63 -20q42 0 64 20t22 50q0 31 -24.5 48.5t-61.5 17.5
t-61 -17.5t-24 -48.5zM76 521q0 -33 26 -56t68 -23q43 0 69 23t26 56q0 32 -26 52.5t-69 20.5t-68.5 -20.5t-25.5 -52.5z" />
    <glyph glyph-name="nine.sups" unicode="&#x2079;" horiz-adv-x="334" 
d="M36 677q0 57 34 91.5t90 34.5q58 0 94 -35t36 -94v-150q0 -55 -35 -87t-92 -32q-65 0 -116 54q-6 6 -1 12l12 15q6 7 12 1q40 -45 93 -45q42 0 65.5 22t23.5 61v76q-12 -23 -37.5 -37t-57.5 -14q-54 0 -87.5 33.5t-33.5 93.5zM252 674q0 43 -25.5 68t-65.5 25
t-63.5 -24.5t-23.5 -65.5q0 -44 23 -68t64 -24t66 24.5t25 64.5z" />
    <glyph glyph-name="zero.sinf" unicode="&#x2080;" horiz-adv-x="347" 
d="M303 18q0 -55 -37.5 -89t-92.5 -34q-54 0 -91.5 34t-37.5 89v148q0 59 37 93t92 34t92.5 -34t37.5 -93v-148zM82 20q0 -41 25.5 -64.5t65.5 -23.5t66 23.5t26 64.5v145q0 43 -26 67t-66 24t-65.5 -24t-25.5 -67v-145z" />
    <glyph glyph-name="one.sinf" unicode="&#x2081;" horiz-adv-x="202" 
d="M137 -100h-22q-8 0 -8 8v336l-65 -45q-7 -7 -12 2l-10 14q-4 7 3 11l83 59q4 3 10 3h21q8 0 8 -8v-372q0 -8 -8 -8z" />
    <glyph glyph-name="two.sinf" unicode="&#x2082;" horiz-adv-x="313" 
d="M271 -100h-234q-8 0 -8 8v17q0 7 4 11l93 95q41 44 58.5 64t33 48t15.5 52q0 28 -21 44.5t-57 16.5q-50 0 -93 -45q-7 -7 -12 0l-11 15q-5 7 0 12q51 55 118 55q53 0 83.5 -28t30.5 -69q0 -44 -28 -85.5t-92 -106.5l-66 -67h186q9 0 9 -8v-21q0 -8 -9 -8z" />
    <glyph glyph-name="three.sinf" unicode="&#x2083;" horiz-adv-x="316" 
d="M282 20q0 -53 -36 -89t-89 -36q-74 0 -128 59q-5 7 0 12l12 14q6 6 12 0q42 -48 103 -48q39 0 63.5 26t24.5 66q0 35 -23.5 58t-65.5 23q-21 0 -36 -3q-7 0 -10 5l-4 9q-3 7 2 12l85 94l28 31h-167q-9 0 -9 8v19q0 8 9 8h213q8 0 8 -8v-11q0 -4 -4 -10l-116 -128
q7 1 20 1q48 0 78 -31.5t30 -80.5z" />
    <glyph glyph-name="four.sinf" unicode="&#x2084;" horiz-adv-x="315" 
d="M242 -100h-21q-8 0 -8 8v85h-182q-8 0 -8 8v13q0 4 3 10l145 258q3 6 9 6h22q13 0 6 -10l-138 -248h143v84q0 9 8 9h21q9 0 9 -9v-84h32q8 0 8 -8v-21q0 -8 -8 -8h-32v-85q0 -8 -9 -8z" />
    <glyph glyph-name="five.sinf" unicode="&#x2085;" horiz-adv-x="328" 
d="M294 28q0 -63 -35 -98t-94 -35q-76 0 -123 61q-4 7 3 12l11 13q7 5 12 -2q36 -47 97 -47q43 0 66.5 25.5t24.5 71.5q0 46 -24 69t-65 23q-52 0 -88 -41q-6 -4 -12 -3l-17 5q-7 4 -7 10l7 188q0 8 8 8h209q8 0 8 -8v-20q0 -9 -8 -9h-184l-4 -133q37 39 92 39
q53 0 88 -33.5t35 -95.5z" />
    <glyph glyph-name="six.sinf" unicode="&#x2086;" horiz-adv-x="331" 
d="M297 26q0 -60 -33.5 -95.5t-89.5 -35.5q-58 0 -94 35.5t-36 96.5v147q0 55 35 87t91 32q59 0 109 -43q6 -4 1 -11l-12 -15q-5 -6 -12 -1q-41 34 -85 34q-42 0 -65.5 -22.5t-23.5 -61.5v-73q27 48 94 48q54 0 87.5 -32t33.5 -90zM82 27q0 -44 25 -69.5t65 -25.5t63.5 25.5
t23.5 68.5q0 42 -23 64.5t-64 22.5q-40 0 -65 -23.5t-25 -62.5z" />
    <glyph glyph-name="seven.sinf" unicode="&#x2087;" horiz-adv-x="295" 
d="M94 -100h-25q-4 0 -5.5 3t0.5 7l163 341h-196q-9 0 -9 8v21q0 8 9 8h235q8 0 8 -8v-14q0 -6 -2 -10l-168 -350q-3 -6 -10 -6z" />
    <glyph glyph-name="eight.sinf" unicode="&#x2088;" horiz-adv-x="341" 
d="M304 10q0 -50 -37.5 -82.5t-95.5 -32.5t-95.5 32.5t-37.5 82.5q0 32 18.5 58t53.5 36q-63 22 -63 88q0 44 34.5 72.5t89.5 28.5t89 -28.5t34 -72.5q0 -65 -62 -88q35 -10 53.5 -36t18.5 -58zM85 191q0 -30 22 -50t64 -20t64 20t22 50q0 31 -24.5 48.5t-61.5 17.5
t-61.5 -17.5t-24.5 -48.5zM76 11q0 -33 26 -56t69 -23q42 0 68 23t26 56q0 32 -25.5 52.5t-68.5 20.5t-69 -20.5t-26 -52.5z" />
    <glyph glyph-name="nine.sinf" unicode="&#x2089;" horiz-adv-x="334" 
d="M35 166q0 58 34 92.5t90 34.5q58 0 94 -35t36 -95v-149q0 -55 -35 -87t-91 -32q-61 0 -114 43q-5 5 0 11l11 15q5 6 12 1q43 -34 90 -34q42 0 65.5 22.5t23.5 61.5v75q-29 -50 -94 -50q-54 0 -88 33t-34 93zM251 163q0 43 -25 68t-66 25q-40 0 -63.5 -24.5t-23.5 -65.5
q0 -44 23.5 -67.5t64.5 -23.5q40 0 65 24t25 64z" />
    <glyph glyph-name="Euro" unicode="&#x20ac;" horiz-adv-x="639" 
d="M349 41q119 0 208 71q7 4 12 -2l20 -28q5 -8 -2 -12q-97 -81 -236 -81q-113 0 -180.5 65t-68.5 176v37h-48q-9 0 -9 9v25q0 9 9 9h48v95h-48q-9 0 -9 8v26q0 8 9 8h48v37q0 112 67.5 177t178.5 65q128 0 230 -73q5 -3 2 -12l-20 -28q-5 -6 -12 -2q-87 63 -201 63
q-91 0 -140 -52t-49 -138v-37h284q8 0 8 -8v-26q0 -8 -8 -8h-284v-95h284q8 0 8 -9v-25q0 -9 -8 -9h-284v-37q0 -86 50 -137.5t141 -51.5z" />
    <glyph glyph-name="uni20BD" unicode="&#x20bd;" horiz-adv-x="628" 
d="M588 490q0 -105 -63 -162.5t-180 -57.5h-176v-91h186q9 0 9 -9v-27q0 -8 -9 -8h-186v-127q0 -8 -8 -8h-36q-8 0 -8 8v127h-72q-8 0 -8 8v27q0 9 8 9h72v528q0 8 8 8h220q116 0 179.5 -59.5t63.5 -165.5zM535 492q0 175 -196 175h-170v-349h170q196 0 196 174z" />
    <glyph glyph-name="uni2113" unicode="&#x2113;" horiz-adv-x="375" 
d="M338 48q-55 -57 -119 -57q-65 0 -99 45.5t-34 124.5v77q-24 -14 -36 -19q-10 -5 -10 6v30q0 7 7 10l39 23v254q0 94 34 139t93 45t92.5 -44.5t33.5 -123.5q0 -92 -51.5 -162t-155.5 -133v-99q0 -62 24 -94.5t63 -32.5q48 0 91 48q6 6 12 -1l17 -23q4 -7 -1 -13zM132 542
v-227q81 53 120.5 108t39.5 130q0 128 -79 128q-81 0 -81 -139z" />
    <glyph glyph-name="uni2116" unicode="&#x2116;" horiz-adv-x="1100" 
d="M1040 458q0 -69 -45.5 -113.5t-125.5 -44.5t-126 44.5t-46 113.5v108q0 70 46 115t126 45t125.5 -45t45.5 -115v-108zM139 0h-38q-8 0 -8 8v699q0 8 8 8h44q7 0 10 -6l287 -449q40 -62 111 -176l1 2q-3 131 -3 268v353q0 8 9 8h38q8 0 8 -8v-699q0 -8 -8 -8h-44
q-6 0 -11 5l-288 445q-43 67 -110 176l-1 -2q3 -121 3 -249v-367q0 -8 -8 -8zM745 458q0 -50 32.5 -81.5t91.5 -31.5t91 31.5t32 81.5v108q0 51 -32 83t-91 32t-91.5 -32t-32.5 -83v-108zM1019 200h-297q-9 0 -9 8v30q0 8 9 8h297q8 0 8 -8v-30q0 -8 -8 -8z" />
    <glyph glyph-name="trademark" unicode="&#x2122;" horiz-adv-x="638" 
d="M318 415h-18q-5 0 -5 6v288q0 6 5 6h22q6 0 7 -5l98 -198l96 198q1 5 7 5h22q6 0 6 -6v-288q0 -6 -6 -6h-17q-6 0 -6 6v158l1 85l-28 -60l-61 -121q-3 -5 -7 -5h-14q-5 0 -8 5l-62 123l-27 58h-1l1 -83v-160q0 -6 -5 -6zM153 415h-18q-6 0 -6 6v266h-88q-6 0 -6 6v16
q0 6 6 6h206q6 0 6 -6v-16q0 -6 -6 -6h-88v-266q0 -6 -6 -6z" />
    <glyph glyph-name="estimated" unicode="&#x212e;" horiz-adv-x="858" 
d="M229 141q35 -38 92 -61t114 -23q180 0 248 107q1 3 6 3h78q7 0 3 -6q-54 -86 -146 -129t-190 -43q-157 0 -268.5 104.5t-111.5 252.5q0 157 111.5 268.5t268.5 111.5q158 0 269.5 -111.5t111.5 -268.5v-31q0 -5 -5 -5h-581v-169zM641 381v201q-91 77 -206 77
q-119 0 -206 -85v-193h412z" />
    <glyph glyph-name="onethird" unicode="&#x2153;" horiz-adv-x="846" 
d="M152 326h-22q-8 0 -8 9v336l-65 -46q-6 -6 -12 2l-10 14q-3 7 3 12l83 58q3 3 10 3h21q8 0 8 -8v-371q0 -9 -8 -9zM671 705l-556 -700q-3 -5 -10 -5h-25q-5 0 -6.5 3t1.5 7l556 700q3 5 10 5h25q5 0 6.5 -3t-1.5 -7zM798 120q0 -53 -35.5 -89t-88.5 -36q-76 0 -128 59
q-5 7 -1 12l13 14q6 6 11 0q43 -48 104 -48q39 0 63.5 26t24.5 66q0 35 -23.5 58t-65.5 23q-21 0 -36 -3q-9 0 -10 5l-4 9q-3 7 2 12l84 94q1 1 12 13t16 18h-167q-8 0 -8 8v19q0 8 8 8h214q8 0 8 -8v-11q0 -5 -5 -10l-115 -128q7 1 19 1q49 0 78.5 -31.5t29.5 -80.5z" />
    <glyph glyph-name="twothirds" unicode="&#x2154;" horiz-adv-x="908" 
d="M290 327h-234q-9 0 -9 8v17q0 7 4 11l94 95q40 42 58 63t33 49t15 52q0 28 -20.5 44.5t-56.5 16.5q-51 0 -94 -45q-6 -6 -12 0l-11 15q-4 7 0 12q51 55 118 55q54 0 84 -28t30 -69q0 -44 -28 -86t-92 -106l-65 -67h186q8 0 8 -8v-21q0 -8 -8 -8zM748 705l-556 -700
q-3 -5 -10 -5h-25q-5 0 -6.5 3t1.5 7l556 700q3 5 10 5h25q5 0 6.5 -3t-1.5 -7zM858 120q0 -53 -35.5 -89t-88.5 -36q-76 0 -128 59q-5 7 -1 12l13 14q6 6 11 0q43 -48 104 -48q39 0 63.5 26t24.5 66q0 35 -23.5 58t-65.5 23q-21 0 -36 -3q-9 0 -10 5l-4 9q-3 7 2 12l84 94
q1 1 12 13t16 18h-167q-8 0 -8 8v19q0 8 8 8h214q8 0 8 -8v-11q0 -5 -5 -10l-115 -128q7 1 19 1q49 0 78.5 -31.5t29.5 -80.5z" />
    <glyph glyph-name="oneeighth" unicode="&#x215b;" horiz-adv-x="869" 
d="M151 326h-22q-8 0 -8 9v336l-65 -46q-6 -6 -12 2l-10 14q-3 7 3 12l83 58q3 3 10 3h21q8 0 8 -8v-371q0 -9 -8 -9zM674 705l-556 -700q-3 -5 -10 -5h-25q-5 0 -6.5 3t1.5 7l556 700q3 5 10 5h25q5 0 6.5 -3t-1.5 -7zM826 110q0 -50 -37.5 -82.5t-95.5 -32.5t-95.5 32.5
t-37.5 82.5q0 32 18.5 58t53.5 36q-63 22 -63 88q0 44 34.5 72.5t89.5 28.5t89 -28.5t34 -72.5q0 -65 -62 -88q35 -10 53.5 -36t18.5 -58zM607 291q0 -30 22 -50t64 -20t64 20t22 50q0 31 -24.5 48.5t-61.5 17.5t-61.5 -17.5t-24.5 -48.5zM598 111q0 -33 26 -56t69 -23
q42 0 68 23t26 56q0 32 -25.5 52.5t-68.5 20.5t-69 -20.5t-26 -52.5z" />
    <glyph glyph-name="threeeighths" unicode="&#x215c;" horiz-adv-x="915" 
d="M295 447q0 -53 -35.5 -89t-88.5 -36q-76 0 -128 59q-5 7 -1 12l13 14q5 5 11 0q44 -48 104 -48q39 0 63.5 26t24.5 66q0 35 -23.5 58t-65.5 23q-21 0 -36 -3q-9 0 -10 5l-4 9q-3 7 2 12l84 94q1 1 12 13t16 18h-167q-8 0 -8 8v19q0 8 8 8h214q8 0 8 -8v-11q0 -5 -5 -10
l-115 -128q7 1 19 1q49 0 78.5 -31.5t29.5 -80.5zM742 705l-556 -700q-3 -5 -10 -5h-25q-5 0 -6.5 3t1.5 7l556 700q3 5 10 5h25q5 0 6.5 -3t-1.5 -7zM871 110q0 -50 -37.5 -82.5t-95.5 -32.5t-95.5 32.5t-37.5 82.5q0 32 18.5 58t53.5 36q-63 22 -63 88q0 44 34.5 72.5
t89.5 28.5t89 -28.5t34 -72.5q0 -65 -62 -88q35 -10 53.5 -36t18.5 -58zM652 291q0 -30 22 -50t64 -20t64 20t22 50q0 31 -24.5 48.5t-61.5 17.5t-61.5 -17.5t-24.5 -48.5zM643 111q0 -33 26 -56t69 -23q42 0 68 23t26 56q0 32 -25.5 52.5t-68.5 20.5t-69 -20.5t-26 -52.5z
" />
    <glyph glyph-name="fiveeighths" unicode="&#x215d;" horiz-adv-x="905" 
d="M306 455q0 -63 -34.5 -98t-93.5 -35q-78 0 -124 60q-4 7 3 12l11 14q7 5 12 -2q38 -47 97 -47q43 0 66.5 25.5t24.5 71.5q0 46 -24 69t-65 23q-52 0 -88 -41q-5 -5 -11 -3l-17 5q-7 3 -7 10l6 188q0 8 9 8h208q9 0 9 -8v-20q0 -9 -9 -9h-184l-4 -133q37 39 92 39
q54 0 88.5 -33t34.5 -96zM740 705l-556 -700q-3 -5 -10 -5h-25q-5 0 -6.5 3t1.5 7l556 700q3 5 10 5h25q5 0 6.5 -3t-1.5 -7zM860 110q0 -50 -37.5 -82.5t-95.5 -32.5t-95.5 32.5t-37.5 82.5q0 32 18.5 58t53.5 36q-63 22 -63 88q0 44 34.5 72.5t89.5 28.5t89 -28.5
t34 -72.5q0 -65 -62 -88q35 -10 53.5 -36t18.5 -58zM641 291q0 -30 22 -50t64 -20t64 20t22 50q0 31 -24.5 48.5t-61.5 17.5t-61.5 -17.5t-24.5 -48.5zM632 111q0 -33 26 -56t69 -23q42 0 68 23t26 56q0 32 -25.5 52.5t-68.5 20.5t-69 -20.5t-26 -52.5z" />
    <glyph glyph-name="seveneighths" unicode="&#x215e;" horiz-adv-x="831" 
d="M114 327h-25q-10 0 -6 10l164 341h-197q-8 0 -8 8v21q0 8 8 8h235q9 0 9 -8v-14q0 -2 -2 -10l-169 -350q-1 -6 -9 -6zM662 705l-556 -700q-3 -5 -10 -5h-25q-5 0 -6.5 3t1.5 7l556 700q3 5 10 5h25q5 0 6.5 -3t-1.5 -7zM786 110q0 -50 -37.5 -82.5t-95.5 -32.5
t-95.5 32.5t-37.5 82.5q0 32 18.5 58t53.5 36q-63 22 -63 88q0 44 34.5 72.5t89.5 28.5t89 -28.5t34 -72.5q0 -65 -62 -88q35 -10 53.5 -36t18.5 -58zM567 291q0 -30 22 -50t64 -20t64 20t22 50q0 31 -24.5 48.5t-61.5 17.5t-61.5 -17.5t-24.5 -48.5zM558 111q0 -33 26 -56
t69 -23q42 0 68 23t26 56q0 32 -25.5 52.5t-68.5 20.5t-69 -20.5t-26 -52.5z" />
    <glyph glyph-name="arrowleft" unicode="&#x2190;" horiz-adv-x="651" 
d="M117 371h470q8 0 8 -9v-30q0 -8 -8 -8h-469l129 -124q7 -6 1 -12l-19 -19q-7 -7 -13 0l-162 158q-4 4 -4 11v19q0 6 4 10l163 163q5 7 12 0l19 -19q6 -6 0 -12z" />
    <glyph glyph-name="arrowup" unicode="&#x2191;" horiz-adv-x="427" 
d="M233 621l163 -162q4 -6 0 -12l-18 -18q-6 -7 -13 0l-129 128v-468q0 -9 -8 -9h-30q-8 0 -8 9v468l-128 -126q-6 -6 -12 0l-18 18q-6 6 0 12l161 160q5 5 11 5h18q6 0 11 -5z" />
    <glyph glyph-name="arrowright" unicode="&#x2192;" horiz-adv-x="653" 
d="M404 511l19 19q6 6 12 0l162 -159q5 -4 5 -11v-19q0 -6 -5 -11l-162 -162q-7 -7 -12 0l-19 19q-6 6 0 12l130 128h-469q-8 0 -8 9v30q0 8 8 8h468l-129 124q-5 6 0 13z" />
    <glyph glyph-name="arrowdown" unicode="&#x2193;" horiz-adv-x="427" 
d="M236 143l129 129q5 5 12 0l18 -18q7 -6 0 -13l-162 -162q-4 -4 -11 -4h-19q-6 0 -10 4l-161 161q-6 6 0 12l18 18q6 6 12 0l128 -127v469q0 8 8 8h30q8 0 8 -8v-469z" />
    <glyph glyph-name="arrowboth" unicode="&#x2194;" horiz-adv-x="769" 
d="M524 515l19 19q7 6 12 1l163 -159q4 -5 4 -11v-19q0 -7 -4 -11l-163 -162q-5 -7 -12 0l-19 18q-5 7 0 13l131 128h-540l130 -128q6 -6 0 -12l-19 -19q-6 -6 -12 0l-162 162q-5 5 -5 11v19q0 4 5 11l162 159q7 5 12 -1l19 -19q7 -5 0 -12l-129 -124h538l-129 124
q-7 6 -1 12z" />
    <glyph glyph-name="arrowupdn" unicode="&#x2195;" horiz-adv-x="475" 
d="M260 634v-545l129 129q5 7 12 0l18 -18q6 -6 0 -13l-162 -161q-4 -5 -11 -5h-19q-6 0 -10 5l-161 160q-6 6 0 12l18 18q5 7 12 0l128 -127v545l-128 -127q-6 -6 -12 0l-18 18q-6 7 0 13l161 160q5 5 10 5h19q6 0 11 -5l163 -163q5 -5 0 -11l-19 -19q-6 -6 -12 0z" />
    <glyph glyph-name="uni2196" unicode="&#x2196;" horiz-adv-x="512" 
d="M133 504l332 -332q6 -6 0 -12l-21 -21q-5 -7 -12 0l-331 332v-183q0 -9 -9 -9h-26q-8 0 -8 9v230q0 6 4 11l13 13q5 4 11 4h228q8 0 8 -8v-26q0 -8 -8 -8h-181z" />
    <glyph glyph-name="uni2197" unicode="&#x2197;" horiz-adv-x="512" 
d="M198 546h227q7 0 11 -4l13 -13q5 -7 5 -11v-230q0 -8 -9 -8l-26 -1q-8 0 -8 9v183l-332 -332q-5 -7 -12 0l-20 21q-7 6 0 13l331 331h-180q-9 0 -9 8l1 26q0 8 8 8z" />
    <glyph glyph-name="uni2198" unicode="&#x2198;" horiz-adv-x="505" 
d="M404 215v180q0 8 8 8l27 -1q8 0 8 -8v-227q0 -6 -4 -11l-13 -13q-4 -4 -11 -4h-230q-8 0 -8 8l-1 26q0 9 9 9h182l-331 331q-5 6 0 12l21 21q6 8 12 0z" />
    <glyph glyph-name="uni2199" unicode="&#x2199;" horiz-adv-x="505" 
d="M445 545l20 -21q7 -6 0 -11l-331 -331h183q8 0 8 -9v-26q0 -8 -8 -8h-230q-7 0 -11 4l-13 13q-5 7 -5 11v228q0 8 9 8h26q9 0 9 -8v-180l330 330q6 7 13 0z" />
    <glyph glyph-name="partialdiff" unicode="&#x2202;" horiz-adv-x="523" 
d="M138 688v29q0 9 8 9q317 -4 317 -450v-31q0 -119 -54.5 -187t-151.5 -68q-94 0 -151 71t-57 184q0 110 57.5 178t143.5 68q104 0 159 -102q-16 137 -82 212t-181 78q-8 0 -8 9zM102 245q0 -96 40.5 -151.5t114.5 -55.5q75 0 114 53.5t39 153.5q0 95 -44.5 146.5
t-111.5 51.5t-109.5 -53t-42.5 -145z" />
    <glyph glyph-name="emptyset" unicode="&#x2205;" horiz-adv-x="630" 
d="M94 90l-14 12q-5 7 -1 13l50 53q-65 70 -65 168q0 103 74 176t178 73q87 0 155 -54l45 47q5 7 13 1l13 -12q7 -7 1 -13l-45 -48q69 -71 69 -170q0 -104 -73.5 -177.5t-177.5 -73.5q-92 0 -161 58l-49 -52q-5 -6 -12 -1zM528 336q0 82 -55 143l-292 -308q58 -48 135 -48
q88 0 150 62.5t62 150.5zM103 336q0 -81 52 -141l291 309q-55 44 -130 44q-88 0 -150.5 -62.5t-62.5 -149.5z" />
    <glyph glyph-name="product" unicode="&#x220f;" horiz-adv-x="628" 
d="M94 -131v868q0 8 9 8h422q9 0 9 -8v-868q0 -8 -9 -8h-39q-9 0 -9 8v824h-326v-824q0 -8 -9 -8h-39q-9 0 -9 8z" />
    <glyph glyph-name="summation" unicode="&#x2211;" horiz-adv-x="515" 
d="M466 -139h-420q-9 0 -9 8v26q0 3 4 11l254 403l-254 391q-4 8 -4 11v26q0 8 9 8h420q8 0 8 -8v-33q0 -9 -8 -9h-359l233 -364q7 -11 7 -13v-18q0 -3 -6 -13l-235 -376h360q8 0 8 -9v-33q0 -8 -8 -8z" />
    <glyph glyph-name="minus" unicode="&#x2212;" horiz-adv-x="561" 
d="M488 308h-415q-8 0 -8 9v33q0 9 8 9h415q8 0 8 -9v-33q0 -9 -8 -9z" />
    <glyph glyph-name="radical" unicode="&#x221a;" horiz-adv-x="560" 
d="M294 -139h-42q-7 0 -9 7l-131 477h-81q-8 0 -8 9v32q0 8 8 8h114q8 0 9 -7l91 -343q17 -68 27 -113h1q5 18 14 55.5t15 57.5l186 694q1 7 9 7h35q10 0 7 -10l-236 -867q-2 -7 -9 -7z" />
    <glyph glyph-name="infinity" unicode="&#x221e;" horiz-adv-x="700" 
d="M350 293q-70 -109 -148 -109q-58 0 -100 39.5t-42 109.5t42 110t100 40q79 0 148 -111q67 111 148 111q58 0 100 -40t42 -110t-42 -109.5t-100 -39.5q-80 0 -148 109zM104 333q0 -52 28.5 -77t68.5 -25q38 0 66 26t61 76q-22 33 -36.5 52t-39 35t-51.5 16
q-40 0 -68.5 -25.5t-28.5 -77.5zM372 333q22 -33 36.5 -51.5t39 -34.5t51.5 -16q40 0 68.5 25t28.5 77t-28.5 77.5t-68.5 25.5q-38 0 -66 -26t-61 -77z" />
    <glyph glyph-name="integral" unicode="&#x222b;" horiz-adv-x="407" 
d="M177 583q0 79 41.5 123t108.5 44q29 0 59 -3q8 -2 8 -10v-31q0 -8 -9 -8q-45 3 -48 3q-52 0 -79.5 -30.5t-27.5 -88.5v-557q0 -79 -42 -123t-110 -44q-27 0 -57 3q-8 2 -8 10v31q0 8 9 8q45 -3 48 -3q51 0 79 31t28 88v557z" />
    <glyph glyph-name="approxequal" unicode="&#x2248;" horiz-adv-x="561" 
d="M484 413q-44 -46 -107 -46q-31 0 -101 24q-57 21 -89 21q-44 0 -74 -28q-7 -6 -13 -1l-22 20q-6 7 -1 12q43 45 105 45q35 0 103 -24q60 -21 87 -21q45 0 76 28q6 5 12 1l23 -20q7 -5 1 -11zM484 260q-44 -46 -107 -46q-34 0 -101 25q-61 21 -89 21q-43 0 -74 -29
q-8 -5 -13 0l-22 19q-6 6 -1 12q43 45 105 45q35 0 103 -24q60 -21 87 -21q45 0 76 28q6 5 12 1l23 -19q7 -6 1 -12z" />
    <glyph glyph-name="notequal" unicode="&#x2260;" horiz-adv-x="561" 
d="M496 441v-33q0 -9 -8 -9h-130l-88 -129h218q8 0 8 -9v-33q0 -9 -8 -9h-250l-56 -84q-2 -5 -10 -5h-35q-5 0 -7 3t1 7l54 79h-112q-8 0 -8 9v33q0 9 8 9h143l88 129h-231q-8 0 -8 9v33q0 9 8 9h263l54 81q3 5 10 5h35q12 0 6 -10l-51 -76h98q8 0 8 -9z" />
    <glyph glyph-name="lessequal" unicode="&#x2264;" horiz-adv-x="561" 
d="M490 187v-40q0 -5 -3 -7t-7 1l-415 200q-6 3 -6 10v31q0 6 6 10l415 200q4 2 7 0t3 -6v-40q0 -8 -7 -11l-360 -169l360 -169q7 -3 7 -10zM490 91v-33q0 -8 -8 -8h-415q-8 0 -8 8v33q0 9 8 9h415q8 0 8 -9z" />
    <glyph glyph-name="greaterequal" unicode="&#x2265;" horiz-adv-x="561" 
d="M496 341l-415 -200q-4 -3 -7 -1t-3 7v40q0 7 6 10l361 169l-361 169q-6 3 -6 11v40q0 4 3 6t7 0l415 -200q6 -4 6 -10v-31q0 -7 -6 -10zM494 50h-415q-8 0 -8 8v33q0 9 8 9h415q8 0 8 -9v-33q0 -8 -8 -8z" />
    <glyph glyph-name="lozenge" unicode="&#x25ca;" horiz-adv-x="511" 
d="M242 715h27q7 0 10 -6l203 -346q3 -6 0 -12l-203 -345q-3 -6 -10 -6h-27q-7 0 -10 6l-203 345q-3 6 0 12l203 346q3 6 10 6zM83 357l173 -303l173 303l-173 304z" />
    <glyph glyph-name="idotaccent" horiz-adv-x="201" 
d="M119 0h-36q-9 0 -9 8v498q0 9 9 9h36q8 0 8 -9v-498q0 -8 -8 -8zM138 656q0 -16 -10.5 -26t-26.5 -10t-26.5 10t-10.5 26t10.5 26.5t26.5 10.5t26.5 -10.5t10.5 -26.5z" />
    <glyph glyph-name="a.ss01" horiz-adv-x="534" 
d="M411 62q-67 -73 -162 -73q-87 0 -141 51t-54 148v132q0 97 59 151.5t153 54.5q84 0 189 -37q6 -3 6 -9v-472q0 -8 -8 -8h-31q-8 0 -8 8zM108 188q0 -75 38.5 -113t109.5 -38q85 0 152 74v342q-77 25 -144 25q-70 0 -113 -42t-43 -116v-132z" />
    <glyph glyph-name="aacute.ss01" horiz-adv-x="534" 
d="M250 601h-28q-5 0 -7.5 3.5t0.5 7.5l82 133q3 5 10 5h41q12 0 5 -10l-93 -133q-3 -6 -10 -6zM411 62q-67 -73 -162 -73q-87 0 -141 51t-54 148v132q0 97 59 151.5t153 54.5q84 0 189 -37q6 -3 6 -9v-472q0 -8 -8 -8h-31q-8 0 -8 8zM108 188q0 -75 38.5 -113t109.5 -38
q85 0 152 74v342q-77 25 -144 25q-70 0 -113 -42t-43 -116v-132z" />
    <glyph glyph-name="abreve.ss01" horiz-adv-x="534" 
d="M418 727q-7 -61 -46 -98.5t-103 -37.5q-63 0 -102 37.5t-46 97.5q-1 8 7 10l26 3q7 1 10 -7q15 -99 105 -99q45 0 72 26.5t34 72.5q1 8 10 7l25 -3q10 0 8 -9zM411 62q-67 -73 -162 -73q-87 0 -141 51t-54 148v132q0 97 59 151.5t153 54.5q84 0 189 -37q6 -3 6 -9v-472
q0 -8 -8 -8h-31q-8 0 -8 8zM108 188q0 -75 38.5 -113t109.5 -38q85 0 152 74v342q-77 25 -144 25q-70 0 -113 -42t-43 -116v-132z" />
    <glyph glyph-name="acircumflex.ss01" horiz-adv-x="534" 
d="M168 601h-33q-11 0 -5 11l114 133q5 5 10 5h28q7 0 10 -5l113 -133q8 -11 -4 -11h-34q-7 0 -10 5l-89 106l-89 -106q-5 -5 -11 -5zM411 62q-67 -73 -162 -73q-87 0 -141 51t-54 148v132q0 97 59 151.5t153 54.5q84 0 189 -37q6 -3 6 -9v-472q0 -8 -8 -8h-31q-8 0 -8 8z
M108 188q0 -75 38.5 -113t109.5 -38q85 0 152 74v342q-77 25 -144 25q-70 0 -113 -42t-43 -116v-132z" />
    <glyph glyph-name="adieresis.ss01" horiz-adv-x="534" 
d="M213 659q0 -16 -9.5 -25t-25.5 -9q-15 0 -24.5 9t-9.5 25t9.5 25.5t24.5 9.5q16 0 25.5 -9.5t9.5 -25.5zM393 659q0 -16 -9.5 -25t-24.5 -9t-25 9.5t-10 24.5q0 16 10 25.5t25 9.5t24.5 -9.5t9.5 -25.5zM411 62q-67 -73 -162 -73q-87 0 -141 51t-54 148v132
q0 97 59 151.5t153 54.5q84 0 189 -37q6 -3 6 -9v-472q0 -8 -8 -8h-31q-8 0 -8 8zM108 188q0 -75 38.5 -113t109.5 -38q85 0 152 74v342q-77 25 -144 25q-70 0 -113 -42t-43 -116v-132z" />
    <glyph glyph-name="agrave.ss01" horiz-adv-x="534" 
d="M309 601h-28q-7 0 -10 6l-93 133q-7 10 5 10h41q7 0 10 -5l82 -133q3 -4 0.5 -7.5t-7.5 -3.5zM411 62q-67 -73 -162 -73q-87 0 -141 51t-54 148v132q0 97 59 151.5t153 54.5q84 0 189 -37q6 -3 6 -9v-472q0 -8 -8 -8h-31q-8 0 -8 8zM108 188q0 -75 38.5 -113t109.5 -38
q85 0 152 74v342q-77 25 -144 25q-70 0 -113 -42t-43 -116v-132z" />
    <glyph glyph-name="amacron.ss01" horiz-adv-x="534" 
d="M139 633v26q0 9 8 9h242q8 0 8 -9v-26q0 -9 -8 -9h-242q-8 0 -8 9zM411 62q-67 -73 -162 -73q-87 0 -141 51t-54 148v132q0 97 59 151.5t153 54.5q84 0 189 -37q6 -3 6 -9v-472q0 -8 -8 -8h-31q-8 0 -8 8zM108 188q0 -75 38.5 -113t109.5 -38q85 0 152 74v342
q-77 25 -144 25q-70 0 -113 -42t-43 -116v-132z" />
    <glyph glyph-name="aogonek.ss01" horiz-adv-x="534" 
d="M483 -182q-37 -17 -79 -17q-38 0 -60 20t-22 55q0 71 93 130l-4 56q-69 -71 -163 -71q-86 0 -140 50.5t-54 146.5v132q0 97 59 151.5t154 54.5q83 0 188 -37q6 -3 6 -9v-469q0 -8 -15 -15q-36 -19 -56 -48t-20 -56q0 -44 45 -44q26 0 55 12q8 3 10 -6l7 -25q2 -8 -4 -11z
M108 188q0 -73 38 -111t108 -38q82 0 154 72v342q-77 25 -141 25q-73 0 -116 -41.5t-43 -116.5v-132z" />
    <glyph glyph-name="aring.ss01" horiz-adv-x="534" 
d="M368 674q0 -44 -28 -70t-72 -26q-45 0 -73.5 26.5t-28.5 70.5t28.5 70t73.5 26q44 0 72 -26.5t28 -70.5zM202 674q0 -27 18.5 -44.5t47.5 -17.5t47 17.5t18 44.5q0 28 -18 45.5t-47 17.5t-47.5 -17.5t-18.5 -45.5zM411 62q-67 -73 -162 -73q-87 0 -141 51t-54 148v132
q0 97 59 151.5t153 54.5q84 0 189 -37q6 -3 6 -9v-472q0 -8 -8 -8h-31q-8 0 -8 8zM108 188q0 -75 38.5 -113t109.5 -38q85 0 152 74v342q-77 25 -144 25q-70 0 -113 -42t-43 -116v-132z" />
    <glyph glyph-name="atilde.ss01" horiz-adv-x="534" 
d="M415 680q-8 -24 -28 -43t-47 -19q-25 0 -69 24q-42 23 -63 23q-29 0 -45 -35q-3 -6 -11 -4l-21 12q-7 4 -4 11q9 24 29 41.5t47 17.5t71 -24q46 -23 62 -23q26 0 43 36q3 9 11 4l21 -11q7 -5 4 -10zM411 62q-67 -73 -162 -73q-87 0 -141 51t-54 148v132q0 97 59 151.5
t153 54.5q84 0 189 -37q6 -3 6 -9v-472q0 -8 -8 -8h-31q-8 0 -8 8zM108 188q0 -75 38.5 -113t109.5 -38q85 0 152 74v342q-77 25 -144 25q-70 0 -113 -42t-43 -116v-132z" />
    <glyph glyph-name="ae.ss01" horiz-adv-x="859" 
d="M799 64q-91 -75 -190 -75t-152 73l-2 -54q0 -8 -8 -8h-25q-9 0 -9 8l-3 57q-62 -76 -167 -76q-84 0 -136.5 51t-52.5 148v132q0 97 59 151.5t151 54.5q101 0 169 -69q73 69 176 69q88 0 144.5 -50.5t56.5 -143.5v-94q0 -8 -9 -8h-342v-106q26 -45 59 -66t92 -21
q35 0 66.5 10.5t48 21.5t45.5 32q6 4 12 -2l18 -23q5 -7 -1 -12zM108 188q0 -75 37 -113t105 -38q93 0 156 87v281q-20 37 -62.5 55t-81.5 18q-69 0 -111.5 -42t-42.5 -116v-132zM459 405v-130h299v57q0 69 -41 107t-108 38q-98 0 -150 -72z" />
    <glyph glyph-name="uni0414.loclBGR" horiz-adv-x="655" 
d="M60 -137h-38q-8 0 -8 8v172q0 9 8 9h47l219 656q4 7 9 7h61q7 0 9 -7l218 -656h47q9 0 9 -9v-172q0 -8 -9 -8h-40q-8 0 -8 8v129h-516v-129q0 -8 -8 -8zM326 650l-198 -598h399l-198 598h-3z" />
    <glyph glyph-name="uni041B.loclBGR" horiz-adv-x="608" 
d="M59 0h-42q-9 0 -6 10l257 698q4 7 10 7h53q7 0 10 -7l257 -698q3 -10 -7 -10h-41q-8 0 -10 7l-234 646h-3l-234 -646q-3 -7 -10 -7z" />
    <glyph glyph-name="uni0432.loclBGR" horiz-adv-x="534" 
d="M488 206q0 -103 -58 -159t-158 -58q-98 -1 -191 40q-7 3 -7 10v490q0 93 53.5 145t141.5 52q85 0 139 -49t54 -129q0 -115 -111 -168q62 -15 99.5 -63.5t37.5 -110.5zM127 67q64 -30 140 -29q80 1 124 44t44 124q0 65 -46.5 108t-134.5 32q-45 -4 -127 -17v-262zM127 529
v-154q134 19 136 19q74 12 110 52.5t36 99.5q0 61 -39 96.5t-101 35.5q-66 0 -104 -40.5t-38 -108.5z" />
    <glyph glyph-name="uni0433.loclBGR" horiz-adv-x="459" 
d="M418 55q-88 -66 -196 -66q-86 0 -136 39.5t-50 105.5q0 64 45 99t134 59q38 10 57.5 16.5t43.5 18.5t34.5 28.5t10.5 38.5q0 42 -35.5 62.5t-89.5 20.5q-88 0 -149 -43q-8 -6 -12 4l-14 27q-3 7 3 12q73 49 170 49q81 0 129.5 -34.5t48.5 -97.5q0 -28 -11 -50
t-25.5 -35.5t-42.5 -27t-48.5 -20t-57.5 -17.5q-39 -10 -64.5 -20t-49.5 -33.5t-24 -55.5q0 -44 35.5 -70.5t99.5 -26.5q86 0 170 58q6 5 11 -3l15 -26q4 -8 -2 -12z" />
    <glyph glyph-name="uni0434.loclBGR" 
d="M463 -3q0 -92 -50 -144.5t-152 -52.5q-107 0 -190 75q-6 4 -1 12l18 26q5 7 11 1q76 -66 162 -66q151 0 149 153v50q-69 -33 -143 -33q-98 0 -155.5 51.5t-57.5 149.5v105q0 103 58.5 152.5t158.5 49.5q99 0 185 -37q7 -3 7 -10v-482zM108 219q0 -153 162 -153
q78 0 140 35v354q-63 22 -140 22q-162 0 -162 -153v-105z" />
    <glyph glyph-name="uni0436.loclBGR" horiz-adv-x="721" 
d="M699 0h-44q-7 0 -10 5l-188 248l-70 -76v-169q0 -8 -9 -8h-35q-8 0 -8 8v169l-70 76l-188 -248q-4 -5 -11 -5h-43q-12 0 -6 10l213 279l-195 216q-4 4 -2.5 7t6.5 3h45q7 0 10 -5l241 -268v465q0 8 8 8h35q9 0 9 -8v-465l240 268q5 5 11 5h44q5 0 7 -3t-2 -7l-195 -216
l212 -279q3 -4 1.5 -7t-6.5 -3z" />
    <glyph glyph-name="uni0438.loclBGR" horiz-adv-x="544" 
d="M427 515h36q8 0 8 -9v-468q0 -7 -6 -10q-88 -39 -183 -39q-100 0 -156.5 52t-56.5 156v309q0 9 8 9h36q9 0 9 -9v-308q0 -161 160 -161q68 0 136 25v444q0 9 9 9z" />
    <glyph glyph-name="uni0439.loclBGR" horiz-adv-x="544" 
d="M419 724q-7 -61 -46 -98.5t-103 -37.5q-63 0 -102 37.5t-46 97.5q-1 8 7 10l26 3q7 1 10 -7q15 -99 105 -99q45 0 72 26.5t34 72.5q1 8 10 7l25 -3q10 0 8 -9zM427 515h36q8 0 8 -9v-468q0 -7 -6 -10q-88 -39 -183 -39q-100 0 -156.5 52t-56.5 156v309q0 9 8 9h36
q9 0 9 -9v-308q0 -161 160 -161q68 0 136 25v444q0 9 9 9z" />
    <glyph glyph-name="uni045D.loclBGR" horiz-adv-x="544" 
d="M306 598h-28q-7 0 -10 6l-93 133q-7 10 5 10h41q7 0 10 -5l82 -133q3 -5 0.5 -8t-7.5 -3zM427 515h36q8 0 8 -9v-468q0 -7 -6 -10q-88 -39 -183 -39q-100 0 -156.5 52t-56.5 156v309q0 9 8 9h36q9 0 9 -9v-308q0 -161 160 -161q68 0 136 25v444q0 9 9 9z" />
    <glyph glyph-name="uni043A.loclBGR" horiz-adv-x="484" 
d="M469 0h-46q-7 0 -11 5l-217 252l-68 -60v-189q0 -8 -8 -8h-36q-9 0 -9 8v699q0 8 9 8h36q8 0 8 -8v-445l272 249q3 4 10 4h46q5 0 6.5 -3t-2.5 -7l-228 -212l242 -283q8 -10 -4 -10z" />
    <glyph glyph-name="uni043B.loclBGR" horiz-adv-x="486" 
d="M19 10l191 498q2 7 9 7h46q7 0 10 -7l191 -498q2 -10 -7 -10h-39q-8 0 -10 7l-167 450h-1q-5 -13 -168 -450q-2 -7 -9 -7h-39q-11 0 -7 10z" />
    <glyph glyph-name="uni043F.loclBGR" horiz-adv-x="551" 
d="M117 0h-36q-9 0 -9 8v469q0 7 7 10q89 39 186 39q103 0 160 -52t57 -156v-310q0 -8 -8 -8h-36q-9 0 -9 8v308q0 161 -164 161q-73 0 -140 -24v-445q0 -8 -8 -8z" />
    <glyph glyph-name="uni0442.loclBGR" horiz-adv-x="809" 
d="M383 476q74 50 157 50q92 0 146 -51t54 -145v-322q0 -8 -9 -8h-36q-8 0 -8 8v324q0 70 -38.5 108t-109.5 38t-128 -40q24 -46 24 -107v-323q0 -8 -9 -8h-36q-8 0 -8 8v324q0 146 -137 146q-60 0 -120 -25v-445q0 -8 -8 -8h-36q-9 0 -9 8v469q0 8 7 11q84 38 165 38
q87 0 139 -50z" />
    <glyph glyph-name="uni0446.loclBGR" horiz-adv-x="573" 
d="M537 -131h-34q-8 0 -8 8v149h-37q-82 -37 -173 -37q-104 0 -160 53t-56 157v307q0 9 8 9h36q9 0 9 -9v-308q0 -160 163 -160q69 0 133 26v442q0 9 8 9h37q8 0 8 -9v-433h66q8 0 8 -9v-187q0 -8 -8 -8z" />
    <glyph glyph-name="uni0448.loclBGR" horiz-adv-x="809" 
d="M426 38q-75 -49 -158 -49q-92 0 -145.5 51t-53.5 144v322q0 9 8 9h36q9 0 9 -9v-323q0 -69 38 -107.5t109 -38.5q70 0 129 40q-24 43 -24 107v322q0 9 8 9h37q8 0 8 -9v-323q0 -146 136 -146q60 0 120 25v444q0 9 9 9h36q8 0 8 -9v-468q0 -8 -7 -11q-84 -38 -164 -38
q-87 0 -139 49z" />
    <glyph glyph-name="uni0449.loclBGR" horiz-adv-x="835" 
d="M799 -131h-33q-9 0 -9 8v149h-36q-80 -37 -158 -37q-88 0 -139 49q-74 -49 -156 -49q-92 0 -145.5 51t-53.5 144v322q0 9 8 9h36q9 0 9 -9v-323q0 -70 37.5 -108t108.5 -38q69 0 128 40q-24 43 -24 107v322q0 9 9 9h36q8 0 8 -9v-323q0 -146 137 -146q57 0 118 28v441
q0 9 9 9h36q8 0 8 -9v-432h66q8 0 8 -8v-189q0 -8 -8 -8z" />
    <glyph glyph-name="uni044C.loclBGR" horiz-adv-x="503" 
d="M469 167q0 -83 -56.5 -129.5t-152.5 -48.5q-85 -1 -180 35q-7 1 -7 9v473q0 9 9 9h35q9 0 9 -9v-184q69 22 136 22q94 0 150.5 -47.5t56.5 -129.5zM126 62q59 -24 128 -24q78 2 120 35t42 94t-41.5 95t-117.5 34q-67 0 -131 -23v-211z" />
    <glyph glyph-name="uni044A.loclBGR" horiz-adv-x="574" 
d="M540 167q0 -83 -56.5 -129.5t-152.5 -48.5q-85 -1 -180 35q-7 1 -7 9v434h-118q-9 0 -9 9v30q0 9 9 9h162q8 0 8 -9v-184q71 22 137 22q94 0 150.5 -47.5t56.5 -129.5zM196 62q61 -24 129 -24q78 2 120 35t42 94t-42 95t-117 34q-66 0 -132 -23v-211z" />
    <glyph glyph-name="uni044E.loclBGR" horiz-adv-x="709" 
d="M248 338q0 81 54.5 134.5t148.5 53.5t148.5 -53.5t54.5 -134.5v-162q0 -81 -54.5 -134t-148.5 -53t-148.5 53t-54.5 134v68h-122v-236q0 -8 -8 -8h-35q-9 0 -9 8v699q0 8 9 8h35q8 0 8 -8v-415h122v46zM451 38q72 0 111 39t39 99v162q0 61 -39 100.5t-111 39.5
t-111 -39.5t-39 -100.5v-162q0 -60 39 -99t111 -39z" />
    <glyph glyph-name="uni0430.ss01" horiz-adv-x="534" 
d="M411 62q-67 -73 -162 -73q-87 0 -141 51t-54 148v132q0 97 59 151.5t153 54.5q84 0 189 -37q6 -3 6 -9v-472q0 -8 -8 -8h-31q-8 0 -8 8zM108 188q0 -75 38.5 -113t109.5 -38q85 0 152 74v342q-77 25 -144 25q-70 0 -113 -42t-43 -116v-132z" />
    <glyph glyph-name="zero.tf" horiz-adv-x="560" 
d="M513 219q0 -109 -65.5 -169.5t-167.5 -60.5t-167.5 60.5t-65.5 169.5v276q0 110 65 170.5t168 60.5t168 -60.5t65 -170.5v-276zM100 218q0 -86 49.5 -131.5t130.5 -45.5t130.5 45.5t49.5 131.5v275q0 89 -49 135t-131 46q-81 0 -130.5 -46.5t-49.5 -134.5v-275z" />
    <glyph glyph-name="one.tf" horiz-adv-x="560" 
d="M322 707v-657h158q8 0 8 -8v-34q0 -8 -8 -8h-371q-9 0 -9 8v34q0 8 9 8h159v600l-138 -89q-7 -5 -12 2l-17 28q-5 7 2 12l169 109q3 3 10 3h31q9 0 9 -8z" />
    <glyph glyph-name="two.tf" horiz-adv-x="560" 
d="M498 0h-442q-8 0 -8 8v25q0 7 3 10l176 185q57 61 85.5 93t61 75t45.5 77t13 68q0 55 -37 94.5t-110 39.5q-106 0 -190 -95q-5 -8 -11 0l-20 27q-5 5 0 12q94 107 220 107q94 0 148.5 -52t54.5 -132q0 -74 -48 -144t-165 -197l-144 -151h368q8 0 8 -9v-33q0 -8 -8 -8z
" />
    <glyph glyph-name="three.tf" horiz-adv-x="560" 
d="M506 215q0 -102 -65 -163.5t-170 -61.5q-74 0 -127.5 25.5t-102.5 76.5q-5 8 0 12l21 23q7 5 13 -1q45 -43 88 -64.5t108 -21.5q83 0 132 47t49 128q0 80 -49 125t-140 45q-34 0 -59 -4q-7 -2 -10 5l-7 16q-4 6 2 12l155 169q74 77 79 82h-345q-8 0 -8 9v33q0 8 8 8h409
q8 0 8 -8v-23q0 -5 -4 -11l-230 -248h14q106 1 168.5 -56t62.5 -154z" />
    <glyph glyph-name="four.tf" horiz-adv-x="560" 
d="M431 0h-37q-8 0 -8 8v176h-339q-9 0 -9 8v25q0 7 3 11l274 481q3 6 10 6h42q11 0 6 -10l-269 -472h282v166q0 8 8 8h37q8 0 8 -8v-166h73q9 0 9 -8v-33q0 -8 -9 -8h-73v-176q0 -8 -8 -8z" />
    <glyph glyph-name="five.tf" horiz-adv-x="560" 
d="M515 235q0 -111 -63.5 -177.5t-171.5 -66.5q-131 0 -222 102q-4 7 1 12l24 25q5 6 12 -1q79 -87 187 -87q84 0 131.5 51.5t47.5 140.5q0 91 -46 135t-128 44q-98 0 -167 -67q-6 -6 -11 -3l-34 12q-7 2 -7 9l13 343q0 8 9 8h382q8 0 8 -8v-34q0 -8 -8 -8h-339l-9 -261
q72 60 167 60q101 0 162.5 -58.5t61.5 -170.5z" />
    <glyph glyph-name="six.tf" horiz-adv-x="560" 
d="M114 354q25 46 74 71t106 25q104 0 164 -59t60 -168q0 -106 -62.5 -170t-165.5 -64t-166.5 62.5t-63.5 166.5v282q0 105 65.5 165.5t162.5 60.5q115 0 200 -75q6 -6 1 -12l-20 -26q-5 -7 -12 -2q-72 64 -169 64q-74 0 -124 -47t-50 -126v-148zM114 218q0 -83 48 -130.5
t128 -47.5q81 0 127.5 48.5t46.5 133.5q0 87 -44.5 132.5t-127.5 45.5q-72 0 -125 -43t-53 -125v-14z" />
    <glyph glyph-name="seven.tf" horiz-adv-x="560" 
d="M178 0h-42q-12 0 -7 10l316 653h-385q-9 0 -9 9v35q0 8 9 8h445q9 0 9 -8v-21q0 -6 -3 -10l-323 -670q-3 -6 -10 -6z" />
    <glyph glyph-name="eight.tf" horiz-adv-x="560" 
d="M522 201q0 -96 -65.5 -154t-176.5 -58t-176.5 58t-65.5 154q0 61 36 109.5t101 66.5q-58 19 -88 62.5t-30 101.5q0 80 61 132.5t162 52.5t162 -52.5t61 -132.5q0 -58 -29.5 -101.5t-88.5 -62.5q65 -18 101 -66.5t36 -109.5zM92 202q0 -71 49.5 -116.5t138.5 -45.5
t138.5 45.5t49.5 116.5q0 65 -51.5 106.5t-136.5 41.5q-86 0 -137 -41.5t-51 -106.5zM111 540q0 -63 43.5 -102.5t125.5 -39.5t125.5 39.5t43.5 102.5t-46 99t-123 36t-123 -36t-46 -99z" />
    <glyph glyph-name="nine.tf" horiz-adv-x="560" 
d="M42 492q0 106 62.5 170t165.5 64t166 -62t63 -166v-283q0 -105 -65.5 -165.5t-161.5 -60.5q-113 0 -200 90q-6 6 -1 12l20 26q6 6 12 1q76 -78 168 -78q75 0 125 47t50 126v146q-26 -45 -75 -69.5t-105 -24.5q-105 0 -164.5 58.5t-59.5 168.5zM95 493q0 -87 45 -132.5
t129 -45.5q71 0 124 43t53 123v17q0 83 -48 130t-129 47t-127.5 -48.5t-46.5 -133.5z" />
    <glyph glyph-name="zero.dnom" horiz-adv-x="347" 
d="M303 118q0 -55 -37.5 -89t-92.5 -34q-54 0 -91.5 34t-37.5 89v148q0 59 37 93t92 34t92.5 -34t37.5 -93v-148zM82 120q0 -41 25.5 -64.5t65.5 -23.5t66 23.5t26 64.5v145q0 43 -26 67t-66 24t-65.5 -24t-25.5 -67v-145z" />
    <glyph glyph-name="one.dnom" horiz-adv-x="202" 
d="M137 0h-22q-8 0 -8 8v336l-65 -45q-7 -7 -12 2l-10 14q-4 7 3 11l83 59q4 3 10 3h21q8 0 8 -8v-372q0 -8 -8 -8z" />
    <glyph glyph-name="two.dnom" horiz-adv-x="313" 
d="M272 0h-234q-9 0 -9 8v17q0 7 4 11l94 95q40 42 58 63t33 49t15 52q0 28 -20.5 44.5t-56.5 16.5q-51 0 -94 -45q-6 -6 -12 0l-11 15q-4 7 0 12q51 55 118 55q54 0 84 -28t30 -69q0 -44 -28 -86t-92 -106l-65 -67h186q8 0 8 -8v-21q0 -8 -8 -8z" />
    <glyph glyph-name="three.dnom" horiz-adv-x="316" 
d="M281 120q0 -53 -35.5 -89t-88.5 -36q-76 0 -128 59q-5 7 -1 12l13 14q5 6 11 0q44 -48 104 -48q39 0 63.5 26t24.5 66q0 35 -23.5 58t-65.5 23q-21 0 -36 -3q-9 0 -10 5l-4 9q-3 7 2 12l84 94q1 1 12 13t16 18h-167q-8 0 -8 8v19q0 8 8 8h214q8 0 8 -8v-11q0 -5 -5 -10
l-115 -128q7 1 19 1q49 0 78.5 -31.5t29.5 -80.5z" />
    <glyph glyph-name="four.dnom" horiz-adv-x="315" 
d="M242 0h-21q-8 0 -8 8v85h-182q-8 0 -8 8v13q0 4 3 10l145 258q3 6 9 6h22q13 0 6 -10l-138 -248h143v84q0 9 8 9h21q9 0 9 -9v-84h32q8 0 8 -8v-21q0 -8 -8 -8h-32v-85q0 -8 -9 -8z" />
    <glyph glyph-name="five.dnom" horiz-adv-x="328" 
d="M294 128q0 -63 -34.5 -98t-93.5 -35q-78 0 -124 60q-4 7 3 12l11 14q7 5 12 -2q38 -47 97 -47q43 0 66.5 25.5t24.5 71.5q0 46 -24 69t-65 23q-52 0 -88 -41q-5 -5 -11 -3l-17 5q-7 3 -7 10l6 188q0 8 9 8h208q9 0 9 -8v-20q0 -9 -9 -9h-184l-4 -133q37 39 92 39
q54 0 88.5 -33t34.5 -96z" />
    <glyph glyph-name="six.dnom" horiz-adv-x="331" 
d="M297 126q0 -60 -34 -95.5t-89 -35.5q-58 0 -94 35.5t-36 96.5v147q0 55 35 87t92 32q59 0 109 -43q6 -4 1 -11l-11 -15q-5 -6 -12 -1q-41 34 -86 34q-43 0 -66.5 -22.5t-23.5 -61.5v-73q12 22 37 35t56 13q54 0 88 -32t34 -90zM82 127q0 -44 25 -69.5t65 -25.5t63.5 25.5
t23.5 68.5q0 42 -23 64.5t-64 22.5q-40 0 -65 -23.5t-25 -62.5z" />
    <glyph glyph-name="seven.dnom" horiz-adv-x="295" 
d="M94 0h-25q-10 0 -6 10l164 341h-197q-8 0 -8 8v21q0 8 8 8h235q9 0 9 -8v-14q0 -2 -2 -10l-169 -350q-1 -6 -9 -6z" />
    <glyph glyph-name="eight.dnom" horiz-adv-x="341" 
d="M304 110q0 -50 -37.5 -82.5t-95.5 -32.5t-95.5 32.5t-37.5 82.5q0 32 18.5 58t53.5 36q-63 22 -63 88q0 44 34.5 72.5t89.5 28.5t89 -28.5t34 -72.5q0 -65 -62 -88q35 -10 53.5 -36t18.5 -58zM85 291q0 -30 22 -50t64 -20t64 20t22 50q0 31 -24.5 48.5t-61.5 17.5
t-61.5 -17.5t-24.5 -48.5zM76 111q0 -33 26 -56t69 -23q42 0 68 23t26 56q0 32 -25.5 52.5t-68.5 20.5t-69 -20.5t-26 -52.5z" />
    <glyph glyph-name="nine.dnom" horiz-adv-x="334" 
d="M36 267q0 57 34 91.5t90 34.5q58 0 94 -35t36 -94v-150q0 -55 -35 -87t-92 -32q-65 0 -116 54q-6 6 -1 12l12 15q6 7 12 1q40 -45 93 -45q42 0 65.5 22t23.5 61v76q-12 -23 -37.5 -37t-57.5 -14q-54 0 -87.5 33.5t-33.5 93.5zM252 264q0 43 -25.5 68t-65.5 25
t-63.5 -24.5t-23.5 -65.5q0 -44 23 -68t64 -24t66 24.5t25 64.5z" />
    <glyph glyph-name="zero.numr" horiz-adv-x="347" 
d="M303 445q0 -55 -37.5 -89t-92.5 -34q-54 0 -91.5 34t-37.5 89v148q0 59 37 93t92 34t92.5 -34t37.5 -93v-148zM82 447q0 -41 25.5 -64.5t65.5 -23.5t66 23.5t26 64.5v145q0 43 -26 67t-66 24t-65.5 -24t-25.5 -67v-145z" />
    <glyph glyph-name="one.numr" horiz-adv-x="202" 
d="M138 326h-22q-8 0 -8 9v336l-65 -46q-6 -6 -12 2l-10 14q-3 7 3 12l83 58q3 3 10 3h21q8 0 8 -8v-371q0 -9 -8 -9z" />
    </font>
</defs>
</svg>
