<?xml version="1.0" encoding="UTF-8"?>
<svg id="SVGDoc" width="1194" height="504" xmlns="http://www.w3.org/2000/svg" version="1.1" xmlns:xlink="http://www.w3.org/1999/xlink" xmlns:avocode="https://avocode.com/" viewBox="0 0 1194 504"><defs><mask id="Mask1038" x="-1" y="-1" width="2" height="2"><rect width="1160" height="470" x="17" y="17" fill="#ffffff"></rect><path d="M17,33c0,-8.83656 7.16344,-16 16,-16h1128c8.84,0 16,7.16344 16,16v164.363v0l-27,55.137v0l27,55.137v0v163.363c0,8.837 -7.16,16 -16,16h-1128c-8.83655,0 -16,-7.163 -16,-16v-157.237v0l30,-61.263v0l-30,-61.263v0z" fill="#000000"></path></mask><filter id="Filter1042" width="1230" height="540" x="-18" y="-18" filterUnits="userSpaceOnUse"><feOffset dx="0" dy="0" result="FeOffset1043Out" in="SourceGraphic"></feOffset><feGaussianBlur stdDeviation="10 10" result="FeGaussianBlur1044Out" in="FeOffset1043Out"></feGaussianBlur></filter></defs><desc>Generated with Avocode.</desc><g><g><title>Subtract</title><g filter="url(#Filter1042)"><path d="M17,33c0,-8.83656 7.16344,-16 16,-16h1128c8.84,0 16,7.16344 16,16v164.363v0l-27,55.137v0l27,55.137v0v163.363c0,8.837 -7.16,16 -16,16h-1128c-8.83655,0 -16,-7.163 -16,-16v-157.237v0l30,-61.263v0l-30,-61.263v0z" fill="none" stroke-opacity="0.07" stroke-width="0" mask="url(&quot;#Mask1038&quot;)"></path><path d="M17,33c0,-8.83656 7.16344,-16 16,-16h1128c8.84,0 16,7.16344 16,16v164.363v0l-27,55.137v0l27,55.137v0v163.363c0,8.837 -7.16,16 -16,16h-1128c-8.83655,0 -16,-7.163 -16,-16v-157.237v0l30,-61.263v0l-30,-61.263v0z" fill="#000000" fill-opacity="0.07"></path></g><path d="M17,33c0,-8.83656 7.16344,-16 16,-16h1128c8.84,0 16,7.16344 16,16v164.363v0l-27,55.137v0l27,55.137v0v163.363c0,8.837 -7.16,16 -16,16h-1128c-8.83655,0 -16,-7.163 -16,-16v-157.237v0l30,-61.263v0l-30,-61.263v0z" fill="#ffffff" fill-opacity="1"></path></g></g></svg>