<svg xmlns="http://www.w3.org/2000/svg" width="231" height="139" viewBox="0 0 231 139"><defs><linearGradient id="qabla" x1="53.61" x2="53.61" y1="69.76" y2="40" gradientUnits="userSpaceOnUse"><stop offset="0" stop-color="#f4ea94"/><stop offset="1" stop-color="#e7d003"/></linearGradient><linearGradient id="qablb" x1="53.61" x2="53.61" y1="89.91" y2="60.15" gradientUnits="userSpaceOnUse"><stop offset="0" stop-color="#a59bed"/><stop offset=".53" stop-color="#7b6fd2"/><stop offset="1" stop-color="#645ab7"/></linearGradient><linearGradient id="qablc" x1="72.86" x2="72.86" y1="54.98" y2="44.61" gradientUnits="userSpaceOnUse"><stop offset="0" stop-color="#f4ea94"/><stop offset="1" stop-color="#e7d003"/></linearGradient><linearGradient id="qabld" x1="72.86" x2="72.86" y1="104.69" y2="94.32" gradientUnits="userSpaceOnUse"><stop offset="0" stop-color="#a59bed"/><stop offset=".53" stop-color="#7b6fd2"/><stop offset="1" stop-color="#645ab7"/></linearGradient><mask id="qablf" width="2" height="2" x="-1" y="-1"><path fill="#fff" d="M25 8h182v117H25z"/><path d="M25 8h182v105c0 6.627-5.373 12-12 12H37c-6.627 0-12-5.373-12-12z"/></mask><filter id="qable" width="224" height="162" x="4" y="-13" filterUnits="userSpaceOnUse"><feOffset dy="3" in="SourceGraphic" result="FeOffset1056Out"/><feGaussianBlur in="FeOffset1056Out" result="FeGaussianBlur1057Out" stdDeviation="4.4 4.4"/></filter><mask id="qablh" width="2" height="2" x="-1" y="-1"><path fill="#fff" d="M25 8h182v117H25z"/><path d="M25 8h182v105c0 6.627-5.373 12-12 12H37c-6.627 0-12-5.373-12-12z"/></mask><filter id="qablg" width="224" height="162" x="4" y="-13" filterUnits="userSpaceOnUse"><feOffset dy="3" in="SourceGraphic" result="FeOffset1067Out"/><feGaussianBlur in="FeOffset1067Out" result="FeGaussianBlur1068Out" stdDeviation="4.4 4.4"/></filter><mask id="qablj" width="2" height="2" x="-1" y="-1"><path fill="#fff" d="M11 8h209v105H11z"/><path d="M11 8h209v93c0 6.627-5.373 12-12 12H23c-6.627 0-12-5.373-12-12z"/></mask><filter id="qabli" width="251" height="150" x="-10" y="-13" filterUnits="userSpaceOnUse"><feOffset dy="3" in="SourceGraphic" result="FeOffset1083Out"/><feGaussianBlur in="FeOffset1083Out" result="FeGaussianBlur1084Out" stdDeviation="4.4 4.4"/></filter><mask id="qabll" width="2" height="2" x="-1" y="-1"><path fill="#fff" d="M11 8h209v105H11z"/><path d="M11 8h209v93c0 6.627-5.373 12-12 12H23c-6.627 0-12-5.373-12-12z"/></mask><filter id="qablk" width="251" height="150" x="-10" y="-13" filterUnits="userSpaceOnUse"><feOffset dy="3" in="SourceGraphic" result="FeOffset1094Out"/><feGaussianBlur in="FeOffset1094Out" result="FeGaussianBlur1095Out" stdDeviation="4.4 4.4"/></filter><linearGradient id="qablm" x1="55.46" x2="55.46" y1="27" y2="61.41" gradientUnits="userSpaceOnUse"><stop offset="0" stop-color="#a59bed"/><stop offset=".53" stop-color="#7b6fd2"/><stop offset="1" stop-color="#645ab7"/></linearGradient><linearGradient id="qabln" x1="50" x2="50" y1="39.85" y2="83.91" gradientUnits="userSpaceOnUse"><stop offset="0" stop-color="#a59bed"/><stop offset=".53" stop-color="#7b6fd2"/><stop offset="1" stop-color="#645ab7"/></linearGradient></defs><g><g><g><text dominant-baseline="text-before-edge" style="font-kerning:normal" font-family="'Marck Script','MarckScript-Regular'" font-size="36" transform="translate(90 38)"><tspan style="font-kerning:normal">Гарант</tspan></text></g></g><g><path d="M45.455 40.017c-.072.022-.277.04-.455.045-.178 0-.419.022-.535.044-.116.023-.343.067-.503.094-1.783.33-3.424 1.248-4.578 2.563a8.676 8.676 0 0 0-1.747 3.173c-.285.914-.401 1.618-.437 2.666-.027.86.054 1.564.303 2.63.664 2.847 2.724 6.123 6.03 9.604 1.195 1.253 3.57 3.517 4.676 4.449.107.089.606.517 1.106.944.499.428 1.127.963 1.395 1.182l.757.628c.152.12.691.562 1.2.972l.93.749.161-.13c.094-.071.428-.33.745-.57a76.337 76.337 0 0 0 1.248-.963c2.46-1.93 4.359-3.588 6.365-5.567 3.65-3.597 6.03-6.926 7.171-10.05.325-.888.46-1.396.61-2.34.125-.776.148-1.084.125-1.761-.026-.727-.07-1.141-.164-1.583-.032-.133-.067-.316-.09-.4a7.517 7.517 0 0 0-.32-1.026c-.865-2.202-2.434-3.757-4.694-4.653-.753-.294-1.119-.397-2.028-.566-1.012-.192-2.563-.2-3.343-.027-.99.223-1.194.294-1.939.66-1.462.722-2.78 2.019-3.628 3.57-.107.192-.21.348-.231.348-.023 0-.08-.085-.134-.192-.42-.834-1.186-1.819-1.943-2.492-1.101-.98-2.407-1.604-3.914-1.867-.61-.107-1.934-.187-2.14-.134z"/><path fill="url(#qabla)" d="M45.455 40.017c-.072.022-.277.04-.455.045-.178 0-.419.022-.535.044-.116.023-.343.067-.503.094-1.783.33-3.424 1.248-4.578 2.563a8.676 8.676 0 0 0-1.747 3.173c-.285.914-.401 1.618-.437 2.666-.027.86.054 1.564.303 2.63.664 2.847 2.724 6.123 6.03 9.604 1.195 1.253 3.57 3.517 4.676 4.449.107.089.606.517 1.106.944.499.428 1.127.963 1.395 1.182l.757.628c.152.12.691.562 1.2.972l.93.749.161-.13c.094-.071.428-.33.745-.57a76.337 76.337 0 0 0 1.248-.963c2.46-1.93 4.359-3.588 6.365-5.567 3.65-3.597 6.03-6.926 7.171-10.05.325-.888.46-1.396.61-2.34.125-.776.148-1.084.125-1.761-.026-.727-.07-1.141-.164-1.583-.032-.133-.067-.316-.09-.4a7.517 7.517 0 0 0-.32-1.026c-.865-2.202-2.434-3.757-4.694-4.653-.753-.294-1.119-.397-2.028-.566-1.012-.192-2.563-.2-3.343-.027-.99.223-1.194.294-1.939.66-1.462.722-2.78 2.019-3.628 3.57-.107.192-.21.348-.231.348-.023 0-.08-.085-.134-.192-.42-.834-1.186-1.819-1.943-2.492-1.101-.98-2.407-1.604-3.914-1.867-.61-.107-1.934-.187-2.14-.134z"/><path fill="url(#qablb)" d="M45.455 40.017c-.072.022-.277.04-.455.045-.178 0-.419.022-.535.044-.116.023-.343.067-.503.094-1.783.33-3.424 1.248-4.578 2.563a8.676 8.676 0 0 0-1.747 3.173c-.285.914-.401 1.618-.437 2.666-.027.86.054 1.564.303 2.63.664 2.847 2.724 6.123 6.03 9.604 1.195 1.253 3.57 3.517 4.676 4.449.107.089.606.517 1.106.944.499.428 1.127.963 1.395 1.182l.757.628c.152.12.691.562 1.2.972l.93.749.161-.13c.094-.071.428-.33.745-.57a76.337 76.337 0 0 0 1.248-.963c2.46-1.93 4.359-3.588 6.365-5.567 3.65-3.597 6.03-6.926 7.171-10.05.325-.888.46-1.396.61-2.34.125-.776.148-1.084.125-1.761-.026-.727-.07-1.141-.164-1.583-.032-.133-.067-.316-.09-.4a7.517 7.517 0 0 0-.32-1.026c-.865-2.202-2.434-3.757-4.694-4.653-.753-.294-1.119-.397-2.028-.566-1.012-.192-2.563-.2-3.343-.027-.99.223-1.194.294-1.939.66-1.462.722-2.78 2.019-3.628 3.57-.107.192-.21.348-.231.348-.023 0-.08-.085-.134-.192-.42-.834-1.186-1.819-1.943-2.492-1.101-.98-2.407-1.604-3.914-1.867-.61-.107-1.934-.187-2.14-.134z"/></g><g><path d="M70.526 44.71a.636.636 0 0 0-.312.326c-.102.205-.111.267-.111.802.004.464.022.65.102.932.13.454.424 1.016.78 1.497.34.455 1.2 1.395 1.605 1.752.276.24.303.285.388.58.173.597.419 1.207.735 1.836.343.686 1.449 2.576 1.48 2.545.031-.027.25-1.021.343-1.547l.08-.423-.21-.464c-.877-1.97-1.394-3.557-1.345-4.11.026-.325.223-.744.477-1.029l.191-.214-.307-.316c-.642-.651-1.774-1.534-2.434-1.9-.334-.186-.873-.365-1.092-.365-.093 0-.263.045-.37.098z"/><path fill="url(#qablc)" d="M70.526 44.71a.636.636 0 0 0-.312.326c-.102.205-.111.267-.111.802.004.464.022.65.102.932.13.454.424 1.016.78 1.497.34.455 1.2 1.395 1.605 1.752.276.24.303.285.388.58.173.597.419 1.207.735 1.836.343.686 1.449 2.576 1.48 2.545.031-.027.25-1.021.343-1.547l.08-.423-.21-.464c-.877-1.97-1.394-3.557-1.345-4.11.026-.325.223-.744.477-1.029l.191-.214-.307-.316c-.642-.651-1.774-1.534-2.434-1.9-.334-.186-.873-.365-1.092-.365-.093 0-.263.045-.37.098z"/><path fill="url(#qabld)" d="M70.526 44.71a.636.636 0 0 0-.312.326c-.102.205-.111.267-.111.802.004.464.022.65.102.932.13.454.424 1.016.78 1.497.34.455 1.2 1.395 1.605 1.752.276.24.303.285.388.58.173.597.419 1.207.735 1.836.343.686 1.449 2.576 1.48 2.545.031-.027.25-1.021.343-1.547l.08-.423-.21-.464c-.877-1.97-1.394-3.557-1.345-4.11.026-.325.223-.744.477-1.029l.191-.214-.307-.316c-.642-.651-1.774-1.534-2.434-1.9-.334-.186-.873-.365-1.092-.365-.093 0-.263.045-.37.098z"/></g><g><g filter="url(#qable)"><path fill="none" d="M25 8h182v105c0 6.627-5.373 12-12 12H37c-6.627 0-12-5.373-12-12z" mask="url(&quot;#qablf&quot;)"/><path fill-opacity=".1" d="M25 8h182v105c0 6.627-5.373 12-12 12H37c-6.627 0-12-5.373-12-12z"/></g><g filter="url(#qablg)"><path fill="none" d="M25 8h182v105c0 6.627-5.373 12-12 12H37c-6.627 0-12-5.373-12-12z" mask="url(&quot;#qablh&quot;)"/><path fill-opacity=".1" d="M25 8h182v105c0 6.627-5.373 12-12 12H37c-6.627 0-12-5.373-12-12z"/></g><path fill="#fff" d="M25 8h182v105c0 6.627-5.373 12-12 12H37c-6.627 0-12-5.373-12-12z"/></g><g><g filter="url(#qabli)"><path fill="none" d="M11 8h209v93c0 6.627-5.373 12-12 12H23c-6.627 0-12-5.373-12-12z" mask="url(&quot;#qablj&quot;)"/><path fill-opacity=".1" d="M11 8h209v93c0 6.627-5.373 12-12 12H23c-6.627 0-12-5.373-12-12z"/></g><g filter="url(#qablk)"><path fill="none" d="M11 8h209v93c0 6.627-5.373 12-12 12H23c-6.627 0-12-5.373-12-12z" mask="url(&quot;#qabll&quot;)"/><path fill-opacity=".1" d="M11 8h209v93c0 6.627-5.373 12-12 12H23c-6.627 0-12-5.373-12-12z"/></g><path fill="#fff" d="M11 8h209v93c0 6.627-5.373 12-12 12H23c-6.627 0-12-5.373-12-12z"/></g><g><g><text dominant-baseline="text-before-edge" style="font-kerning:normal" font-family="'Marck Script','MarckScript-Regular'" font-size="40" transform="translate(74 35)"><tspan style="font-kerning:normal">Гарант</tspan></text></g></g><g><path fill="#695fbd" d="M48.681 27.135c-4.235 1.058-.1 22.805 1.223 32.952.882-6.617.366-21.57 1.424-23.688 1.06-2.118 2.647 1.764 2.647 3.97 1.765-2.647 3.97-6.617 3.97-1.323 0 5.294-6.277 17.512-8.041 22.364 1.323-3.088 7.248-11.247 9.365-14.423 2.647-3.97 6.618-14.559 3.97-17.206-2.117-2.117-6.617 1.765-7.94 3.97 0-2.205-2.383-7.675-6.618-6.616z"/><path fill="url(#qablm)" d="M48.681 27.135c-4.235 1.058-.1 22.805 1.223 32.952.882-6.617.366-21.57 1.424-23.688 1.06-2.118 2.647 1.764 2.647 3.97 1.765-2.647 3.97-6.617 3.97-1.323 0 5.294-6.277 17.512-8.041 22.364 1.323-3.088 7.248-11.247 9.365-14.423 2.647-3.97 6.618-14.559 3.97-17.206-2.117-2.117-6.617 1.765-7.94 3.97 0-2.205-2.383-7.675-6.618-6.616z"/></g><g><path fill="#695fbd" d="M42.854 83.907c.441-2.647.794-9.794-1.323-17.205-2.647-9.264-3.97-9.264-5.294-13.235-1.324-3.97-5.294-10.588-3.97-13.235 1.323-2.646 7.94 9.265 7.94 10.588 0 1.324 0-7.94 1.324-5.294 1.323 2.647 1.323 5.294 3.97 7.941 2.118 2.118 3.53 11.47 3.97 15.882 1.324-2.206 4.5-7.412 6.618-10.588 2.647-3.97 3.97-5.294 3.97-3.97 0 1.058-.882 3.088-1.323 3.97 1.323-.441 4.235-2.382 5.294-6.617 1.323-5.294 3.97-3.97 3.97-2.647 0 1.323-2.647 7.94-2.647 10.588 0 2.647-7.94 10.587-7.94 17.205 0 4.699.694 6.27 1.16 6.563l.163.054a.31.31 0 0 1-.164-.054 25.11 25.11 0 0 0-15.718.054z"/><path fill="url(#qabln)" d="M42.854 83.907c.441-2.647.794-9.794-1.323-17.205-2.647-9.264-3.97-9.264-5.294-13.235-1.324-3.97-5.294-10.588-3.97-13.235 1.323-2.646 7.94 9.265 7.94 10.588 0 1.324 0-7.94 1.324-5.294 1.323 2.647 1.323 5.294 3.97 7.941 2.118 2.118 3.53 11.47 3.97 15.882 1.324-2.206 4.5-7.412 6.618-10.588 2.647-3.97 3.97-5.294 3.97-3.97 0 1.058-.882 3.088-1.323 3.97 1.323-.441 4.235-2.382 5.294-6.617 1.323-5.294 3.97-3.97 3.97-2.647 0 1.323-2.647 7.94-2.647 10.588 0 2.647-7.94 10.587-7.94 17.205 0 4.699.694 6.27 1.16 6.563l.163.054a.31.31 0 0 1-.164-.054 25.11 25.11 0 0 0-15.718.054z"/></g></g></svg>