<svg width="231" height="131" viewBox="0 0 231 131" fill="none" xmlns="http://www.w3.org/2000/svg">
<g filter="url(#filter0_dd)">
<path d="M25 0H207V105C207 111.627 201.627 117 195 117H37C30.3726 117 25 111.627 25 105V0Z" fill="white"/>
</g>
<g filter="url(#filter1_dd)">
<path d="M11 0H220V93C220 99.6274 214.627 105 208 105H23C16.3726 105 11 99.6274 11 93V0Z" fill="white"/>
</g>
<path d="M75.6016 44.6367C75.6016 42.5273 76.7409 40.6914 79.0195 39.1289C81.2982 37.5534 84.3841 36.7656 88.2773 36.7656C88.6029 36.7656 89.7487 36.8177 91.7148 36.9219C93.694 37.026 95.2565 37.0781 96.4023 37.0781C97.5482 37.0781 98.6029 36.9023 99.5664 36.5508C99.944 36.4466 100.165 36.3945 100.23 36.3945C100.608 36.3945 100.797 36.6354 100.797 37.1172C100.797 37.8073 100.191 38.4323 98.9805 38.9922C97.7695 39.5521 96.3763 39.832 94.8008 39.832C93.043 41.5378 91.5 44.5195 90.1719 48.7773C88.8568 53.0352 87.2812 56.2773 85.4453 58.5039C83.6224 60.7305 81.4609 61.8437 78.9609 61.8437C77.9714 61.8437 77.0404 61.5247 76.168 60.8867L77.0859 59.3633C77.4115 59.5195 77.7695 59.6628 78.1602 59.793L78.7266 59.8711C78.8568 59.8971 79.0521 59.9167 79.3125 59.9297C80.6406 59.9297 81.832 59.2917 82.8867 58.0156C83.9544 56.7266 85.0677 54.3047 86.2266 50.75C87.3854 47.1823 88.2904 44.819 88.9414 43.6602C89.5924 42.5013 90.7318 41.2122 92.3594 39.793L86.6367 39.6758C80.7904 39.6758 77.8737 40.9583 77.8867 43.5234C77.8867 44.1875 78.1276 44.7279 78.6094 45.1445C79.1042 45.5612 79.8464 45.7695 80.8359 45.7695C81.8255 45.7695 83.1211 45.3138 84.7227 44.4023L85.3281 45.4375C84.5078 46.3229 83.5703 47.0195 82.5156 47.5273C81.474 48.0352 80.4323 48.2891 79.3906 48.2891C78.362 48.2891 77.4701 47.944 76.7148 47.2539C75.9727 46.5508 75.6016 45.6784 75.6016 44.6367ZM91.8711 58.7578C91.8711 56.8958 92.5872 55.0534 94.0195 53.2305C95.4648 51.3945 97.3073 49.9036 99.5469 48.7578C101.786 47.612 104.026 47.026 106.266 47L106.344 48.3281L104.664 48.6797C102.242 49.2135 100.1 50.2812 98.2383 51.8828C96.3893 53.4844 95.4648 55.0794 95.4648 56.668C95.4648 58.2435 96.1094 59.0312 97.3984 59.0312C98.5964 59.0312 100.074 58.1914 101.832 56.5117C103.59 54.832 105.055 52.8594 106.227 50.5937L107.906 51.6094C106.253 54.9427 105.426 57.0586 105.426 57.957C105.426 58.3346 105.549 58.6536 105.797 58.9141C106.057 59.1615 106.311 59.2852 106.559 59.2852C106.819 59.2852 106.988 59.2721 107.066 59.2461C107.145 59.22 107.223 59.1875 107.301 59.1484C107.392 59.0964 107.496 59.0312 107.613 58.9531C107.73 58.875 107.835 58.7969 107.926 58.7187C108.03 58.6406 108.186 58.5234 108.395 58.3672C108.616 58.1979 108.792 58.0612 108.922 57.957L109.84 58.6406C109.462 59.4349 108.772 60.1966 107.77 60.9258C106.767 61.6419 105.855 62 105.035 62C103.46 62 102.672 61.1732 102.672 59.5195C102.672 58.7513 102.874 57.8333 103.277 56.7656L101.793 58.2891C100.348 59.7604 99.0977 60.75 98.043 61.2578C97.0013 61.7526 95.9727 62 94.957 62C93.9414 62 93.1732 61.7135 92.6523 61.1406C92.1315 60.5677 91.8711 59.7734 91.8711 58.7578ZM107.809 74.832C107.861 74.6758 108.362 73.2956 109.312 70.6914C110.25 68.1003 111.174 65.5221 112.086 62.957C114.599 55.9128 115.849 52.0586 115.836 51.3945C115.836 49.6888 115.491 48.1458 114.801 46.7656L116.812 45.7695C117.633 46.9154 118.043 48.1198 118.043 49.3828C118.043 50.6458 117.789 52.3971 117.281 54.6367C119.312 51.6029 121.07 49.5325 122.555 48.4258C124.052 47.319 125.361 46.7656 126.48 46.7656C127.6 46.7656 128.466 47.1042 129.078 47.7812C129.69 48.4583 129.996 49.3177 129.996 50.3594C129.996 53.237 128.961 55.8997 126.891 58.3477C124.833 60.7825 122.509 62 119.918 62C118.772 62 117.867 61.7982 117.203 61.3945L118.16 59.6758C119.579 59.8581 120.445 59.9557 120.758 59.9687C122.203 59.9687 123.551 59.1289 124.801 57.4492C126.051 55.7695 126.676 54.0443 126.676 52.2734C126.676 51.6094 126.48 51.0625 126.09 50.6328C125.712 50.1901 125.217 49.9687 124.605 49.9687C123.134 49.9687 121.474 51.2643 119.625 53.8555C117.776 56.4336 116.044 59.6367 114.43 63.4648C112.815 67.293 111.409 71.362 110.211 75.6719L107.809 74.832ZM132.027 58.7578C132.027 56.8958 132.743 55.0534 134.176 53.2305C135.621 51.3945 137.464 49.9036 139.703 48.7578C141.943 47.612 144.182 47.026 146.422 47L146.5 48.3281L144.82 48.6797C142.398 49.2135 140.257 50.2812 138.395 51.8828C136.546 53.4844 135.621 55.0794 135.621 56.668C135.621 58.2435 136.266 59.0312 137.555 59.0312C138.753 59.0312 140.23 58.1914 141.988 56.5117C143.746 54.832 145.211 52.8594 146.383 50.5937L148.062 51.6094C146.409 54.9427 145.582 57.0586 145.582 57.957C145.582 58.3346 145.706 58.6536 145.953 58.9141C146.214 59.1615 146.467 59.2852 146.715 59.2852C146.975 59.2852 147.145 59.2721 147.223 59.2461C147.301 59.22 147.379 59.1875 147.457 59.1484C147.548 59.0964 147.652 59.0312 147.77 58.9531C147.887 58.875 147.991 58.7969 148.082 58.7187C148.186 58.6406 148.342 58.5234 148.551 58.3672C148.772 58.1979 148.948 58.0612 149.078 57.957L149.996 58.6406C149.618 59.4349 148.928 60.1966 147.926 60.9258C146.923 61.6419 146.012 62 145.191 62C143.616 62 142.828 61.1732 142.828 59.5195C142.828 58.7513 143.03 57.8333 143.434 56.7656L141.949 58.2891C140.504 59.7604 139.254 60.75 138.199 61.2578C137.158 61.7526 136.129 62 135.113 62C134.098 62 133.329 61.7135 132.809 61.1406C132.288 60.5677 132.027 59.7734 132.027 58.7578ZM150.367 56.2383C150.367 56.1602 151.077 55.9388 152.496 55.5742C153.928 55.1966 154.99 54.9492 155.68 54.832C157.815 49.9232 159.267 47.0846 160.035 46.3164L161.754 47C161.624 47.2604 161.318 47.8594 160.836 48.7969C159.638 51.1146 158.824 52.931 158.395 54.2461C160.712 54.0117 162.105 53.8945 162.574 53.8945C163.043 53.8815 163.44 53.888 163.766 53.9141C165.628 49.6172 166.904 47.1237 167.594 46.4336L169.156 46.8047C169.13 46.987 168.746 47.7943 168.004 49.2266C167.275 50.6458 166.5 52.5143 165.68 54.832C164.859 57.1367 164.326 59.4609 164.078 61.8047L161.52 61.6094C161.52 60.138 161.988 58.2435 162.926 55.9258C162.691 55.8997 162.203 55.8867 161.461 55.8867C160.732 55.8867 159.391 56.056 157.437 56.3945C156.083 59.4284 155.406 62.0325 155.406 64.207L152.711 63.8359C152.711 61.9479 153.421 59.6172 154.84 56.8437C153.486 57.0521 152.125 57.3711 150.758 57.8008L150.367 56.2383ZM170.816 61.1992C170.947 59.7799 171.572 57.2409 172.691 53.582C173.811 49.9102 174.755 47.4102 175.523 46.082L177.34 46.7266C176.52 48.5625 175.947 50.1185 175.621 51.3945C175.296 52.6575 175.016 54.0052 174.781 55.4375C177.073 52.1562 178.987 49.8581 180.523 48.543C182.073 47.2148 183.473 46.5508 184.723 46.5508C186.077 46.5508 186.76 47.2344 186.773 48.6016C186.773 49.1354 186.539 50.1901 186.07 51.7656C185.602 53.3411 185.237 54.5781 184.977 55.4766C188.661 49.5521 191.956 46.5964 194.859 46.6094C195.576 46.6094 196.142 46.8307 196.559 47.2734C196.988 47.7031 197.203 48.3542 197.203 49.2266C197.203 50.0859 196.702 51.5182 195.699 53.5234C194.71 55.5156 194.215 56.7721 194.215 57.293C194.215 57.8138 194.319 58.1979 194.527 58.4453C194.749 58.6797 195.016 58.7969 195.328 58.7969C196.018 58.7969 196.923 58.1328 198.043 56.8047L198.883 57.6055C197.359 60.3268 195.615 61.6875 193.648 61.6875C192.854 61.6875 192.236 61.4661 191.793 61.0234C191.35 60.5807 191.129 59.9948 191.129 59.2656C191.129 58.5234 191.565 57.2604 192.437 55.4766C193.323 53.6927 193.792 52.332 193.844 51.3945C193.87 50.9648 193.74 50.6198 193.453 50.3594C193.18 50.099 192.802 49.9687 192.32 49.9687C191.852 49.9687 191.37 50.0794 190.875 50.3008C190.38 50.5221 189.898 50.8867 189.43 51.3945C188.961 51.9023 188.531 52.3971 188.141 52.8789C187.763 53.3607 187.34 54.0443 186.871 54.9297C186.402 55.8021 186.012 56.5312 185.699 57.1172C185.139 58.2109 184.339 59.8516 183.297 62.0391L180.895 61.1992C180.895 61.1211 181.331 59.6172 182.203 56.6875C183.089 53.7448 183.531 51.9935 183.531 51.4336C183.531 50.8737 183.395 50.47 183.121 50.2227C182.861 49.9622 182.529 49.832 182.125 49.832C180.927 49.832 179.267 51.3294 177.145 54.3242C175.035 57.306 173.687 59.8516 173.102 61.9609L170.816 61.1992Z" fill="url(#paint0_linear)"/>
<path d="M75.6016 44.6367C75.6016 42.5273 76.7409 40.6914 79.0195 39.1289C81.2982 37.5534 84.3841 36.7656 88.2773 36.7656C88.6029 36.7656 89.7487 36.8177 91.7148 36.9219C93.694 37.026 95.2565 37.0781 96.4023 37.0781C97.5482 37.0781 98.6029 36.9023 99.5664 36.5508C99.944 36.4466 100.165 36.3945 100.23 36.3945C100.608 36.3945 100.797 36.6354 100.797 37.1172C100.797 37.8073 100.191 38.4323 98.9805 38.9922C97.7695 39.5521 96.3763 39.832 94.8008 39.832C93.043 41.5378 91.5 44.5195 90.1719 48.7773C88.8568 53.0352 87.2812 56.2773 85.4453 58.5039C83.6224 60.7305 81.4609 61.8437 78.9609 61.8437C77.9714 61.8437 77.0404 61.5247 76.168 60.8867L77.0859 59.3633C77.4115 59.5195 77.7695 59.6628 78.1602 59.793L78.7266 59.8711C78.8568 59.8971 79.0521 59.9167 79.3125 59.9297C80.6406 59.9297 81.832 59.2917 82.8867 58.0156C83.9544 56.7266 85.0677 54.3047 86.2266 50.75C87.3854 47.1823 88.2904 44.819 88.9414 43.6602C89.5924 42.5013 90.7318 41.2122 92.3594 39.793L86.6367 39.6758C80.7904 39.6758 77.8737 40.9583 77.8867 43.5234C77.8867 44.1875 78.1276 44.7279 78.6094 45.1445C79.1042 45.5612 79.8464 45.7695 80.8359 45.7695C81.8255 45.7695 83.1211 45.3138 84.7227 44.4023L85.3281 45.4375C84.5078 46.3229 83.5703 47.0195 82.5156 47.5273C81.474 48.0352 80.4323 48.2891 79.3906 48.2891C78.362 48.2891 77.4701 47.944 76.7148 47.2539C75.9727 46.5508 75.6016 45.6784 75.6016 44.6367ZM91.8711 58.7578C91.8711 56.8958 92.5872 55.0534 94.0195 53.2305C95.4648 51.3945 97.3073 49.9036 99.5469 48.7578C101.786 47.612 104.026 47.026 106.266 47L106.344 48.3281L104.664 48.6797C102.242 49.2135 100.1 50.2812 98.2383 51.8828C96.3893 53.4844 95.4648 55.0794 95.4648 56.668C95.4648 58.2435 96.1094 59.0312 97.3984 59.0312C98.5964 59.0312 100.074 58.1914 101.832 56.5117C103.59 54.832 105.055 52.8594 106.227 50.5937L107.906 51.6094C106.253 54.9427 105.426 57.0586 105.426 57.957C105.426 58.3346 105.549 58.6536 105.797 58.9141C106.057 59.1615 106.311 59.2852 106.559 59.2852C106.819 59.2852 106.988 59.2721 107.066 59.2461C107.145 59.22 107.223 59.1875 107.301 59.1484C107.392 59.0964 107.496 59.0312 107.613 58.9531C107.73 58.875 107.835 58.7969 107.926 58.7187C108.03 58.6406 108.186 58.5234 108.395 58.3672C108.616 58.1979 108.792 58.0612 108.922 57.957L109.84 58.6406C109.462 59.4349 108.772 60.1966 107.77 60.9258C106.767 61.6419 105.855 62 105.035 62C103.46 62 102.672 61.1732 102.672 59.5195C102.672 58.7513 102.874 57.8333 103.277 56.7656L101.793 58.2891C100.348 59.7604 99.0977 60.75 98.043 61.2578C97.0013 61.7526 95.9727 62 94.957 62C93.9414 62 93.1732 61.7135 92.6523 61.1406C92.1315 60.5677 91.8711 59.7734 91.8711 58.7578ZM107.809 74.832C107.861 74.6758 108.362 73.2956 109.312 70.6914C110.25 68.1003 111.174 65.5221 112.086 62.957C114.599 55.9128 115.849 52.0586 115.836 51.3945C115.836 49.6888 115.491 48.1458 114.801 46.7656L116.812 45.7695C117.633 46.9154 118.043 48.1198 118.043 49.3828C118.043 50.6458 117.789 52.3971 117.281 54.6367C119.312 51.6029 121.07 49.5325 122.555 48.4258C124.052 47.319 125.361 46.7656 126.48 46.7656C127.6 46.7656 128.466 47.1042 129.078 47.7812C129.69 48.4583 129.996 49.3177 129.996 50.3594C129.996 53.237 128.961 55.8997 126.891 58.3477C124.833 60.7825 122.509 62 119.918 62C118.772 62 117.867 61.7982 117.203 61.3945L118.16 59.6758C119.579 59.8581 120.445 59.9557 120.758 59.9687C122.203 59.9687 123.551 59.1289 124.801 57.4492C126.051 55.7695 126.676 54.0443 126.676 52.2734C126.676 51.6094 126.48 51.0625 126.09 50.6328C125.712 50.1901 125.217 49.9687 124.605 49.9687C123.134 49.9687 121.474 51.2643 119.625 53.8555C117.776 56.4336 116.044 59.6367 114.43 63.4648C112.815 67.293 111.409 71.362 110.211 75.6719L107.809 74.832ZM132.027 58.7578C132.027 56.8958 132.743 55.0534 134.176 53.2305C135.621 51.3945 137.464 49.9036 139.703 48.7578C141.943 47.612 144.182 47.026 146.422 47L146.5 48.3281L144.82 48.6797C142.398 49.2135 140.257 50.2812 138.395 51.8828C136.546 53.4844 135.621 55.0794 135.621 56.668C135.621 58.2435 136.266 59.0312 137.555 59.0312C138.753 59.0312 140.23 58.1914 141.988 56.5117C143.746 54.832 145.211 52.8594 146.383 50.5937L148.062 51.6094C146.409 54.9427 145.582 57.0586 145.582 57.957C145.582 58.3346 145.706 58.6536 145.953 58.9141C146.214 59.1615 146.467 59.2852 146.715 59.2852C146.975 59.2852 147.145 59.2721 147.223 59.2461C147.301 59.22 147.379 59.1875 147.457 59.1484C147.548 59.0964 147.652 59.0312 147.77 58.9531C147.887 58.875 147.991 58.7969 148.082 58.7187C148.186 58.6406 148.342 58.5234 148.551 58.3672C148.772 58.1979 148.948 58.0612 149.078 57.957L149.996 58.6406C149.618 59.4349 148.928 60.1966 147.926 60.9258C146.923 61.6419 146.012 62 145.191 62C143.616 62 142.828 61.1732 142.828 59.5195C142.828 58.7513 143.03 57.8333 143.434 56.7656L141.949 58.2891C140.504 59.7604 139.254 60.75 138.199 61.2578C137.158 61.7526 136.129 62 135.113 62C134.098 62 133.329 61.7135 132.809 61.1406C132.288 60.5677 132.027 59.7734 132.027 58.7578ZM150.367 56.2383C150.367 56.1602 151.077 55.9388 152.496 55.5742C153.928 55.1966 154.99 54.9492 155.68 54.832C157.815 49.9232 159.267 47.0846 160.035 46.3164L161.754 47C161.624 47.2604 161.318 47.8594 160.836 48.7969C159.638 51.1146 158.824 52.931 158.395 54.2461C160.712 54.0117 162.105 53.8945 162.574 53.8945C163.043 53.8815 163.44 53.888 163.766 53.9141C165.628 49.6172 166.904 47.1237 167.594 46.4336L169.156 46.8047C169.13 46.987 168.746 47.7943 168.004 49.2266C167.275 50.6458 166.5 52.5143 165.68 54.832C164.859 57.1367 164.326 59.4609 164.078 61.8047L161.52 61.6094C161.52 60.138 161.988 58.2435 162.926 55.9258C162.691 55.8997 162.203 55.8867 161.461 55.8867C160.732 55.8867 159.391 56.056 157.437 56.3945C156.083 59.4284 155.406 62.0325 155.406 64.207L152.711 63.8359C152.711 61.9479 153.421 59.6172 154.84 56.8437C153.486 57.0521 152.125 57.3711 150.758 57.8008L150.367 56.2383ZM170.816 61.1992C170.947 59.7799 171.572 57.2409 172.691 53.582C173.811 49.9102 174.755 47.4102 175.523 46.082L177.34 46.7266C176.52 48.5625 175.947 50.1185 175.621 51.3945C175.296 52.6575 175.016 54.0052 174.781 55.4375C177.073 52.1562 178.987 49.8581 180.523 48.543C182.073 47.2148 183.473 46.5508 184.723 46.5508C186.077 46.5508 186.76 47.2344 186.773 48.6016C186.773 49.1354 186.539 50.1901 186.07 51.7656C185.602 53.3411 185.237 54.5781 184.977 55.4766C188.661 49.5521 191.956 46.5964 194.859 46.6094C195.576 46.6094 196.142 46.8307 196.559 47.2734C196.988 47.7031 197.203 48.3542 197.203 49.2266C197.203 50.0859 196.702 51.5182 195.699 53.5234C194.71 55.5156 194.215 56.7721 194.215 57.293C194.215 57.8138 194.319 58.1979 194.527 58.4453C194.749 58.6797 195.016 58.7969 195.328 58.7969C196.018 58.7969 196.923 58.1328 198.043 56.8047L198.883 57.6055C197.359 60.3268 195.615 61.6875 193.648 61.6875C192.854 61.6875 192.236 61.4661 191.793 61.0234C191.35 60.5807 191.129 59.9948 191.129 59.2656C191.129 58.5234 191.565 57.2604 192.437 55.4766C193.323 53.6927 193.792 52.332 193.844 51.3945C193.87 50.9648 193.74 50.6198 193.453 50.3594C193.18 50.099 192.802 49.9687 192.32 49.9687C191.852 49.9687 191.37 50.0794 190.875 50.3008C190.38 50.5221 189.898 50.8867 189.43 51.3945C188.961 51.9023 188.531 52.3971 188.141 52.8789C187.763 53.3607 187.34 54.0443 186.871 54.9297C186.402 55.8021 186.012 56.5312 185.699 57.1172C185.139 58.2109 184.339 59.8516 183.297 62.0391L180.895 61.1992C180.895 61.1211 181.331 59.6172 182.203 56.6875C183.089 53.7448 183.531 51.9935 183.531 51.4336C183.531 50.8737 183.395 50.47 183.121 50.2227C182.861 49.9622 182.529 49.832 182.125 49.832C180.927 49.832 179.267 51.3294 177.145 54.3242C175.035 57.306 173.687 59.8516 173.102 61.9609L170.816 61.1992Z" fill="url(#paint1_linear)"/>
<path d="M48.6853 19.1345C44.4502 20.1933 48.5843 41.9402 49.9078 52.0868C50.7902 45.4695 50.2739 30.5164 51.3327 28.3989C52.3914 26.2813 53.9796 30.1634 53.9796 32.3691C55.7442 29.7222 57.95 25.7519 57.95 31.0458C57.95 36.3397 51.6726 48.5576 49.908 53.4103C51.2315 50.3222 57.1559 42.163 59.2735 38.9866C61.9204 35.0162 65.8909 24.4283 63.2439 21.7814C61.1264 19.6638 56.6266 23.546 55.3031 25.7518C55.303 23.546 52.9205 18.0758 48.6853 19.1345Z" fill="#695FBD"/>
<path d="M48.6853 19.1345C44.4502 20.1933 48.5843 41.9402 49.9078 52.0868C50.7902 45.4695 50.2739 30.5164 51.3327 28.3989C52.3914 26.2813 53.9796 30.1634 53.9796 32.3691C55.7442 29.7222 57.95 25.7519 57.95 31.0458C57.95 36.3397 51.6726 48.5576 49.908 53.4103C51.2315 50.3222 57.1559 42.163 59.2735 38.9866C61.9204 35.0162 65.8909 24.4283 63.2439 21.7814C61.1264 19.6638 56.6266 23.546 55.3031 25.7518C55.303 23.546 52.9205 18.0758 48.6853 19.1345Z" fill="url(#paint2_linear)"/>
<path d="M42.8541 75.9091C43.2953 73.2622 43.6482 66.1154 41.5307 58.704C38.8837 49.4397 37.5603 49.4397 36.2368 45.4693C34.9133 41.4989 30.9429 34.8815 32.2664 32.2345C33.5898 29.5876 40.2071 41.4989 40.2071 42.8223C40.2071 44.1458 40.2072 34.8816 41.5307 37.5285C42.8541 40.1755 42.854 42.8223 45.501 45.4693C47.6185 47.5869 49.0302 56.9394 49.4714 61.351C50.7949 59.1452 53.9712 53.9396 56.0887 50.7632C58.7357 46.7928 60.0592 45.4693 60.0592 46.7928C60.0592 47.8516 59.1769 49.8809 58.7357 50.7632C60.0592 50.3221 62.9708 48.381 64.0296 44.1459C65.3531 38.852 68 40.1755 68 41.4989C68 42.8223 65.3531 49.4398 65.3531 52.0867C65.3531 54.7336 57.4122 62.6746 57.4122 69.2918C57.4122 73.9908 58.1074 75.5616 58.5721 75.8553C58.6267 75.8731 58.6812 75.8911 58.7357 75.9092C58.6861 75.9092 58.631 75.8925 58.5721 75.8553C53.4636 74.1913 47.9541 74.2092 42.8541 75.9091Z" fill="#695FBD"/>
<path d="M42.8541 75.9091C43.2953 73.2622 43.6482 66.1154 41.5307 58.704C38.8837 49.4397 37.5603 49.4397 36.2368 45.4693C34.9133 41.4989 30.9429 34.8815 32.2664 32.2345C33.5898 29.5876 40.2071 41.4989 40.2071 42.8223C40.2071 44.1458 40.2072 34.8816 41.5307 37.5285C42.8541 40.1755 42.854 42.8223 45.501 45.4693C47.6185 47.5869 49.0302 56.9394 49.4714 61.351C50.7949 59.1452 53.9712 53.9396 56.0887 50.7632C58.7357 46.7928 60.0592 45.4693 60.0592 46.7928C60.0592 47.8516 59.1769 49.8809 58.7357 50.7632C60.0592 50.3221 62.9708 48.381 64.0296 44.1459C65.3531 38.852 68 40.1755 68 41.4989C68 42.8223 65.3531 49.4398 65.3531 52.0867C65.3531 54.7336 57.4122 62.6746 57.4122 69.2918C57.4122 73.9908 58.1074 75.5616 58.5721 75.8553C58.6267 75.8731 58.6812 75.8911 58.7357 75.9092C58.6861 75.9092 58.631 75.8925 58.5721 75.8553C53.4636 74.1913 47.9541 74.2092 42.8541 75.9091Z" fill="url(#paint3_linear)"/>
<defs>
<filter id="filter0_dd" x="14" y="-8" width="204" height="139" filterUnits="userSpaceOnUse" color-interpolation-filters="sRGB">
<feFlood flood-opacity="0" result="BackgroundImageFix"/>
<feColorMatrix in="SourceAlpha" type="matrix" values="0 0 0 0 0 0 0 0 0 0 0 0 0 0 0 0 0 0 127 0" result="hardAlpha"/>
<feOffset dy="3"/>
<feGaussianBlur stdDeviation="5.5"/>
<feComposite in2="hardAlpha" operator="out"/>
<feColorMatrix type="matrix" values="0 0 0 0 0 0 0 0 0 0 0 0 0 0 0 0 0 0 0.1 0"/>
<feBlend mode="normal" in2="BackgroundImageFix" result="effect1_dropShadow"/>
<feColorMatrix in="SourceAlpha" type="matrix" values="0 0 0 0 0 0 0 0 0 0 0 0 0 0 0 0 0 0 127 0" result="hardAlpha"/>
<feOffset dy="3"/>
<feGaussianBlur stdDeviation="5.5"/>
<feComposite in2="hardAlpha" operator="out"/>
<feColorMatrix type="matrix" values="0 0 0 0 0 0 0 0 0 0 0 0 0 0 0 0 0 0 0.1 0"/>
<feBlend mode="normal" in2="effect1_dropShadow" result="effect2_dropShadow"/>
<feBlend mode="normal" in="SourceGraphic" in2="effect2_dropShadow" result="shape"/>
</filter>
<filter id="filter1_dd" x="0" y="-8" width="231" height="127" filterUnits="userSpaceOnUse" color-interpolation-filters="sRGB">
<feFlood flood-opacity="0" result="BackgroundImageFix"/>
<feColorMatrix in="SourceAlpha" type="matrix" values="0 0 0 0 0 0 0 0 0 0 0 0 0 0 0 0 0 0 127 0" result="hardAlpha"/>
<feOffset dy="3"/>
<feGaussianBlur stdDeviation="5.5"/>
<feComposite in2="hardAlpha" operator="out"/>
<feColorMatrix type="matrix" values="0 0 0 0 0 0 0 0 0 0 0 0 0 0 0 0 0 0 0.1 0"/>
<feBlend mode="normal" in2="BackgroundImageFix" result="effect1_dropShadow"/>
<feColorMatrix in="SourceAlpha" type="matrix" values="0 0 0 0 0 0 0 0 0 0 0 0 0 0 0 0 0 0 127 0" result="hardAlpha"/>
<feOffset dy="3"/>
<feGaussianBlur stdDeviation="5.5"/>
<feComposite in2="hardAlpha" operator="out"/>
<feColorMatrix type="matrix" values="0 0 0 0 0 0 0 0 0 0 0 0 0 0 0 0 0 0 0.1 0"/>
<feBlend mode="normal" in2="effect1_dropShadow" result="effect2_dropShadow"/>
<feBlend mode="normal" in="SourceGraphic" in2="effect2_dropShadow" result="shape"/>
</filter>
<linearGradient id="paint0_linear" x1="137" y1="27" x2="137" y2="78" gradientUnits="userSpaceOnUse">
<stop stop-color="#F0E79A"/>
<stop offset="1" stop-color="#E7D003"/>
</linearGradient>
<linearGradient id="paint1_linear" x1="137" y1="27" x2="137" y2="78" gradientUnits="userSpaceOnUse">
<stop stop-color="#A59BED"/>
<stop offset="0.530853" stop-color="#7B6FD2"/>
<stop offset="1" stop-color="#645AB7"/>
</linearGradient>
<linearGradient id="paint2_linear" x1="55.4705" y1="19" x2="55.4705" y2="53.4103" gradientUnits="userSpaceOnUse">
<stop stop-color="#A59BED"/>
<stop offset="0.530853" stop-color="#7B6FD2"/>
<stop offset="1" stop-color="#645AB7"/>
</linearGradient>
<linearGradient id="paint3_linear" x1="50" y1="31.8521" x2="50" y2="75.9091" gradientUnits="userSpaceOnUse">
<stop stop-color="#A59BED"/>
<stop offset="0.530853" stop-color="#7B6FD2"/>
<stop offset="1" stop-color="#645AB7"/>
</linearGradient>
</defs>
</svg>
