<?xml version="1.0" encoding="UTF-8"?>
<svg id="SVGDoc" width="26" height="26" xmlns="http://www.w3.org/2000/svg" version="1.1" xmlns:xlink="http://www.w3.org/1999/xlink" xmlns:avocode="https://avocode.com/" viewBox="0 0 26 26"><defs><clipPath id="ClipPath1032"><path d="M25,12.5c0,6.3513 -5.1487,11.5 -11.5,11.5c-6.35127,0 -11.5,-5.1487 -11.5,-11.5c0,-6.35127 5.14873,-11.5 11.5,-11.5c6.3513,0 11.5,5.14873 11.5,11.5z" fill="#ffffff"></path></clipPath></defs><desc>Generated with Avocode.</desc><g><g><title>jam:viber-circle</title><g><title>Background</title></g><g><title>Vector</title><path d="M16.94629,12.3575c0.013,-1.61633 -1.32058,-3.09833 -2.97266,-3.30308l-0.10833,-0.01625c-0.08283,-0.01645 -0.16691,-0.02587 -0.25133,-0.02817c-0.33908,0 -0.429,0.24483 -0.45283,0.39108c-0.01352,0.06074 -0.01473,0.12357 -0.00357,0.18479c0.01116,0.06122 0.03448,0.11957 0.06857,0.17163c0.11267,0.15708 0.30983,0.18417 0.468,0.208c0.04658,0.0065 0.091,0.01192 0.12675,0.02167c1.48525,0.34125 1.98575,0.87966 2.2295,2.39958c0.0065,0.03792 0.00866,0.08342 0.01083,0.13217c0.01083,0.18091 0.03358,0.559 0.42792,0.559c0.0325,0 0.06716,-0.00217 0.104,-0.00867c0.36725,-0.05742 0.35533,-0.403 0.34991,-0.56875c-0.00274,-0.04004 -0.00274,-0.08021 0,-0.12025c0.0012,-0.00717 0.00192,-0.01441 0.00217,-0.02167z" fill="#ffffff" fill-opacity="1"></path></g><g><title>Vector</title><path d="M12.98019,8.008c0.00975,-0.1755 0.08558,-0.468 0.48533,-0.468c0.04341,0.00038 0.08678,0.00255 0.13,0.0065c0.0325,0.00216 0.06392,0.00433 0.08884,0.00433c0.00979,-0.00002 0.01956,-0.00075 0.02925,-0.00217l0.03033,-0.00108c2.51117,0.08667 4.68646,2.43967 4.65616,5.03425c-0.0011,0.03467 0.0011,0.07475 0.0033,0.11592c0.0075,0.17333 0.0162,0.38675 -0.117,0.53083c-0.0412,0.04227 -0.0909,0.07525 -0.1458,0.09674c-0.055,0.02148 -0.1138,0.03098 -0.1727,0.02785h-0.013c-0.42904,-0.00867 -0.43554,-0.42034 -0.43879,-0.61859c-0.00109,-0.05633 -0.00109,-0.10833 -0.0065,-0.15166c-0.31092,-2.53717 -1.43325,-3.72884 -3.87075,-4.11667c-0.03359,-0.00542 -0.07692,-0.00867 -0.12025,-0.01192c-0.182,-0.013 -0.56009,-0.04225 -0.53842,-0.44633zM17.39152,15.86217c0.39218,0.30875 0.88078,0.69333 0.61318,1.47333c-0.3055,0.8905 -1.29893,1.6705 -2.12659,1.6705h-0.01409c-0.01466,-0.0003 -0.02923,-0.0024 -0.04333,-0.0065l-0.10292,-0.026c-0.12133,-0.0282 -0.28816,-0.0661 -0.44633,-0.1365c-1.75933,-0.7822 -3.27817,-1.82217 -4.51317,-3.09292c-1.26316,-1.29783 -2.26308,-2.87083 -2.97483,-4.67566c-0.247,-0.624 -0.25783,-1.22309 -0.03033,-1.73442c0.23508,-0.52758 0.70633,-0.92842 1.36175,-1.15592c0.24406,-0.09051 0.51262,-0.08974 0.75616,0.00217c0.57092,0.21667 1.92617,2.12333 1.95867,2.75708c0.02925,0.55792 -0.38675,0.84934 -0.60992,1.00534c-0.39433,0.27625 -0.46583,0.61425 -0.24266,1.13425c0.46258,1.0725 1.27183,1.885 2.40391,2.41583c0.11882,0.0602 0.24931,0.09384 0.38242,0.09858c0.19067,0 0.34667,-0.0975 0.4745,-0.29683c0.28925,-0.45175 0.63917,-0.68142 1.04,-0.68142c0.29792,0 0.61317,0.12459 0.96417,0.37809c0.05698,0.04126 0.11404,0.08243 0.17116,0.1235c0.273,0.19716 0.55684,0.40083 0.82334,0.62183c0.0511,0.04219 0.10275,0.08372 0.15491,0.12458zM15.01577,11.06842c0.34125,0.3575 0.54167,0.806 0.53734,1.2025c0.01191,0.37916 -0.12134,0.58825 -0.39759,0.62291c-0.01727,0.00181 -0.03464,0.00254 -0.052,0.00217c-0.22966,0 -0.40841,-0.19067 -0.4355,-0.46583c-0.05633,-0.58717 -0.34233,-0.90459 -0.897,-0.99667c-0.15275,-0.02492 -0.32175,-0.0715 -0.4095,-0.22317c-0.05958,-0.10291 -0.065,-0.22858 -0.01733,-0.37375c0.104,-0.30983 0.39975,-0.31741 0.54058,-0.32066c0.37592,-0.00975 0.78867,0.19283 1.131,0.5525z" fill="#ffffff" fill-opacity="1"></path></g><g><title>Ellipse 14</title><path d="M25,12.5c0,6.3513 -5.1487,11.5 -11.5,11.5c-6.35127,0 -11.5,-5.1487 -11.5,-11.5c0,-6.35127 5.14873,-11.5 11.5,-11.5c6.3513,0 11.5,5.14873 11.5,11.5z" fill-opacity="0" fill="#ffffff" stroke-linejoin="miter" stroke-linecap="butt" stroke-opacity="1" stroke="#ffffff" stroke-miterlimit="20" stroke-width="3" clip-path="url(&quot;#ClipPath1032&quot;)"></path></g></g></g></svg>