<svg xmlns="http://www.w3.org/2000/svg" width="26" height="26" viewBox="0 0 26 26"><defs><clipPath id="i3w8a"><path fill="#fff" d="M25 12.5C25 18.851 19.851 24 13.5 24S2 18.851 2 12.5 7.149 1 13.5 1 25 6.149 25 12.5z"/></clipPath></defs><g><g><g/><g><path fill="#fff" d="M16.946 12.357c.013-1.616-1.32-3.098-2.972-3.303l-.109-.016a1.5 1.5 0 0 0-.251-.028c-.34 0-.429.245-.453.391a.466.466 0 0 0 .065.357c.113.157.31.184.468.208.047.006.091.011.127.021 1.485.341 1.986.88 2.23 2.4.006.038.008.083.01.132.011.18.034.559.428.559a.594.594 0 0 0 .104-.009c.367-.057.355-.403.35-.568a.88.88 0 0 1 .002-.142z"/></g><g><path fill="#fff" d="M12.98 8.008c.01-.175.086-.468.486-.468.043 0 .086.003.13.006.032.003.063.005.088.005.01 0 .02 0 .03-.002l.03-.001c2.511.086 4.686 2.44 4.656 5.034-.001.034.001.075.003.116.008.173.017.386-.117.53a.415.415 0 0 1-.318.125h-.013c-.43-.008-.436-.42-.439-.618-.001-.057-.001-.109-.006-.152-.311-2.537-1.434-3.729-3.871-4.117-.034-.005-.077-.008-.12-.012-.182-.013-.56-.042-.539-.446zm4.412 7.854c.392.309.88.694.613 1.474-.306.89-1.3 1.67-2.127 1.67h-.014a.167.167 0 0 1-.043-.006l-.103-.026c-.122-.029-.288-.067-.447-.137-1.759-.782-3.278-1.822-4.513-3.093-1.263-1.298-2.263-2.87-2.975-4.676-.247-.624-.257-1.223-.03-1.734.235-.528.706-.928 1.362-1.156.244-.09.512-.09.756.002.57.217 1.926 2.124 1.959 2.757.029.558-.387.85-.61 1.006-.395.276-.466.614-.243 1.134.463 1.072 1.272 1.885 2.404 2.416.119.06.25.094.382.098.191 0 .347-.097.475-.297.29-.451.64-.68 1.04-.68.298 0 .613.124.964.377l.171.124c.273.197.557.4.824.622.05.042.102.083.155.124zm-2.376-4.794c.341.358.541.806.537 1.203.012.38-.121.588-.397.623a.414.414 0 0 1-.052.002c-.23 0-.409-.19-.436-.466-.056-.587-.342-.904-.897-.997-.153-.024-.322-.071-.41-.223-.06-.103-.064-.228-.017-.373.104-.31.4-.318.54-.321.377-.01.79.193 1.132.552z"/></g><g><path fill="none" stroke="#fff" stroke-miterlimit="20" stroke-width="3" d="M25 12.5C25 18.851 19.851 24 13.5 24S2 18.851 2 12.5 7.149 1 13.5 1 25 6.149 25 12.5z" clip-path="url(&quot;#i3w8a&quot;)"/></g></g></g></svg>