<?xml version="1.0" encoding="UTF-8"?>
<svg id="SVGDoc" width="1194" height="504" xmlns="http://www.w3.org/2000/svg" version="1.1" xmlns:xlink="http://www.w3.org/1999/xlink" xmlns:avocode="https://avocode.com/" viewBox="0 0 1194 504"><defs><mask id="Mask1065" x="-1" y="-1" width="2" height="2"><rect width="1160" height="470" x="17" y="17" fill="#ffffff"></rect><path d="M596.5,44v0l-55.137,-27v0h-508.363c-8.83656,0 -16,7.16344 -16,16v438c0,8.837 7.16345,16 16,16h508.363v0l55.137,-27v0l55.137,27v0h509.363c8.84,0 16,-7.163 16,-16v-438c0,-8.83656 -7.16,-16 -16,-16h-509.363v0z" fill="#000000"></path></mask><filter id="Filter1069" width="1230" height="540" x="-18" y="-18" filterUnits="userSpaceOnUse"><feOffset dx="0" dy="0" result="FeOffset1070Out" in="SourceGraphic"></feOffset><feGaussianBlur stdDeviation="10 10" result="FeGaussianBlur1071Out" in="FeOffset1070Out"></feGaussianBlur></filter></defs><desc>Generated with Avocode.</desc><g><g><title>Subtract</title><g filter="url(#Filter1069)"><path d="M596.5,44v0l-55.137,-27v0h-508.363c-8.83656,0 -16,7.16344 -16,16v438c0,8.837 7.16345,16 16,16h508.363v0l55.137,-27v0l55.137,27v0h509.363c8.84,0 16,-7.163 16,-16v-438c0,-8.83656 -7.16,-16 -16,-16h-509.363v0z" fill="none" stroke-opacity="0.07" stroke-width="0" mask="url(&quot;#Mask1065&quot;)"></path><path d="M596.5,44v0l-55.137,-27v0h-508.363c-8.83656,0 -16,7.16344 -16,16v438c0,8.837 7.16345,16 16,16h508.363v0l55.137,-27v0l55.137,27v0h509.363c8.84,0 16,-7.163 16,-16v-438c0,-8.83656 -7.16,-16 -16,-16h-509.363v0z" fill="#000000" fill-opacity="0.07"></path></g><path d="M596.5,44v0l-55.137,-27v0h-508.363c-8.83656,0 -16,7.16344 -16,16v438c0,8.837 7.16345,16 16,16h508.363v0l55.137,-27v0l55.137,27v0h509.363c8.84,0 16,-7.163 16,-16v-438c0,-8.83656 -7.16,-16 -16,-16h-509.363v0z" fill="#ffffff" fill-opacity="1"></path></g></g></svg>