<svg width="249" height="142" viewBox="0 0 249 142" fill="none" xmlns="http://www.w3.org/2000/svg">
<g clip-path="url(#clip0)">
<g filter="url(#filter0_dd)">
<path d="M30 13H212V118C212 124.627 206.627 130 200 130H42C35.3726 130 30 124.627 30 118V13Z" fill="white"/>
</g>
<g filter="url(#filter1_dd)">
<path d="M16 25C16 18.3726 21.3726 13 28 13H213C219.627 13 225 18.3726 225 25V106C225 112.627 219.627 118 213 118H28C21.3726 118 16 112.627 16 106V25Z" fill="white"/>
</g>
<path d="M96.9561 58.3994C96.9561 56.501 97.9814 54.8486 100.032 53.4424C102.083 52.0244 104.86 51.3154 108.364 51.3154C108.657 51.3154 109.688 51.3623 111.458 51.4561C113.239 51.5498 114.646 51.5967 115.677 51.5967C116.708 51.5967 117.657 51.4385 118.524 51.1221C118.864 51.0283 119.063 50.9814 119.122 50.9814C119.462 50.9814 119.632 51.1982 119.632 51.6318C119.632 52.2529 119.087 52.8154 117.997 53.3193C116.907 53.8232 115.653 54.0752 114.235 54.0752C112.653 55.6104 111.265 58.2939 110.069 62.126C108.886 65.958 107.468 68.876 105.815 70.8799C104.175 72.8838 102.229 73.8857 99.9795 73.8857C99.0889 73.8857 98.251 73.5986 97.4658 73.0244L98.292 71.6533C98.585 71.7939 98.9072 71.9228 99.2588 72.04L99.7686 72.1103C99.8857 72.1338 100.062 72.1514 100.296 72.1631C101.491 72.1631 102.563 71.5889 103.513 70.4404C104.474 69.2803 105.476 67.1006 106.519 63.9014C107.562 60.6904 108.376 58.5635 108.962 57.5205C109.548 56.4775 110.573 55.3174 112.038 54.04L106.888 53.9346C101.626 53.9346 99.001 55.0889 99.0127 57.3975C99.0127 57.9951 99.2295 58.4814 99.6631 58.8564C100.108 59.2314 100.776 59.4189 101.667 59.4189C102.558 59.4189 103.724 59.0088 105.165 58.1885L105.71 59.1201C104.972 59.917 104.128 60.5439 103.179 61.001C102.241 61.458 101.304 61.6865 100.366 61.6865C99.4404 61.6865 98.6377 61.376 97.958 60.7549C97.29 60.1221 96.9561 59.3369 96.9561 58.3994ZM111.599 71.1084C111.599 69.4326 112.243 67.7744 113.532 66.1338C114.833 64.4814 116.491 63.1396 118.507 62.1084C120.522 61.0771 122.538 60.5498 124.554 60.5264L124.624 61.7217L123.112 62.0381C120.933 62.5186 119.005 63.4795 117.329 64.9209C115.665 66.3623 114.833 67.7978 114.833 69.2275C114.833 70.6455 115.413 71.3545 116.573 71.3545C117.651 71.3545 118.981 70.5986 120.563 69.0869C122.146 67.5752 123.464 65.7998 124.519 63.7607L126.03 64.6748C124.542 67.6748 123.798 69.5791 123.798 70.3877C123.798 70.7275 123.909 71.0146 124.132 71.249C124.366 71.4717 124.595 71.583 124.817 71.583C125.052 71.583 125.204 71.5713 125.274 71.5478C125.345 71.5244 125.415 71.4951 125.485 71.46C125.567 71.4131 125.661 71.3545 125.767 71.2842C125.872 71.2139 125.966 71.1436 126.048 71.0732C126.142 71.0029 126.282 70.8975 126.47 70.7568C126.669 70.6045 126.827 70.4814 126.944 70.3877L127.771 71.0029C127.431 71.7178 126.81 72.4033 125.907 73.0596C125.005 73.7041 124.185 74.0264 123.446 74.0264C122.028 74.0264 121.319 73.2822 121.319 71.7939C121.319 71.1025 121.501 70.2764 121.864 69.3154L120.528 70.6865C119.228 72.0107 118.103 72.9014 117.153 73.3584C116.216 73.8037 115.29 74.0264 114.376 74.0264C113.462 74.0264 112.771 73.7686 112.302 73.2529C111.833 72.7373 111.599 72.0225 111.599 71.1084ZM125.942 85.5752C125.989 85.4346 126.44 84.1924 127.296 81.8486C128.14 79.5166 128.972 77.1963 129.792 74.8877C132.054 68.5478 133.179 65.0791 133.167 64.4814C133.167 62.9463 132.856 61.5576 132.235 60.3154L134.046 59.4189C134.784 60.4502 135.153 61.5342 135.153 62.6709C135.153 63.8076 134.925 65.3838 134.468 67.3994C136.296 64.6689 137.878 62.8057 139.214 61.8096C140.562 60.8135 141.739 60.3154 142.747 60.3154C143.755 60.3154 144.534 60.6201 145.085 61.2295C145.636 61.8389 145.911 62.6123 145.911 63.5498C145.911 66.1396 144.979 68.5361 143.116 70.7393C141.265 72.9307 139.173 74.0264 136.841 74.0264C135.81 74.0264 134.995 73.8447 134.397 73.4814L135.259 71.9346C136.536 72.0986 137.315 72.1865 137.597 72.1982C138.897 72.1982 140.11 71.4424 141.235 69.9307C142.36 68.4189 142.923 66.8662 142.923 65.2725C142.923 64.6748 142.747 64.1826 142.396 63.7959C142.056 63.3975 141.61 63.1982 141.06 63.1982C139.735 63.1982 138.241 64.3643 136.577 66.6963C134.913 69.0166 133.354 71.8994 131.901 75.3447C130.448 78.79 129.183 82.4521 128.104 86.331L125.942 85.5752ZM147.739 71.1084C147.739 69.4326 148.384 67.7744 149.673 66.1338C150.974 64.4814 152.632 63.1396 154.647 62.1084C156.663 61.0771 158.679 60.5498 160.694 60.5264L160.765 61.7217L159.253 62.0381C157.073 62.5186 155.146 63.4795 153.47 64.9209C151.806 66.3623 150.974 67.7978 150.974 69.2275C150.974 70.6455 151.554 71.3545 152.714 71.3545C153.792 71.3545 155.122 70.5986 156.704 69.0869C158.286 67.5752 159.604 65.7998 160.659 63.7607L162.171 64.6748C160.683 67.6748 159.938 69.5791 159.938 70.3877C159.938 70.7275 160.05 71.0146 160.272 71.249C160.507 71.4717 160.735 71.583 160.958 71.583C161.192 71.583 161.345 71.5713 161.415 71.5478C161.485 71.5244 161.556 71.4951 161.626 71.46C161.708 71.4131 161.802 71.3545 161.907 71.2842C162.013 71.2139 162.106 71.1436 162.188 71.0732C162.282 71.0029 162.423 70.8975 162.61 70.7568C162.81 70.6045 162.968 70.4814 163.085 70.3877L163.911 71.0029C163.571 71.7178 162.95 72.4033 162.048 73.0596C161.145 73.7041 160.325 74.0264 159.587 74.0264C158.169 74.0264 157.46 73.2822 157.46 71.7939C157.46 71.1025 157.642 70.2764 158.005 69.3154L156.669 70.6865C155.368 72.0107 154.243 72.9014 153.294 73.3584C152.356 73.8037 151.431 74.0264 150.517 74.0264C149.603 74.0264 148.911 73.7686 148.442 73.2529C147.974 72.7373 147.739 72.0225 147.739 71.1084ZM164.245 68.8408C164.245 68.7705 164.884 68.5713 166.161 68.2432C167.45 67.9033 168.405 67.6807 169.026 67.5752C170.948 63.1572 172.255 60.6025 172.946 59.9111L174.493 60.5264C174.376 60.7607 174.101 61.2998 173.667 62.1436C172.589 64.2295 171.856 65.8643 171.47 67.0478C173.556 66.8369 174.81 66.7314 175.231 66.7314C175.653 66.7197 176.011 66.7256 176.304 66.749C177.979 62.8818 179.128 60.6377 179.749 60.0166L181.155 60.3506C181.132 60.5146 180.786 61.2412 180.118 62.5303C179.462 63.8076 178.765 65.4893 178.026 67.5752C177.288 69.6494 176.808 71.7412 176.585 73.8506L174.282 73.6748C174.282 72.3506 174.704 70.6455 175.548 68.5596C175.337 68.5361 174.897 68.5244 174.229 68.5244C173.573 68.5244 172.366 68.6768 170.608 68.9814C169.39 71.7119 168.78 74.0557 168.78 76.0127L166.354 75.6787C166.354 73.9795 166.993 71.8818 168.27 69.3857C167.052 69.5732 165.827 69.8603 164.597 70.2471L164.245 68.8408ZM182.649 73.3057C182.767 72.0283 183.329 69.7432 184.337 66.4502C185.345 63.1455 186.194 60.8955 186.886 59.7002L188.52 60.2803C187.782 61.9326 187.267 63.333 186.974 64.4814C186.681 65.6182 186.429 66.8311 186.218 68.1201C188.28 65.167 190.003 63.0986 191.386 61.915C192.78 60.7197 194.04 60.1221 195.165 60.1221C196.384 60.1221 196.999 60.7373 197.011 61.9678C197.011 62.4482 196.8 63.3975 196.378 64.8154C195.956 66.2334 195.628 67.3467 195.394 68.1553C198.71 62.8232 201.675 60.1631 204.288 60.1748C204.933 60.1748 205.442 60.374 205.817 60.7725C206.204 61.1592 206.397 61.7451 206.397 62.5303C206.397 63.3037 205.946 64.5928 205.044 66.3975C204.153 68.1904 203.708 69.3213 203.708 69.79C203.708 70.2588 203.802 70.6045 203.989 70.8271C204.188 71.0381 204.429 71.1436 204.71 71.1436C205.331 71.1436 206.145 70.5459 207.153 69.3506L207.909 70.0713C206.538 72.5205 204.968 73.7451 203.198 73.7451C202.483 73.7451 201.927 73.5459 201.528 73.1475C201.13 72.749 200.931 72.2217 200.931 71.5654C200.931 70.8975 201.323 69.7607 202.108 68.1553C202.905 66.5498 203.327 65.3252 203.374 64.4814C203.397 64.0947 203.28 63.7842 203.022 63.5498C202.776 63.3154 202.437 63.1982 202.003 63.1982C201.581 63.1982 201.147 63.2978 200.702 63.4971C200.257 63.6963 199.823 64.0244 199.401 64.4814C198.979 64.9385 198.593 65.3838 198.241 65.8174C197.901 66.251 197.52 66.8662 197.099 67.6631C196.677 68.4482 196.325 69.1045 196.044 69.6318C195.54 70.6162 194.819 72.0928 193.882 74.0615L191.72 73.3057C191.72 73.2353 192.112 71.8818 192.897 69.2451C193.694 66.5967 194.093 65.0205 194.093 64.5166C194.093 64.0127 193.97 63.6494 193.724 63.4268C193.489 63.1924 193.19 63.0752 192.827 63.0752C191.749 63.0752 190.255 64.4228 188.345 67.1182C186.446 69.8018 185.233 72.0928 184.706 73.9912L182.649 73.3057Z" fill="url(#paint0_linear)"/>
<path d="M96.9561 58.3994C96.9561 56.501 97.9814 54.8486 100.032 53.4424C102.083 52.0244 104.86 51.3154 108.364 51.3154C108.657 51.3154 109.688 51.3623 111.458 51.4561C113.239 51.5498 114.646 51.5967 115.677 51.5967C116.708 51.5967 117.657 51.4385 118.524 51.1221C118.864 51.0283 119.063 50.9814 119.122 50.9814C119.462 50.9814 119.632 51.1982 119.632 51.6318C119.632 52.2529 119.087 52.8154 117.997 53.3193C116.907 53.8232 115.653 54.0752 114.235 54.0752C112.653 55.6104 111.265 58.2939 110.069 62.126C108.886 65.958 107.468 68.876 105.815 70.8799C104.175 72.8838 102.229 73.8857 99.9795 73.8857C99.0889 73.8857 98.251 73.5986 97.4658 73.0244L98.292 71.6533C98.585 71.7939 98.9072 71.9228 99.2588 72.04L99.7686 72.1103C99.8857 72.1338 100.062 72.1514 100.296 72.1631C101.491 72.1631 102.563 71.5889 103.513 70.4404C104.474 69.2803 105.476 67.1006 106.519 63.9014C107.562 60.6904 108.376 58.5635 108.962 57.5205C109.548 56.4775 110.573 55.3174 112.038 54.04L106.888 53.9346C101.626 53.9346 99.001 55.0889 99.0127 57.3975C99.0127 57.9951 99.2295 58.4814 99.6631 58.8564C100.108 59.2314 100.776 59.4189 101.667 59.4189C102.558 59.4189 103.724 59.0088 105.165 58.1885L105.71 59.1201C104.972 59.917 104.128 60.5439 103.179 61.001C102.241 61.458 101.304 61.6865 100.366 61.6865C99.4404 61.6865 98.6377 61.376 97.958 60.7549C97.29 60.1221 96.9561 59.3369 96.9561 58.3994ZM111.599 71.1084C111.599 69.4326 112.243 67.7744 113.532 66.1338C114.833 64.4814 116.491 63.1396 118.507 62.1084C120.522 61.0771 122.538 60.5498 124.554 60.5264L124.624 61.7217L123.112 62.0381C120.933 62.5186 119.005 63.4795 117.329 64.9209C115.665 66.3623 114.833 67.7978 114.833 69.2275C114.833 70.6455 115.413 71.3545 116.573 71.3545C117.651 71.3545 118.981 70.5986 120.563 69.0869C122.146 67.5752 123.464 65.7998 124.519 63.7607L126.03 64.6748C124.542 67.6748 123.798 69.5791 123.798 70.3877C123.798 70.7275 123.909 71.0146 124.132 71.249C124.366 71.4717 124.595 71.583 124.817 71.583C125.052 71.583 125.204 71.5713 125.274 71.5478C125.345 71.5244 125.415 71.4951 125.485 71.46C125.567 71.4131 125.661 71.3545 125.767 71.2842C125.872 71.2139 125.966 71.1436 126.048 71.0732C126.142 71.0029 126.282 70.8975 126.47 70.7568C126.669 70.6045 126.827 70.4814 126.944 70.3877L127.771 71.0029C127.431 71.7178 126.81 72.4033 125.907 73.0596C125.005 73.7041 124.185 74.0264 123.446 74.0264C122.028 74.0264 121.319 73.2822 121.319 71.7939C121.319 71.1025 121.501 70.2764 121.864 69.3154L120.528 70.6865C119.228 72.0107 118.103 72.9014 117.153 73.3584C116.216 73.8037 115.29 74.0264 114.376 74.0264C113.462 74.0264 112.771 73.7686 112.302 73.2529C111.833 72.7373 111.599 72.0225 111.599 71.1084ZM125.942 85.5752C125.989 85.4346 126.44 84.1924 127.296 81.8486C128.14 79.5166 128.972 77.1963 129.792 74.8877C132.054 68.5478 133.179 65.0791 133.167 64.4814C133.167 62.9463 132.856 61.5576 132.235 60.3154L134.046 59.4189C134.784 60.4502 135.153 61.5342 135.153 62.6709C135.153 63.8076 134.925 65.3838 134.468 67.3994C136.296 64.6689 137.878 62.8057 139.214 61.8096C140.562 60.8135 141.739 60.3154 142.747 60.3154C143.755 60.3154 144.534 60.6201 145.085 61.2295C145.636 61.8389 145.911 62.6123 145.911 63.5498C145.911 66.1396 144.979 68.5361 143.116 70.7393C141.265 72.9307 139.173 74.0264 136.841 74.0264C135.81 74.0264 134.995 73.8447 134.397 73.4814L135.259 71.9346C136.536 72.0986 137.315 72.1865 137.597 72.1982C138.897 72.1982 140.11 71.4424 141.235 69.9307C142.36 68.4189 142.923 66.8662 142.923 65.2725C142.923 64.6748 142.747 64.1826 142.396 63.7959C142.056 63.3975 141.61 63.1982 141.06 63.1982C139.735 63.1982 138.241 64.3643 136.577 66.6963C134.913 69.0166 133.354 71.8994 131.901 75.3447C130.448 78.79 129.183 82.4521 128.104 86.331L125.942 85.5752ZM147.739 71.1084C147.739 69.4326 148.384 67.7744 149.673 66.1338C150.974 64.4814 152.632 63.1396 154.647 62.1084C156.663 61.0771 158.679 60.5498 160.694 60.5264L160.765 61.7217L159.253 62.0381C157.073 62.5186 155.146 63.4795 153.47 64.9209C151.806 66.3623 150.974 67.7978 150.974 69.2275C150.974 70.6455 151.554 71.3545 152.714 71.3545C153.792 71.3545 155.122 70.5986 156.704 69.0869C158.286 67.5752 159.604 65.7998 160.659 63.7607L162.171 64.6748C160.683 67.6748 159.938 69.5791 159.938 70.3877C159.938 70.7275 160.05 71.0146 160.272 71.249C160.507 71.4717 160.735 71.583 160.958 71.583C161.192 71.583 161.345 71.5713 161.415 71.5478C161.485 71.5244 161.556 71.4951 161.626 71.46C161.708 71.4131 161.802 71.3545 161.907 71.2842C162.013 71.2139 162.106 71.1436 162.188 71.0732C162.282 71.0029 162.423 70.8975 162.61 70.7568C162.81 70.6045 162.968 70.4814 163.085 70.3877L163.911 71.0029C163.571 71.7178 162.95 72.4033 162.048 73.0596C161.145 73.7041 160.325 74.0264 159.587 74.0264C158.169 74.0264 157.46 73.2822 157.46 71.7939C157.46 71.1025 157.642 70.2764 158.005 69.3154L156.669 70.6865C155.368 72.0107 154.243 72.9014 153.294 73.3584C152.356 73.8037 151.431 74.0264 150.517 74.0264C149.603 74.0264 148.911 73.7686 148.442 73.2529C147.974 72.7373 147.739 72.0225 147.739 71.1084ZM164.245 68.8408C164.245 68.7705 164.884 68.5713 166.161 68.2432C167.45 67.9033 168.405 67.6807 169.026 67.5752C170.948 63.1572 172.255 60.6025 172.946 59.9111L174.493 60.5264C174.376 60.7607 174.101 61.2998 173.667 62.1436C172.589 64.2295 171.856 65.8643 171.47 67.0478C173.556 66.8369 174.81 66.7314 175.231 66.7314C175.653 66.7197 176.011 66.7256 176.304 66.749C177.979 62.8818 179.128 60.6377 179.749 60.0166L181.155 60.3506C181.132 60.5146 180.786 61.2412 180.118 62.5303C179.462 63.8076 178.765 65.4893 178.026 67.5752C177.288 69.6494 176.808 71.7412 176.585 73.8506L174.282 73.6748C174.282 72.3506 174.704 70.6455 175.548 68.5596C175.337 68.5361 174.897 68.5244 174.229 68.5244C173.573 68.5244 172.366 68.6768 170.608 68.9814C169.39 71.7119 168.78 74.0557 168.78 76.0127L166.354 75.6787C166.354 73.9795 166.993 71.8818 168.27 69.3857C167.052 69.5732 165.827 69.8603 164.597 70.2471L164.245 68.8408ZM182.649 73.3057C182.767 72.0283 183.329 69.7432 184.337 66.4502C185.345 63.1455 186.194 60.8955 186.886 59.7002L188.52 60.2803C187.782 61.9326 187.267 63.333 186.974 64.4814C186.681 65.6182 186.429 66.8311 186.218 68.1201C188.28 65.167 190.003 63.0986 191.386 61.915C192.78 60.7197 194.04 60.1221 195.165 60.1221C196.384 60.1221 196.999 60.7373 197.011 61.9678C197.011 62.4482 196.8 63.3975 196.378 64.8154C195.956 66.2334 195.628 67.3467 195.394 68.1553C198.71 62.8232 201.675 60.1631 204.288 60.1748C204.933 60.1748 205.442 60.374 205.817 60.7725C206.204 61.1592 206.397 61.7451 206.397 62.5303C206.397 63.3037 205.946 64.5928 205.044 66.3975C204.153 68.1904 203.708 69.3213 203.708 69.79C203.708 70.2588 203.802 70.6045 203.989 70.8271C204.188 71.0381 204.429 71.1436 204.71 71.1436C205.331 71.1436 206.145 70.5459 207.153 69.3506L207.909 70.0713C206.538 72.5205 204.968 73.7451 203.198 73.7451C202.483 73.7451 201.927 73.5459 201.528 73.1475C201.13 72.749 200.931 72.2217 200.931 71.5654C200.931 70.8975 201.323 69.7607 202.108 68.1553C202.905 66.5498 203.327 65.3252 203.374 64.4814C203.397 64.0947 203.28 63.7842 203.022 63.5498C202.776 63.3154 202.437 63.1982 202.003 63.1982C201.581 63.1982 201.147 63.2978 200.702 63.4971C200.257 63.6963 199.823 64.0244 199.401 64.4814C198.979 64.9385 198.593 65.3838 198.241 65.8174C197.901 66.251 197.52 66.8662 197.099 67.6631C196.677 68.4482 196.325 69.1045 196.044 69.6318C195.54 70.6162 194.819 72.0928 193.882 74.0615L191.72 73.3057C191.72 73.2353 192.112 71.8818 192.897 69.2451C193.694 66.5967 194.093 65.0205 194.093 64.5166C194.093 64.0127 193.97 63.6494 193.724 63.4268C193.489 63.1924 193.19 63.0752 192.827 63.0752C191.749 63.0752 190.255 64.4228 188.345 67.1182C186.446 69.8018 185.233 72.0928 184.706 73.9912L182.649 73.3057Z" fill="url(#paint1_linear)"/>
<path d="M50.4548 45.0171C50.3835 45.0394 50.1785 45.0572 50.0002 45.0617C49.8219 45.0617 49.5812 45.0839 49.4653 45.1062C49.3494 45.1285 49.1221 45.1731 48.9617 45.1998C47.1788 45.5297 45.5386 46.4478 44.3842 47.7627C43.6042 48.6541 43.007 49.7327 42.637 50.9362C42.3518 51.8499 42.2359 52.5541 42.2002 53.6015C42.1735 54.4617 42.2537 55.166 42.5033 56.2312C43.1674 59.0793 45.2266 62.3553 48.5338 65.8363C49.7283 67.0888 52.104 69.353 53.2093 70.2846C53.3163 70.3737 53.8155 70.8016 54.3147 71.2295C54.8139 71.6574 55.4423 72.1922 55.7098 72.4106C55.9772 72.6335 56.3159 72.9143 56.4675 73.0391C56.619 73.1594 57.1583 73.6007 57.6665 74.0107L58.598 74.7595L58.7585 74.6303C58.8521 74.559 59.1863 74.3004 59.5028 74.0598C59.8237 73.8191 60.1624 73.5606 60.2605 73.4803C60.3586 73.4046 60.5814 73.2307 60.7508 73.097C63.2111 71.1671 65.1099 69.509 67.1156 67.5301C70.766 63.9332 73.1461 60.6037 74.2871 57.4792C74.6125 56.5923 74.7462 56.0841 74.8977 55.1392C75.0225 54.3637 75.0448 54.0561 75.0225 53.3787C74.9958 52.6522 74.9512 52.2376 74.8576 51.7964C74.8264 51.6627 74.7908 51.4799 74.7685 51.3952C74.7105 51.1234 74.5813 50.7133 74.4476 50.3701C73.5829 48.1683 72.014 46.6127 69.7542 45.7169C69.0009 45.4227 68.6355 45.3202 67.7262 45.1508C66.7144 44.9591 65.1634 44.9502 64.3834 45.1241C63.3939 45.3469 63.1888 45.4182 62.4445 45.7837C60.9826 46.5058 59.6632 47.8028 58.8164 49.3539C58.7094 49.5455 58.6069 49.7015 58.5846 49.7015C58.5623 49.7015 58.5044 49.6168 58.4509 49.5099C58.0319 48.6764 57.2653 47.6914 56.5076 47.0183C55.4067 46.0378 54.1008 45.4138 52.5942 45.1508C51.9836 45.0438 50.6598 44.9636 50.4548 45.0171Z" fill="black"/>
<path d="M50.4548 45.0171C50.3835 45.0394 50.1785 45.0572 50.0002 45.0617C49.8219 45.0617 49.5812 45.0839 49.4653 45.1062C49.3494 45.1285 49.1221 45.1731 48.9617 45.1998C47.1788 45.5297 45.5386 46.4478 44.3842 47.7627C43.6042 48.6541 43.007 49.7327 42.637 50.9362C42.3518 51.8499 42.2359 52.5541 42.2002 53.6015C42.1735 54.4617 42.2537 55.166 42.5033 56.2312C43.1674 59.0793 45.2266 62.3553 48.5338 65.8363C49.7283 67.0888 52.104 69.353 53.2093 70.2846C53.3163 70.3737 53.8155 70.8016 54.3147 71.2295C54.8139 71.6574 55.4423 72.1922 55.7098 72.4106C55.9772 72.6335 56.3159 72.9143 56.4675 73.0391C56.619 73.1594 57.1583 73.6007 57.6665 74.0107L58.598 74.7595L58.7585 74.6303C58.8521 74.559 59.1863 74.3004 59.5028 74.0598C59.8237 73.8191 60.1624 73.5606 60.2605 73.4803C60.3586 73.4046 60.5814 73.2307 60.7508 73.097C63.2111 71.1671 65.1099 69.509 67.1156 67.5301C70.766 63.9332 73.1461 60.6037 74.2871 57.4792C74.6125 56.5923 74.7462 56.0841 74.8977 55.1392C75.0225 54.3637 75.0448 54.0561 75.0225 53.3787C74.9958 52.6522 74.9512 52.2376 74.8576 51.7964C74.8264 51.6627 74.7908 51.4799 74.7685 51.3952C74.7105 51.1234 74.5813 50.7133 74.4476 50.3701C73.5829 48.1683 72.014 46.6127 69.7542 45.7169C69.0009 45.4227 68.6355 45.3202 67.7262 45.1508C66.7144 44.9591 65.1634 44.9502 64.3834 45.1241C63.3939 45.3469 63.1888 45.4182 62.4445 45.7837C60.9826 46.5058 59.6632 47.8028 58.8164 49.3539C58.7094 49.5455 58.6069 49.7015 58.5846 49.7015C58.5623 49.7015 58.5044 49.6168 58.4509 49.5099C58.0319 48.6764 57.2653 47.6914 56.5076 47.0183C55.4067 46.0378 54.1008 45.4138 52.5942 45.1508C51.9836 45.0438 50.6598 44.9636 50.4548 45.0171Z" fill="url(#paint2_linear)"/>
<path d="M50.4548 45.0171C50.3835 45.0394 50.1785 45.0572 50.0002 45.0617C49.8219 45.0617 49.5812 45.0839 49.4653 45.1062C49.3494 45.1285 49.1221 45.1731 48.9617 45.1998C47.1788 45.5297 45.5386 46.4478 44.3842 47.7627C43.6042 48.6541 43.007 49.7327 42.637 50.9362C42.3518 51.8499 42.2359 52.5541 42.2002 53.6015C42.1735 54.4617 42.2537 55.166 42.5033 56.2312C43.1674 59.0793 45.2266 62.3553 48.5338 65.8363C49.7283 67.0888 52.104 69.353 53.2093 70.2846C53.3163 70.3737 53.8155 70.8016 54.3147 71.2295C54.8139 71.6574 55.4423 72.1922 55.7098 72.4106C55.9772 72.6335 56.3159 72.9143 56.4675 73.0391C56.619 73.1594 57.1583 73.6007 57.6665 74.0107L58.598 74.7595L58.7585 74.6303C58.8521 74.559 59.1863 74.3004 59.5028 74.0598C59.8237 73.8191 60.1624 73.5606 60.2605 73.4803C60.3586 73.4046 60.5814 73.2307 60.7508 73.097C63.2111 71.1671 65.1099 69.509 67.1156 67.5301C70.766 63.9332 73.1461 60.6037 74.2871 57.4792C74.6125 56.5923 74.7462 56.0841 74.8977 55.1392C75.0225 54.3637 75.0448 54.0561 75.0225 53.3787C74.9958 52.6522 74.9512 52.2376 74.8576 51.7964C74.8264 51.6627 74.7908 51.4799 74.7685 51.3952C74.7105 51.1234 74.5813 50.7133 74.4476 50.3701C73.5829 48.1683 72.014 46.6127 69.7542 45.7169C69.0009 45.4227 68.6355 45.3202 67.7262 45.1508C66.7144 44.9591 65.1634 44.9502 64.3834 45.1241C63.3939 45.3469 63.1888 45.4182 62.4445 45.7837C60.9826 46.5058 59.6632 47.8028 58.8164 49.3539C58.7094 49.5455 58.6069 49.7015 58.5846 49.7015C58.5623 49.7015 58.5044 49.6168 58.4509 49.5099C58.0319 48.6764 57.2653 47.6914 56.5076 47.0183C55.4067 46.0378 54.1008 45.4138 52.5942 45.1508C51.9836 45.0438 50.6598 44.9636 50.4548 45.0171Z" fill="url(#paint3_linear)"/>
<path d="M40.5913 49.7238C40.413 49.7862 40.1545 49.8976 40.0119 49.9778C39.3522 50.3433 38.2201 51.2258 37.5783 51.8766L37.2708 52.193L37.4624 52.407C37.7165 52.6922 37.9126 53.1112 37.9393 53.4366C37.9884 53.9892 37.4713 55.576 36.5933 57.546L36.3838 58.014L36.4774 58.5266C36.6245 59.3066 36.7983 60.0108 36.8384 59.9663C36.8562 59.9484 37.1103 59.5295 37.4 59.0392C38.2914 57.5237 38.7416 56.5744 39.0224 55.5983C39.1071 55.3041 39.1338 55.2595 39.4102 55.0188C39.8158 54.6623 40.676 53.7218 41.0147 53.2672C41.3713 52.7858 41.6655 52.2242 41.7947 51.7696C41.875 51.4888 41.8928 51.3016 41.8973 50.838C41.8973 50.3032 41.8883 50.2408 41.7858 50.0358C41.7011 49.8664 41.6254 49.7906 41.4738 49.7104C41.2198 49.5856 40.9969 49.5856 40.5913 49.7238Z" fill="black"/>
<path d="M40.5913 49.7238C40.413 49.7862 40.1545 49.8976 40.0119 49.9778C39.3522 50.3433 38.2201 51.2258 37.5783 51.8766L37.2708 52.193L37.4624 52.407C37.7165 52.6922 37.9126 53.1112 37.9393 53.4366C37.9884 53.9892 37.4713 55.576 36.5933 57.546L36.3838 58.014L36.4774 58.5266C36.6245 59.3066 36.7983 60.0108 36.8384 59.9663C36.8562 59.9484 37.1103 59.5295 37.4 59.0392C38.2914 57.5237 38.7416 56.5744 39.0224 55.5983C39.1071 55.3041 39.1338 55.2595 39.4102 55.0188C39.8158 54.6623 40.676 53.7218 41.0147 53.2672C41.3713 52.7858 41.6655 52.2242 41.7947 51.7696C41.875 51.4888 41.8928 51.3016 41.8973 50.838C41.8973 50.3032 41.8883 50.2408 41.7858 50.0358C41.7011 49.8664 41.6254 49.7906 41.4738 49.7104C41.2198 49.5856 40.9969 49.5856 40.5913 49.7238Z" fill="url(#paint4_linear)"/>
<path d="M40.5913 49.7238C40.413 49.7862 40.1545 49.8976 40.0119 49.9778C39.3522 50.3433 38.2201 51.2258 37.5783 51.8766L37.2708 52.193L37.4624 52.407C37.7165 52.6922 37.9126 53.1112 37.9393 53.4366C37.9884 53.9892 37.4713 55.576 36.5933 57.546L36.3838 58.014L36.4774 58.5266C36.6245 59.3066 36.7983 60.0108 36.8384 59.9663C36.8562 59.9484 37.1103 59.5295 37.4 59.0392C38.2914 57.5237 38.7416 56.5744 39.0224 55.5983C39.1071 55.3041 39.1338 55.2595 39.4102 55.0188C39.8158 54.6623 40.676 53.7218 41.0147 53.2672C41.3713 52.7858 41.6655 52.2242 41.7947 51.7696C41.875 51.4888 41.8928 51.3016 41.8973 50.838C41.8973 50.3032 41.8883 50.2408 41.7858 50.0358C41.7011 49.8664 41.6254 49.7906 41.4738 49.7104C41.2198 49.5856 40.9969 49.5856 40.5913 49.7238Z" fill="url(#paint5_linear)"/>
<path d="M75.526 49.7104C75.3744 49.7906 75.2987 49.8664 75.214 50.0357C75.1115 50.2408 75.1025 50.3032 75.1025 50.838C75.107 51.3016 75.1248 51.4888 75.2051 51.7696C75.3343 52.2242 75.6285 52.7858 75.9851 53.2672C76.3238 53.7218 77.184 54.6622 77.5896 55.0188C77.866 55.2595 77.8927 55.3041 77.9774 55.5982C78.1512 56.1955 78.3964 56.8061 78.7128 57.4346C79.056 58.121 80.1614 60.0108 80.1926 59.9796C80.2238 59.9529 80.4422 58.9589 80.5358 58.433L80.616 58.0095L80.4065 57.546C79.5285 55.576 79.0114 53.9892 79.0605 53.4365C79.0872 53.1112 79.2833 52.6922 79.5374 52.4069L79.729 52.193L79.4215 51.8765C78.7797 51.2258 77.6476 50.3433 76.9879 49.9778C76.6536 49.7906 76.1143 49.6123 75.8959 49.6123C75.8023 49.6123 75.6329 49.6569 75.526 49.7104Z" fill="black"/>
<path d="M75.526 49.7104C75.3744 49.7906 75.2987 49.8664 75.214 50.0357C75.1115 50.2408 75.1025 50.3032 75.1025 50.838C75.107 51.3016 75.1248 51.4888 75.2051 51.7696C75.3343 52.2242 75.6285 52.7858 75.9851 53.2672C76.3238 53.7218 77.184 54.6622 77.5896 55.0188C77.866 55.2595 77.8927 55.3041 77.9774 55.5982C78.1512 56.1955 78.3964 56.8061 78.7128 57.4346C79.056 58.121 80.1614 60.0108 80.1926 59.9796C80.2238 59.9529 80.4422 58.9589 80.5358 58.433L80.616 58.0095L80.4065 57.546C79.5285 55.576 79.0114 53.9892 79.0605 53.4365C79.0872 53.1112 79.2833 52.6922 79.5374 52.4069L79.729 52.193L79.4215 51.8765C78.7797 51.2258 77.6476 50.3433 76.9879 49.9778C76.6536 49.7906 76.1143 49.6123 75.8959 49.6123C75.8023 49.6123 75.6329 49.6569 75.526 49.7104Z" fill="url(#paint6_linear)"/>
<path d="M75.526 49.7104C75.3744 49.7906 75.2987 49.8664 75.214 50.0357C75.1115 50.2408 75.1025 50.3032 75.1025 50.838C75.107 51.3016 75.1248 51.4888 75.2051 51.7696C75.3343 52.2242 75.6285 52.7858 75.9851 53.2672C76.3238 53.7218 77.184 54.6622 77.5896 55.0188C77.866 55.2595 77.8927 55.3041 77.9774 55.5982C78.1512 56.1955 78.3964 56.8061 78.7128 57.4346C79.056 58.121 80.1614 60.0108 80.1926 59.9796C80.2238 59.9529 80.4422 58.9589 80.5358 58.433L80.616 58.0095L80.4065 57.546C79.5285 55.576 79.0114 53.9892 79.0605 53.4365C79.0872 53.1112 79.2833 52.6922 79.5374 52.4069L79.729 52.193L79.4215 51.8765C78.7797 51.2258 77.6476 50.3433 76.9879 49.9778C76.6536 49.7906 76.1143 49.6123 75.8959 49.6123C75.8023 49.6123 75.6329 49.6569 75.526 49.7104Z" fill="url(#paint7_linear)"/>
<path d="M34.6766 51.4754C34.2309 51.6938 33.9769 51.9924 33.5267 52.8303C33.4108 53.0443 33.1924 53.383 33.0453 53.5836C32.4124 54.4349 32.0246 55.2372 31.7126 56.347C31.5076 57.0691 31.4408 57.4925 31.4051 58.3482C31.3694 59.0525 31.3516 59.1728 31.2268 59.565C31.1466 59.8057 30.9728 60.247 30.8346 60.5456C30.4022 61.4994 30.2106 61.9808 30.1036 62.3864C30.0011 62.7608 29.9966 62.8589 30.0011 64.0088C30.0056 65.3638 30.0323 65.7293 30.3755 68.6665C30.6251 70.8059 30.6697 71.265 30.7321 72.3392C30.7989 73.3955 30.9014 73.8457 31.2224 74.4831C31.6101 75.2497 32.0781 75.8113 32.8358 76.4219C35.051 78.2048 37.5782 79.2566 42.8688 80.6116C43.6266 80.8033 44.2149 80.9816 44.3174 81.0395C44.8567 81.3693 45.3737 81.8106 45.7214 82.2385C46.0557 82.653 46.1939 82.8714 46.5772 83.5756C46.7421 83.8832 46.9694 84.2887 47.0808 84.4849L47.2814 84.8325L49.6036 84.8013C50.8828 84.7835 53.245 84.7567 54.8585 84.7389C56.4987 84.7166 57.8047 84.6854 57.827 84.6631C57.9161 84.5651 58.4554 81.5744 58.4554 81.1777C58.4554 81.1019 58.4777 81.035 58.5 81.035C58.5267 81.035 58.5446 81.1019 58.5446 81.1777C58.5446 81.5744 59.0839 84.5651 59.173 84.6631C59.1953 84.6854 60.5013 84.7166 62.1415 84.7389C63.755 84.7567 66.1172 84.7835 67.3964 84.8013L69.7186 84.8325L69.9192 84.4849C70.0306 84.2887 70.2579 83.8832 70.4228 83.5756C71.0602 82.4034 71.4658 81.9042 72.2725 81.3203C72.7405 80.9771 72.8386 80.9414 74.1312 80.6116C79.4218 79.2566 81.949 78.2048 84.1642 76.4219C84.9219 75.8113 85.3899 75.2497 85.7776 74.4831C86.0986 73.8457 86.2011 73.3955 86.2679 72.3392C86.3303 71.265 86.3749 70.8059 86.6245 68.6665C86.9677 65.7293 86.9944 65.3638 86.9989 64.0088C87.0034 62.8589 86.9989 62.7608 86.8964 62.3864C86.7894 61.9808 86.5978 61.4994 86.1654 60.5456C86.0272 60.247 85.8534 59.8057 85.7732 59.565C85.6484 59.1728 85.6306 59.0525 85.5949 58.3482C85.5592 57.4925 85.4924 57.0691 85.2874 56.347C84.9754 55.2372 84.5876 54.4349 83.9547 53.5836C83.8076 53.383 83.5892 53.0443 83.4733 52.8303C83.0187 51.9835 82.7646 51.6893 82.31 51.4754C82.0604 51.355 81.998 51.3416 81.686 51.3595C81.2403 51.3818 80.9818 51.5066 80.6163 51.8676C80.3177 52.1662 80.1305 52.5094 80.0279 52.9507C79.9611 53.2315 79.9923 53.7708 80.0859 54.0694C80.1215 54.1808 80.1839 54.4393 80.2241 54.6533C80.3578 55.3753 80.5806 56.0528 81.1244 57.3499L81.4052 58.0229L81.2626 58.4196L81.1199 58.8162L81.1244 59.7968C81.1244 60.5679 81.1467 60.9022 81.218 61.3613L81.3116 61.9452L81.1957 62.3196C81.0977 62.6494 81.0843 62.7786 81.0798 63.4071C81.0754 63.7993 81.0932 64.3743 81.111 64.6818L81.1511 65.2479H81.5389C82.3234 65.2479 83.1078 65.5733 83.6917 66.1527C84.0706 66.5226 84.231 66.8079 84.3157 67.2581C84.3781 67.5923 84.2845 68.0158 84.0706 68.3679C83.9235 68.613 81.9713 70.855 80.7589 72.1698C79.8452 73.1638 78.6819 74.2647 78.615 74.2023C78.5482 74.1309 78.5571 73.7788 78.6329 73.5872C78.7265 73.351 81.1601 70.3602 81.2893 70.3246C81.3294 70.3112 81.3963 70.2354 81.4319 70.1507C81.4631 70.0705 81.8063 69.6203 82.1941 69.1568C82.5774 68.6888 83.0454 68.1227 83.2282 67.8954L83.5625 67.4809L83.509 67.3115C83.4466 67.0976 83.4466 67.0842 83.5223 67.0842C83.5803 67.0842 83.6471 66.8391 83.6026 66.7945C83.5892 66.7811 83.5223 66.7722 83.4555 66.7722C83.353 66.7722 83.3129 66.7366 83.2415 66.6029C82.9786 66.0903 82.5106 65.9075 81.3205 65.8496C80.331 65.805 79.5644 65.9521 78.7577 66.3443C78.0668 66.6831 77.5364 67.0976 76.284 68.2877C74.5368 69.9457 73.7211 70.5519 72.3394 71.2294C70.8864 71.9425 69.9325 72.1876 66.6566 72.6779C65.5601 72.8428 64.6375 73.03 63.8664 73.2395C62.1415 73.7075 60.4745 74.9288 59.5073 76.4353C59.2176 76.8765 58.8165 77.7234 58.656 78.2137C58.5847 78.441 58.5134 78.6282 58.5 78.6282C58.4866 78.6282 58.4198 78.4499 58.3529 78.2315C58.2014 77.7546 57.7824 76.881 57.4971 76.4397C56.7528 75.2898 55.6965 74.3716 54.3281 73.6852C53.5258 73.2841 52.2912 72.9721 50.3435 72.6779C47.0675 72.1876 46.1136 71.9425 44.6606 71.2294C43.2789 70.5519 42.4632 69.9457 40.716 68.2877C39.4636 67.0976 38.9332 66.6831 38.2423 66.3443C37.4356 65.9521 36.669 65.805 35.6795 65.8496C34.4894 65.9075 34.0214 66.0903 33.7585 66.6029C33.6872 66.7366 33.647 66.7722 33.5445 66.7722C33.4777 66.7722 33.4108 66.7811 33.3974 66.7945C33.3529 66.8391 33.4197 67.0842 33.4777 67.0842C33.5534 67.0842 33.5534 67.0976 33.491 67.3115L33.4376 67.4809L33.7718 67.8954C33.9546 68.1227 34.4226 68.6888 34.8059 69.1568C35.1937 69.6203 35.5369 70.0705 35.5681 70.1507C35.6037 70.2354 35.6706 70.3112 35.7107 70.3246C35.8399 70.3602 38.2735 73.351 38.3671 73.5872C38.4429 73.7788 38.4518 74.1309 38.385 74.2023C38.3181 74.2647 37.1548 73.1638 36.2411 72.1698C35.0287 70.855 33.0765 68.613 32.9294 68.3679C32.4748 67.6146 32.6085 66.8391 33.3083 66.1527C33.8922 65.5733 34.6766 65.2479 35.4611 65.2479H35.8444L35.8756 64.8378C35.9826 63.3759 35.9558 62.7474 35.7686 62.2081C35.6884 61.9674 35.6884 61.9541 35.782 61.3702C35.8533 60.9022 35.8756 60.5724 35.8756 59.7968L35.8801 58.8162L35.7374 58.4196L35.5948 58.0229L35.8756 57.3499C36.4194 56.0528 36.6422 55.3753 36.7759 54.6533C36.8161 54.4393 36.8785 54.1808 36.9141 54.0694C37.0077 53.7708 37.0389 53.2315 36.9721 52.9507C36.8695 52.5094 36.6823 52.1662 36.3837 51.8676C36.0093 51.5021 35.7597 51.3818 35.3006 51.3595C34.9797 51.3461 34.9173 51.3595 34.6766 51.4754Z" fill="black"/>
<path d="M34.6766 51.4754C34.2309 51.6938 33.9769 51.9924 33.5267 52.8303C33.4108 53.0443 33.1924 53.383 33.0453 53.5836C32.4124 54.4349 32.0246 55.2372 31.7126 56.347C31.5076 57.0691 31.4408 57.4925 31.4051 58.3482C31.3694 59.0525 31.3516 59.1728 31.2268 59.565C31.1466 59.8057 30.9728 60.247 30.8346 60.5456C30.4022 61.4994 30.2106 61.9808 30.1036 62.3864C30.0011 62.7608 29.9966 62.8589 30.0011 64.0088C30.0056 65.3638 30.0323 65.7293 30.3755 68.6665C30.6251 70.8059 30.6697 71.265 30.7321 72.3392C30.7989 73.3955 30.9014 73.8457 31.2224 74.4831C31.6101 75.2497 32.0781 75.8113 32.8358 76.4219C35.051 78.2048 37.5782 79.2566 42.8688 80.6116C43.6266 80.8033 44.2149 80.9816 44.3174 81.0395C44.8567 81.3693 45.3737 81.8106 45.7214 82.2385C46.0557 82.653 46.1939 82.8714 46.5772 83.5756C46.7421 83.8832 46.9694 84.2887 47.0808 84.4849L47.2814 84.8325L49.6036 84.8013C50.8828 84.7835 53.245 84.7567 54.8585 84.7389C56.4987 84.7166 57.8047 84.6854 57.827 84.6631C57.9161 84.5651 58.4554 81.5744 58.4554 81.1777C58.4554 81.1019 58.4777 81.035 58.5 81.035C58.5267 81.035 58.5446 81.1019 58.5446 81.1777C58.5446 81.5744 59.0839 84.5651 59.173 84.6631C59.1953 84.6854 60.5013 84.7166 62.1415 84.7389C63.755 84.7567 66.1172 84.7835 67.3964 84.8013L69.7186 84.8325L69.9192 84.4849C70.0306 84.2887 70.2579 83.8832 70.4228 83.5756C71.0602 82.4034 71.4658 81.9042 72.2725 81.3203C72.7405 80.9771 72.8386 80.9414 74.1312 80.6116C79.4218 79.2566 81.949 78.2048 84.1642 76.4219C84.9219 75.8113 85.3899 75.2497 85.7776 74.4831C86.0986 73.8457 86.2011 73.3955 86.2679 72.3392C86.3303 71.265 86.3749 70.8059 86.6245 68.6665C86.9677 65.7293 86.9944 65.3638 86.9989 64.0088C87.0034 62.8589 86.9989 62.7608 86.8964 62.3864C86.7894 61.9808 86.5978 61.4994 86.1654 60.5456C86.0272 60.247 85.8534 59.8057 85.7732 59.565C85.6484 59.1728 85.6306 59.0525 85.5949 58.3482C85.5592 57.4925 85.4924 57.0691 85.2874 56.347C84.9754 55.2372 84.5876 54.4349 83.9547 53.5836C83.8076 53.383 83.5892 53.0443 83.4733 52.8303C83.0187 51.9835 82.7646 51.6893 82.31 51.4754C82.0604 51.355 81.998 51.3416 81.686 51.3595C81.2403 51.3818 80.9818 51.5066 80.6163 51.8676C80.3177 52.1662 80.1305 52.5094 80.0279 52.9507C79.9611 53.2315 79.9923 53.7708 80.0859 54.0694C80.1215 54.1808 80.1839 54.4393 80.2241 54.6533C80.3578 55.3753 80.5806 56.0528 81.1244 57.3499L81.4052 58.0229L81.2626 58.4196L81.1199 58.8162L81.1244 59.7968C81.1244 60.5679 81.1467 60.9022 81.218 61.3613L81.3116 61.9452L81.1957 62.3196C81.0977 62.6494 81.0843 62.7786 81.0798 63.4071C81.0754 63.7993 81.0932 64.3743 81.111 64.6818L81.1511 65.2479H81.5389C82.3234 65.2479 83.1078 65.5733 83.6917 66.1527C84.0706 66.5226 84.231 66.8079 84.3157 67.2581C84.3781 67.5923 84.2845 68.0158 84.0706 68.3679C83.9235 68.613 81.9713 70.855 80.7589 72.1698C79.8452 73.1638 78.6819 74.2647 78.615 74.2023C78.5482 74.1309 78.5571 73.7788 78.6329 73.5872C78.7265 73.351 81.1601 70.3602 81.2893 70.3246C81.3294 70.3112 81.3963 70.2354 81.4319 70.1507C81.4631 70.0705 81.8063 69.6203 82.1941 69.1568C82.5774 68.6888 83.0454 68.1227 83.2282 67.8954L83.5625 67.4809L83.509 67.3115C83.4466 67.0976 83.4466 67.0842 83.5223 67.0842C83.5803 67.0842 83.6471 66.8391 83.6026 66.7945C83.5892 66.7811 83.5223 66.7722 83.4555 66.7722C83.353 66.7722 83.3129 66.7366 83.2415 66.6029C82.9786 66.0903 82.5106 65.9075 81.3205 65.8496C80.331 65.805 79.5644 65.9521 78.7577 66.3443C78.0668 66.6831 77.5364 67.0976 76.284 68.2877C74.5368 69.9457 73.7211 70.5519 72.3394 71.2294C70.8864 71.9425 69.9325 72.1876 66.6566 72.6779C65.5601 72.8428 64.6375 73.03 63.8664 73.2395C62.1415 73.7075 60.4745 74.9288 59.5073 76.4353C59.2176 76.8765 58.8165 77.7234 58.656 78.2137C58.5847 78.441 58.5134 78.6282 58.5 78.6282C58.4866 78.6282 58.4198 78.4499 58.3529 78.2315C58.2014 77.7546 57.7824 76.881 57.4971 76.4397C56.7528 75.2898 55.6965 74.3716 54.3281 73.6852C53.5258 73.2841 52.2912 72.9721 50.3435 72.6779C47.0675 72.1876 46.1136 71.9425 44.6606 71.2294C43.2789 70.5519 42.4632 69.9457 40.716 68.2877C39.4636 67.0976 38.9332 66.6831 38.2423 66.3443C37.4356 65.9521 36.669 65.805 35.6795 65.8496C34.4894 65.9075 34.0214 66.0903 33.7585 66.6029C33.6872 66.7366 33.647 66.7722 33.5445 66.7722C33.4777 66.7722 33.4108 66.7811 33.3974 66.7945C33.3529 66.8391 33.4197 67.0842 33.4777 67.0842C33.5534 67.0842 33.5534 67.0976 33.491 67.3115L33.4376 67.4809L33.7718 67.8954C33.9546 68.1227 34.4226 68.6888 34.8059 69.1568C35.1937 69.6203 35.5369 70.0705 35.5681 70.1507C35.6037 70.2354 35.6706 70.3112 35.7107 70.3246C35.8399 70.3602 38.2735 73.351 38.3671 73.5872C38.4429 73.7788 38.4518 74.1309 38.385 74.2023C38.3181 74.2647 37.1548 73.1638 36.2411 72.1698C35.0287 70.855 33.0765 68.613 32.9294 68.3679C32.4748 67.6146 32.6085 66.8391 33.3083 66.1527C33.8922 65.5733 34.6766 65.2479 35.4611 65.2479H35.8444L35.8756 64.8378C35.9826 63.3759 35.9558 62.7474 35.7686 62.2081C35.6884 61.9674 35.6884 61.9541 35.782 61.3702C35.8533 60.9022 35.8756 60.5724 35.8756 59.7968L35.8801 58.8162L35.7374 58.4196L35.5948 58.0229L35.8756 57.3499C36.4194 56.0528 36.6422 55.3753 36.7759 54.6533C36.8161 54.4393 36.8785 54.1808 36.9141 54.0694C37.0077 53.7708 37.0389 53.2315 36.9721 52.9507C36.8695 52.5094 36.6823 52.1662 36.3837 51.8676C36.0093 51.5021 35.7597 51.3818 35.3006 51.3595C34.9797 51.3461 34.9173 51.3595 34.6766 51.4754Z" fill="url(#paint8_linear)"/>
<path d="M34.6766 51.4754C34.2309 51.6938 33.9769 51.9924 33.5267 52.8303C33.4108 53.0443 33.1924 53.383 33.0453 53.5836C32.4124 54.4349 32.0246 55.2372 31.7126 56.347C31.5076 57.0691 31.4408 57.4925 31.4051 58.3482C31.3694 59.0525 31.3516 59.1728 31.2268 59.565C31.1466 59.8057 30.9728 60.247 30.8346 60.5456C30.4022 61.4994 30.2106 61.9808 30.1036 62.3864C30.0011 62.7608 29.9966 62.8589 30.0011 64.0088C30.0056 65.3638 30.0323 65.7293 30.3755 68.6665C30.6251 70.8059 30.6697 71.265 30.7321 72.3392C30.7989 73.3955 30.9014 73.8457 31.2224 74.4831C31.6101 75.2497 32.0781 75.8113 32.8358 76.4219C35.051 78.2048 37.5782 79.2566 42.8688 80.6116C43.6266 80.8033 44.2149 80.9816 44.3174 81.0395C44.8567 81.3693 45.3737 81.8106 45.7214 82.2385C46.0557 82.653 46.1939 82.8714 46.5772 83.5756C46.7421 83.8832 46.9694 84.2887 47.0808 84.4849L47.2814 84.8325L49.6036 84.8013C50.8828 84.7835 53.245 84.7567 54.8585 84.7389C56.4987 84.7166 57.8047 84.6854 57.827 84.6631C57.9161 84.5651 58.4554 81.5744 58.4554 81.1777C58.4554 81.1019 58.4777 81.035 58.5 81.035C58.5267 81.035 58.5446 81.1019 58.5446 81.1777C58.5446 81.5744 59.0839 84.5651 59.173 84.6631C59.1953 84.6854 60.5013 84.7166 62.1415 84.7389C63.755 84.7567 66.1172 84.7835 67.3964 84.8013L69.7186 84.8325L69.9192 84.4849C70.0306 84.2887 70.2579 83.8832 70.4228 83.5756C71.0602 82.4034 71.4658 81.9042 72.2725 81.3203C72.7405 80.9771 72.8386 80.9414 74.1312 80.6116C79.4218 79.2566 81.949 78.2048 84.1642 76.4219C84.9219 75.8113 85.3899 75.2497 85.7776 74.4831C86.0986 73.8457 86.2011 73.3955 86.2679 72.3392C86.3303 71.265 86.3749 70.8059 86.6245 68.6665C86.9677 65.7293 86.9944 65.3638 86.9989 64.0088C87.0034 62.8589 86.9989 62.7608 86.8964 62.3864C86.7894 61.9808 86.5978 61.4994 86.1654 60.5456C86.0272 60.247 85.8534 59.8057 85.7732 59.565C85.6484 59.1728 85.6306 59.0525 85.5949 58.3482C85.5592 57.4925 85.4924 57.0691 85.2874 56.347C84.9754 55.2372 84.5876 54.4349 83.9547 53.5836C83.8076 53.383 83.5892 53.0443 83.4733 52.8303C83.0187 51.9835 82.7646 51.6893 82.31 51.4754C82.0604 51.355 81.998 51.3416 81.686 51.3595C81.2403 51.3818 80.9818 51.5066 80.6163 51.8676C80.3177 52.1662 80.1305 52.5094 80.0279 52.9507C79.9611 53.2315 79.9923 53.7708 80.0859 54.0694C80.1215 54.1808 80.1839 54.4393 80.2241 54.6533C80.3578 55.3753 80.5806 56.0528 81.1244 57.3499L81.4052 58.0229L81.2626 58.4196L81.1199 58.8162L81.1244 59.7968C81.1244 60.5679 81.1467 60.9022 81.218 61.3613L81.3116 61.9452L81.1957 62.3196C81.0977 62.6494 81.0843 62.7786 81.0798 63.4071C81.0754 63.7993 81.0932 64.3743 81.111 64.6818L81.1511 65.2479H81.5389C82.3234 65.2479 83.1078 65.5733 83.6917 66.1527C84.0706 66.5226 84.231 66.8079 84.3157 67.2581C84.3781 67.5923 84.2845 68.0158 84.0706 68.3679C83.9235 68.613 81.9713 70.855 80.7589 72.1698C79.8452 73.1638 78.6819 74.2647 78.615 74.2023C78.5482 74.1309 78.5571 73.7788 78.6329 73.5872C78.7265 73.351 81.1601 70.3602 81.2893 70.3246C81.3294 70.3112 81.3963 70.2354 81.4319 70.1507C81.4631 70.0705 81.8063 69.6203 82.1941 69.1568C82.5774 68.6888 83.0454 68.1227 83.2282 67.8954L83.5625 67.4809L83.509 67.3115C83.4466 67.0976 83.4466 67.0842 83.5223 67.0842C83.5803 67.0842 83.6471 66.8391 83.6026 66.7945C83.5892 66.7811 83.5223 66.7722 83.4555 66.7722C83.353 66.7722 83.3129 66.7366 83.2415 66.6029C82.9786 66.0903 82.5106 65.9075 81.3205 65.8496C80.331 65.805 79.5644 65.9521 78.7577 66.3443C78.0668 66.6831 77.5364 67.0976 76.284 68.2877C74.5368 69.9457 73.7211 70.5519 72.3394 71.2294C70.8864 71.9425 69.9325 72.1876 66.6566 72.6779C65.5601 72.8428 64.6375 73.03 63.8664 73.2395C62.1415 73.7075 60.4745 74.9288 59.5073 76.4353C59.2176 76.8765 58.8165 77.7234 58.656 78.2137C58.5847 78.441 58.5134 78.6282 58.5 78.6282C58.4866 78.6282 58.4198 78.4499 58.3529 78.2315C58.2014 77.7546 57.7824 76.881 57.4971 76.4397C56.7528 75.2898 55.6965 74.3716 54.3281 73.6852C53.5258 73.2841 52.2912 72.9721 50.3435 72.6779C47.0675 72.1876 46.1136 71.9425 44.6606 71.2294C43.2789 70.5519 42.4632 69.9457 40.716 68.2877C39.4636 67.0976 38.9332 66.6831 38.2423 66.3443C37.4356 65.9521 36.669 65.805 35.6795 65.8496C34.4894 65.9075 34.0214 66.0903 33.7585 66.6029C33.6872 66.7366 33.647 66.7722 33.5445 66.7722C33.4777 66.7722 33.4108 66.7811 33.3974 66.7945C33.3529 66.8391 33.4197 67.0842 33.4777 67.0842C33.5534 67.0842 33.5534 67.0976 33.491 67.3115L33.4376 67.4809L33.7718 67.8954C33.9546 68.1227 34.4226 68.6888 34.8059 69.1568C35.1937 69.6203 35.5369 70.0705 35.5681 70.1507C35.6037 70.2354 35.6706 70.3112 35.7107 70.3246C35.8399 70.3602 38.2735 73.351 38.3671 73.5872C38.4429 73.7788 38.4518 74.1309 38.385 74.2023C38.3181 74.2647 37.1548 73.1638 36.2411 72.1698C35.0287 70.855 33.0765 68.613 32.9294 68.3679C32.4748 67.6146 32.6085 66.8391 33.3083 66.1527C33.8922 65.5733 34.6766 65.2479 35.4611 65.2479H35.8444L35.8756 64.8378C35.9826 63.3759 35.9558 62.7474 35.7686 62.2081C35.6884 61.9674 35.6884 61.9541 35.782 61.3702C35.8533 60.9022 35.8756 60.5724 35.8756 59.7968L35.8801 58.8162L35.7374 58.4196L35.5948 58.0229L35.8756 57.3499C36.4194 56.0528 36.6422 55.3753 36.7759 54.6533C36.8161 54.4393 36.8785 54.1808 36.9141 54.0694C37.0077 53.7708 37.0389 53.2315 36.9721 52.9507C36.8695 52.5094 36.6823 52.1662 36.3837 51.8676C36.0093 51.5021 35.7597 51.3818 35.3006 51.3595C34.9797 51.3461 34.9173 51.3595 34.6766 51.4754Z" fill="url(#paint9_linear)"/>
<g filter="url(#filter2_dd)">
<path d="M16 25C16 18.3726 21.3726 13 28 13H213C219.627 13 225 18.3726 225 25V106C225 112.627 219.627 118 213 118H28C21.3726 118 16 112.627 16 106V25Z" fill="white"/>
</g>
<path d="M97.36 52.8L91.64 52.68C85.8 52.68 82.88 53.96 82.88 56.52C82.88 57.1867 83.12 57.7333 83.6 58.16C84.1067 58.56 84.8533 58.76 85.84 58.76C86.8267 58.76 88.12 58.3067 89.72 57.4L90.32 58.44C89.4933 59.32 88.56 60.0133 87.52 60.52C86.48 61.0267 85.44 61.28 84.4 61.28C83.36 61.28 82.4667 60.9333 81.72 60.24C80.9733 59.5467 80.6 58.68 80.6 57.64C80.6 55.5333 81.7333 53.6933 84 52.12C86.2933 50.5467 89.3867 49.76 93.28 49.76C93.6 49.76 94.7467 49.8133 96.72 49.92C98.6933 50.0267 100.253 50.08 101.4 50.08C102.547 50.08 103.6 49.9067 104.56 49.56C104.933 49.4533 105.16 49.4 105.24 49.4C105.613 49.4 105.8 49.64 105.8 50.12C105.8 50.8133 105.187 51.44 103.96 52C102.76 52.56 101.373 52.84 99.8 52.84C98.04 54.5467 96.4933 57.5333 95.16 61.8C93.8533 66.04 92.28 69.28 90.44 71.52C88.6267 73.7333 86.4667 74.84 83.96 74.84C82.9733 74.84 82.04 74.52 81.16 73.88L82.08 72.36C82.4 72.52 82.76 72.6667 83.16 72.8L83.72 72.88C83.8533 72.9067 84.0533 72.92 84.32 72.92C85.6533 72.92 86.84 72.28 87.88 71C88.9467 69.72 90.0533 67.3067 91.2 63.76C92.3733 60.1867 93.28 57.8267 93.92 56.68C94.5867 55.5067 95.7333 54.2133 97.36 52.8ZM113.952 70.96L114.872 71.64C114.499 72.44 113.806 73.2 112.792 73.92C111.806 74.64 110.899 75 110.072 75C108.499 75 107.712 74.1733 107.712 72.52C107.712 71.7467 107.912 70.8267 108.312 69.76L106.832 71.28C105.392 72.7467 104.139 73.7333 103.072 74.24C102.032 74.7467 101.006 75 99.9922 75C98.9789 75 98.2055 74.72 97.6722 74.16C97.1655 73.5733 96.9122 72.7733 96.9122 71.76C96.9122 69.8933 97.6322 68.0533 99.0722 66.24C100.512 64.4 102.352 62.9067 104.592 61.76C106.832 60.6133 109.072 60.0267 111.312 60L111.392 61.32L109.712 61.68C107.286 62.2133 105.139 63.28 103.272 64.88C101.432 66.48 100.512 68.08 100.512 69.68C100.512 71.2533 101.152 72.04 102.432 72.04C103.632 72.04 105.112 71.2 106.872 69.52C108.632 67.84 110.099 65.8667 111.272 63.6L112.952 64.6C111.299 67.9333 110.472 70.0533 110.472 70.96C110.472 71.3333 110.592 71.6533 110.832 71.92C111.099 72.16 111.352 72.28 111.592 72.28C111.859 72.28 112.032 72.2667 112.112 72.24C112.192 72.2133 112.272 72.1867 112.352 72.16C112.432 72.1067 112.526 72.04 112.632 71.96C112.766 71.88 112.872 71.8 112.952 71.72C113.059 71.64 113.219 71.52 113.432 71.36C113.646 71.2 113.819 71.0667 113.952 70.96ZM122.322 67.64C124.349 64.6 126.109 62.5333 127.602 61.44C129.096 60.32 130.402 59.76 131.522 59.76C132.642 59.76 133.509 60.1067 134.122 60.8C134.736 61.4667 135.042 62.32 135.042 63.36C135.042 66.24 134.002 68.9067 131.922 71.36C129.869 73.7867 127.549 75 124.962 75C123.816 75 122.909 74.8 122.242 74.4L123.202 72.68C124.616 72.8667 125.482 72.96 125.802 72.96C127.242 72.96 128.589 72.12 129.842 70.44C131.096 68.76 131.722 67.04 131.722 65.28C131.722 64.6133 131.522 64.0667 131.122 63.64C130.749 63.1867 130.256 62.96 129.642 62.96C128.176 62.96 126.509 64.2533 124.642 66.84C122.802 69.4267 121.069 72.6267 119.442 76.44C117.842 80.28 116.442 84.36 115.242 88.68L112.842 87.84C112.896 87.68 113.402 86.2933 114.362 83.68C115.296 81.0933 116.216 78.52 117.122 75.96C119.629 68.92 120.882 65.0667 120.882 64.4C120.882 62.6933 120.536 61.1467 119.842 59.76L121.842 58.76C122.669 59.9067 123.082 61.12 123.082 62.4C123.082 63.6533 122.829 65.4 122.322 67.64ZM154.108 70.96L155.028 71.64C154.655 72.44 153.962 73.2 152.948 73.92C151.962 74.64 151.055 75 150.228 75C148.655 75 147.868 74.1733 147.868 72.52C147.868 71.7467 148.068 70.8267 148.468 69.76L146.988 71.28C145.548 72.7467 144.295 73.7333 143.228 74.24C142.188 74.7467 141.162 75 140.148 75C139.135 75 138.362 74.72 137.828 74.16C137.322 73.5733 137.068 72.7733 137.068 71.76C137.068 69.8933 137.788 68.0533 139.228 66.24C140.668 64.4 142.508 62.9067 144.748 61.76C146.988 60.6133 149.228 60.0267 151.468 60L151.548 61.32L149.868 61.68C147.442 62.2133 145.295 63.28 143.428 64.88C141.588 66.48 140.668 68.08 140.668 69.68C140.668 71.2533 141.308 72.04 142.588 72.04C143.788 72.04 145.268 71.2 147.028 69.52C148.788 67.84 150.255 65.8667 151.428 63.6L153.108 64.6C151.455 67.9333 150.628 70.0533 150.628 70.96C150.628 71.3333 150.748 71.6533 150.988 71.92C151.255 72.16 151.508 72.28 151.748 72.28C152.015 72.28 152.188 72.2667 152.268 72.24C152.348 72.2133 152.428 72.1867 152.508 72.16C152.588 72.1067 152.682 72.04 152.788 71.96C152.922 71.88 153.028 71.8 153.108 71.72C153.215 71.64 153.375 71.52 153.588 71.36C153.802 71.2 153.975 71.0667 154.108 70.96ZM172.639 59.44L174.199 59.8C174.172 59.9867 173.785 60.8 173.039 62.24C172.319 63.6533 171.545 65.52 170.719 67.84C169.892 70.1333 169.359 72.4533 169.119 74.8L166.559 74.6C166.559 73.1333 167.025 71.24 167.959 68.92C167.719 68.8933 167.225 68.88 166.479 68.88C165.759 68.88 164.425 69.0533 162.479 69.4C161.119 72.44 160.439 75.04 160.439 77.2L157.759 76.84C157.759 74.9467 158.465 72.6133 159.879 69.84C158.519 70.0533 157.159 70.3733 155.799 70.8L155.399 69.24C155.399 69.16 156.105 68.9333 157.519 68.56C158.959 68.1867 160.025 67.9467 160.719 67.84C162.852 62.9333 164.305 60.0933 165.079 59.32L166.799 60C166.665 60.2667 166.359 60.8667 165.879 61.8C164.679 64.12 163.865 65.9333 163.439 67.24C165.759 67 167.145 66.88 167.599 66.88C168.079 66.88 168.479 66.8933 168.799 66.92C170.665 62.6267 171.945 60.1333 172.639 59.44ZM203.091 69.8L203.931 70.6C202.411 73.32 200.664 74.68 198.691 74.68C197.891 74.68 197.264 74.4667 196.811 74.04C196.384 73.5867 196.171 73 196.171 72.28C196.171 71.5333 196.611 70.2667 197.491 68.48C198.371 66.6933 198.838 65.3333 198.891 64.4C198.918 63.9733 198.784 63.6267 198.491 63.36C198.224 63.0933 197.851 62.96 197.371 62.96C196.891 62.96 196.398 63.08 195.891 63.32C195.411 63.5333 194.931 63.8933 194.451 64.4C193.998 64.9067 193.571 65.4 193.171 65.88C192.798 66.36 192.371 67.04 191.891 67.92C191.438 68.8 191.051 69.5333 190.731 70.12C190.171 71.2133 189.371 72.8533 188.331 75.04L185.931 74.2C185.931 74.12 186.371 72.6133 187.251 69.68C188.131 66.7467 188.571 65 188.571 64.44C188.571 63.88 188.438 63.48 188.171 63.24C187.904 62.9733 187.571 62.84 187.171 62.84C185.971 62.84 184.304 64.3333 182.171 67.32C180.064 70.3067 178.718 72.8533 178.131 74.96L175.851 74.2C175.984 72.7867 176.611 70.2533 177.731 66.6C178.851 62.92 179.798 60.4133 180.571 59.08L182.371 59.72C181.544 61.56 180.971 63.12 180.651 64.4C180.331 65.6533 180.051 67 179.811 68.44C182.104 65.16 184.024 62.8667 185.571 61.56C187.118 60.2267 188.518 59.56 189.771 59.56C191.131 59.56 191.811 60.24 191.811 61.6C191.811 62.1333 191.571 63.1867 191.091 64.76C190.638 66.3333 190.278 67.5733 190.011 68.48C193.691 62.56 196.984 59.6 199.891 59.6C200.611 59.6 201.184 59.8267 201.611 60.28C202.038 60.7067 202.251 61.36 202.251 62.24C202.251 63.0933 201.744 64.52 200.731 66.52C199.744 68.52 199.251 69.7867 199.251 70.32C199.251 70.8267 199.358 71.2 199.571 71.44C199.784 71.68 200.051 71.8 200.371 71.8C201.064 71.8 201.971 71.1333 203.091 69.8Z" fill="url(#paint10_linear)"/>
<path d="M97.36 52.8L91.64 52.68C85.8 52.68 82.88 53.96 82.88 56.52C82.88 57.1867 83.12 57.7333 83.6 58.16C84.1067 58.56 84.8533 58.76 85.84 58.76C86.8267 58.76 88.12 58.3067 89.72 57.4L90.32 58.44C89.4933 59.32 88.56 60.0133 87.52 60.52C86.48 61.0267 85.44 61.28 84.4 61.28C83.36 61.28 82.4667 60.9333 81.72 60.24C80.9733 59.5467 80.6 58.68 80.6 57.64C80.6 55.5333 81.7333 53.6933 84 52.12C86.2933 50.5467 89.3867 49.76 93.28 49.76C93.6 49.76 94.7467 49.8133 96.72 49.92C98.6933 50.0267 100.253 50.08 101.4 50.08C102.547 50.08 103.6 49.9067 104.56 49.56C104.933 49.4533 105.16 49.4 105.24 49.4C105.613 49.4 105.8 49.64 105.8 50.12C105.8 50.8133 105.187 51.44 103.96 52C102.76 52.56 101.373 52.84 99.8 52.84C98.04 54.5467 96.4933 57.5333 95.16 61.8C93.8533 66.04 92.28 69.28 90.44 71.52C88.6267 73.7333 86.4667 74.84 83.96 74.84C82.9733 74.84 82.04 74.52 81.16 73.88L82.08 72.36C82.4 72.52 82.76 72.6667 83.16 72.8L83.72 72.88C83.8533 72.9067 84.0533 72.92 84.32 72.92C85.6533 72.92 86.84 72.28 87.88 71C88.9467 69.72 90.0533 67.3067 91.2 63.76C92.3733 60.1867 93.28 57.8267 93.92 56.68C94.5867 55.5067 95.7333 54.2133 97.36 52.8ZM113.952 70.96L114.872 71.64C114.499 72.44 113.806 73.2 112.792 73.92C111.806 74.64 110.899 75 110.072 75C108.499 75 107.712 74.1733 107.712 72.52C107.712 71.7467 107.912 70.8267 108.312 69.76L106.832 71.28C105.392 72.7467 104.139 73.7333 103.072 74.24C102.032 74.7467 101.006 75 99.9922 75C98.9789 75 98.2055 74.72 97.6722 74.16C97.1655 73.5733 96.9122 72.7733 96.9122 71.76C96.9122 69.8933 97.6322 68.0533 99.0722 66.24C100.512 64.4 102.352 62.9067 104.592 61.76C106.832 60.6133 109.072 60.0267 111.312 60L111.392 61.32L109.712 61.68C107.286 62.2133 105.139 63.28 103.272 64.88C101.432 66.48 100.512 68.08 100.512 69.68C100.512 71.2533 101.152 72.04 102.432 72.04C103.632 72.04 105.112 71.2 106.872 69.52C108.632 67.84 110.099 65.8667 111.272 63.6L112.952 64.6C111.299 67.9333 110.472 70.0533 110.472 70.96C110.472 71.3333 110.592 71.6533 110.832 71.92C111.099 72.16 111.352 72.28 111.592 72.28C111.859 72.28 112.032 72.2667 112.112 72.24C112.192 72.2133 112.272 72.1867 112.352 72.16C112.432 72.1067 112.526 72.04 112.632 71.96C112.766 71.88 112.872 71.8 112.952 71.72C113.059 71.64 113.219 71.52 113.432 71.36C113.646 71.2 113.819 71.0667 113.952 70.96ZM122.322 67.64C124.349 64.6 126.109 62.5333 127.602 61.44C129.096 60.32 130.402 59.76 131.522 59.76C132.642 59.76 133.509 60.1067 134.122 60.8C134.736 61.4667 135.042 62.32 135.042 63.36C135.042 66.24 134.002 68.9067 131.922 71.36C129.869 73.7867 127.549 75 124.962 75C123.816 75 122.909 74.8 122.242 74.4L123.202 72.68C124.616 72.8667 125.482 72.96 125.802 72.96C127.242 72.96 128.589 72.12 129.842 70.44C131.096 68.76 131.722 67.04 131.722 65.28C131.722 64.6133 131.522 64.0667 131.122 63.64C130.749 63.1867 130.256 62.96 129.642 62.96C128.176 62.96 126.509 64.2533 124.642 66.84C122.802 69.4267 121.069 72.6267 119.442 76.44C117.842 80.28 116.442 84.36 115.242 88.68L112.842 87.84C112.896 87.68 113.402 86.2933 114.362 83.68C115.296 81.0933 116.216 78.52 117.122 75.96C119.629 68.92 120.882 65.0667 120.882 64.4C120.882 62.6933 120.536 61.1467 119.842 59.76L121.842 58.76C122.669 59.9067 123.082 61.12 123.082 62.4C123.082 63.6533 122.829 65.4 122.322 67.64ZM154.108 70.96L155.028 71.64C154.655 72.44 153.962 73.2 152.948 73.92C151.962 74.64 151.055 75 150.228 75C148.655 75 147.868 74.1733 147.868 72.52C147.868 71.7467 148.068 70.8267 148.468 69.76L146.988 71.28C145.548 72.7467 144.295 73.7333 143.228 74.24C142.188 74.7467 141.162 75 140.148 75C139.135 75 138.362 74.72 137.828 74.16C137.322 73.5733 137.068 72.7733 137.068 71.76C137.068 69.8933 137.788 68.0533 139.228 66.24C140.668 64.4 142.508 62.9067 144.748 61.76C146.988 60.6133 149.228 60.0267 151.468 60L151.548 61.32L149.868 61.68C147.442 62.2133 145.295 63.28 143.428 64.88C141.588 66.48 140.668 68.08 140.668 69.68C140.668 71.2533 141.308 72.04 142.588 72.04C143.788 72.04 145.268 71.2 147.028 69.52C148.788 67.84 150.255 65.8667 151.428 63.6L153.108 64.6C151.455 67.9333 150.628 70.0533 150.628 70.96C150.628 71.3333 150.748 71.6533 150.988 71.92C151.255 72.16 151.508 72.28 151.748 72.28C152.015 72.28 152.188 72.2667 152.268 72.24C152.348 72.2133 152.428 72.1867 152.508 72.16C152.588 72.1067 152.682 72.04 152.788 71.96C152.922 71.88 153.028 71.8 153.108 71.72C153.215 71.64 153.375 71.52 153.588 71.36C153.802 71.2 153.975 71.0667 154.108 70.96ZM172.639 59.44L174.199 59.8C174.172 59.9867 173.785 60.8 173.039 62.24C172.319 63.6533 171.545 65.52 170.719 67.84C169.892 70.1333 169.359 72.4533 169.119 74.8L166.559 74.6C166.559 73.1333 167.025 71.24 167.959 68.92C167.719 68.8933 167.225 68.88 166.479 68.88C165.759 68.88 164.425 69.0533 162.479 69.4C161.119 72.44 160.439 75.04 160.439 77.2L157.759 76.84C157.759 74.9467 158.465 72.6133 159.879 69.84C158.519 70.0533 157.159 70.3733 155.799 70.8L155.399 69.24C155.399 69.16 156.105 68.9333 157.519 68.56C158.959 68.1867 160.025 67.9467 160.719 67.84C162.852 62.9333 164.305 60.0933 165.079 59.32L166.799 60C166.665 60.2667 166.359 60.8667 165.879 61.8C164.679 64.12 163.865 65.9333 163.439 67.24C165.759 67 167.145 66.88 167.599 66.88C168.079 66.88 168.479 66.8933 168.799 66.92C170.665 62.6267 171.945 60.1333 172.639 59.44ZM203.091 69.8L203.931 70.6C202.411 73.32 200.664 74.68 198.691 74.68C197.891 74.68 197.264 74.4667 196.811 74.04C196.384 73.5867 196.171 73 196.171 72.28C196.171 71.5333 196.611 70.2667 197.491 68.48C198.371 66.6933 198.838 65.3333 198.891 64.4C198.918 63.9733 198.784 63.6267 198.491 63.36C198.224 63.0933 197.851 62.96 197.371 62.96C196.891 62.96 196.398 63.08 195.891 63.32C195.411 63.5333 194.931 63.8933 194.451 64.4C193.998 64.9067 193.571 65.4 193.171 65.88C192.798 66.36 192.371 67.04 191.891 67.92C191.438 68.8 191.051 69.5333 190.731 70.12C190.171 71.2133 189.371 72.8533 188.331 75.04L185.931 74.2C185.931 74.12 186.371 72.6133 187.251 69.68C188.131 66.7467 188.571 65 188.571 64.44C188.571 63.88 188.438 63.48 188.171 63.24C187.904 62.9733 187.571 62.84 187.171 62.84C185.971 62.84 184.304 64.3333 182.171 67.32C180.064 70.3067 178.718 72.8533 178.131 74.96L175.851 74.2C175.984 72.7867 176.611 70.2533 177.731 66.6C178.851 62.92 179.798 60.4133 180.571 59.08L182.371 59.72C181.544 61.56 180.971 63.12 180.651 64.4C180.331 65.6533 180.051 67 179.811 68.44C182.104 65.16 184.024 62.8667 185.571 61.56C187.118 60.2267 188.518 59.56 189.771 59.56C191.131 59.56 191.811 60.24 191.811 61.6C191.811 62.1333 191.571 63.1867 191.091 64.76C190.638 66.3333 190.278 67.5733 190.011 68.48C193.691 62.56 196.984 59.6 199.891 59.6C200.611 59.6 201.184 59.8267 201.611 60.28C202.038 60.7067 202.251 61.36 202.251 62.24C202.251 63.0933 201.744 64.52 200.731 66.52C199.744 68.52 199.251 69.7867 199.251 70.32C199.251 70.8267 199.358 71.2 199.571 71.44C199.784 71.68 200.051 71.8 200.371 71.8C201.064 71.8 201.971 71.1333 203.091 69.8Z" fill="url(#paint11_linear)"/>
<path d="M53.6853 32.1345C49.4502 33.1933 53.5843 54.9402 54.9078 65.0868C55.7902 58.4695 55.2739 43.5164 56.3327 41.3989C57.3914 39.2813 58.9796 43.1634 58.9796 45.3691C60.7442 42.7222 62.95 38.7519 62.95 44.0458C62.95 49.3397 56.6726 61.5576 54.908 66.4103C56.2315 63.3222 62.1559 55.163 64.2735 51.9866C66.9204 48.0162 70.8909 37.4283 68.2439 34.7814C66.1264 32.6638 61.6266 36.546 60.3031 38.7518C60.303 36.546 57.9205 31.0758 53.6853 32.1345Z" fill="#695FBD"/>
<path d="M53.6853 32.1345C49.4502 33.1933 53.5843 54.9402 54.9078 65.0868C55.7902 58.4695 55.2739 43.5164 56.3327 41.3989C57.3914 39.2813 58.9796 43.1634 58.9796 45.3691C60.7442 42.7222 62.95 38.7519 62.95 44.0458C62.95 49.3397 56.6726 61.5576 54.908 66.4103C56.2315 63.3222 62.1559 55.163 64.2735 51.9866C66.9204 48.0162 70.8909 37.4283 68.2439 34.7814C66.1264 32.6638 61.6266 36.546 60.3031 38.7518C60.303 36.546 57.9205 31.0758 53.6853 32.1345Z" fill="url(#paint12_linear)"/>
<path d="M47.8541 88.9091C48.2953 86.2622 48.6482 79.1154 46.5307 71.704C43.8837 62.4397 42.5603 62.4397 41.2368 58.4693C39.9133 54.4989 35.9429 47.8815 37.2664 45.2345C38.5898 42.5876 45.2071 54.4989 45.2071 55.8223C45.2071 57.1458 45.2072 47.8816 46.5307 50.5285C47.8541 53.1755 47.854 55.8223 50.501 58.4693C52.6185 60.5869 54.0302 69.9394 54.4714 74.351C55.7949 72.1452 58.9712 66.9396 61.0887 63.7632C63.7357 59.7928 65.0592 58.4693 65.0592 59.7928C65.0592 60.8516 64.1769 62.8809 63.7357 63.7632C65.0592 63.3221 67.9708 61.381 69.0296 57.1459C70.3531 51.852 73 53.1755 73 54.4989C73 55.8223 70.3531 62.4398 70.3531 65.0867C70.3531 67.7336 62.4122 75.6746 62.4122 82.2918C62.4122 86.9908 63.1074 88.5616 63.5721 88.8553C63.6267 88.8731 63.6812 88.8911 63.7357 88.9092C63.6861 88.9092 63.631 88.8925 63.5721 88.8553C58.4636 87.1913 52.9541 87.2092 47.8541 88.9091Z" fill="#695FBD"/>
<path d="M47.8541 88.9091C48.2953 86.2622 48.6482 79.1154 46.5307 71.704C43.8837 62.4397 42.5603 62.4397 41.2368 58.4693C39.9133 54.4989 35.9429 47.8815 37.2664 45.2345C38.5898 42.5876 45.2071 54.4989 45.2071 55.8223C45.2071 57.1458 45.2072 47.8816 46.5307 50.5285C47.8541 53.1755 47.854 55.8223 50.501 58.4693C52.6185 60.5869 54.0302 69.9394 54.4714 74.351C55.7949 72.1452 58.9712 66.9396 61.0887 63.7632C63.7357 59.7928 65.0592 58.4693 65.0592 59.7928C65.0592 60.8516 64.1769 62.8809 63.7357 63.7632C65.0592 63.3221 67.9708 61.381 69.0296 57.1459C70.3531 51.852 73 53.1755 73 54.4989C73 55.8223 70.3531 62.4398 70.3531 65.0867C70.3531 67.7336 62.4122 75.6746 62.4122 82.2918C62.4122 86.9908 63.1074 88.5616 63.5721 88.8553C63.6267 88.8731 63.6812 88.8911 63.7357 88.9092C63.6861 88.9092 63.631 88.8925 63.5721 88.8553C58.4636 87.1913 52.9541 87.2092 47.8541 88.9091Z" fill="url(#paint13_linear)"/>
</g>
<defs>
<filter id="filter0_dd" x="19" y="5" width="204" height="139" filterUnits="userSpaceOnUse" color-interpolation-filters="sRGB">
<feFlood flood-opacity="0" result="BackgroundImageFix"/>
<feColorMatrix in="SourceAlpha" type="matrix" values="0 0 0 0 0 0 0 0 0 0 0 0 0 0 0 0 0 0 127 0" result="hardAlpha"/>
<feOffset dy="3"/>
<feGaussianBlur stdDeviation="5.5"/>
<feComposite in2="hardAlpha" operator="out"/>
<feColorMatrix type="matrix" values="0 0 0 0 0 0 0 0 0 0 0 0 0 0 0 0 0 0 0.1 0"/>
<feBlend mode="normal" in2="BackgroundImageFix" result="effect1_dropShadow"/>
<feColorMatrix in="SourceAlpha" type="matrix" values="0 0 0 0 0 0 0 0 0 0 0 0 0 0 0 0 0 0 127 0" result="hardAlpha"/>
<feOffset dy="3"/>
<feGaussianBlur stdDeviation="5.5"/>
<feComposite in2="hardAlpha" operator="out"/>
<feColorMatrix type="matrix" values="0 0 0 0 0 0 0 0 0 0 0 0 0 0 0 0 0 0 0.1 0"/>
<feBlend mode="normal" in2="effect1_dropShadow" result="effect2_dropShadow"/>
<feBlend mode="normal" in="SourceGraphic" in2="effect2_dropShadow" result="shape"/>
</filter>
<filter id="filter1_dd" x="5" y="5" width="231" height="127" filterUnits="userSpaceOnUse" color-interpolation-filters="sRGB">
<feFlood flood-opacity="0" result="BackgroundImageFix"/>
<feColorMatrix in="SourceAlpha" type="matrix" values="0 0 0 0 0 0 0 0 0 0 0 0 0 0 0 0 0 0 127 0" result="hardAlpha"/>
<feOffset dy="3"/>
<feGaussianBlur stdDeviation="5.5"/>
<feComposite in2="hardAlpha" operator="out"/>
<feColorMatrix type="matrix" values="0 0 0 0 0 0 0 0 0 0 0 0 0 0 0 0 0 0 0.1 0"/>
<feBlend mode="normal" in2="BackgroundImageFix" result="effect1_dropShadow"/>
<feColorMatrix in="SourceAlpha" type="matrix" values="0 0 0 0 0 0 0 0 0 0 0 0 0 0 0 0 0 0 127 0" result="hardAlpha"/>
<feOffset dy="3"/>
<feGaussianBlur stdDeviation="5.5"/>
<feComposite in2="hardAlpha" operator="out"/>
<feColorMatrix type="matrix" values="0 0 0 0 0 0 0 0 0 0 0 0 0 0 0 0 0 0 0.1 0"/>
<feBlend mode="normal" in2="effect1_dropShadow" result="effect2_dropShadow"/>
<feBlend mode="normal" in="SourceGraphic" in2="effect2_dropShadow" result="shape"/>
</filter>
<filter id="filter2_dd" x="5" y="5" width="231" height="127" filterUnits="userSpaceOnUse" color-interpolation-filters="sRGB">
<feFlood flood-opacity="0" result="BackgroundImageFix"/>
<feColorMatrix in="SourceAlpha" type="matrix" values="0 0 0 0 0 0 0 0 0 0 0 0 0 0 0 0 0 0 127 0" result="hardAlpha"/>
<feOffset dy="3"/>
<feGaussianBlur stdDeviation="5.5"/>
<feComposite in2="hardAlpha" operator="out"/>
<feColorMatrix type="matrix" values="0 0 0 0 0 0 0 0 0 0 0 0 0 0 0 0 0 0 0.1 0"/>
<feBlend mode="normal" in2="BackgroundImageFix" result="effect1_dropShadow"/>
<feColorMatrix in="SourceAlpha" type="matrix" values="0 0 0 0 0 0 0 0 0 0 0 0 0 0 0 0 0 0 127 0" result="hardAlpha"/>
<feOffset dy="3"/>
<feGaussianBlur stdDeviation="5.5"/>
<feComposite in2="hardAlpha" operator="out"/>
<feColorMatrix type="matrix" values="0 0 0 0 0 0 0 0 0 0 0 0 0 0 0 0 0 0 0.1 0"/>
<feBlend mode="normal" in2="effect1_dropShadow" result="effect2_dropShadow"/>
<feBlend mode="normal" in="SourceGraphic" in2="effect2_dropShadow" result="shape"/>
</filter>
<linearGradient id="paint0_linear" x1="152.515" y1="43.0264" x2="152.515" y2="89.0264" gradientUnits="userSpaceOnUse">
<stop stop-color="#F0E79A"/>
<stop offset="1" stop-color="#E7D003"/>
</linearGradient>
<linearGradient id="paint1_linear" x1="152.515" y1="43.0264" x2="152.515" y2="89.0264" gradientUnits="userSpaceOnUse">
<stop stop-color="#A59BED"/>
<stop offset="0.530853" stop-color="#7B6FD2"/>
<stop offset="1" stop-color="#645AB7"/>
</linearGradient>
<linearGradient id="paint2_linear" x1="58.6127" y1="74.7595" x2="58.6127" y2="45" gradientUnits="userSpaceOnUse">
<stop stop-color="#F4EA94"/>
<stop offset="1" stop-color="#E7D003"/>
</linearGradient>
<linearGradient id="paint3_linear" x1="58.6127" y1="74.7595" x2="58.6127" y2="45" gradientUnits="userSpaceOnUse">
<stop stop-color="#A59BED"/>
<stop offset="0.530853" stop-color="#7B6FD2"/>
<stop offset="1" stop-color="#645AB7"/>
</linearGradient>
<linearGradient id="paint4_linear" x1="39.1405" y1="59.9683" x2="39.1405" y2="49.6184" gradientUnits="userSpaceOnUse">
<stop stop-color="#F4EA94"/>
<stop offset="1" stop-color="#E7D003"/>
</linearGradient>
<linearGradient id="paint5_linear" x1="39.1405" y1="59.9683" x2="39.1405" y2="49.6184" gradientUnits="userSpaceOnUse">
<stop stop-color="#A59BED"/>
<stop offset="0.530853" stop-color="#7B6FD2"/>
<stop offset="1" stop-color="#645AB7"/>
</linearGradient>
<linearGradient id="paint6_linear" x1="77.8593" y1="59.98" x2="77.8593" y2="49.6123" gradientUnits="userSpaceOnUse">
<stop stop-color="#F4EA94"/>
<stop offset="1" stop-color="#E7D003"/>
</linearGradient>
<linearGradient id="paint7_linear" x1="77.8593" y1="59.98" x2="77.8593" y2="49.6123" gradientUnits="userSpaceOnUse">
<stop stop-color="#A59BED"/>
<stop offset="0.530853" stop-color="#7B6FD2"/>
<stop offset="1" stop-color="#645AB7"/>
</linearGradient>
<linearGradient id="paint8_linear" x1="58.5" y1="84.8325" x2="58.5" y2="51.353" gradientUnits="userSpaceOnUse">
<stop stop-color="#F4EA94"/>
<stop offset="1" stop-color="#E7D003"/>
</linearGradient>
<linearGradient id="paint9_linear" x1="58.5" y1="84.8325" x2="58.5" y2="51.353" gradientUnits="userSpaceOnUse">
<stop stop-color="#A59BED"/>
<stop offset="0.530853" stop-color="#7B6FD2"/>
<stop offset="1" stop-color="#645AB7"/>
</linearGradient>
<linearGradient id="paint10_linear" x1="142" y1="40" x2="142" y2="90" gradientUnits="userSpaceOnUse">
<stop stop-color="#F0E79A"/>
<stop offset="1" stop-color="#E7D003"/>
</linearGradient>
<linearGradient id="paint11_linear" x1="142" y1="40" x2="142" y2="90" gradientUnits="userSpaceOnUse">
<stop stop-color="#A59BED"/>
<stop offset="0.530853" stop-color="#7B6FD2"/>
<stop offset="1" stop-color="#645AB7"/>
</linearGradient>
<linearGradient id="paint12_linear" x1="60.4705" y1="32" x2="60.4705" y2="66.4103" gradientUnits="userSpaceOnUse">
<stop stop-color="#A59BED"/>
<stop offset="0.530853" stop-color="#7B6FD2"/>
<stop offset="1" stop-color="#645AB7"/>
</linearGradient>
<linearGradient id="paint13_linear" x1="55" y1="44.8521" x2="55" y2="88.9091" gradientUnits="userSpaceOnUse">
<stop stop-color="#A59BED"/>
<stop offset="0.530853" stop-color="#7B6FD2"/>
<stop offset="1" stop-color="#645AB7"/>
</linearGradient>
<clipPath id="clip0">
<rect width="249" height="142" fill="white"/>
</clipPath>
</defs>
</svg>
