<?xml version="1.0" encoding="UTF-8"?>
<svg id="SVGDoc" width="1194" height="611" xmlns="http://www.w3.org/2000/svg" version="1.1" xmlns:xlink="http://www.w3.org/1999/xlink" xmlns:avocode="https://avocode.com/" viewBox="0 0 1194 611"><defs><mask id="Mask1038" x="-1" y="-1" width="2" height="2"><rect width="1160" height="577" x="17" y="17" fill="#ffffff"></rect><path d="M1161,17c8.83656,0 16,7.16344 16,16v545c0,8.837 -7.16345,16 -16,16h-1128c-8.84,0 -16,-7.163 -16,-16v-198.252v0l48,-68.248v0l-48,-68.248v0v-210.252c0,-8.83656 7.16,-16 16,-16z" fill="#000000"></path></mask><filter id="Filter1042" width="1230" height="647" x="-18" y="-18" filterUnits="userSpaceOnUse"><feOffset dx="0" dy="0" result="FeOffset1043Out" in="SourceGraphic"></feOffset><feGaussianBlur stdDeviation="10 10" result="FeGaussianBlur1044Out" in="FeOffset1043Out"></feGaussianBlur></filter></defs><desc>Generated with Avocode.</desc><g><g><title>Subtract</title><g filter="url(#Filter1042)"><path d="M1161,17c8.83656,0 16,7.16344 16,16v545c0,8.837 -7.16345,16 -16,16h-1128c-8.84,0 -16,-7.163 -16,-16v-198.252v0l48,-68.248v0l-48,-68.248v0v-210.252c0,-8.83656 7.16,-16 16,-16z" fill="none" stroke-opacity="0.07" stroke-width="0" mask="url(&quot;#Mask1038&quot;)"></path><path d="M1161,17c8.83656,0 16,7.16344 16,16v545c0,8.837 -7.16345,16 -16,16h-1128c-8.84,0 -16,-7.163 -16,-16v-198.252v0l48,-68.248v0l-48,-68.248v0v-210.252c0,-8.83656 7.16,-16 16,-16z" fill="#000000" fill-opacity="0.07"></path></g><path d="M1161,17c8.83656,0 16,7.16344 16,16v545c0,8.837 -7.16345,16 -16,16h-1128c-8.84,0 -16,-7.163 -16,-16v-198.252v0l48,-68.248v0l-48,-68.248v0v-210.252c0,-8.83656 7.16,-16 16,-16z" fill="#ffffff" fill-opacity="1"></path></g></g></svg>